  0
SECTION
  2
HEADER
  9
$ANGBASE
  50
0.0
  9
$ANGDIR
  70
1
  9
$MEASUREMENT
  70
1
  0
ENDSEC
  0
SECTION
  2
TABLES
  0
TABLE
  2
LTYPE
  70
4
  0
LTYPE
  5
40F
  2
CONTINUOUS
  70
0
  3
Solid line
  72
65
  73
0
  40
0.0
  0
LTYPE
  5
410
  2
DASHDOT
 70
0
  3
Dash Dot ____ _ ____ _
 72
65
 73
4
 40
2.0
 49
1.25
 49
-0.25
 49
0.25
 49
-0.25
  0
LTYPE
  5
411
  2
DASHED
 70
0
  3
Dashed __ __ __ __ __
 72
65
 73
2
 40
0.75
 49
0.5
 49
-0.25
  0
LTYPE
  5
43B
  2
DOTTED
 70
0
  3
Dotted .  .  .  .
 72
65
 73
2
 40
0.2
 49
0.0
 49
-0.2
  0
ENDTAB
  0
TABLE
  2
STYLE
  70
4
  0
STYLE
  2
KICAD
  70
0
  40
0
  41
1
  42
1
  50
0
  71
0
  3
isocp.shx
  0
STYLE
  2
KICADB
  70
0
  40
0
  41
1
  42
1
  50
0
  71
0
  3
isocp.shx
  0
STYLE
  2
KICADI
  70
0
  40
0
  41
1
  42
1
  50
15
  71
0
  3
isocp.shx
  0
STYLE
  2
KICADBI
  70
0
  40
0
  41
1
  42
1
  50
15
  71
0
  3
isocp.shx
  0
ENDTAB
  0
TABLE
  2
LAYER
  70
1
  0
LAYER
  2
BLACK
  70
0
  62
7
  6
CONTINUOUS
  0
ENDTAB
  0
ENDSEC
  0
SECTION
  2
ENTITIES
0
LINE
8
BLACK
6
CONTINUOUS
10
186.562
20
-57.3586
11
186.979
21
-57.3758
0
LINE
8
BLACK
6
CONTINUOUS
10
186.979
20
-57.3758
11
187.393
21
-57.4275
0
LINE
8
BLACK
6
CONTINUOUS
10
187.393
20
-57.4275
11
187.802
21
-57.5131
0
LINE
8
BLACK
6
CONTINUOUS
10
187.802
20
-57.5131
11
188.202
21
-57.6322
0
LINE
8
BLACK
6
CONTINUOUS
10
188.202
20
-57.6322
11
188.591
21
-57.7839
0
LINE
8
BLACK
6
CONTINUOUS
10
188.591
20
-57.7839
11
188.966
21
-57.9673
0
LINE
8
BLACK
6
CONTINUOUS
10
188.966
20
-57.9673
11
189.324
21
-58.1809
0
LINE
8
BLACK
6
CONTINUOUS
10
189.324
20
-58.1809
11
189.664
21
-58.4234
0
LINE
8
BLACK
6
CONTINUOUS
10
189.664
20
-58.4234
11
189.982
21
-58.6932
0
LINE
8
BLACK
6
CONTINUOUS
10
189.982
20
-58.6932
11
190.278
21
-58.9883
0
LINE
8
BLACK
6
CONTINUOUS
10
190.278
20
-58.9883
11
190.547
21
-59.3068
0
LINE
8
BLACK
6
CONTINUOUS
10
190.547
20
-59.3068
11
190.79
21
-59.6465
0
LINE
8
BLACK
6
CONTINUOUS
10
190.79
20
-59.6465
11
191.003
21
-60.0051
0
LINE
8
BLACK
6
CONTINUOUS
10
191.003
20
-60.0051
11
191.187
21
-60.38
0
LINE
8
BLACK
6
CONTINUOUS
10
191.187
20
-60.38
11
191.338
21
-60.7689
0
LINE
8
BLACK
6
CONTINUOUS
10
191.338
20
-60.7689
11
191.458
21
-61.1689
0
LINE
8
BLACK
6
CONTINUOUS
10
191.458
20
-61.1689
11
191.543
21
-61.5774
0
LINE
8
BLACK
6
CONTINUOUS
10
191.543
20
-61.5774
11
191.595
21
-61.9916
0
LINE
8
BLACK
6
CONTINUOUS
10
191.595
20
-61.9916
11
191.612
21
-62.4086
0
LINE
8
BLACK
6
CONTINUOUS
10
191.612
20
-62.4086
11
191.612
21
-137.409
0
LINE
8
BLACK
6
CONTINUOUS
10
191.612
20
-137.409
11
191.595
21
-137.826
0
LINE
8
BLACK
6
CONTINUOUS
10
191.595
20
-137.826
11
191.543
21
-138.24
0
LINE
8
BLACK
6
CONTINUOUS
10
191.543
20
-138.24
11
191.458
21
-138.648
0
LINE
8
BLACK
6
CONTINUOUS
10
191.458
20
-138.648
11
191.338
21
-139.048
0
LINE
8
BLACK
6
CONTINUOUS
10
191.338
20
-139.048
11
191.187
21
-139.437
0
LINE
8
BLACK
6
CONTINUOUS
10
191.187
20
-139.437
11
191.003
21
-139.812
0
LINE
8
BLACK
6
CONTINUOUS
10
191.003
20
-139.812
11
190.79
21
-140.171
0
LINE
8
BLACK
6
CONTINUOUS
10
190.79
20
-140.171
11
190.547
21
-140.51
0
LINE
8
BLACK
6
CONTINUOUS
10
190.547
20
-140.51
11
190.278
21
-140.829
0
LINE
8
BLACK
6
CONTINUOUS
10
190.278
20
-140.829
11
189.982
21
-141.124
0
LINE
8
BLACK
6
CONTINUOUS
10
189.982
20
-141.124
11
189.664
21
-141.394
0
LINE
8
BLACK
6
CONTINUOUS
10
189.664
20
-141.394
11
189.324
21
-141.636
0
LINE
8
BLACK
6
CONTINUOUS
10
189.324
20
-141.636
11
188.966
21
-141.85
0
LINE
8
BLACK
6
CONTINUOUS
10
188.966
20
-141.85
11
188.591
21
-142.033
0
LINE
8
BLACK
6
CONTINUOUS
10
188.591
20
-142.033
11
188.202
21
-142.185
0
LINE
8
BLACK
6
CONTINUOUS
10
188.202
20
-142.185
11
187.802
21
-142.304
0
LINE
8
BLACK
6
CONTINUOUS
10
187.802
20
-142.304
11
187.393
21
-142.39
0
LINE
8
BLACK
6
CONTINUOUS
10
187.393
20
-142.39
11
186.979
21
-142.441
0
LINE
8
BLACK
6
CONTINUOUS
10
186.979
20
-142.441
11
186.562
21
-142.459
0
LINE
8
BLACK
6
CONTINUOUS
10
186.562
20
-142.459
11
111.562
21
-142.459
0
LINE
8
BLACK
6
CONTINUOUS
10
111.562
20
-142.459
11
111.145
21
-142.441
0
LINE
8
BLACK
6
CONTINUOUS
10
111.145
20
-142.441
11
110.731
21
-142.39
0
LINE
8
BLACK
6
CONTINUOUS
10
110.731
20
-142.39
11
110.322
21
-142.304
0
LINE
8
BLACK
6
CONTINUOUS
10
110.322
20
-142.304
11
109.922
21
-142.185
0
LINE
8
BLACK
6
CONTINUOUS
10
109.922
20
-142.185
11
109.534
21
-142.033
0
LINE
8
BLACK
6
CONTINUOUS
10
109.534
20
-142.033
11
109.159
21
-141.85
0
LINE
8
BLACK
6
CONTINUOUS
10
109.159
20
-141.85
11
108.8
21
-141.636
0
LINE
8
BLACK
6
CONTINUOUS
10
108.8
20
-141.636
11
108.46
21
-141.394
0
LINE
8
BLACK
6
CONTINUOUS
10
108.46
20
-141.394
11
108.142
21
-141.124
0
LINE
8
BLACK
6
CONTINUOUS
10
108.142
20
-141.124
11
107.847
21
-140.829
0
LINE
8
BLACK
6
CONTINUOUS
10
107.847
20
-140.829
11
107.577
21
-140.51
0
LINE
8
BLACK
6
CONTINUOUS
10
107.577
20
-140.51
11
107.334
21
-140.171
0
LINE
8
BLACK
6
CONTINUOUS
10
107.334
20
-140.171
11
107.121
21
-139.812
0
LINE
8
BLACK
6
CONTINUOUS
10
107.121
20
-139.812
11
106.937
21
-139.437
0
LINE
8
BLACK
6
CONTINUOUS
10
106.937
20
-139.437
11
106.786
21
-139.048
0
LINE
8
BLACK
6
CONTINUOUS
10
106.786
20
-139.048
11
106.667
21
-138.648
0
LINE
8
BLACK
6
CONTINUOUS
10
106.667
20
-138.648
11
106.581
21
-138.24
0
LINE
8
BLACK
6
CONTINUOUS
10
106.581
20
-138.24
11
106.529
21
-137.826
0
LINE
8
BLACK
6
CONTINUOUS
10
106.529
20
-137.826
11
106.512
21
-137.409
0
LINE
8
BLACK
6
CONTINUOUS
10
106.512
20
-137.409
11
106.512
21
-62.4086
0
LINE
8
BLACK
6
CONTINUOUS
10
106.512
20
-62.4086
11
106.529
21
-61.9916
0
LINE
8
BLACK
6
CONTINUOUS
10
106.529
20
-61.9916
11
106.581
21
-61.5774
0
LINE
8
BLACK
6
CONTINUOUS
10
106.581
20
-61.5774
11
106.667
21
-61.1689
0
LINE
8
BLACK
6
CONTINUOUS
10
106.667
20
-61.1689
11
106.786
21
-60.7689
0
LINE
8
BLACK
6
CONTINUOUS
10
106.786
20
-60.7689
11
106.937
21
-60.38
0
LINE
8
BLACK
6
CONTINUOUS
10
106.937
20
-60.38
11
107.121
21
-60.0051
0
LINE
8
BLACK
6
CONTINUOUS
10
107.121
20
-60.0051
11
107.334
21
-59.6465
0
LINE
8
BLACK
6
CONTINUOUS
10
107.334
20
-59.6465
11
107.577
21
-59.3068
0
LINE
8
BLACK
6
CONTINUOUS
10
107.577
20
-59.3068
11
107.847
21
-58.9883
0
LINE
8
BLACK
6
CONTINUOUS
10
107.847
20
-58.9883
11
108.142
21
-58.6932
0
LINE
8
BLACK
6
CONTINUOUS
10
108.142
20
-58.6932
11
108.46
21
-58.4234
0
LINE
8
BLACK
6
CONTINUOUS
10
108.46
20
-58.4234
11
108.8
21
-58.1809
0
LINE
8
BLACK
6
CONTINUOUS
10
108.8
20
-58.1809
11
109.159
21
-57.9673
0
LINE
8
BLACK
6
CONTINUOUS
10
109.159
20
-57.9673
11
109.534
21
-57.7839
0
LINE
8
BLACK
6
CONTINUOUS
10
109.534
20
-57.7839
11
109.922
21
-57.6322
0
LINE
8
BLACK
6
CONTINUOUS
10
109.922
20
-57.6322
11
110.322
21
-57.5131
0
LINE
8
BLACK
6
CONTINUOUS
10
110.322
20
-57.5131
11
110.731
21
-57.4275
0
LINE
8
BLACK
6
CONTINUOUS
10
110.731
20
-57.4275
11
111.145
21
-57.3758
0
LINE
8
BLACK
6
CONTINUOUS
10
111.145
20
-57.3758
11
111.562
21
-57.3586
0
LINE
8
BLACK
6
CONTINUOUS
10
111.562
20
-57.3586
11
186.562
21
-57.3586
0
LINE
8
BLACK
6
CONTINUOUS
10
111.562
20
-57.4586
11
111.346
21
-57.4586
0
LINE
8
BLACK
6
CONTINUOUS
10
111.346
20
-57.4586
11
110.915
21
-57.4963
0
LINE
8
BLACK
6
CONTINUOUS
10
110.915
20
-57.4963
11
110.49
21
-57.5713
0
LINE
8
BLACK
6
CONTINUOUS
10
110.49
20
-57.5713
11
110.072
21
-57.6832
0
LINE
8
BLACK
6
CONTINUOUS
10
110.072
20
-57.6832
11
109.666
21
-57.831
0
LINE
8
BLACK
6
CONTINUOUS
10
109.666
20
-57.831
11
109.274
21
-58.0137
0
LINE
8
BLACK
6
CONTINUOUS
10
109.274
20
-58.0137
11
108.9
21
-58.2298
0
LINE
8
BLACK
6
CONTINUOUS
10
108.9
20
-58.2298
11
108.546
21
-58.4778
0
LINE
8
BLACK
6
CONTINUOUS
10
108.546
20
-58.4778
11
108.215
21
-58.7556
0
LINE
8
BLACK
6
CONTINUOUS
10
108.215
20
-58.7556
11
107.909
21
-59.0612
0
LINE
8
BLACK
6
CONTINUOUS
10
107.909
20
-59.0612
11
107.631
21
-59.3924
0
LINE
8
BLACK
6
CONTINUOUS
10
107.631
20
-59.3924
11
107.383
21
-59.7464
0
LINE
8
BLACK
6
CONTINUOUS
10
107.383
20
-59.7464
11
107.167
21
-60.1208
0
LINE
8
BLACK
6
CONTINUOUS
10
107.167
20
-60.1208
11
106.985
21
-60.5125
0
LINE
8
BLACK
6
CONTINUOUS
10
106.985
20
-60.5125
11
106.837
21
-60.9187
0
LINE
8
BLACK
6
CONTINUOUS
10
106.837
20
-60.9187
11
106.725
21
-61.3362
0
LINE
8
BLACK
6
CONTINUOUS
10
106.725
20
-61.3362
11
106.65
21
-61.7619
0
LINE
8
BLACK
6
CONTINUOUS
10
106.65
20
-61.7619
11
106.612
21
-62.1925
0
LINE
8
BLACK
6
CONTINUOUS
10
106.612
20
-62.1925
11
106.612
21
-62.4086
0
LINE
8
BLACK
6
CONTINUOUS
10
106.612
20
-62.4086
11
106.612
21
-62.4086
0
LINE
8
BLACK
6
CONTINUOUS
10
106.612
20
-62.4086
11
106.612
21
-137.409
0
LINE
8
BLACK
6
CONTINUOUS
10
106.612
20
-137.409
11
106.612
21
-137.625
0
LINE
8
BLACK
6
CONTINUOUS
10
106.612
20
-137.625
11
106.65
21
-138.055
0
LINE
8
BLACK
6
CONTINUOUS
10
106.65
20
-138.055
11
106.725
21
-138.481
0
LINE
8
BLACK
6
CONTINUOUS
10
106.725
20
-138.481
11
106.837
21
-138.899
0
LINE
8
BLACK
6
CONTINUOUS
10
106.837
20
-138.899
11
106.985
21
-139.305
0
LINE
8
BLACK
6
CONTINUOUS
10
106.985
20
-139.305
11
107.167
21
-139.696
0
LINE
8
BLACK
6
CONTINUOUS
10
107.167
20
-139.696
11
107.383
21
-140.071
0
LINE
8
BLACK
6
CONTINUOUS
10
107.383
20
-140.071
11
107.631
21
-140.425
0
LINE
8
BLACK
6
CONTINUOUS
10
107.631
20
-140.425
11
107.909
21
-140.756
0
LINE
8
BLACK
6
CONTINUOUS
10
107.909
20
-140.756
11
108.215
21
-141.062
0
LINE
8
BLACK
6
CONTINUOUS
10
108.215
20
-141.062
11
108.546
21
-141.339
0
LINE
8
BLACK
6
CONTINUOUS
10
108.546
20
-141.339
11
108.9
21
-141.587
0
LINE
8
BLACK
6
CONTINUOUS
10
108.9
20
-141.587
11
109.274
21
-141.803
0
LINE
8
BLACK
6
CONTINUOUS
10
109.274
20
-141.803
11
109.666
21
-141.986
0
LINE
8
BLACK
6
CONTINUOUS
10
109.666
20
-141.986
11
110.072
21
-142.134
0
LINE
8
BLACK
6
CONTINUOUS
10
110.072
20
-142.134
11
110.49
21
-142.246
0
LINE
8
BLACK
6
CONTINUOUS
10
110.49
20
-142.246
11
110.915
21
-142.321
0
LINE
8
BLACK
6
CONTINUOUS
10
110.915
20
-142.321
11
111.346
21
-142.359
0
LINE
8
BLACK
6
CONTINUOUS
10
111.346
20
-142.359
11
111.562
21
-142.359
0
LINE
8
BLACK
6
CONTINUOUS
10
111.562
20
-142.359
11
186.562
21
-142.359
0
LINE
8
BLACK
6
CONTINUOUS
10
186.562
20
-142.359
11
186.778
21
-142.359
0
LINE
8
BLACK
6
CONTINUOUS
10
186.778
20
-142.359
11
187.209
21
-142.321
0
LINE
8
BLACK
6
CONTINUOUS
10
187.209
20
-142.321
11
187.634
21
-142.246
0
LINE
8
BLACK
6
CONTINUOUS
10
187.634
20
-142.246
11
188.052
21
-142.134
0
LINE
8
BLACK
6
CONTINUOUS
10
188.052
20
-142.134
11
188.458
21
-141.986
0
LINE
8
BLACK
6
CONTINUOUS
10
188.458
20
-141.986
11
188.85
21
-141.803
0
LINE
8
BLACK
6
CONTINUOUS
10
188.85
20
-141.803
11
189.224
21
-141.587
0
LINE
8
BLACK
6
CONTINUOUS
10
189.224
20
-141.587
11
189.578
21
-141.339
0
LINE
8
BLACK
6
CONTINUOUS
10
189.578
20
-141.339
11
189.909
21
-141.062
0
LINE
8
BLACK
6
CONTINUOUS
10
189.909
20
-141.062
11
190.215
21
-140.756
0
LINE
8
BLACK
6
CONTINUOUS
10
190.215
20
-140.756
11
190.493
21
-140.425
0
LINE
8
BLACK
6
CONTINUOUS
10
190.493
20
-140.425
11
190.741
21
-140.071
0
LINE
8
BLACK
6
CONTINUOUS
10
190.741
20
-140.071
11
190.957
21
-139.696
0
LINE
8
BLACK
6
CONTINUOUS
10
190.957
20
-139.696
11
191.14
21
-139.305
0
LINE
8
BLACK
6
CONTINUOUS
10
191.14
20
-139.305
11
191.287
21
-138.899
0
LINE
8
BLACK
6
CONTINUOUS
10
191.287
20
-138.899
11
191.399
21
-138.481
0
LINE
8
BLACK
6
CONTINUOUS
10
191.399
20
-138.481
11
191.474
21
-138.055
0
LINE
8
BLACK
6
CONTINUOUS
10
191.474
20
-138.055
11
191.512
21
-137.625
0
LINE
8
BLACK
6
CONTINUOUS
10
191.512
20
-137.625
11
191.512
21
-137.409
0
LINE
8
BLACK
6
CONTINUOUS
10
191.512
20
-137.409
11
191.512
21
-62.4086
0
LINE
8
BLACK
6
CONTINUOUS
10
191.512
20
-62.4086
11
191.512
21
-62.4086
0
LINE
8
BLACK
6
CONTINUOUS
10
191.512
20
-62.4086
11
191.512
21
-62.1925
0
LINE
8
BLACK
6
CONTINUOUS
10
191.512
20
-62.1925
11
191.474
21
-61.7619
0
LINE
8
BLACK
6
CONTINUOUS
10
191.474
20
-61.7619
11
191.399
21
-61.3362
0
LINE
8
BLACK
6
CONTINUOUS
10
191.399
20
-61.3362
11
191.287
21
-60.9187
0
LINE
8
BLACK
6
CONTINUOUS
10
191.287
20
-60.9187
11
191.14
21
-60.5125
0
LINE
8
BLACK
6
CONTINUOUS
10
191.14
20
-60.5125
11
190.957
21
-60.1208
0
LINE
8
BLACK
6
CONTINUOUS
10
190.957
20
-60.1208
11
190.741
21
-59.7464
0
LINE
8
BLACK
6
CONTINUOUS
10
190.741
20
-59.7464
11
190.493
21
-59.3924
0
LINE
8
BLACK
6
CONTINUOUS
10
190.493
20
-59.3924
11
190.215
21
-59.0612
0
LINE
8
BLACK
6
CONTINUOUS
10
190.215
20
-59.0612
11
189.909
21
-58.7556
0
LINE
8
BLACK
6
CONTINUOUS
10
189.909
20
-58.7556
11
189.578
21
-58.4778
0
LINE
8
BLACK
6
CONTINUOUS
10
189.578
20
-58.4778
11
189.224
21
-58.2298
0
LINE
8
BLACK
6
CONTINUOUS
10
189.224
20
-58.2298
11
188.85
21
-58.0137
0
LINE
8
BLACK
6
CONTINUOUS
10
188.85
20
-58.0137
11
188.458
21
-57.831
0
LINE
8
BLACK
6
CONTINUOUS
10
188.458
20
-57.831
11
188.052
21
-57.6832
0
LINE
8
BLACK
6
CONTINUOUS
10
188.052
20
-57.6832
11
187.634
21
-57.5713
0
LINE
8
BLACK
6
CONTINUOUS
10
187.634
20
-57.5713
11
187.209
21
-57.4963
0
LINE
8
BLACK
6
CONTINUOUS
10
187.209
20
-57.4963
11
186.778
21
-57.4586
0
LINE
8
BLACK
6
CONTINUOUS
10
186.778
20
-57.4586
11
186.562
21
-57.4586
0
LINE
8
BLACK
6
CONTINUOUS
10
186.562
20
-57.4586
11
111.562
21
-57.4586
  0
ENDSEC
  0
EOF
