  0
SECTION
  2
HEADER
  9
$ANGBASE
  50
0.0
  9
$ANGDIR
  70
1
  9
$MEASUREMENT
  70
1
  0
ENDSEC
  0
SECTION
  2
TABLES
  0
TABLE
  2
LTYPE
  70
4
  0
LTYPE
  5
40F
  2
CONTINUOUS
  70
0
  3
Solid line
  72
65
  73
0
  40
0.0
  0
LTYPE
  5
410
  2
DASHDOT
 70
0
  3
Dash Dot ____ _ ____ _
 72
65
 73
4
 40
2.0
 49
1.25
 49
-0.25
 49
0.25
 49
-0.25
  0
LTYPE
  5
411
  2
DASHED
 70
0
  3
Dashed __ __ __ __ __
 72
65
 73
2
 40
0.75
 49
0.5
 49
-0.25
  0
LTYPE
  5
43B
  2
DOTTED
 70
0
  3
Dotted .  .  .  .
 72
65
 73
2
 40
0.2
 49
0.0
 49
-0.2
  0
ENDTAB
  0
TABLE
  2
STYLE
  70
4
  0
STYLE
  2
KICAD
  70
0
  40
0
  41
1
  42
1
  50
0
  71
0
  3
isocp.shx
  0
STYLE
  2
KICADB
  70
0
  40
0
  41
1
  42
1
  50
0
  71
0
  3
isocp.shx
  0
STYLE
  2
KICADI
  70
0
  40
0
  41
1
  42
1
  50
15
  71
0
  3
isocp.shx
  0
STYLE
  2
KICADBI
  70
0
  40
0
  41
1
  42
1
  50
15
  71
0
  3
isocp.shx
  0
ENDTAB
  0
TABLE
  2
LAYER
  70
1
  0
LAYER
  2
BLACK
  70
0
  62
7
  6
CONTINUOUS
  0
ENDTAB
  0
ENDSEC
  0
SECTION
  2
ENTITIES
0
LINE
8
BLACK
6
CONTINUOUS
10
112.92
20
-133.229
11
113.274
21
-133.289
0
LINE
8
BLACK
6
CONTINUOUS
10
113.274
20
-133.289
11
113.619
21
-133.388
0
LINE
8
BLACK
6
CONTINUOUS
10
113.619
20
-133.388
11
113.951
21
-133.525
0
LINE
8
BLACK
6
CONTINUOUS
10
113.951
20
-133.525
11
114.265
21
-133.699
0
LINE
8
BLACK
6
CONTINUOUS
10
114.265
20
-133.699
11
114.557
21
-133.907
0
LINE
8
BLACK
6
CONTINUOUS
10
114.557
20
-133.907
11
114.825
21
-134.146
0
LINE
8
BLACK
6
CONTINUOUS
10
114.825
20
-134.146
11
115.064
21
-134.413
0
LINE
8
BLACK
6
CONTINUOUS
10
115.064
20
-134.413
11
115.272
21
-134.706
0
LINE
8
BLACK
6
CONTINUOUS
10
115.272
20
-134.706
11
115.445
21
-135.02
0
LINE
8
BLACK
6
CONTINUOUS
10
115.445
20
-135.02
11
115.583
21
-135.352
0
LINE
8
BLACK
6
CONTINUOUS
10
115.583
20
-135.352
11
115.682
21
-135.697
0
LINE
8
BLACK
6
CONTINUOUS
10
115.682
20
-135.697
11
115.742
21
-136.05
0
LINE
8
BLACK
6
CONTINUOUS
10
115.742
20
-136.05
11
115.762
21
-136.409
0
LINE
8
BLACK
6
CONTINUOUS
10
115.762
20
-136.409
11
115.742
21
-136.767
0
LINE
8
BLACK
6
CONTINUOUS
10
115.742
20
-136.767
11
115.682
21
-137.121
0
LINE
8
BLACK
6
CONTINUOUS
10
115.682
20
-137.121
11
115.583
21
-137.465
0
LINE
8
BLACK
6
CONTINUOUS
10
115.583
20
-137.465
11
115.445
21
-137.797
0
LINE
8
BLACK
6
CONTINUOUS
10
115.445
20
-137.797
11
115.272
21
-138.111
0
LINE
8
BLACK
6
CONTINUOUS
10
115.272
20
-138.111
11
115.064
21
-138.404
0
LINE
8
BLACK
6
CONTINUOUS
10
115.064
20
-138.404
11
114.825
21
-138.671
0
LINE
8
BLACK
6
CONTINUOUS
10
114.825
20
-138.671
11
114.557
21
-138.91
0
LINE
8
BLACK
6
CONTINUOUS
10
114.557
20
-138.91
11
114.265
21
-139.118
0
LINE
8
BLACK
6
CONTINUOUS
10
114.265
20
-139.118
11
113.951
21
-139.292
0
LINE
8
BLACK
6
CONTINUOUS
10
113.951
20
-139.292
11
113.619
21
-139.429
0
LINE
8
BLACK
6
CONTINUOUS
10
113.619
20
-139.429
11
113.274
21
-139.528
0
LINE
8
BLACK
6
CONTINUOUS
10
113.274
20
-139.528
11
112.92
21
-139.588
0
LINE
8
BLACK
6
CONTINUOUS
10
112.92
20
-139.588
11
112.562
21
-139.609
0
LINE
8
BLACK
6
CONTINUOUS
10
112.562
20
-139.609
11
112.204
21
-139.588
0
LINE
8
BLACK
6
CONTINUOUS
10
112.204
20
-139.588
11
111.85
21
-139.528
0
LINE
8
BLACK
6
CONTINUOUS
10
111.85
20
-139.528
11
111.505
21
-139.429
0
LINE
8
BLACK
6
CONTINUOUS
10
111.505
20
-139.429
11
111.174
21
-139.292
0
LINE
8
BLACK
6
CONTINUOUS
10
111.174
20
-139.292
11
110.86
21
-139.118
0
LINE
8
BLACK
6
CONTINUOUS
10
110.86
20
-139.118
11
110.567
21
-138.91
0
LINE
8
BLACK
6
CONTINUOUS
10
110.567
20
-138.91
11
110.299
21
-138.671
0
LINE
8
BLACK
6
CONTINUOUS
10
110.299
20
-138.671
11
110.06
21
-138.404
0
LINE
8
BLACK
6
CONTINUOUS
10
110.06
20
-138.404
11
109.853
21
-138.111
0
LINE
8
BLACK
6
CONTINUOUS
10
109.853
20
-138.111
11
109.679
21
-137.797
0
LINE
8
BLACK
6
CONTINUOUS
10
109.679
20
-137.797
11
109.542
21
-137.465
0
LINE
8
BLACK
6
CONTINUOUS
10
109.542
20
-137.465
11
109.442
21
-137.121
0
LINE
8
BLACK
6
CONTINUOUS
10
109.442
20
-137.121
11
109.382
21
-136.767
0
LINE
8
BLACK
6
CONTINUOUS
10
109.382
20
-136.767
11
109.362
21
-136.409
0
LINE
8
BLACK
6
CONTINUOUS
10
109.362
20
-136.409
11
109.382
21
-136.05
0
LINE
8
BLACK
6
CONTINUOUS
10
109.382
20
-136.05
11
109.442
21
-135.697
0
LINE
8
BLACK
6
CONTINUOUS
10
109.442
20
-135.697
11
109.542
21
-135.352
0
LINE
8
BLACK
6
CONTINUOUS
10
109.542
20
-135.352
11
109.679
21
-135.02
0
LINE
8
BLACK
6
CONTINUOUS
10
109.679
20
-135.02
11
109.853
21
-134.706
0
LINE
8
BLACK
6
CONTINUOUS
10
109.853
20
-134.706
11
110.06
21
-134.413
0
LINE
8
BLACK
6
CONTINUOUS
10
110.06
20
-134.413
11
110.299
21
-134.146
0
LINE
8
BLACK
6
CONTINUOUS
10
110.299
20
-134.146
11
110.567
21
-133.907
0
LINE
8
BLACK
6
CONTINUOUS
10
110.567
20
-133.907
11
110.86
21
-133.699
0
LINE
8
BLACK
6
CONTINUOUS
10
110.86
20
-133.699
11
111.174
21
-133.525
0
LINE
8
BLACK
6
CONTINUOUS
10
111.174
20
-133.525
11
111.505
21
-133.388
0
LINE
8
BLACK
6
CONTINUOUS
10
111.505
20
-133.388
11
111.85
21
-133.289
0
LINE
8
BLACK
6
CONTINUOUS
10
111.85
20
-133.289
11
112.204
21
-133.229
0
LINE
8
BLACK
6
CONTINUOUS
10
112.204
20
-133.229
11
112.562
21
-133.209
0
LINE
8
BLACK
6
CONTINUOUS
10
112.562
20
-133.209
11
112.92
21
-133.229
0
LINE
8
BLACK
6
CONTINUOUS
10
185.92
20
-133.229
11
186.274
21
-133.289
0
LINE
8
BLACK
6
CONTINUOUS
10
186.274
20
-133.289
11
186.619
21
-133.388
0
LINE
8
BLACK
6
CONTINUOUS
10
186.619
20
-133.388
11
186.951
21
-133.525
0
LINE
8
BLACK
6
CONTINUOUS
10
186.951
20
-133.525
11
187.265
21
-133.699
0
LINE
8
BLACK
6
CONTINUOUS
10
187.265
20
-133.699
11
187.557
21
-133.907
0
LINE
8
BLACK
6
CONTINUOUS
10
187.557
20
-133.907
11
187.825
21
-134.146
0
LINE
8
BLACK
6
CONTINUOUS
10
187.825
20
-134.146
11
188.064
21
-134.413
0
LINE
8
BLACK
6
CONTINUOUS
10
188.064
20
-134.413
11
188.272
21
-134.706
0
LINE
8
BLACK
6
CONTINUOUS
10
188.272
20
-134.706
11
188.445
21
-135.02
0
LINE
8
BLACK
6
CONTINUOUS
10
188.445
20
-135.02
11
188.583
21
-135.352
0
LINE
8
BLACK
6
CONTINUOUS
10
188.583
20
-135.352
11
188.682
21
-135.697
0
LINE
8
BLACK
6
CONTINUOUS
10
188.682
20
-135.697
11
188.742
21
-136.05
0
LINE
8
BLACK
6
CONTINUOUS
10
188.742
20
-136.05
11
188.762
21
-136.409
0
LINE
8
BLACK
6
CONTINUOUS
10
188.762
20
-136.409
11
188.742
21
-136.767
0
LINE
8
BLACK
6
CONTINUOUS
10
188.742
20
-136.767
11
188.682
21
-137.121
0
LINE
8
BLACK
6
CONTINUOUS
10
188.682
20
-137.121
11
188.583
21
-137.465
0
LINE
8
BLACK
6
CONTINUOUS
10
188.583
20
-137.465
11
188.445
21
-137.797
0
LINE
8
BLACK
6
CONTINUOUS
10
188.445
20
-137.797
11
188.272
21
-138.111
0
LINE
8
BLACK
6
CONTINUOUS
10
188.272
20
-138.111
11
188.064
21
-138.404
0
LINE
8
BLACK
6
CONTINUOUS
10
188.064
20
-138.404
11
187.825
21
-138.671
0
LINE
8
BLACK
6
CONTINUOUS
10
187.825
20
-138.671
11
187.557
21
-138.91
0
LINE
8
BLACK
6
CONTINUOUS
10
187.557
20
-138.91
11
187.265
21
-139.118
0
LINE
8
BLACK
6
CONTINUOUS
10
187.265
20
-139.118
11
186.951
21
-139.292
0
LINE
8
BLACK
6
CONTINUOUS
10
186.951
20
-139.292
11
186.619
21
-139.429
0
LINE
8
BLACK
6
CONTINUOUS
10
186.619
20
-139.429
11
186.274
21
-139.528
0
LINE
8
BLACK
6
CONTINUOUS
10
186.274
20
-139.528
11
185.92
21
-139.588
0
LINE
8
BLACK
6
CONTINUOUS
10
185.92
20
-139.588
11
185.562
21
-139.609
0
LINE
8
BLACK
6
CONTINUOUS
10
185.562
20
-139.609
11
185.204
21
-139.588
0
LINE
8
BLACK
6
CONTINUOUS
10
185.204
20
-139.588
11
184.85
21
-139.528
0
LINE
8
BLACK
6
CONTINUOUS
10
184.85
20
-139.528
11
184.505
21
-139.429
0
LINE
8
BLACK
6
CONTINUOUS
10
184.505
20
-139.429
11
184.174
21
-139.292
0
LINE
8
BLACK
6
CONTINUOUS
10
184.174
20
-139.292
11
183.86
21
-139.118
0
LINE
8
BLACK
6
CONTINUOUS
10
183.86
20
-139.118
11
183.567
21
-138.91
0
LINE
8
BLACK
6
CONTINUOUS
10
183.567
20
-138.91
11
183.299
21
-138.671
0
LINE
8
BLACK
6
CONTINUOUS
10
183.299
20
-138.671
11
183.06
21
-138.404
0
LINE
8
BLACK
6
CONTINUOUS
10
183.06
20
-138.404
11
182.853
21
-138.111
0
LINE
8
BLACK
6
CONTINUOUS
10
182.853
20
-138.111
11
182.679
21
-137.797
0
LINE
8
BLACK
6
CONTINUOUS
10
182.679
20
-137.797
11
182.542
21
-137.465
0
LINE
8
BLACK
6
CONTINUOUS
10
182.542
20
-137.465
11
182.442
21
-137.121
0
LINE
8
BLACK
6
CONTINUOUS
10
182.442
20
-137.121
11
182.382
21
-136.767
0
LINE
8
BLACK
6
CONTINUOUS
10
182.382
20
-136.767
11
182.362
21
-136.409
0
LINE
8
BLACK
6
CONTINUOUS
10
182.362
20
-136.409
11
182.382
21
-136.05
0
LINE
8
BLACK
6
CONTINUOUS
10
182.382
20
-136.05
11
182.442
21
-135.697
0
LINE
8
BLACK
6
CONTINUOUS
10
182.442
20
-135.697
11
182.542
21
-135.352
0
LINE
8
BLACK
6
CONTINUOUS
10
182.542
20
-135.352
11
182.679
21
-135.02
0
LINE
8
BLACK
6
CONTINUOUS
10
182.679
20
-135.02
11
182.853
21
-134.706
0
LINE
8
BLACK
6
CONTINUOUS
10
182.853
20
-134.706
11
183.06
21
-134.413
0
LINE
8
BLACK
6
CONTINUOUS
10
183.06
20
-134.413
11
183.299
21
-134.146
0
LINE
8
BLACK
6
CONTINUOUS
10
183.299
20
-134.146
11
183.567
21
-133.907
0
LINE
8
BLACK
6
CONTINUOUS
10
183.567
20
-133.907
11
183.86
21
-133.699
0
LINE
8
BLACK
6
CONTINUOUS
10
183.86
20
-133.699
11
184.174
21
-133.525
0
LINE
8
BLACK
6
CONTINUOUS
10
184.174
20
-133.525
11
184.505
21
-133.388
0
LINE
8
BLACK
6
CONTINUOUS
10
184.505
20
-133.388
11
184.85
21
-133.289
0
LINE
8
BLACK
6
CONTINUOUS
10
184.85
20
-133.289
11
185.204
21
-133.229
0
LINE
8
BLACK
6
CONTINUOUS
10
185.204
20
-133.229
11
185.562
21
-133.209
0
LINE
8
BLACK
6
CONTINUOUS
10
185.562
20
-133.209
11
185.92
21
-133.229
0
LINE
8
BLACK
6
CONTINUOUS
10
146.698
20
-137.804
11
144.998
21
-137.804
0
LINE
8
BLACK
6
CONTINUOUS
10
144.998
20
-137.804
11
144.998
21
-136.104
0
LINE
8
BLACK
6
CONTINUOUS
10
144.998
20
-136.104
11
146.698
21
-136.104
0
LINE
8
BLACK
6
CONTINUOUS
10
146.698
20
-136.104
11
146.698
21
-137.804
0
LINE
8
BLACK
6
CONTINUOUS
10
148.651
20
-136.145
11
148.813
21
-136.217
0
LINE
8
BLACK
6
CONTINUOUS
10
148.813
20
-136.217
11
148.957
21
-136.322
0
LINE
8
BLACK
6
CONTINUOUS
10
148.957
20
-136.322
11
149.076
21
-136.454
0
LINE
8
BLACK
6
CONTINUOUS
10
149.076
20
-136.454
11
149.165
21
-136.608
0
LINE
8
BLACK
6
CONTINUOUS
10
149.165
20
-136.608
11
149.22
21
-136.777
0
LINE
8
BLACK
6
CONTINUOUS
10
149.22
20
-136.777
11
149.238
21
-136.954
0
LINE
8
BLACK
6
CONTINUOUS
10
149.238
20
-136.954
11
149.22
21
-137.13
0
LINE
8
BLACK
6
CONTINUOUS
10
149.22
20
-137.13
11
149.165
21
-137.299
0
LINE
8
BLACK
6
CONTINUOUS
10
149.165
20
-137.299
11
149.076
21
-137.453
0
LINE
8
BLACK
6
CONTINUOUS
10
149.076
20
-137.453
11
148.957
21
-137.585
0
LINE
8
BLACK
6
CONTINUOUS
10
148.957
20
-137.585
11
148.813
21
-137.69
0
LINE
8
BLACK
6
CONTINUOUS
10
148.813
20
-137.69
11
148.651
21
-137.762
0
LINE
8
BLACK
6
CONTINUOUS
10
148.651
20
-137.762
11
148.477
21
-137.799
0
LINE
8
BLACK
6
CONTINUOUS
10
148.477
20
-137.799
11
148.299
21
-137.799
0
LINE
8
BLACK
6
CONTINUOUS
10
148.299
20
-137.799
11
148.125
21
-137.762
0
LINE
8
BLACK
6
CONTINUOUS
10
148.125
20
-137.762
11
147.963
21
-137.69
0
LINE
8
BLACK
6
CONTINUOUS
10
147.963
20
-137.69
11
147.819
21
-137.585
0
LINE
8
BLACK
6
CONTINUOUS
10
147.819
20
-137.585
11
147.7
21
-137.453
0
LINE
8
BLACK
6
CONTINUOUS
10
147.7
20
-137.453
11
147.612
21
-137.299
0
LINE
8
BLACK
6
CONTINUOUS
10
147.612
20
-137.299
11
147.557
21
-137.13
0
LINE
8
BLACK
6
CONTINUOUS
10
147.557
20
-137.13
11
147.538
21
-136.954
0
LINE
8
BLACK
6
CONTINUOUS
10
147.538
20
-136.954
11
147.557
21
-136.777
0
LINE
8
BLACK
6
CONTINUOUS
10
147.557
20
-136.777
11
147.612
21
-136.608
0
LINE
8
BLACK
6
CONTINUOUS
10
147.612
20
-136.608
11
147.7
21
-136.454
0
LINE
8
BLACK
6
CONTINUOUS
10
147.7
20
-136.454
11
147.819
21
-136.322
0
LINE
8
BLACK
6
CONTINUOUS
10
147.819
20
-136.322
11
147.963
21
-136.217
0
LINE
8
BLACK
6
CONTINUOUS
10
147.963
20
-136.217
11
148.125
21
-136.145
0
LINE
8
BLACK
6
CONTINUOUS
10
148.125
20
-136.145
11
148.299
21
-136.108
0
LINE
8
BLACK
6
CONTINUOUS
10
148.299
20
-136.108
11
148.477
21
-136.108
0
LINE
8
BLACK
6
CONTINUOUS
10
148.477
20
-136.108
11
148.651
21
-136.145
0
LINE
8
BLACK
6
CONTINUOUS
10
151.191
20
-136.145
11
151.353
21
-136.217
0
LINE
8
BLACK
6
CONTINUOUS
10
151.353
20
-136.217
11
151.497
21
-136.322
0
LINE
8
BLACK
6
CONTINUOUS
10
151.497
20
-136.322
11
151.616
21
-136.454
0
LINE
8
BLACK
6
CONTINUOUS
10
151.616
20
-136.454
11
151.705
21
-136.608
0
LINE
8
BLACK
6
CONTINUOUS
10
151.705
20
-136.608
11
151.76
21
-136.777
0
LINE
8
BLACK
6
CONTINUOUS
10
151.76
20
-136.777
11
151.778
21
-136.954
0
LINE
8
BLACK
6
CONTINUOUS
10
151.778
20
-136.954
11
151.76
21
-137.13
0
LINE
8
BLACK
6
CONTINUOUS
10
151.76
20
-137.13
11
151.705
21
-137.299
0
LINE
8
BLACK
6
CONTINUOUS
10
151.705
20
-137.299
11
151.616
21
-137.453
0
LINE
8
BLACK
6
CONTINUOUS
10
151.616
20
-137.453
11
151.497
21
-137.585
0
LINE
8
BLACK
6
CONTINUOUS
10
151.497
20
-137.585
11
151.353
21
-137.69
0
LINE
8
BLACK
6
CONTINUOUS
10
151.353
20
-137.69
11
151.191
21
-137.762
0
LINE
8
BLACK
6
CONTINUOUS
10
151.191
20
-137.762
11
151.017
21
-137.799
0
LINE
8
BLACK
6
CONTINUOUS
10
151.017
20
-137.799
11
150.839
21
-137.799
0
LINE
8
BLACK
6
CONTINUOUS
10
150.839
20
-137.799
11
150.665
21
-137.762
0
LINE
8
BLACK
6
CONTINUOUS
10
150.665
20
-137.762
11
150.503
21
-137.69
0
LINE
8
BLACK
6
CONTINUOUS
10
150.503
20
-137.69
11
150.359
21
-137.585
0
LINE
8
BLACK
6
CONTINUOUS
10
150.359
20
-137.585
11
150.24
21
-137.453
0
LINE
8
BLACK
6
CONTINUOUS
10
150.24
20
-137.453
11
150.152
21
-137.299
0
LINE
8
BLACK
6
CONTINUOUS
10
150.152
20
-137.299
11
150.097
21
-137.13
0
LINE
8
BLACK
6
CONTINUOUS
10
150.097
20
-137.13
11
150.078
21
-136.954
0
LINE
8
BLACK
6
CONTINUOUS
10
150.078
20
-136.954
11
150.097
21
-136.777
0
LINE
8
BLACK
6
CONTINUOUS
10
150.097
20
-136.777
11
150.152
21
-136.608
0
LINE
8
BLACK
6
CONTINUOUS
10
150.152
20
-136.608
11
150.24
21
-136.454
0
LINE
8
BLACK
6
CONTINUOUS
10
150.24
20
-136.454
11
150.359
21
-136.322
0
LINE
8
BLACK
6
CONTINUOUS
10
150.359
20
-136.322
11
150.503
21
-136.217
0
LINE
8
BLACK
6
CONTINUOUS
10
150.503
20
-136.217
11
150.665
21
-136.145
0
LINE
8
BLACK
6
CONTINUOUS
10
150.665
20
-136.145
11
150.839
21
-136.108
0
LINE
8
BLACK
6
CONTINUOUS
10
150.839
20
-136.108
11
151.017
21
-136.108
0
LINE
8
BLACK
6
CONTINUOUS
10
151.017
20
-136.108
11
151.191
21
-136.145
0
LINE
8
BLACK
6
CONTINUOUS
10
154.386
20
-137.379
11
153.536
21
-137.379
0
LINE
8
BLACK
6
CONTINUOUS
10
153.536
20
-137.379
11
153.536
21
-136.529
0
LINE
8
BLACK
6
CONTINUOUS
10
153.536
20
-136.529
11
154.386
21
-136.529
0
LINE
8
BLACK
6
CONTINUOUS
10
154.386
20
-136.529
11
154.386
21
-137.379
0
LINE
8
BLACK
6
CONTINUOUS
10
155.092
20
-136.549
11
155.211
21
-136.61
0
LINE
8
BLACK
6
CONTINUOUS
10
155.211
20
-136.61
11
155.305
21
-136.704
0
LINE
8
BLACK
6
CONTINUOUS
10
155.305
20
-136.704
11
155.365
21
-136.822
0
LINE
8
BLACK
6
CONTINUOUS
10
155.365
20
-136.822
11
155.386
21
-136.954
0
LINE
8
BLACK
6
CONTINUOUS
10
155.386
20
-136.954
11
155.365
21
-137.085
0
LINE
8
BLACK
6
CONTINUOUS
10
155.365
20
-137.085
11
155.305
21
-137.203
0
LINE
8
BLACK
6
CONTINUOUS
10
155.305
20
-137.203
11
155.211
21
-137.297
0
LINE
8
BLACK
6
CONTINUOUS
10
155.211
20
-137.297
11
155.092
21
-137.358
0
LINE
8
BLACK
6
CONTINUOUS
10
155.092
20
-137.358
11
154.961
21
-137.379
0
LINE
8
BLACK
6
CONTINUOUS
10
154.961
20
-137.379
11
154.83
21
-137.358
0
LINE
8
BLACK
6
CONTINUOUS
10
154.83
20
-137.358
11
154.711
21
-137.297
0
LINE
8
BLACK
6
CONTINUOUS
10
154.711
20
-137.297
11
154.617
21
-137.203
0
LINE
8
BLACK
6
CONTINUOUS
10
154.617
20
-137.203
11
154.557
21
-137.085
0
LINE
8
BLACK
6
CONTINUOUS
10
154.557
20
-137.085
11
154.536
21
-136.954
0
LINE
8
BLACK
6
CONTINUOUS
10
154.536
20
-136.954
11
154.557
21
-136.822
0
LINE
8
BLACK
6
CONTINUOUS
10
154.557
20
-136.822
11
154.617
21
-136.704
0
LINE
8
BLACK
6
CONTINUOUS
10
154.617
20
-136.704
11
154.711
21
-136.61
0
LINE
8
BLACK
6
CONTINUOUS
10
154.711
20
-136.61
11
154.83
21
-136.549
0
LINE
8
BLACK
6
CONTINUOUS
10
154.83
20
-136.549
11
154.961
21
-136.529
0
LINE
8
BLACK
6
CONTINUOUS
10
154.961
20
-136.529
11
155.092
21
-136.549
0
LINE
8
BLACK
6
CONTINUOUS
10
173.876
20
-132.51
11
172.176
21
-132.51
0
LINE
8
BLACK
6
CONTINUOUS
10
172.176
20
-132.51
11
172.176
21
-130.81
0
LINE
8
BLACK
6
CONTINUOUS
10
172.176
20
-130.81
11
173.876
21
-130.81
0
LINE
8
BLACK
6
CONTINUOUS
10
173.876
20
-130.81
11
173.876
21
-132.51
0
LINE
8
BLACK
6
CONTINUOUS
10
170.749
20
-130.851
11
170.911
21
-130.923
0
LINE
8
BLACK
6
CONTINUOUS
10
170.911
20
-130.923
11
171.055
21
-131.028
0
LINE
8
BLACK
6
CONTINUOUS
10
171.055
20
-131.028
11
171.174
21
-131.16
0
LINE
8
BLACK
6
CONTINUOUS
10
171.174
20
-131.16
11
171.263
21
-131.314
0
LINE
8
BLACK
6
CONTINUOUS
10
171.263
20
-131.314
11
171.318
21
-131.483
0
LINE
8
BLACK
6
CONTINUOUS
10
171.318
20
-131.483
11
171.336
21
-131.66
0
LINE
8
BLACK
6
CONTINUOUS
10
171.336
20
-131.66
11
171.318
21
-131.836
0
LINE
8
BLACK
6
CONTINUOUS
10
171.318
20
-131.836
11
171.263
21
-132.005
0
LINE
8
BLACK
6
CONTINUOUS
10
171.263
20
-132.005
11
171.174
21
-132.159
0
LINE
8
BLACK
6
CONTINUOUS
10
171.174
20
-132.159
11
171.055
21
-132.291
0
LINE
8
BLACK
6
CONTINUOUS
10
171.055
20
-132.291
11
170.911
21
-132.396
0
LINE
8
BLACK
6
CONTINUOUS
10
170.911
20
-132.396
11
170.749
21
-132.468
0
LINE
8
BLACK
6
CONTINUOUS
10
170.749
20
-132.468
11
170.575
21
-132.505
0
LINE
8
BLACK
6
CONTINUOUS
10
170.575
20
-132.505
11
170.397
21
-132.505
0
LINE
8
BLACK
6
CONTINUOUS
10
170.397
20
-132.505
11
170.223
21
-132.468
0
LINE
8
BLACK
6
CONTINUOUS
10
170.223
20
-132.468
11
170.061
21
-132.396
0
LINE
8
BLACK
6
CONTINUOUS
10
170.061
20
-132.396
11
169.917
21
-132.291
0
LINE
8
BLACK
6
CONTINUOUS
10
169.917
20
-132.291
11
169.798
21
-132.159
0
LINE
8
BLACK
6
CONTINUOUS
10
169.798
20
-132.159
11
169.71
21
-132.005
0
LINE
8
BLACK
6
CONTINUOUS
10
169.71
20
-132.005
11
169.655
21
-131.836
0
LINE
8
BLACK
6
CONTINUOUS
10
169.655
20
-131.836
11
169.636
21
-131.66
0
LINE
8
BLACK
6
CONTINUOUS
10
169.636
20
-131.66
11
169.655
21
-131.483
0
LINE
8
BLACK
6
CONTINUOUS
10
169.655
20
-131.483
11
169.71
21
-131.314
0
LINE
8
BLACK
6
CONTINUOUS
10
169.71
20
-131.314
11
169.798
21
-131.16
0
LINE
8
BLACK
6
CONTINUOUS
10
169.798
20
-131.16
11
169.917
21
-131.028
0
LINE
8
BLACK
6
CONTINUOUS
10
169.917
20
-131.028
11
170.061
21
-130.923
0
LINE
8
BLACK
6
CONTINUOUS
10
170.061
20
-130.923
11
170.223
21
-130.851
0
LINE
8
BLACK
6
CONTINUOUS
10
170.223
20
-130.851
11
170.397
21
-130.814
0
LINE
8
BLACK
6
CONTINUOUS
10
170.397
20
-130.814
11
170.575
21
-130.814
0
LINE
8
BLACK
6
CONTINUOUS
10
170.575
20
-130.814
11
170.749
21
-130.851
0
LINE
8
BLACK
6
CONTINUOUS
10
170.749
20
-128.311
11
170.911
21
-128.383
0
LINE
8
BLACK
6
CONTINUOUS
10
170.911
20
-128.383
11
171.055
21
-128.488
0
LINE
8
BLACK
6
CONTINUOUS
10
171.055
20
-128.488
11
171.174
21
-128.62
0
LINE
8
BLACK
6
CONTINUOUS
10
171.174
20
-128.62
11
171.263
21
-128.774
0
LINE
8
BLACK
6
CONTINUOUS
10
171.263
20
-128.774
11
171.318
21
-128.943
0
LINE
8
BLACK
6
CONTINUOUS
10
171.318
20
-128.943
11
171.336
21
-129.12
0
LINE
8
BLACK
6
CONTINUOUS
10
171.336
20
-129.12
11
171.318
21
-129.296
0
LINE
8
BLACK
6
CONTINUOUS
10
171.318
20
-129.296
11
171.263
21
-129.465
0
LINE
8
BLACK
6
CONTINUOUS
10
171.263
20
-129.465
11
171.174
21
-129.619
0
LINE
8
BLACK
6
CONTINUOUS
10
171.174
20
-129.619
11
171.055
21
-129.751
0
LINE
8
BLACK
6
CONTINUOUS
10
171.055
20
-129.751
11
170.911
21
-129.856
0
LINE
8
BLACK
6
CONTINUOUS
10
170.911
20
-129.856
11
170.749
21
-129.928
0
LINE
8
BLACK
6
CONTINUOUS
10
170.749
20
-129.928
11
170.575
21
-129.965
0
LINE
8
BLACK
6
CONTINUOUS
10
170.575
20
-129.965
11
170.397
21
-129.965
0
LINE
8
BLACK
6
CONTINUOUS
10
170.397
20
-129.965
11
170.223
21
-129.928
0
LINE
8
BLACK
6
CONTINUOUS
10
170.223
20
-129.928
11
170.061
21
-129.856
0
LINE
8
BLACK
6
CONTINUOUS
10
170.061
20
-129.856
11
169.917
21
-129.751
0
LINE
8
BLACK
6
CONTINUOUS
10
169.917
20
-129.751
11
169.798
21
-129.619
0
LINE
8
BLACK
6
CONTINUOUS
10
169.798
20
-129.619
11
169.71
21
-129.465
0
LINE
8
BLACK
6
CONTINUOUS
10
169.71
20
-129.465
11
169.655
21
-129.296
0
LINE
8
BLACK
6
CONTINUOUS
10
169.655
20
-129.296
11
169.636
21
-129.12
0
LINE
8
BLACK
6
CONTINUOUS
10
169.636
20
-129.12
11
169.655
21
-128.943
0
LINE
8
BLACK
6
CONTINUOUS
10
169.655
20
-128.943
11
169.71
21
-128.774
0
LINE
8
BLACK
6
CONTINUOUS
10
169.71
20
-128.774
11
169.798
21
-128.62
0
LINE
8
BLACK
6
CONTINUOUS
10
169.798
20
-128.62
11
169.917
21
-128.488
0
LINE
8
BLACK
6
CONTINUOUS
10
169.917
20
-128.488
11
170.061
21
-128.383
0
LINE
8
BLACK
6
CONTINUOUS
10
170.061
20
-128.383
11
170.223
21
-128.311
0
LINE
8
BLACK
6
CONTINUOUS
10
170.223
20
-128.311
11
170.397
21
-128.274
0
LINE
8
BLACK
6
CONTINUOUS
10
170.397
20
-128.274
11
170.575
21
-128.274
0
LINE
8
BLACK
6
CONTINUOUS
10
170.575
20
-128.274
11
170.749
21
-128.311
0
LINE
8
BLACK
6
CONTINUOUS
10
173.289
20
-128.311
11
173.451
21
-128.383
0
LINE
8
BLACK
6
CONTINUOUS
10
173.451
20
-128.383
11
173.595
21
-128.488
0
LINE
8
BLACK
6
CONTINUOUS
10
173.595
20
-128.488
11
173.714
21
-128.62
0
LINE
8
BLACK
6
CONTINUOUS
10
173.714
20
-128.62
11
173.803
21
-128.774
0
LINE
8
BLACK
6
CONTINUOUS
10
173.803
20
-128.774
11
173.858
21
-128.943
0
LINE
8
BLACK
6
CONTINUOUS
10
173.858
20
-128.943
11
173.876
21
-129.12
0
LINE
8
BLACK
6
CONTINUOUS
10
173.876
20
-129.12
11
173.858
21
-129.296
0
LINE
8
BLACK
6
CONTINUOUS
10
173.858
20
-129.296
11
173.803
21
-129.465
0
LINE
8
BLACK
6
CONTINUOUS
10
173.803
20
-129.465
11
173.714
21
-129.619
0
LINE
8
BLACK
6
CONTINUOUS
10
173.714
20
-129.619
11
173.595
21
-129.751
0
LINE
8
BLACK
6
CONTINUOUS
10
173.595
20
-129.751
11
173.451
21
-129.856
0
LINE
8
BLACK
6
CONTINUOUS
10
173.451
20
-129.856
11
173.289
21
-129.928
0
LINE
8
BLACK
6
CONTINUOUS
10
173.289
20
-129.928
11
173.115
21
-129.965
0
LINE
8
BLACK
6
CONTINUOUS
10
173.115
20
-129.965
11
172.937
21
-129.965
0
LINE
8
BLACK
6
CONTINUOUS
10
172.937
20
-129.965
11
172.763
21
-129.928
0
LINE
8
BLACK
6
CONTINUOUS
10
172.763
20
-129.928
11
172.601
21
-129.856
0
LINE
8
BLACK
6
CONTINUOUS
10
172.601
20
-129.856
11
172.457
21
-129.751
0
LINE
8
BLACK
6
CONTINUOUS
10
172.457
20
-129.751
11
172.338
21
-129.619
0
LINE
8
BLACK
6
CONTINUOUS
10
172.338
20
-129.619
11
172.25
21
-129.465
0
LINE
8
BLACK
6
CONTINUOUS
10
172.25
20
-129.465
11
172.195
21
-129.296
0
LINE
8
BLACK
6
CONTINUOUS
10
172.195
20
-129.296
11
172.176
21
-129.12
0
LINE
8
BLACK
6
CONTINUOUS
10
172.176
20
-129.12
11
172.195
21
-128.943
0
LINE
8
BLACK
6
CONTINUOUS
10
172.195
20
-128.943
11
172.25
21
-128.774
0
LINE
8
BLACK
6
CONTINUOUS
10
172.25
20
-128.774
11
172.338
21
-128.62
0
LINE
8
BLACK
6
CONTINUOUS
10
172.338
20
-128.62
11
172.457
21
-128.488
0
LINE
8
BLACK
6
CONTINUOUS
10
172.457
20
-128.488
11
172.601
21
-128.383
0
LINE
8
BLACK
6
CONTINUOUS
10
172.601
20
-128.383
11
172.763
21
-128.311
0
LINE
8
BLACK
6
CONTINUOUS
10
172.763
20
-128.311
11
172.937
21
-128.274
0
LINE
8
BLACK
6
CONTINUOUS
10
172.937
20
-128.274
11
173.115
21
-128.274
0
LINE
8
BLACK
6
CONTINUOUS
10
173.115
20
-128.274
11
173.289
21
-128.311
0
LINE
8
BLACK
6
CONTINUOUS
10
113.913
20
-126.312
11
114.058
21
-126.372
0
LINE
8
BLACK
6
CONTINUOUS
10
114.058
20
-126.372
11
114.182
21
-126.467
0
LINE
8
BLACK
6
CONTINUOUS
10
114.182
20
-126.467
11
114.278
21
-126.592
0
LINE
8
BLACK
6
CONTINUOUS
10
114.278
20
-126.592
11
114.338
21
-126.736
0
LINE
8
BLACK
6
CONTINUOUS
10
114.338
20
-126.736
11
114.358
21
-126.892
0
LINE
8
BLACK
6
CONTINUOUS
10
114.358
20
-126.892
11
114.338
21
-127.047
0
LINE
8
BLACK
6
CONTINUOUS
10
114.338
20
-127.047
11
114.278
21
-127.192
0
LINE
8
BLACK
6
CONTINUOUS
10
114.278
20
-127.192
11
114.182
21
-127.316
0
LINE
8
BLACK
6
CONTINUOUS
10
114.182
20
-127.316
11
114.058
21
-127.411
0
LINE
8
BLACK
6
CONTINUOUS
10
114.058
20
-127.411
11
113.913
21
-127.471
0
LINE
8
BLACK
6
CONTINUOUS
10
113.913
20
-127.471
11
113.758
21
-127.492
0
LINE
8
BLACK
6
CONTINUOUS
10
113.758
20
-127.492
11
113.208
21
-127.492
0
LINE
8
BLACK
6
CONTINUOUS
10
113.208
20
-127.492
11
113.053
21
-127.471
0
LINE
8
BLACK
6
CONTINUOUS
10
113.053
20
-127.471
11
112.908
21
-127.411
0
LINE
8
BLACK
6
CONTINUOUS
10
112.908
20
-127.411
11
112.784
21
-127.316
0
LINE
8
BLACK
6
CONTINUOUS
10
112.784
20
-127.316
11
112.688
21
-127.192
0
LINE
8
BLACK
6
CONTINUOUS
10
112.688
20
-127.192
11
112.629
21
-127.047
0
LINE
8
BLACK
6
CONTINUOUS
10
112.629
20
-127.047
11
112.608
21
-126.892
0
LINE
8
BLACK
6
CONTINUOUS
10
112.608
20
-126.892
11
112.629
21
-126.736
0
LINE
8
BLACK
6
CONTINUOUS
10
112.629
20
-126.736
11
112.688
21
-126.592
0
LINE
8
BLACK
6
CONTINUOUS
10
112.688
20
-126.592
11
112.784
21
-126.467
0
LINE
8
BLACK
6
CONTINUOUS
10
112.784
20
-126.467
11
112.908
21
-126.372
0
LINE
8
BLACK
6
CONTINUOUS
10
112.908
20
-126.372
11
113.053
21
-126.312
0
LINE
8
BLACK
6
CONTINUOUS
10
113.053
20
-126.312
11
113.208
21
-126.292
0
LINE
8
BLACK
6
CONTINUOUS
10
113.208
20
-126.292
11
113.758
21
-126.292
0
LINE
8
BLACK
6
CONTINUOUS
10
113.758
20
-126.292
11
113.913
21
-126.312
0
LINE
8
BLACK
6
CONTINUOUS
10
114.204
20
-124.311
11
114.285
21
-124.365
0
LINE
8
BLACK
6
CONTINUOUS
10
114.285
20
-124.365
11
114.339
21
-124.446
0
LINE
8
BLACK
6
CONTINUOUS
10
114.339
20
-124.446
11
114.358
21
-124.542
0
LINE
8
BLACK
6
CONTINUOUS
10
114.358
20
-124.542
11
114.358
21
-125.242
0
LINE
8
BLACK
6
CONTINUOUS
10
114.358
20
-125.242
11
114.339
21
-125.337
0
LINE
8
BLACK
6
CONTINUOUS
10
114.339
20
-125.337
11
114.285
21
-125.418
0
LINE
8
BLACK
6
CONTINUOUS
10
114.285
20
-125.418
11
114.204
21
-125.473
0
LINE
8
BLACK
6
CONTINUOUS
10
114.204
20
-125.473
11
114.108
21
-125.492
0
LINE
8
BLACK
6
CONTINUOUS
10
114.108
20
-125.492
11
112.858
21
-125.492
0
LINE
8
BLACK
6
CONTINUOUS
10
112.858
20
-125.492
11
112.762
21
-125.473
0
LINE
8
BLACK
6
CONTINUOUS
10
112.762
20
-125.473
11
112.681
21
-125.418
0
LINE
8
BLACK
6
CONTINUOUS
10
112.681
20
-125.418
11
112.627
21
-125.337
0
LINE
8
BLACK
6
CONTINUOUS
10
112.627
20
-125.337
11
112.608
21
-125.242
0
LINE
8
BLACK
6
CONTINUOUS
10
112.608
20
-125.242
11
112.608
21
-124.542
0
LINE
8
BLACK
6
CONTINUOUS
10
112.608
20
-124.542
11
112.627
21
-124.446
0
LINE
8
BLACK
6
CONTINUOUS
10
112.627
20
-124.446
11
112.681
21
-124.365
0
LINE
8
BLACK
6
CONTINUOUS
10
112.681
20
-124.365
11
112.762
21
-124.311
0
LINE
8
BLACK
6
CONTINUOUS
10
112.762
20
-124.311
11
112.858
21
-124.292
0
LINE
8
BLACK
6
CONTINUOUS
10
112.858
20
-124.292
11
114.108
21
-124.292
0
LINE
8
BLACK
6
CONTINUOUS
10
114.108
20
-124.292
11
114.204
21
-124.311
0
LINE
8
BLACK
6
CONTINUOUS
10
113.913
20
-117.549
11
114.058
21
-117.609
0
LINE
8
BLACK
6
CONTINUOUS
10
114.058
20
-117.609
11
114.182
21
-117.704
0
LINE
8
BLACK
6
CONTINUOUS
10
114.182
20
-117.704
11
114.278
21
-117.829
0
LINE
8
BLACK
6
CONTINUOUS
10
114.278
20
-117.829
11
114.338
21
-117.973
0
LINE
8
BLACK
6
CONTINUOUS
10
114.338
20
-117.973
11
114.358
21
-118.129
0
LINE
8
BLACK
6
CONTINUOUS
10
114.358
20
-118.129
11
114.338
21
-118.284
0
LINE
8
BLACK
6
CONTINUOUS
10
114.338
20
-118.284
11
114.278
21
-118.429
0
LINE
8
BLACK
6
CONTINUOUS
10
114.278
20
-118.429
11
114.182
21
-118.553
0
LINE
8
BLACK
6
CONTINUOUS
10
114.182
20
-118.553
11
114.058
21
-118.648
0
LINE
8
BLACK
6
CONTINUOUS
10
114.058
20
-118.648
11
113.913
21
-118.708
0
LINE
8
BLACK
6
CONTINUOUS
10
113.913
20
-118.708
11
113.758
21
-118.729
0
LINE
8
BLACK
6
CONTINUOUS
10
113.758
20
-118.729
11
113.208
21
-118.729
0
LINE
8
BLACK
6
CONTINUOUS
10
113.208
20
-118.729
11
113.053
21
-118.708
0
LINE
8
BLACK
6
CONTINUOUS
10
113.053
20
-118.708
11
112.908
21
-118.648
0
LINE
8
BLACK
6
CONTINUOUS
10
112.908
20
-118.648
11
112.784
21
-118.553
0
LINE
8
BLACK
6
CONTINUOUS
10
112.784
20
-118.553
11
112.688
21
-118.429
0
LINE
8
BLACK
6
CONTINUOUS
10
112.688
20
-118.429
11
112.629
21
-118.284
0
LINE
8
BLACK
6
CONTINUOUS
10
112.629
20
-118.284
11
112.608
21
-118.129
0
LINE
8
BLACK
6
CONTINUOUS
10
112.608
20
-118.129
11
112.629
21
-117.973
0
LINE
8
BLACK
6
CONTINUOUS
10
112.629
20
-117.973
11
112.688
21
-117.829
0
LINE
8
BLACK
6
CONTINUOUS
10
112.688
20
-117.829
11
112.784
21
-117.704
0
LINE
8
BLACK
6
CONTINUOUS
10
112.784
20
-117.704
11
112.908
21
-117.609
0
LINE
8
BLACK
6
CONTINUOUS
10
112.908
20
-117.609
11
113.053
21
-117.549
0
LINE
8
BLACK
6
CONTINUOUS
10
113.053
20
-117.549
11
113.208
21
-117.529
0
LINE
8
BLACK
6
CONTINUOUS
10
113.208
20
-117.529
11
113.758
21
-117.529
0
LINE
8
BLACK
6
CONTINUOUS
10
113.758
20
-117.529
11
113.913
21
-117.549
0
LINE
8
BLACK
6
CONTINUOUS
10
185.633
20
-118.596
11
185.714
21
-118.65
0
LINE
8
BLACK
6
CONTINUOUS
10
185.714
20
-118.65
11
185.768
21
-118.731
0
LINE
8
BLACK
6
CONTINUOUS
10
185.768
20
-118.731
11
185.787
21
-118.827
0
LINE
8
BLACK
6
CONTINUOUS
10
185.787
20
-118.827
11
185.787
21
-119.527
0
LINE
8
BLACK
6
CONTINUOUS
10
185.787
20
-119.527
11
185.768
21
-119.622
0
LINE
8
BLACK
6
CONTINUOUS
10
185.768
20
-119.622
11
185.714
21
-119.703
0
LINE
8
BLACK
6
CONTINUOUS
10
185.714
20
-119.703
11
185.633
21
-119.758
0
LINE
8
BLACK
6
CONTINUOUS
10
185.633
20
-119.758
11
185.537
21
-119.777
0
LINE
8
BLACK
6
CONTINUOUS
10
185.537
20
-119.777
11
184.287
21
-119.777
0
LINE
8
BLACK
6
CONTINUOUS
10
184.287
20
-119.777
11
184.191
21
-119.758
0
LINE
8
BLACK
6
CONTINUOUS
10
184.191
20
-119.758
11
184.11
21
-119.703
0
LINE
8
BLACK
6
CONTINUOUS
10
184.11
20
-119.703
11
184.056
21
-119.622
0
LINE
8
BLACK
6
CONTINUOUS
10
184.056
20
-119.622
11
184.037
21
-119.527
0
LINE
8
BLACK
6
CONTINUOUS
10
184.037
20
-119.527
11
184.037
21
-118.827
0
LINE
8
BLACK
6
CONTINUOUS
10
184.037
20
-118.827
11
184.056
21
-118.731
0
LINE
8
BLACK
6
CONTINUOUS
10
184.056
20
-118.731
11
184.11
21
-118.65
0
LINE
8
BLACK
6
CONTINUOUS
10
184.11
20
-118.65
11
184.191
21
-118.596
0
LINE
8
BLACK
6
CONTINUOUS
10
184.191
20
-118.596
11
184.287
21
-118.577
0
LINE
8
BLACK
6
CONTINUOUS
10
184.287
20
-118.577
11
185.537
21
-118.577
0
LINE
8
BLACK
6
CONTINUOUS
10
185.537
20
-118.577
11
185.633
21
-118.596
0
LINE
8
BLACK
6
CONTINUOUS
10
114.204
20
-115.548
11
114.285
21
-115.602
0
LINE
8
BLACK
6
CONTINUOUS
10
114.285
20
-115.602
11
114.339
21
-115.683
0
LINE
8
BLACK
6
CONTINUOUS
10
114.339
20
-115.683
11
114.358
21
-115.779
0
LINE
8
BLACK
6
CONTINUOUS
10
114.358
20
-115.779
11
114.358
21
-116.479
0
LINE
8
BLACK
6
CONTINUOUS
10
114.358
20
-116.479
11
114.339
21
-116.574
0
LINE
8
BLACK
6
CONTINUOUS
10
114.339
20
-116.574
11
114.285
21
-116.655
0
LINE
8
BLACK
6
CONTINUOUS
10
114.285
20
-116.655
11
114.204
21
-116.71
0
LINE
8
BLACK
6
CONTINUOUS
10
114.204
20
-116.71
11
114.108
21
-116.729
0
LINE
8
BLACK
6
CONTINUOUS
10
114.108
20
-116.729
11
112.858
21
-116.729
0
LINE
8
BLACK
6
CONTINUOUS
10
112.858
20
-116.729
11
112.762
21
-116.71
0
LINE
8
BLACK
6
CONTINUOUS
10
112.762
20
-116.71
11
112.681
21
-116.655
0
LINE
8
BLACK
6
CONTINUOUS
10
112.681
20
-116.655
11
112.627
21
-116.574
0
LINE
8
BLACK
6
CONTINUOUS
10
112.627
20
-116.574
11
112.608
21
-116.479
0
LINE
8
BLACK
6
CONTINUOUS
10
112.608
20
-116.479
11
112.608
21
-115.779
0
LINE
8
BLACK
6
CONTINUOUS
10
112.608
20
-115.779
11
112.627
21
-115.683
0
LINE
8
BLACK
6
CONTINUOUS
10
112.627
20
-115.683
11
112.681
21
-115.602
0
LINE
8
BLACK
6
CONTINUOUS
10
112.681
20
-115.602
11
112.762
21
-115.548
0
LINE
8
BLACK
6
CONTINUOUS
10
112.762
20
-115.548
11
112.858
21
-115.529
0
LINE
8
BLACK
6
CONTINUOUS
10
112.858
20
-115.529
11
114.108
21
-115.529
0
LINE
8
BLACK
6
CONTINUOUS
10
114.108
20
-115.529
11
114.204
21
-115.548
0
LINE
8
BLACK
6
CONTINUOUS
10
185.342
20
-116.597
11
185.487
21
-116.657
0
LINE
8
BLACK
6
CONTINUOUS
10
185.487
20
-116.657
11
185.611
21
-116.752
0
LINE
8
BLACK
6
CONTINUOUS
10
185.611
20
-116.752
11
185.707
21
-116.877
0
LINE
8
BLACK
6
CONTINUOUS
10
185.707
20
-116.877
11
185.767
21
-117.021
0
LINE
8
BLACK
6
CONTINUOUS
10
185.767
20
-117.021
11
185.787
21
-117.177
0
LINE
8
BLACK
6
CONTINUOUS
10
185.787
20
-117.177
11
185.767
21
-117.332
0
LINE
8
BLACK
6
CONTINUOUS
10
185.767
20
-117.332
11
185.707
21
-117.477
0
LINE
8
BLACK
6
CONTINUOUS
10
185.707
20
-117.477
11
185.611
21
-117.601
0
LINE
8
BLACK
6
CONTINUOUS
10
185.611
20
-117.601
11
185.487
21
-117.696
0
LINE
8
BLACK
6
CONTINUOUS
10
185.487
20
-117.696
11
185.342
21
-117.756
0
LINE
8
BLACK
6
CONTINUOUS
10
185.342
20
-117.756
11
185.187
21
-117.777
0
LINE
8
BLACK
6
CONTINUOUS
10
185.187
20
-117.777
11
184.637
21
-117.777
0
LINE
8
BLACK
6
CONTINUOUS
10
184.637
20
-117.777
11
184.482
21
-117.756
0
LINE
8
BLACK
6
CONTINUOUS
10
184.482
20
-117.756
11
184.337
21
-117.696
0
LINE
8
BLACK
6
CONTINUOUS
10
184.337
20
-117.696
11
184.213
21
-117.601
0
LINE
8
BLACK
6
CONTINUOUS
10
184.213
20
-117.601
11
184.117
21
-117.477
0
LINE
8
BLACK
6
CONTINUOUS
10
184.117
20
-117.477
11
184.058
21
-117.332
0
LINE
8
BLACK
6
CONTINUOUS
10
184.058
20
-117.332
11
184.037
21
-117.177
0
LINE
8
BLACK
6
CONTINUOUS
10
184.037
20
-117.177
11
184.058
21
-117.021
0
LINE
8
BLACK
6
CONTINUOUS
10
184.058
20
-117.021
11
184.117
21
-116.877
0
LINE
8
BLACK
6
CONTINUOUS
10
184.117
20
-116.877
11
184.213
21
-116.752
0
LINE
8
BLACK
6
CONTINUOUS
10
184.213
20
-116.752
11
184.337
21
-116.657
0
LINE
8
BLACK
6
CONTINUOUS
10
184.337
20
-116.657
11
184.482
21
-116.597
0
LINE
8
BLACK
6
CONTINUOUS
10
184.482
20
-116.597
11
184.637
21
-116.577
0
LINE
8
BLACK
6
CONTINUOUS
10
184.637
20
-116.577
11
185.187
21
-116.577
0
LINE
8
BLACK
6
CONTINUOUS
10
185.187
20
-116.577
11
185.342
21
-116.597
0
LINE
8
BLACK
6
CONTINUOUS
10
113.913
20
-108.929
11
114.058
21
-108.989
0
LINE
8
BLACK
6
CONTINUOUS
10
114.058
20
-108.989
11
114.182
21
-109.084
0
LINE
8
BLACK
6
CONTINUOUS
10
114.182
20
-109.084
11
114.278
21
-109.209
0
LINE
8
BLACK
6
CONTINUOUS
10
114.278
20
-109.209
11
114.338
21
-109.353
0
LINE
8
BLACK
6
CONTINUOUS
10
114.338
20
-109.353
11
114.358
21
-109.509
0
LINE
8
BLACK
6
CONTINUOUS
10
114.358
20
-109.509
11
114.338
21
-109.664
0
LINE
8
BLACK
6
CONTINUOUS
10
114.338
20
-109.664
11
114.278
21
-109.809
0
LINE
8
BLACK
6
CONTINUOUS
10
114.278
20
-109.809
11
114.182
21
-109.933
0
LINE
8
BLACK
6
CONTINUOUS
10
114.182
20
-109.933
11
114.058
21
-110.028
0
LINE
8
BLACK
6
CONTINUOUS
10
114.058
20
-110.028
11
113.913
21
-110.088
0
LINE
8
BLACK
6
CONTINUOUS
10
113.913
20
-110.088
11
113.758
21
-110.109
0
LINE
8
BLACK
6
CONTINUOUS
10
113.758
20
-110.109
11
113.208
21
-110.109
0
LINE
8
BLACK
6
CONTINUOUS
10
113.208
20
-110.109
11
113.053
21
-110.088
0
LINE
8
BLACK
6
CONTINUOUS
10
113.053
20
-110.088
11
112.908
21
-110.028
0
LINE
8
BLACK
6
CONTINUOUS
10
112.908
20
-110.028
11
112.784
21
-109.933
0
LINE
8
BLACK
6
CONTINUOUS
10
112.784
20
-109.933
11
112.688
21
-109.809
0
LINE
8
BLACK
6
CONTINUOUS
10
112.688
20
-109.809
11
112.629
21
-109.664
0
LINE
8
BLACK
6
CONTINUOUS
10
112.629
20
-109.664
11
112.608
21
-109.509
0
LINE
8
BLACK
6
CONTINUOUS
10
112.608
20
-109.509
11
112.629
21
-109.353
0
LINE
8
BLACK
6
CONTINUOUS
10
112.629
20
-109.353
11
112.688
21
-109.209
0
LINE
8
BLACK
6
CONTINUOUS
10
112.688
20
-109.209
11
112.784
21
-109.084
0
LINE
8
BLACK
6
CONTINUOUS
10
112.784
20
-109.084
11
112.908
21
-108.989
0
LINE
8
BLACK
6
CONTINUOUS
10
112.908
20
-108.989
11
113.053
21
-108.929
0
LINE
8
BLACK
6
CONTINUOUS
10
113.053
20
-108.929
11
113.208
21
-108.909
0
LINE
8
BLACK
6
CONTINUOUS
10
113.208
20
-108.909
11
113.758
21
-108.909
0
LINE
8
BLACK
6
CONTINUOUS
10
113.758
20
-108.909
11
113.913
21
-108.929
0
LINE
8
BLACK
6
CONTINUOUS
10
114.204
20
-106.928
11
114.285
21
-106.982
0
LINE
8
BLACK
6
CONTINUOUS
10
114.285
20
-106.982
11
114.339
21
-107.063
0
LINE
8
BLACK
6
CONTINUOUS
10
114.339
20
-107.063
11
114.358
21
-107.159
0
LINE
8
BLACK
6
CONTINUOUS
10
114.358
20
-107.159
11
114.358
21
-107.859
0
LINE
8
BLACK
6
CONTINUOUS
10
114.358
20
-107.859
11
114.339
21
-107.954
0
LINE
8
BLACK
6
CONTINUOUS
10
114.339
20
-107.954
11
114.285
21
-108.035
0
LINE
8
BLACK
6
CONTINUOUS
10
114.285
20
-108.035
11
114.204
21
-108.09
0
LINE
8
BLACK
6
CONTINUOUS
10
114.204
20
-108.09
11
114.108
21
-108.109
0
LINE
8
BLACK
6
CONTINUOUS
10
114.108
20
-108.109
11
112.858
21
-108.109
0
LINE
8
BLACK
6
CONTINUOUS
10
112.858
20
-108.109
11
112.762
21
-108.09
0
LINE
8
BLACK
6
CONTINUOUS
10
112.762
20
-108.09
11
112.681
21
-108.035
0
LINE
8
BLACK
6
CONTINUOUS
10
112.681
20
-108.035
11
112.627
21
-107.954
0
LINE
8
BLACK
6
CONTINUOUS
10
112.627
20
-107.954
11
112.608
21
-107.859
0
LINE
8
BLACK
6
CONTINUOUS
10
112.608
20
-107.859
11
112.608
21
-107.159
0
LINE
8
BLACK
6
CONTINUOUS
10
112.608
20
-107.159
11
112.627
21
-107.063
0
LINE
8
BLACK
6
CONTINUOUS
10
112.627
20
-107.063
11
112.681
21
-106.982
0
LINE
8
BLACK
6
CONTINUOUS
10
112.681
20
-106.982
11
112.762
21
-106.928
0
LINE
8
BLACK
6
CONTINUOUS
10
112.762
20
-106.928
11
112.858
21
-106.909
0
LINE
8
BLACK
6
CONTINUOUS
10
112.858
20
-106.909
11
114.108
21
-106.909
0
LINE
8
BLACK
6
CONTINUOUS
10
114.108
20
-106.909
11
114.204
21
-106.928
0
LINE
8
BLACK
6
CONTINUOUS
10
113.95
20
-100.207
11
114.095
21
-100.267
0
LINE
8
BLACK
6
CONTINUOUS
10
114.095
20
-100.267
11
114.219
21
-100.362
0
LINE
8
BLACK
6
CONTINUOUS
10
114.219
20
-100.362
11
114.315
21
-100.487
0
LINE
8
BLACK
6
CONTINUOUS
10
114.315
20
-100.487
11
114.375
21
-100.631
0
LINE
8
BLACK
6
CONTINUOUS
10
114.375
20
-100.631
11
114.395
21
-100.787
0
LINE
8
BLACK
6
CONTINUOUS
10
114.395
20
-100.787
11
114.375
21
-100.942
0
LINE
8
BLACK
6
CONTINUOUS
10
114.375
20
-100.942
11
114.315
21
-101.087
0
LINE
8
BLACK
6
CONTINUOUS
10
114.315
20
-101.087
11
114.219
21
-101.211
0
LINE
8
BLACK
6
CONTINUOUS
10
114.219
20
-101.211
11
114.095
21
-101.306
0
LINE
8
BLACK
6
CONTINUOUS
10
114.095
20
-101.306
11
113.95
21
-101.366
0
LINE
8
BLACK
6
CONTINUOUS
10
113.95
20
-101.366
11
113.795
21
-101.387
0
LINE
8
BLACK
6
CONTINUOUS
10
113.795
20
-101.387
11
113.245
21
-101.387
0
LINE
8
BLACK
6
CONTINUOUS
10
113.245
20
-101.387
11
113.09
21
-101.366
0
LINE
8
BLACK
6
CONTINUOUS
10
113.09
20
-101.366
11
112.945
21
-101.306
0
LINE
8
BLACK
6
CONTINUOUS
10
112.945
20
-101.306
11
112.821
21
-101.211
0
LINE
8
BLACK
6
CONTINUOUS
10
112.821
20
-101.211
11
112.725
21
-101.087
0
LINE
8
BLACK
6
CONTINUOUS
10
112.725
20
-101.087
11
112.666
21
-100.942
0
LINE
8
BLACK
6
CONTINUOUS
10
112.666
20
-100.942
11
112.645
21
-100.787
0
LINE
8
BLACK
6
CONTINUOUS
10
112.645
20
-100.787
11
112.666
21
-100.631
0
LINE
8
BLACK
6
CONTINUOUS
10
112.666
20
-100.631
11
112.725
21
-100.487
0
LINE
8
BLACK
6
CONTINUOUS
10
112.725
20
-100.487
11
112.821
21
-100.362
0
LINE
8
BLACK
6
CONTINUOUS
10
112.821
20
-100.362
11
112.945
21
-100.267
0
LINE
8
BLACK
6
CONTINUOUS
10
112.945
20
-100.267
11
113.09
21
-100.207
0
LINE
8
BLACK
6
CONTINUOUS
10
113.09
20
-100.207
11
113.245
21
-100.187
0
LINE
8
BLACK
6
CONTINUOUS
10
113.245
20
-100.187
11
113.795
21
-100.187
0
LINE
8
BLACK
6
CONTINUOUS
10
113.795
20
-100.187
11
113.95
21
-100.207
0
LINE
8
BLACK
6
CONTINUOUS
10
147.52
20
-100.61
11
147.598
21
-100.661
0
LINE
8
BLACK
6
CONTINUOUS
10
147.598
20
-100.661
11
147.649
21
-100.738
0
LINE
8
BLACK
6
CONTINUOUS
10
147.649
20
-100.738
11
147.667
21
-100.829
0
LINE
8
BLACK
6
CONTINUOUS
10
147.667
20
-100.829
11
147.667
21
-101.304
0
LINE
8
BLACK
6
CONTINUOUS
10
147.667
20
-101.304
11
147.649
21
-101.395
0
LINE
8
BLACK
6
CONTINUOUS
10
147.649
20
-101.395
11
147.598
21
-101.472
0
LINE
8
BLACK
6
CONTINUOUS
10
147.598
20
-101.472
11
147.52
21
-101.524
0
LINE
8
BLACK
6
CONTINUOUS
10
147.52
20
-101.524
11
147.43
21
-101.542
0
LINE
8
BLACK
6
CONTINUOUS
10
147.43
20
-101.542
11
146.83
21
-101.542
0
LINE
8
BLACK
6
CONTINUOUS
10
146.83
20
-101.542
11
146.739
21
-101.524
0
LINE
8
BLACK
6
CONTINUOUS
10
146.739
20
-101.524
11
146.662
21
-101.472
0
LINE
8
BLACK
6
CONTINUOUS
10
146.662
20
-101.472
11
146.61
21
-101.395
0
LINE
8
BLACK
6
CONTINUOUS
10
146.61
20
-101.395
11
146.592
21
-101.304
0
LINE
8
BLACK
6
CONTINUOUS
10
146.592
20
-101.304
11
146.592
21
-100.829
0
LINE
8
BLACK
6
CONTINUOUS
10
146.592
20
-100.829
11
146.61
21
-100.738
0
LINE
8
BLACK
6
CONTINUOUS
10
146.61
20
-100.738
11
146.662
21
-100.661
0
LINE
8
BLACK
6
CONTINUOUS
10
146.662
20
-100.661
11
146.739
21
-100.61
0
LINE
8
BLACK
6
CONTINUOUS
10
146.739
20
-100.61
11
146.83
21
-100.592
0
LINE
8
BLACK
6
CONTINUOUS
10
146.83
20
-100.592
11
147.43
21
-100.592
0
LINE
8
BLACK
6
CONTINUOUS
10
147.43
20
-100.592
11
147.52
21
-100.61
0
LINE
8
BLACK
6
CONTINUOUS
10
149.245
20
-100.61
11
149.323
21
-100.661
0
LINE
8
BLACK
6
CONTINUOUS
10
149.323
20
-100.661
11
149.374
21
-100.738
0
LINE
8
BLACK
6
CONTINUOUS
10
149.374
20
-100.738
11
149.392
21
-100.829
0
LINE
8
BLACK
6
CONTINUOUS
10
149.392
20
-100.829
11
149.392
21
-101.304
0
LINE
8
BLACK
6
CONTINUOUS
10
149.392
20
-101.304
11
149.374
21
-101.395
0
LINE
8
BLACK
6
CONTINUOUS
10
149.374
20
-101.395
11
149.323
21
-101.472
0
LINE
8
BLACK
6
CONTINUOUS
10
149.323
20
-101.472
11
149.245
21
-101.524
0
LINE
8
BLACK
6
CONTINUOUS
10
149.245
20
-101.524
11
149.155
21
-101.542
0
LINE
8
BLACK
6
CONTINUOUS
10
149.155
20
-101.542
11
148.555
21
-101.542
0
LINE
8
BLACK
6
CONTINUOUS
10
148.555
20
-101.542
11
148.464
21
-101.524
0
LINE
8
BLACK
6
CONTINUOUS
10
148.464
20
-101.524
11
148.387
21
-101.472
0
LINE
8
BLACK
6
CONTINUOUS
10
148.387
20
-101.472
11
148.335
21
-101.395
0
LINE
8
BLACK
6
CONTINUOUS
10
148.335
20
-101.395
11
148.317
21
-101.304
0
LINE
8
BLACK
6
CONTINUOUS
10
148.317
20
-101.304
11
148.317
21
-100.829
0
LINE
8
BLACK
6
CONTINUOUS
10
148.317
20
-100.829
11
148.335
21
-100.738
0
LINE
8
BLACK
6
CONTINUOUS
10
148.335
20
-100.738
11
148.387
21
-100.661
0
LINE
8
BLACK
6
CONTINUOUS
10
148.387
20
-100.661
11
148.464
21
-100.61
0
LINE
8
BLACK
6
CONTINUOUS
10
148.464
20
-100.61
11
148.555
21
-100.592
0
LINE
8
BLACK
6
CONTINUOUS
10
148.555
20
-100.592
11
149.155
21
-100.592
0
LINE
8
BLACK
6
CONTINUOUS
10
149.155
20
-100.592
11
149.245
21
-100.61
0
LINE
8
BLACK
6
CONTINUOUS
10
128.956
20
-97.4592
11
129.118
21
-97.5315
0
LINE
8
BLACK
6
CONTINUOUS
10
129.118
20
-97.5315
11
129.262
21
-97.6359
0
LINE
8
BLACK
6
CONTINUOUS
10
129.262
20
-97.6359
11
129.381
21
-97.768
0
LINE
8
BLACK
6
CONTINUOUS
10
129.381
20
-97.768
11
129.47
21
-97.9219
0
LINE
8
BLACK
6
CONTINUOUS
10
129.47
20
-97.9219
11
129.525
21
-98.0909
0
LINE
8
BLACK
6
CONTINUOUS
10
129.525
20
-98.0909
11
129.543
21
-98.2676
0
LINE
8
BLACK
6
CONTINUOUS
10
129.543
20
-98.2676
11
129.525
21
-98.4443
0
LINE
8
BLACK
6
CONTINUOUS
10
129.525
20
-98.4443
11
129.47
21
-98.6133
0
LINE
8
BLACK
6
CONTINUOUS
10
129.47
20
-98.6133
11
129.381
21
-98.7672
0
LINE
8
BLACK
6
CONTINUOUS
10
129.381
20
-98.7672
11
129.262
21
-98.8993
0
LINE
8
BLACK
6
CONTINUOUS
10
129.262
20
-98.8993
11
129.118
21
-99.0037
0
LINE
8
BLACK
6
CONTINUOUS
10
129.118
20
-99.0037
11
128.956
21
-99.076
0
LINE
8
BLACK
6
CONTINUOUS
10
128.956
20
-99.076
11
128.782
21
-99.1129
0
LINE
8
BLACK
6
CONTINUOUS
10
128.782
20
-99.1129
11
128.604
21
-99.1129
0
LINE
8
BLACK
6
CONTINUOUS
10
128.604
20
-99.1129
11
128.43
21
-99.076
0
LINE
8
BLACK
6
CONTINUOUS
10
128.43
20
-99.076
11
128.268
21
-99.0037
0
LINE
8
BLACK
6
CONTINUOUS
10
128.268
20
-99.0037
11
128.124
21
-98.8993
0
LINE
8
BLACK
6
CONTINUOUS
10
128.124
20
-98.8993
11
128.005
21
-98.7672
0
LINE
8
BLACK
6
CONTINUOUS
10
128.005
20
-98.7672
11
127.917
21
-98.6133
0
LINE
8
BLACK
6
CONTINUOUS
10
127.917
20
-98.6133
11
127.862
21
-98.4443
0
LINE
8
BLACK
6
CONTINUOUS
10
127.862
20
-98.4443
11
127.843
21
-98.2676
0
LINE
8
BLACK
6
CONTINUOUS
10
127.843
20
-98.2676
11
127.862
21
-98.0909
0
LINE
8
BLACK
6
CONTINUOUS
10
127.862
20
-98.0909
11
127.917
21
-97.9219
0
LINE
8
BLACK
6
CONTINUOUS
10
127.917
20
-97.9219
11
128.005
21
-97.768
0
LINE
8
BLACK
6
CONTINUOUS
10
128.005
20
-97.768
11
128.124
21
-97.6359
0
LINE
8
BLACK
6
CONTINUOUS
10
128.124
20
-97.6359
11
128.268
21
-97.5315
0
LINE
8
BLACK
6
CONTINUOUS
10
128.268
20
-97.5315
11
128.43
21
-97.4592
0
LINE
8
BLACK
6
CONTINUOUS
10
128.43
20
-97.4592
11
128.604
21
-97.4223
0
LINE
8
BLACK
6
CONTINUOUS
10
128.604
20
-97.4223
11
128.782
21
-97.4223
0
LINE
8
BLACK
6
CONTINUOUS
10
128.782
20
-97.4223
11
128.956
21
-97.4592
0
LINE
8
BLACK
6
CONTINUOUS
10
131.496
20
-97.4592
11
131.658
21
-97.5315
0
LINE
8
BLACK
6
CONTINUOUS
10
131.658
20
-97.5315
11
131.802
21
-97.6359
0
LINE
8
BLACK
6
CONTINUOUS
10
131.802
20
-97.6359
11
131.921
21
-97.768
0
LINE
8
BLACK
6
CONTINUOUS
10
131.921
20
-97.768
11
132.01
21
-97.9219
0
LINE
8
BLACK
6
CONTINUOUS
10
132.01
20
-97.9219
11
132.065
21
-98.0909
0
LINE
8
BLACK
6
CONTINUOUS
10
132.065
20
-98.0909
11
132.083
21
-98.2676
0
LINE
8
BLACK
6
CONTINUOUS
10
132.083
20
-98.2676
11
132.065
21
-98.4443
0
LINE
8
BLACK
6
CONTINUOUS
10
132.065
20
-98.4443
11
132.01
21
-98.6133
0
LINE
8
BLACK
6
CONTINUOUS
10
132.01
20
-98.6133
11
131.921
21
-98.7672
0
LINE
8
BLACK
6
CONTINUOUS
10
131.921
20
-98.7672
11
131.802
21
-98.8993
0
LINE
8
BLACK
6
CONTINUOUS
10
131.802
20
-98.8993
11
131.658
21
-99.0037
0
LINE
8
BLACK
6
CONTINUOUS
10
131.658
20
-99.0037
11
131.496
21
-99.076
0
LINE
8
BLACK
6
CONTINUOUS
10
131.496
20
-99.076
11
131.322
21
-99.1129
0
LINE
8
BLACK
6
CONTINUOUS
10
131.322
20
-99.1129
11
131.144
21
-99.1129
0
LINE
8
BLACK
6
CONTINUOUS
10
131.144
20
-99.1129
11
130.97
21
-99.076
0
LINE
8
BLACK
6
CONTINUOUS
10
130.97
20
-99.076
11
130.808
21
-99.0037
0
LINE
8
BLACK
6
CONTINUOUS
10
130.808
20
-99.0037
11
130.664
21
-98.8993
0
LINE
8
BLACK
6
CONTINUOUS
10
130.664
20
-98.8993
11
130.545
21
-98.7672
0
LINE
8
BLACK
6
CONTINUOUS
10
130.545
20
-98.7672
11
130.457
21
-98.6133
0
LINE
8
BLACK
6
CONTINUOUS
10
130.457
20
-98.6133
11
130.402
21
-98.4443
0
LINE
8
BLACK
6
CONTINUOUS
10
130.402
20
-98.4443
11
130.383
21
-98.2676
0
LINE
8
BLACK
6
CONTINUOUS
10
130.383
20
-98.2676
11
130.402
21
-98.0909
0
LINE
8
BLACK
6
CONTINUOUS
10
130.402
20
-98.0909
11
130.457
21
-97.9219
0
LINE
8
BLACK
6
CONTINUOUS
10
130.457
20
-97.9219
11
130.545
21
-97.768
0
LINE
8
BLACK
6
CONTINUOUS
10
130.545
20
-97.768
11
130.664
21
-97.6359
0
LINE
8
BLACK
6
CONTINUOUS
10
130.664
20
-97.6359
11
130.808
21
-97.5315
0
LINE
8
BLACK
6
CONTINUOUS
10
130.808
20
-97.5315
11
130.97
21
-97.4592
0
LINE
8
BLACK
6
CONTINUOUS
10
130.97
20
-97.4592
11
131.144
21
-97.4223
0
LINE
8
BLACK
6
CONTINUOUS
10
131.144
20
-97.4223
11
131.322
21
-97.4223
0
LINE
8
BLACK
6
CONTINUOUS
10
131.322
20
-97.4223
11
131.496
21
-97.4592
0
LINE
8
BLACK
6
CONTINUOUS
10
166.735
20
-98.4887
11
166.813
21
-98.5402
0
LINE
8
BLACK
6
CONTINUOUS
10
166.813
20
-98.5402
11
166.864
21
-98.6172
0
LINE
8
BLACK
6
CONTINUOUS
10
166.864
20
-98.6172
11
166.882
21
-98.7081
0
LINE
8
BLACK
6
CONTINUOUS
10
166.882
20
-98.7081
11
166.882
21
-99.3081
0
LINE
8
BLACK
6
CONTINUOUS
10
166.882
20
-99.3081
11
166.864
21
-99.399
0
LINE
8
BLACK
6
CONTINUOUS
10
166.864
20
-99.399
11
166.813
21
-99.476
0
LINE
8
BLACK
6
CONTINUOUS
10
166.813
20
-99.476
11
166.735
21
-99.5275
0
LINE
8
BLACK
6
CONTINUOUS
10
166.735
20
-99.5275
11
166.645
21
-99.5456
0
LINE
8
BLACK
6
CONTINUOUS
10
166.645
20
-99.5456
11
166.17
21
-99.5456
0
LINE
8
BLACK
6
CONTINUOUS
10
166.17
20
-99.5456
11
166.079
21
-99.5275
0
LINE
8
BLACK
6
CONTINUOUS
10
166.079
20
-99.5275
11
166.002
21
-99.476
0
LINE
8
BLACK
6
CONTINUOUS
10
166.002
20
-99.476
11
165.95
21
-99.399
0
LINE
8
BLACK
6
CONTINUOUS
10
165.95
20
-99.399
11
165.932
21
-99.3081
0
LINE
8
BLACK
6
CONTINUOUS
10
165.932
20
-99.3081
11
165.932
21
-98.7081
0
LINE
8
BLACK
6
CONTINUOUS
10
165.932
20
-98.7081
11
165.95
21
-98.6172
0
LINE
8
BLACK
6
CONTINUOUS
10
165.95
20
-98.6172
11
166.002
21
-98.5402
0
LINE
8
BLACK
6
CONTINUOUS
10
166.002
20
-98.5402
11
166.079
21
-98.4887
0
LINE
8
BLACK
6
CONTINUOUS
10
166.079
20
-98.4887
11
166.17
21
-98.4706
0
LINE
8
BLACK
6
CONTINUOUS
10
166.17
20
-98.4706
11
166.645
21
-98.4706
0
LINE
8
BLACK
6
CONTINUOUS
10
166.645
20
-98.4706
11
166.735
21
-98.4887
0
LINE
8
BLACK
6
CONTINUOUS
10
114.241
20
-98.2056
11
114.322
21
-98.2598
0
LINE
8
BLACK
6
CONTINUOUS
10
114.322
20
-98.2598
11
114.376
21
-98.3409
0
LINE
8
BLACK
6
CONTINUOUS
10
114.376
20
-98.3409
11
114.395
21
-98.4366
0
LINE
8
BLACK
6
CONTINUOUS
10
114.395
20
-98.4366
11
114.395
21
-99.1366
0
LINE
8
BLACK
6
CONTINUOUS
10
114.395
20
-99.1366
11
114.376
21
-99.2323
0
LINE
8
BLACK
6
CONTINUOUS
10
114.376
20
-99.2323
11
114.322
21
-99.3134
0
LINE
8
BLACK
6
CONTINUOUS
10
114.322
20
-99.3134
11
114.241
21
-99.3676
0
LINE
8
BLACK
6
CONTINUOUS
10
114.241
20
-99.3676
11
114.145
21
-99.3866
0
LINE
8
BLACK
6
CONTINUOUS
10
114.145
20
-99.3866
11
112.895
21
-99.3866
0
LINE
8
BLACK
6
CONTINUOUS
10
112.895
20
-99.3866
11
112.799
21
-99.3676
0
LINE
8
BLACK
6
CONTINUOUS
10
112.799
20
-99.3676
11
112.718
21
-99.3134
0
LINE
8
BLACK
6
CONTINUOUS
10
112.718
20
-99.3134
11
112.664
21
-99.2323
0
LINE
8
BLACK
6
CONTINUOUS
10
112.664
20
-99.2323
11
112.645
21
-99.1366
0
LINE
8
BLACK
6
CONTINUOUS
10
112.645
20
-99.1366
11
112.645
21
-98.4366
0
LINE
8
BLACK
6
CONTINUOUS
10
112.645
20
-98.4366
11
112.664
21
-98.3409
0
LINE
8
BLACK
6
CONTINUOUS
10
112.664
20
-98.3409
11
112.718
21
-98.2598
0
LINE
8
BLACK
6
CONTINUOUS
10
112.718
20
-98.2598
11
112.799
21
-98.2056
0
LINE
8
BLACK
6
CONTINUOUS
10
112.799
20
-98.2056
11
112.895
21
-98.1866
0
LINE
8
BLACK
6
CONTINUOUS
10
112.895
20
-98.1866
11
114.145
21
-98.1866
0
LINE
8
BLACK
6
CONTINUOUS
10
114.145
20
-98.1866
11
114.241
21
-98.2056
0
LINE
8
BLACK
6
CONTINUOUS
10
166.735
20
-96.7637
11
166.813
21
-96.8152
0
LINE
8
BLACK
6
CONTINUOUS
10
166.813
20
-96.8152
11
166.864
21
-96.8922
0
LINE
8
BLACK
6
CONTINUOUS
10
166.864
20
-96.8922
11
166.882
21
-96.9831
0
LINE
8
BLACK
6
CONTINUOUS
10
166.882
20
-96.9831
11
166.882
21
-97.5831
0
LINE
8
BLACK
6
CONTINUOUS
10
166.882
20
-97.5831
11
166.864
21
-97.674
0
LINE
8
BLACK
6
CONTINUOUS
10
166.864
20
-97.674
11
166.813
21
-97.751
0
LINE
8
BLACK
6
CONTINUOUS
10
166.813
20
-97.751
11
166.735
21
-97.8025
0
LINE
8
BLACK
6
CONTINUOUS
10
166.735
20
-97.8025
11
166.645
21
-97.8206
0
LINE
8
BLACK
6
CONTINUOUS
10
166.645
20
-97.8206
11
166.17
21
-97.8206
0
LINE
8
BLACK
6
CONTINUOUS
10
166.17
20
-97.8206
11
166.079
21
-97.8025
0
LINE
8
BLACK
6
CONTINUOUS
10
166.079
20
-97.8025
11
166.002
21
-97.751
0
LINE
8
BLACK
6
CONTINUOUS
10
166.002
20
-97.751
11
165.95
21
-97.674
0
LINE
8
BLACK
6
CONTINUOUS
10
165.95
20
-97.674
11
165.932
21
-97.5831
0
LINE
8
BLACK
6
CONTINUOUS
10
165.932
20
-97.5831
11
165.932
21
-96.9831
0
LINE
8
BLACK
6
CONTINUOUS
10
165.932
20
-96.9831
11
165.95
21
-96.8922
0
LINE
8
BLACK
6
CONTINUOUS
10
165.95
20
-96.8922
11
166.002
21
-96.8152
0
LINE
8
BLACK
6
CONTINUOUS
10
166.002
20
-96.8152
11
166.079
21
-96.7637
0
LINE
8
BLACK
6
CONTINUOUS
10
166.079
20
-96.7637
11
166.17
21
-96.7456
0
LINE
8
BLACK
6
CONTINUOUS
10
166.17
20
-96.7456
11
166.645
21
-96.7456
0
LINE
8
BLACK
6
CONTINUOUS
10
166.645
20
-96.7456
11
166.735
21
-96.7637
0
LINE
8
BLACK
6
CONTINUOUS
10
132.083
20
-96.5776
11
130.383
21
-96.5776
0
LINE
8
BLACK
6
CONTINUOUS
10
130.383
20
-96.5776
11
130.383
21
-94.8776
0
LINE
8
BLACK
6
CONTINUOUS
10
130.383
20
-94.8776
11
132.083
21
-94.8776
0
LINE
8
BLACK
6
CONTINUOUS
10
132.083
20
-94.8776
11
132.083
21
-96.5776
0
LINE
8
BLACK
6
CONTINUOUS
10
128.956
20
-94.9192
11
129.118
21
-94.9915
0
LINE
8
BLACK
6
CONTINUOUS
10
129.118
20
-94.9915
11
129.262
21
-95.0959
0
LINE
8
BLACK
6
CONTINUOUS
10
129.262
20
-95.0959
11
129.381
21
-95.228
0
LINE
8
BLACK
6
CONTINUOUS
10
129.381
20
-95.228
11
129.47
21
-95.3819
0
LINE
8
BLACK
6
CONTINUOUS
10
129.47
20
-95.3819
11
129.525
21
-95.5509
0
LINE
8
BLACK
6
CONTINUOUS
10
129.525
20
-95.5509
11
129.543
21
-95.7276
0
LINE
8
BLACK
6
CONTINUOUS
10
129.543
20
-95.7276
11
129.525
21
-95.9043
0
LINE
8
BLACK
6
CONTINUOUS
10
129.525
20
-95.9043
11
129.47
21
-96.0733
0
LINE
8
BLACK
6
CONTINUOUS
10
129.47
20
-96.0733
11
129.381
21
-96.2272
0
LINE
8
BLACK
6
CONTINUOUS
10
129.381
20
-96.2272
11
129.262
21
-96.3593
0
LINE
8
BLACK
6
CONTINUOUS
10
129.262
20
-96.3593
11
129.118
21
-96.4637
0
LINE
8
BLACK
6
CONTINUOUS
10
129.118
20
-96.4637
11
128.956
21
-96.536
0
LINE
8
BLACK
6
CONTINUOUS
10
128.956
20
-96.536
11
128.782
21
-96.5729
0
LINE
8
BLACK
6
CONTINUOUS
10
128.782
20
-96.5729
11
128.604
21
-96.5729
0
LINE
8
BLACK
6
CONTINUOUS
10
128.604
20
-96.5729
11
128.43
21
-96.536
0
LINE
8
BLACK
6
CONTINUOUS
10
128.43
20
-96.536
11
128.268
21
-96.4637
0
LINE
8
BLACK
6
CONTINUOUS
10
128.268
20
-96.4637
11
128.124
21
-96.3593
0
LINE
8
BLACK
6
CONTINUOUS
10
128.124
20
-96.3593
11
128.005
21
-96.2272
0
LINE
8
BLACK
6
CONTINUOUS
10
128.005
20
-96.2272
11
127.917
21
-96.0733
0
LINE
8
BLACK
6
CONTINUOUS
10
127.917
20
-96.0733
11
127.862
21
-95.9043
0
LINE
8
BLACK
6
CONTINUOUS
10
127.862
20
-95.9043
11
127.843
21
-95.7276
0
LINE
8
BLACK
6
CONTINUOUS
10
127.843
20
-95.7276
11
127.862
21
-95.5509
0
LINE
8
BLACK
6
CONTINUOUS
10
127.862
20
-95.5509
11
127.917
21
-95.3819
0
LINE
8
BLACK
6
CONTINUOUS
10
127.917
20
-95.3819
11
128.005
21
-95.228
0
LINE
8
BLACK
6
CONTINUOUS
10
128.005
20
-95.228
11
128.124
21
-95.0959
0
LINE
8
BLACK
6
CONTINUOUS
10
128.124
20
-95.0959
11
128.268
21
-94.9915
0
LINE
8
BLACK
6
CONTINUOUS
10
128.268
20
-94.9915
11
128.43
21
-94.9192
0
LINE
8
BLACK
6
CONTINUOUS
10
128.43
20
-94.9192
11
128.604
21
-94.8823
0
LINE
8
BLACK
6
CONTINUOUS
10
128.604
20
-94.8823
11
128.782
21
-94.8823
0
LINE
8
BLACK
6
CONTINUOUS
10
128.782
20
-94.8823
11
128.956
21
-94.9192
0
LINE
8
BLACK
6
CONTINUOUS
10
120.397
20
-88.6856
11
119.397
21
-88.6856
0
LINE
8
BLACK
6
CONTINUOUS
10
119.397
20
-88.6856
11
119.397
21
-87.2856
0
LINE
8
BLACK
6
CONTINUOUS
10
119.397
20
-87.2856
11
120.397
21
-87.2856
0
LINE
8
BLACK
6
CONTINUOUS
10
120.397
20
-87.2856
11
120.397
21
-88.6856
0
LINE
8
BLACK
6
CONTINUOUS
10
122.197
20
-88.6856
11
121.197
21
-88.6856
0
LINE
8
BLACK
6
CONTINUOUS
10
121.197
20
-88.6856
11
121.197
21
-87.2856
0
LINE
8
BLACK
6
CONTINUOUS
10
121.197
20
-87.2856
11
122.197
21
-87.2856
0
LINE
8
BLACK
6
CONTINUOUS
10
122.197
20
-87.2856
11
122.197
21
-88.6856
0
LINE
8
BLACK
6
CONTINUOUS
10
130.452
20
-87.9097
11
130.529
21
-87.9612
0
LINE
8
BLACK
6
CONTINUOUS
10
130.529
20
-87.9612
11
130.58
21
-88.0382
0
LINE
8
BLACK
6
CONTINUOUS
10
130.58
20
-88.0382
11
130.598
21
-88.1291
0
LINE
8
BLACK
6
CONTINUOUS
10
130.598
20
-88.1291
11
130.598
21
-88.6041
0
LINE
8
BLACK
6
CONTINUOUS
10
130.598
20
-88.6041
11
130.58
21
-88.695
0
LINE
8
BLACK
6
CONTINUOUS
10
130.58
20
-88.695
11
130.529
21
-88.772
0
LINE
8
BLACK
6
CONTINUOUS
10
130.529
20
-88.772
11
130.452
21
-88.8235
0
LINE
8
BLACK
6
CONTINUOUS
10
130.452
20
-88.8235
11
130.361
21
-88.8416
0
LINE
8
BLACK
6
CONTINUOUS
10
130.361
20
-88.8416
11
129.761
21
-88.8416
0
LINE
8
BLACK
6
CONTINUOUS
10
129.761
20
-88.8416
11
129.67
21
-88.8235
0
LINE
8
BLACK
6
CONTINUOUS
10
129.67
20
-88.8235
11
129.593
21
-88.772
0
LINE
8
BLACK
6
CONTINUOUS
10
129.593
20
-88.772
11
129.541
21
-88.695
0
LINE
8
BLACK
6
CONTINUOUS
10
129.541
20
-88.695
11
129.523
21
-88.6041
0
LINE
8
BLACK
6
CONTINUOUS
10
129.523
20
-88.6041
11
129.523
21
-88.1291
0
LINE
8
BLACK
6
CONTINUOUS
10
129.523
20
-88.1291
11
129.541
21
-88.0382
0
LINE
8
BLACK
6
CONTINUOUS
10
129.541
20
-88.0382
11
129.593
21
-87.9612
0
LINE
8
BLACK
6
CONTINUOUS
10
129.593
20
-87.9612
11
129.67
21
-87.9097
0
LINE
8
BLACK
6
CONTINUOUS
10
129.67
20
-87.9097
11
129.761
21
-87.8916
0
LINE
8
BLACK
6
CONTINUOUS
10
129.761
20
-87.8916
11
130.361
21
-87.8916
0
LINE
8
BLACK
6
CONTINUOUS
10
130.361
20
-87.8916
11
130.452
21
-87.9097
0
LINE
8
BLACK
6
CONTINUOUS
10
132.177
20
-87.9097
11
132.254
21
-87.9612
0
LINE
8
BLACK
6
CONTINUOUS
10
132.254
20
-87.9612
11
132.305
21
-88.0382
0
LINE
8
BLACK
6
CONTINUOUS
10
132.305
20
-88.0382
11
132.323
21
-88.1291
0
LINE
8
BLACK
6
CONTINUOUS
10
132.323
20
-88.1291
11
132.323
21
-88.6041
0
LINE
8
BLACK
6
CONTINUOUS
10
132.323
20
-88.6041
11
132.305
21
-88.695
0
LINE
8
BLACK
6
CONTINUOUS
10
132.305
20
-88.695
11
132.254
21
-88.772
0
LINE
8
BLACK
6
CONTINUOUS
10
132.254
20
-88.772
11
132.177
21
-88.8235
0
LINE
8
BLACK
6
CONTINUOUS
10
132.177
20
-88.8235
11
132.086
21
-88.8416
0
LINE
8
BLACK
6
CONTINUOUS
10
132.086
20
-88.8416
11
131.486
21
-88.8416
0
LINE
8
BLACK
6
CONTINUOUS
10
131.486
20
-88.8416
11
131.395
21
-88.8235
0
LINE
8
BLACK
6
CONTINUOUS
10
131.395
20
-88.8235
11
131.318
21
-88.772
0
LINE
8
BLACK
6
CONTINUOUS
10
131.318
20
-88.772
11
131.266
21
-88.695
0
LINE
8
BLACK
6
CONTINUOUS
10
131.266
20
-88.695
11
131.248
21
-88.6041
0
LINE
8
BLACK
6
CONTINUOUS
10
131.248
20
-88.6041
11
131.248
21
-88.1291
0
LINE
8
BLACK
6
CONTINUOUS
10
131.248
20
-88.1291
11
131.266
21
-88.0382
0
LINE
8
BLACK
6
CONTINUOUS
10
131.266
20
-88.0382
11
131.318
21
-87.9612
0
LINE
8
BLACK
6
CONTINUOUS
10
131.318
20
-87.9612
11
131.395
21
-87.9097
0
LINE
8
BLACK
6
CONTINUOUS
10
131.395
20
-87.9097
11
131.486
21
-87.8916
0
LINE
8
BLACK
6
CONTINUOUS
10
131.486
20
-87.8916
11
132.086
21
-87.8916
0
LINE
8
BLACK
6
CONTINUOUS
10
132.086
20
-87.8916
11
132.177
21
-87.9097
0
LINE
8
BLACK
6
CONTINUOUS
10
161.354
20
-88.5814
11
160.004
21
-88.5814
0
LINE
8
BLACK
6
CONTINUOUS
10
160.004
20
-88.5814
11
160.004
21
-87.2314
0
LINE
8
BLACK
6
CONTINUOUS
10
160.004
20
-87.2314
11
161.354
21
-87.2314
0
LINE
8
BLACK
6
CONTINUOUS
10
161.354
20
-87.2314
11
161.354
21
-88.5814
0
LINE
8
BLACK
6
CONTINUOUS
10
158.918
20
-87.2753
11
159.063
21
-87.3509
0
LINE
8
BLACK
6
CONTINUOUS
10
159.063
20
-87.3509
11
159.184
21
-87.4588
0
LINE
8
BLACK
6
CONTINUOUS
10
159.184
20
-87.4588
11
159.277
21
-87.5927
0
LINE
8
BLACK
6
CONTINUOUS
10
159.277
20
-87.5927
11
159.334
21
-87.7449
0
LINE
8
BLACK
6
CONTINUOUS
10
159.334
20
-87.7449
11
159.354
21
-87.9064
0
LINE
8
BLACK
6
CONTINUOUS
10
159.354
20
-87.9064
11
159.334
21
-88.0679
0
LINE
8
BLACK
6
CONTINUOUS
10
159.334
20
-88.0679
11
159.277
21
-88.2201
0
LINE
8
BLACK
6
CONTINUOUS
10
159.277
20
-88.2201
11
159.184
21
-88.354
0
LINE
8
BLACK
6
CONTINUOUS
10
159.184
20
-88.354
11
159.063
21
-88.4619
0
LINE
8
BLACK
6
CONTINUOUS
10
159.063
20
-88.4619
11
158.918
21
-88.5375
0
LINE
8
BLACK
6
CONTINUOUS
10
158.918
20
-88.5375
11
158.76
21
-88.5765
0
LINE
8
BLACK
6
CONTINUOUS
10
158.76
20
-88.5765
11
158.598
21
-88.5765
0
LINE
8
BLACK
6
CONTINUOUS
10
158.598
20
-88.5765
11
158.44
21
-88.5375
0
LINE
8
BLACK
6
CONTINUOUS
10
158.44
20
-88.5375
11
158.296
21
-88.4619
0
LINE
8
BLACK
6
CONTINUOUS
10
158.296
20
-88.4619
11
158.174
21
-88.354
0
LINE
8
BLACK
6
CONTINUOUS
10
158.174
20
-88.354
11
158.081
21
-88.2201
0
LINE
8
BLACK
6
CONTINUOUS
10
158.081
20
-88.2201
11
158.024
21
-88.0679
0
LINE
8
BLACK
6
CONTINUOUS
10
158.024
20
-88.0679
11
158.004
21
-87.9064
0
LINE
8
BLACK
6
CONTINUOUS
10
158.004
20
-87.9064
11
158.024
21
-87.7449
0
LINE
8
BLACK
6
CONTINUOUS
10
158.024
20
-87.7449
11
158.081
21
-87.5927
0
LINE
8
BLACK
6
CONTINUOUS
10
158.081
20
-87.5927
11
158.174
21
-87.4588
0
LINE
8
BLACK
6
CONTINUOUS
10
158.174
20
-87.4588
11
158.296
21
-87.3509
0
LINE
8
BLACK
6
CONTINUOUS
10
158.296
20
-87.3509
11
158.44
21
-87.2753
0
LINE
8
BLACK
6
CONTINUOUS
10
158.44
20
-87.2753
11
158.598
21
-87.2363
0
LINE
8
BLACK
6
CONTINUOUS
10
158.598
20
-87.2363
11
158.76
21
-87.2363
0
LINE
8
BLACK
6
CONTINUOUS
10
158.76
20
-87.2363
11
158.918
21
-87.2753
0
LINE
8
BLACK
6
CONTINUOUS
10
120.025
20
-85.0013
11
120.102
21
-85.0528
0
LINE
8
BLACK
6
CONTINUOUS
10
120.102
20
-85.0528
11
120.153
21
-85.1298
0
LINE
8
BLACK
6
CONTINUOUS
10
120.153
20
-85.1298
11
120.171
21
-85.2207
0
LINE
8
BLACK
6
CONTINUOUS
10
120.171
20
-85.2207
11
120.171
21
-85.8207
0
LINE
8
BLACK
6
CONTINUOUS
10
120.171
20
-85.8207
11
120.153
21
-85.9116
0
LINE
8
BLACK
6
CONTINUOUS
10
120.153
20
-85.9116
11
120.102
21
-85.9886
0
LINE
8
BLACK
6
CONTINUOUS
10
120.102
20
-85.9886
11
120.025
21
-86.0401
0
LINE
8
BLACK
6
CONTINUOUS
10
120.025
20
-86.0401
11
119.934
21
-86.0582
0
LINE
8
BLACK
6
CONTINUOUS
10
119.934
20
-86.0582
11
119.459
21
-86.0582
0
LINE
8
BLACK
6
CONTINUOUS
10
119.459
20
-86.0582
11
119.368
21
-86.0401
0
LINE
8
BLACK
6
CONTINUOUS
10
119.368
20
-86.0401
11
119.291
21
-85.9886
0
LINE
8
BLACK
6
CONTINUOUS
10
119.291
20
-85.9886
11
119.24
21
-85.9116
0
LINE
8
BLACK
6
CONTINUOUS
10
119.24
20
-85.9116
11
119.221
21
-85.8207
0
LINE
8
BLACK
6
CONTINUOUS
10
119.221
20
-85.8207
11
119.221
21
-85.2207
0
LINE
8
BLACK
6
CONTINUOUS
10
119.221
20
-85.2207
11
119.24
21
-85.1298
0
LINE
8
BLACK
6
CONTINUOUS
10
119.24
20
-85.1298
11
119.291
21
-85.0528
0
LINE
8
BLACK
6
CONTINUOUS
10
119.291
20
-85.0528
11
119.368
21
-85.0013
0
LINE
8
BLACK
6
CONTINUOUS
10
119.368
20
-85.0013
11
119.459
21
-84.9832
0
LINE
8
BLACK
6
CONTINUOUS
10
119.459
20
-84.9832
11
119.934
21
-84.9832
0
LINE
8
BLACK
6
CONTINUOUS
10
119.934
20
-84.9832
11
120.025
21
-85.0013
0
LINE
8
BLACK
6
CONTINUOUS
10
122.031
20
-85.0013
11
122.109
21
-85.0528
0
LINE
8
BLACK
6
CONTINUOUS
10
122.109
20
-85.0528
11
122.16
21
-85.1298
0
LINE
8
BLACK
6
CONTINUOUS
10
122.16
20
-85.1298
11
122.178
21
-85.2207
0
LINE
8
BLACK
6
CONTINUOUS
10
122.178
20
-85.2207
11
122.178
21
-85.8207
0
LINE
8
BLACK
6
CONTINUOUS
10
122.178
20
-85.8207
11
122.16
21
-85.9116
0
LINE
8
BLACK
6
CONTINUOUS
10
122.16
20
-85.9116
11
122.109
21
-85.9886
0
LINE
8
BLACK
6
CONTINUOUS
10
122.109
20
-85.9886
11
122.031
21
-86.0401
0
LINE
8
BLACK
6
CONTINUOUS
10
122.031
20
-86.0401
11
121.941
21
-86.0582
0
LINE
8
BLACK
6
CONTINUOUS
10
121.941
20
-86.0582
11
121.466
21
-86.0582
0
LINE
8
BLACK
6
CONTINUOUS
10
121.466
20
-86.0582
11
121.375
21
-86.0401
0
LINE
8
BLACK
6
CONTINUOUS
10
121.375
20
-86.0401
11
121.298
21
-85.9886
0
LINE
8
BLACK
6
CONTINUOUS
10
121.298
20
-85.9886
11
121.246
21
-85.9116
0
LINE
8
BLACK
6
CONTINUOUS
10
121.246
20
-85.9116
11
121.228
21
-85.8207
0
LINE
8
BLACK
6
CONTINUOUS
10
121.228
20
-85.8207
11
121.228
21
-85.2207
0
LINE
8
BLACK
6
CONTINUOUS
10
121.228
20
-85.2207
11
121.246
21
-85.1298
0
LINE
8
BLACK
6
CONTINUOUS
10
121.246
20
-85.1298
11
121.298
21
-85.0528
0
LINE
8
BLACK
6
CONTINUOUS
10
121.298
20
-85.0528
11
121.375
21
-85.0013
0
LINE
8
BLACK
6
CONTINUOUS
10
121.375
20
-85.0013
11
121.466
21
-84.9832
0
LINE
8
BLACK
6
CONTINUOUS
10
121.466
20
-84.9832
11
121.941
21
-84.9832
0
LINE
8
BLACK
6
CONTINUOUS
10
121.941
20
-84.9832
11
122.031
21
-85.0013
0
LINE
8
BLACK
6
CONTINUOUS
10
158.918
20
-85.2753
11
159.063
21
-85.3509
0
LINE
8
BLACK
6
CONTINUOUS
10
159.063
20
-85.3509
11
159.184
21
-85.4588
0
LINE
8
BLACK
6
CONTINUOUS
10
159.184
20
-85.4588
11
159.277
21
-85.5927
0
LINE
8
BLACK
6
CONTINUOUS
10
159.277
20
-85.5927
11
159.334
21
-85.7449
0
LINE
8
BLACK
6
CONTINUOUS
10
159.334
20
-85.7449
11
159.354
21
-85.9064
0
LINE
8
BLACK
6
CONTINUOUS
10
159.354
20
-85.9064
11
159.334
21
-86.0679
0
LINE
8
BLACK
6
CONTINUOUS
10
159.334
20
-86.0679
11
159.277
21
-86.2201
0
LINE
8
BLACK
6
CONTINUOUS
10
159.277
20
-86.2201
11
159.184
21
-86.354
0
LINE
8
BLACK
6
CONTINUOUS
10
159.184
20
-86.354
11
159.063
21
-86.4619
0
LINE
8
BLACK
6
CONTINUOUS
10
159.063
20
-86.4619
11
158.918
21
-86.5375
0
LINE
8
BLACK
6
CONTINUOUS
10
158.918
20
-86.5375
11
158.76
21
-86.5765
0
LINE
8
BLACK
6
CONTINUOUS
10
158.76
20
-86.5765
11
158.598
21
-86.5765
0
LINE
8
BLACK
6
CONTINUOUS
10
158.598
20
-86.5765
11
158.44
21
-86.5375
0
LINE
8
BLACK
6
CONTINUOUS
10
158.44
20
-86.5375
11
158.296
21
-86.4619
0
LINE
8
BLACK
6
CONTINUOUS
10
158.296
20
-86.4619
11
158.174
21
-86.354
0
LINE
8
BLACK
6
CONTINUOUS
10
158.174
20
-86.354
11
158.081
21
-86.2201
0
LINE
8
BLACK
6
CONTINUOUS
10
158.081
20
-86.2201
11
158.024
21
-86.0679
0
LINE
8
BLACK
6
CONTINUOUS
10
158.024
20
-86.0679
11
158.004
21
-85.9064
0
LINE
8
BLACK
6
CONTINUOUS
10
158.004
20
-85.9064
11
158.024
21
-85.7449
0
LINE
8
BLACK
6
CONTINUOUS
10
158.024
20
-85.7449
11
158.081
21
-85.5927
0
LINE
8
BLACK
6
CONTINUOUS
10
158.081
20
-85.5927
11
158.174
21
-85.4588
0
LINE
8
BLACK
6
CONTINUOUS
10
158.174
20
-85.4588
11
158.296
21
-85.3509
0
LINE
8
BLACK
6
CONTINUOUS
10
158.296
20
-85.3509
11
158.44
21
-85.2753
0
LINE
8
BLACK
6
CONTINUOUS
10
158.44
20
-85.2753
11
158.598
21
-85.2363
0
LINE
8
BLACK
6
CONTINUOUS
10
158.598
20
-85.2363
11
158.76
21
-85.2363
0
LINE
8
BLACK
6
CONTINUOUS
10
158.76
20
-85.2363
11
158.918
21
-85.2753
0
LINE
8
BLACK
6
CONTINUOUS
10
160.918
20
-85.2753
11
161.063
21
-85.3509
0
LINE
8
BLACK
6
CONTINUOUS
10
161.063
20
-85.3509
11
161.184
21
-85.4588
0
LINE
8
BLACK
6
CONTINUOUS
10
161.184
20
-85.4588
11
161.277
21
-85.5927
0
LINE
8
BLACK
6
CONTINUOUS
10
161.277
20
-85.5927
11
161.334
21
-85.7449
0
LINE
8
BLACK
6
CONTINUOUS
10
161.334
20
-85.7449
11
161.354
21
-85.9064
0
LINE
8
BLACK
6
CONTINUOUS
10
161.354
20
-85.9064
11
161.334
21
-86.0679
0
LINE
8
BLACK
6
CONTINUOUS
10
161.334
20
-86.0679
11
161.277
21
-86.2201
0
LINE
8
BLACK
6
CONTINUOUS
10
161.277
20
-86.2201
11
161.184
21
-86.354
0
LINE
8
BLACK
6
CONTINUOUS
10
161.184
20
-86.354
11
161.063
21
-86.4619
0
LINE
8
BLACK
6
CONTINUOUS
10
161.063
20
-86.4619
11
160.918
21
-86.5375
0
LINE
8
BLACK
6
CONTINUOUS
10
160.918
20
-86.5375
11
160.76
21
-86.5765
0
LINE
8
BLACK
6
CONTINUOUS
10
160.76
20
-86.5765
11
160.598
21
-86.5765
0
LINE
8
BLACK
6
CONTINUOUS
10
160.598
20
-86.5765
11
160.44
21
-86.5375
0
LINE
8
BLACK
6
CONTINUOUS
10
160.44
20
-86.5375
11
160.296
21
-86.4619
0
LINE
8
BLACK
6
CONTINUOUS
10
160.296
20
-86.4619
11
160.174
21
-86.354
0
LINE
8
BLACK
6
CONTINUOUS
10
160.174
20
-86.354
11
160.081
21
-86.2201
0
LINE
8
BLACK
6
CONTINUOUS
10
160.081
20
-86.2201
11
160.024
21
-86.0679
0
LINE
8
BLACK
6
CONTINUOUS
10
160.024
20
-86.0679
11
160.004
21
-85.9064
0
LINE
8
BLACK
6
CONTINUOUS
10
160.004
20
-85.9064
11
160.024
21
-85.7449
0
LINE
8
BLACK
6
CONTINUOUS
10
160.024
20
-85.7449
11
160.081
21
-85.5927
0
LINE
8
BLACK
6
CONTINUOUS
10
160.081
20
-85.5927
11
160.174
21
-85.4588
0
LINE
8
BLACK
6
CONTINUOUS
10
160.174
20
-85.4588
11
160.296
21
-85.3509
0
LINE
8
BLACK
6
CONTINUOUS
10
160.296
20
-85.3509
11
160.44
21
-85.2753
0
LINE
8
BLACK
6
CONTINUOUS
10
160.44
20
-85.2753
11
160.598
21
-85.2363
0
LINE
8
BLACK
6
CONTINUOUS
10
160.598
20
-85.2363
11
160.76
21
-85.2363
0
LINE
8
BLACK
6
CONTINUOUS
10
160.76
20
-85.2363
11
160.918
21
-85.2753
0
LINE
8
BLACK
6
CONTINUOUS
10
158.918
20
-83.2753
11
159.063
21
-83.3509
0
LINE
8
BLACK
6
CONTINUOUS
10
159.063
20
-83.3509
11
159.184
21
-83.4588
0
LINE
8
BLACK
6
CONTINUOUS
10
159.184
20
-83.4588
11
159.277
21
-83.5927
0
LINE
8
BLACK
6
CONTINUOUS
10
159.277
20
-83.5927
11
159.334
21
-83.7449
0
LINE
8
BLACK
6
CONTINUOUS
10
159.334
20
-83.7449
11
159.354
21
-83.9064
0
LINE
8
BLACK
6
CONTINUOUS
10
159.354
20
-83.9064
11
159.334
21
-84.0679
0
LINE
8
BLACK
6
CONTINUOUS
10
159.334
20
-84.0679
11
159.277
21
-84.2201
0
LINE
8
BLACK
6
CONTINUOUS
10
159.277
20
-84.2201
11
159.184
21
-84.354
0
LINE
8
BLACK
6
CONTINUOUS
10
159.184
20
-84.354
11
159.063
21
-84.4619
0
LINE
8
BLACK
6
CONTINUOUS
10
159.063
20
-84.4619
11
158.918
21
-84.5375
0
LINE
8
BLACK
6
CONTINUOUS
10
158.918
20
-84.5375
11
158.76
21
-84.5765
0
LINE
8
BLACK
6
CONTINUOUS
10
158.76
20
-84.5765
11
158.598
21
-84.5765
0
LINE
8
BLACK
6
CONTINUOUS
10
158.598
20
-84.5765
11
158.44
21
-84.5375
0
LINE
8
BLACK
6
CONTINUOUS
10
158.44
20
-84.5375
11
158.296
21
-84.4619
0
LINE
8
BLACK
6
CONTINUOUS
10
158.296
20
-84.4619
11
158.174
21
-84.354
0
LINE
8
BLACK
6
CONTINUOUS
10
158.174
20
-84.354
11
158.081
21
-84.2201
0
LINE
8
BLACK
6
CONTINUOUS
10
158.081
20
-84.2201
11
158.024
21
-84.0679
0
LINE
8
BLACK
6
CONTINUOUS
10
158.024
20
-84.0679
11
158.004
21
-83.9064
0
LINE
8
BLACK
6
CONTINUOUS
10
158.004
20
-83.9064
11
158.024
21
-83.7449
0
LINE
8
BLACK
6
CONTINUOUS
10
158.024
20
-83.7449
11
158.081
21
-83.5927
0
LINE
8
BLACK
6
CONTINUOUS
10
158.081
20
-83.5927
11
158.174
21
-83.4588
0
LINE
8
BLACK
6
CONTINUOUS
10
158.174
20
-83.4588
11
158.296
21
-83.3509
0
LINE
8
BLACK
6
CONTINUOUS
10
158.296
20
-83.3509
11
158.44
21
-83.2753
0
LINE
8
BLACK
6
CONTINUOUS
10
158.44
20
-83.2753
11
158.598
21
-83.2363
0
LINE
8
BLACK
6
CONTINUOUS
10
158.598
20
-83.2363
11
158.76
21
-83.2363
0
LINE
8
BLACK
6
CONTINUOUS
10
158.76
20
-83.2363
11
158.918
21
-83.2753
0
LINE
8
BLACK
6
CONTINUOUS
10
160.918
20
-83.2753
11
161.063
21
-83.3509
0
LINE
8
BLACK
6
CONTINUOUS
10
161.063
20
-83.3509
11
161.184
21
-83.4588
0
LINE
8
BLACK
6
CONTINUOUS
10
161.184
20
-83.4588
11
161.277
21
-83.5927
0
LINE
8
BLACK
6
CONTINUOUS
10
161.277
20
-83.5927
11
161.334
21
-83.7449
0
LINE
8
BLACK
6
CONTINUOUS
10
161.334
20
-83.7449
11
161.354
21
-83.9064
0
LINE
8
BLACK
6
CONTINUOUS
10
161.354
20
-83.9064
11
161.334
21
-84.0679
0
LINE
8
BLACK
6
CONTINUOUS
10
161.334
20
-84.0679
11
161.277
21
-84.2201
0
LINE
8
BLACK
6
CONTINUOUS
10
161.277
20
-84.2201
11
161.184
21
-84.354
0
LINE
8
BLACK
6
CONTINUOUS
10
161.184
20
-84.354
11
161.063
21
-84.4619
0
LINE
8
BLACK
6
CONTINUOUS
10
161.063
20
-84.4619
11
160.918
21
-84.5375
0
LINE
8
BLACK
6
CONTINUOUS
10
160.918
20
-84.5375
11
160.76
21
-84.5765
0
LINE
8
BLACK
6
CONTINUOUS
10
160.76
20
-84.5765
11
160.598
21
-84.5765
0
LINE
8
BLACK
6
CONTINUOUS
10
160.598
20
-84.5765
11
160.44
21
-84.5375
0
LINE
8
BLACK
6
CONTINUOUS
10
160.44
20
-84.5375
11
160.296
21
-84.4619
0
LINE
8
BLACK
6
CONTINUOUS
10
160.296
20
-84.4619
11
160.174
21
-84.354
0
LINE
8
BLACK
6
CONTINUOUS
10
160.174
20
-84.354
11
160.081
21
-84.2201
0
LINE
8
BLACK
6
CONTINUOUS
10
160.081
20
-84.2201
11
160.024
21
-84.0679
0
LINE
8
BLACK
6
CONTINUOUS
10
160.024
20
-84.0679
11
160.004
21
-83.9064
0
LINE
8
BLACK
6
CONTINUOUS
10
160.004
20
-83.9064
11
160.024
21
-83.7449
0
LINE
8
BLACK
6
CONTINUOUS
10
160.024
20
-83.7449
11
160.081
21
-83.5927
0
LINE
8
BLACK
6
CONTINUOUS
10
160.081
20
-83.5927
11
160.174
21
-83.4588
0
LINE
8
BLACK
6
CONTINUOUS
10
160.174
20
-83.4588
11
160.296
21
-83.3509
0
LINE
8
BLACK
6
CONTINUOUS
10
160.296
20
-83.3509
11
160.44
21
-83.2753
0
LINE
8
BLACK
6
CONTINUOUS
10
160.44
20
-83.2753
11
160.598
21
-83.2363
0
LINE
8
BLACK
6
CONTINUOUS
10
160.598
20
-83.2363
11
160.76
21
-83.2363
0
LINE
8
BLACK
6
CONTINUOUS
10
160.76
20
-83.2363
11
160.918
21
-83.2753
0
LINE
8
BLACK
6
CONTINUOUS
10
120.025
20
-83.2763
11
120.102
21
-83.3278
0
LINE
8
BLACK
6
CONTINUOUS
10
120.102
20
-83.3278
11
120.153
21
-83.4048
0
LINE
8
BLACK
6
CONTINUOUS
10
120.153
20
-83.4048
11
120.171
21
-83.4957
0
LINE
8
BLACK
6
CONTINUOUS
10
120.171
20
-83.4957
11
120.171
21
-84.0957
0
LINE
8
BLACK
6
CONTINUOUS
10
120.171
20
-84.0957
11
120.153
21
-84.1866
0
LINE
8
BLACK
6
CONTINUOUS
10
120.153
20
-84.1866
11
120.102
21
-84.2636
0
LINE
8
BLACK
6
CONTINUOUS
10
120.102
20
-84.2636
11
120.025
21
-84.3151
0
LINE
8
BLACK
6
CONTINUOUS
10
120.025
20
-84.3151
11
119.934
21
-84.3332
0
LINE
8
BLACK
6
CONTINUOUS
10
119.934
20
-84.3332
11
119.459
21
-84.3332
0
LINE
8
BLACK
6
CONTINUOUS
10
119.459
20
-84.3332
11
119.368
21
-84.3151
0
LINE
8
BLACK
6
CONTINUOUS
10
119.368
20
-84.3151
11
119.291
21
-84.2636
0
LINE
8
BLACK
6
CONTINUOUS
10
119.291
20
-84.2636
11
119.24
21
-84.1866
0
LINE
8
BLACK
6
CONTINUOUS
10
119.24
20
-84.1866
11
119.221
21
-84.0957
0
LINE
8
BLACK
6
CONTINUOUS
10
119.221
20
-84.0957
11
119.221
21
-83.4957
0
LINE
8
BLACK
6
CONTINUOUS
10
119.221
20
-83.4957
11
119.24
21
-83.4048
0
LINE
8
BLACK
6
CONTINUOUS
10
119.24
20
-83.4048
11
119.291
21
-83.3278
0
LINE
8
BLACK
6
CONTINUOUS
10
119.291
20
-83.3278
11
119.368
21
-83.2763
0
LINE
8
BLACK
6
CONTINUOUS
10
119.368
20
-83.2763
11
119.459
21
-83.2582
0
LINE
8
BLACK
6
CONTINUOUS
10
119.459
20
-83.2582
11
119.934
21
-83.2582
0
LINE
8
BLACK
6
CONTINUOUS
10
119.934
20
-83.2582
11
120.025
21
-83.2763
0
LINE
8
BLACK
6
CONTINUOUS
10
122.031
20
-83.2763
11
122.109
21
-83.3278
0
LINE
8
BLACK
6
CONTINUOUS
10
122.109
20
-83.3278
11
122.16
21
-83.4048
0
LINE
8
BLACK
6
CONTINUOUS
10
122.16
20
-83.4048
11
122.178
21
-83.4957
0
LINE
8
BLACK
6
CONTINUOUS
10
122.178
20
-83.4957
11
122.178
21
-84.0957
0
LINE
8
BLACK
6
CONTINUOUS
10
122.178
20
-84.0957
11
122.16
21
-84.1866
0
LINE
8
BLACK
6
CONTINUOUS
10
122.16
20
-84.1866
11
122.109
21
-84.2636
0
LINE
8
BLACK
6
CONTINUOUS
10
122.109
20
-84.2636
11
122.031
21
-84.3151
0
LINE
8
BLACK
6
CONTINUOUS
10
122.031
20
-84.3151
11
121.941
21
-84.3332
0
LINE
8
BLACK
6
CONTINUOUS
10
121.941
20
-84.3332
11
121.466
21
-84.3332
0
LINE
8
BLACK
6
CONTINUOUS
10
121.466
20
-84.3332
11
121.375
21
-84.3151
0
LINE
8
BLACK
6
CONTINUOUS
10
121.375
20
-84.3151
11
121.298
21
-84.2636
0
LINE
8
BLACK
6
CONTINUOUS
10
121.298
20
-84.2636
11
121.246
21
-84.1866
0
LINE
8
BLACK
6
CONTINUOUS
10
121.246
20
-84.1866
11
121.228
21
-84.0957
0
LINE
8
BLACK
6
CONTINUOUS
10
121.228
20
-84.0957
11
121.228
21
-83.4957
0
LINE
8
BLACK
6
CONTINUOUS
10
121.228
20
-83.4957
11
121.246
21
-83.4048
0
LINE
8
BLACK
6
CONTINUOUS
10
121.246
20
-83.4048
11
121.298
21
-83.3278
0
LINE
8
BLACK
6
CONTINUOUS
10
121.298
20
-83.3278
11
121.375
21
-83.2763
0
LINE
8
BLACK
6
CONTINUOUS
10
121.375
20
-83.2763
11
121.466
21
-83.2582
0
LINE
8
BLACK
6
CONTINUOUS
10
121.466
20
-83.2582
11
121.941
21
-83.2582
0
LINE
8
BLACK
6
CONTINUOUS
10
121.941
20
-83.2582
11
122.031
21
-83.2763
0
LINE
8
BLACK
6
CONTINUOUS
10
158.918
20
-81.2753
11
159.063
21
-81.3509
0
LINE
8
BLACK
6
CONTINUOUS
10
159.063
20
-81.3509
11
159.184
21
-81.4588
0
LINE
8
BLACK
6
CONTINUOUS
10
159.184
20
-81.4588
11
159.277
21
-81.5927
0
LINE
8
BLACK
6
CONTINUOUS
10
159.277
20
-81.5927
11
159.334
21
-81.7449
0
LINE
8
BLACK
6
CONTINUOUS
10
159.334
20
-81.7449
11
159.354
21
-81.9064
0
LINE
8
BLACK
6
CONTINUOUS
10
159.354
20
-81.9064
11
159.334
21
-82.0679
0
LINE
8
BLACK
6
CONTINUOUS
10
159.334
20
-82.0679
11
159.277
21
-82.2201
0
LINE
8
BLACK
6
CONTINUOUS
10
159.277
20
-82.2201
11
159.184
21
-82.354
0
LINE
8
BLACK
6
CONTINUOUS
10
159.184
20
-82.354
11
159.063
21
-82.4619
0
LINE
8
BLACK
6
CONTINUOUS
10
159.063
20
-82.4619
11
158.918
21
-82.5375
0
LINE
8
BLACK
6
CONTINUOUS
10
158.918
20
-82.5375
11
158.76
21
-82.5765
0
LINE
8
BLACK
6
CONTINUOUS
10
158.76
20
-82.5765
11
158.598
21
-82.5765
0
LINE
8
BLACK
6
CONTINUOUS
10
158.598
20
-82.5765
11
158.44
21
-82.5375
0
LINE
8
BLACK
6
CONTINUOUS
10
158.44
20
-82.5375
11
158.296
21
-82.4619
0
LINE
8
BLACK
6
CONTINUOUS
10
158.296
20
-82.4619
11
158.174
21
-82.354
0
LINE
8
BLACK
6
CONTINUOUS
10
158.174
20
-82.354
11
158.081
21
-82.2201
0
LINE
8
BLACK
6
CONTINUOUS
10
158.081
20
-82.2201
11
158.024
21
-82.0679
0
LINE
8
BLACK
6
CONTINUOUS
10
158.024
20
-82.0679
11
158.004
21
-81.9064
0
LINE
8
BLACK
6
CONTINUOUS
10
158.004
20
-81.9064
11
158.024
21
-81.7449
0
LINE
8
BLACK
6
CONTINUOUS
10
158.024
20
-81.7449
11
158.081
21
-81.5927
0
LINE
8
BLACK
6
CONTINUOUS
10
158.081
20
-81.5927
11
158.174
21
-81.4588
0
LINE
8
BLACK
6
CONTINUOUS
10
158.174
20
-81.4588
11
158.296
21
-81.3509
0
LINE
8
BLACK
6
CONTINUOUS
10
158.296
20
-81.3509
11
158.44
21
-81.2753
0
LINE
8
BLACK
6
CONTINUOUS
10
158.44
20
-81.2753
11
158.598
21
-81.2363
0
LINE
8
BLACK
6
CONTINUOUS
10
158.598
20
-81.2363
11
158.76
21
-81.2363
0
LINE
8
BLACK
6
CONTINUOUS
10
158.76
20
-81.2363
11
158.918
21
-81.2753
0
LINE
8
BLACK
6
CONTINUOUS
10
160.918
20
-81.2753
11
161.063
21
-81.3509
0
LINE
8
BLACK
6
CONTINUOUS
10
161.063
20
-81.3509
11
161.184
21
-81.4588
0
LINE
8
BLACK
6
CONTINUOUS
10
161.184
20
-81.4588
11
161.277
21
-81.5927
0
LINE
8
BLACK
6
CONTINUOUS
10
161.277
20
-81.5927
11
161.334
21
-81.7449
0
LINE
8
BLACK
6
CONTINUOUS
10
161.334
20
-81.7449
11
161.354
21
-81.9064
0
LINE
8
BLACK
6
CONTINUOUS
10
161.354
20
-81.9064
11
161.334
21
-82.0679
0
LINE
8
BLACK
6
CONTINUOUS
10
161.334
20
-82.0679
11
161.277
21
-82.2201
0
LINE
8
BLACK
6
CONTINUOUS
10
161.277
20
-82.2201
11
161.184
21
-82.354
0
LINE
8
BLACK
6
CONTINUOUS
10
161.184
20
-82.354
11
161.063
21
-82.4619
0
LINE
8
BLACK
6
CONTINUOUS
10
161.063
20
-82.4619
11
160.918
21
-82.5375
0
LINE
8
BLACK
6
CONTINUOUS
10
160.918
20
-82.5375
11
160.76
21
-82.5765
0
LINE
8
BLACK
6
CONTINUOUS
10
160.76
20
-82.5765
11
160.598
21
-82.5765
0
LINE
8
BLACK
6
CONTINUOUS
10
160.598
20
-82.5765
11
160.44
21
-82.5375
0
LINE
8
BLACK
6
CONTINUOUS
10
160.44
20
-82.5375
11
160.296
21
-82.4619
0
LINE
8
BLACK
6
CONTINUOUS
10
160.296
20
-82.4619
11
160.174
21
-82.354
0
LINE
8
BLACK
6
CONTINUOUS
10
160.174
20
-82.354
11
160.081
21
-82.2201
0
LINE
8
BLACK
6
CONTINUOUS
10
160.081
20
-82.2201
11
160.024
21
-82.0679
0
LINE
8
BLACK
6
CONTINUOUS
10
160.024
20
-82.0679
11
160.004
21
-81.9064
0
LINE
8
BLACK
6
CONTINUOUS
10
160.004
20
-81.9064
11
160.024
21
-81.7449
0
LINE
8
BLACK
6
CONTINUOUS
10
160.024
20
-81.7449
11
160.081
21
-81.5927
0
LINE
8
BLACK
6
CONTINUOUS
10
160.081
20
-81.5927
11
160.174
21
-81.4588
0
LINE
8
BLACK
6
CONTINUOUS
10
160.174
20
-81.4588
11
160.296
21
-81.3509
0
LINE
8
BLACK
6
CONTINUOUS
10
160.296
20
-81.3509
11
160.44
21
-81.2753
0
LINE
8
BLACK
6
CONTINUOUS
10
160.44
20
-81.2753
11
160.598
21
-81.2363
0
LINE
8
BLACK
6
CONTINUOUS
10
160.598
20
-81.2363
11
160.76
21
-81.2363
0
LINE
8
BLACK
6
CONTINUOUS
10
160.76
20
-81.2363
11
160.918
21
-81.2753
0
LINE
8
BLACK
6
CONTINUOUS
10
120.088
20
-81.4581
11
120.166
21
-81.5096
0
LINE
8
BLACK
6
CONTINUOUS
10
120.166
20
-81.5096
11
120.217
21
-81.5866
0
LINE
8
BLACK
6
CONTINUOUS
10
120.217
20
-81.5866
11
120.235
21
-81.6775
0
LINE
8
BLACK
6
CONTINUOUS
10
120.235
20
-81.6775
11
120.235
21
-82.1525
0
LINE
8
BLACK
6
CONTINUOUS
10
120.235
20
-82.1525
11
120.217
21
-82.2434
0
LINE
8
BLACK
6
CONTINUOUS
10
120.217
20
-82.2434
11
120.166
21
-82.3204
0
LINE
8
BLACK
6
CONTINUOUS
10
120.166
20
-82.3204
11
120.088
21
-82.3719
0
LINE
8
BLACK
6
CONTINUOUS
10
120.088
20
-82.3719
11
119.998
21
-82.39
0
LINE
8
BLACK
6
CONTINUOUS
10
119.998
20
-82.39
11
119.398
21
-82.39
0
LINE
8
BLACK
6
CONTINUOUS
10
119.398
20
-82.39
11
119.307
21
-82.3719
0
LINE
8
BLACK
6
CONTINUOUS
10
119.307
20
-82.3719
11
119.23
21
-82.3204
0
LINE
8
BLACK
6
CONTINUOUS
10
119.23
20
-82.3204
11
119.178
21
-82.2434
0
LINE
8
BLACK
6
CONTINUOUS
10
119.178
20
-82.2434
11
119.16
21
-82.1525
0
LINE
8
BLACK
6
CONTINUOUS
10
119.16
20
-82.1525
11
119.16
21
-81.6775
0
LINE
8
BLACK
6
CONTINUOUS
10
119.16
20
-81.6775
11
119.178
21
-81.5866
0
LINE
8
BLACK
6
CONTINUOUS
10
119.178
20
-81.5866
11
119.23
21
-81.5096
0
LINE
8
BLACK
6
CONTINUOUS
10
119.23
20
-81.5096
11
119.307
21
-81.4581
0
LINE
8
BLACK
6
CONTINUOUS
10
119.307
20
-81.4581
11
119.398
21
-81.44
0
LINE
8
BLACK
6
CONTINUOUS
10
119.398
20
-81.44
11
119.998
21
-81.44
0
LINE
8
BLACK
6
CONTINUOUS
10
119.998
20
-81.44
11
120.088
21
-81.4581
0
LINE
8
BLACK
6
CONTINUOUS
10
121.813
20
-81.4581
11
121.891
21
-81.5096
0
LINE
8
BLACK
6
CONTINUOUS
10
121.891
20
-81.5096
11
121.942
21
-81.5866
0
LINE
8
BLACK
6
CONTINUOUS
10
121.942
20
-81.5866
11
121.96
21
-81.6775
0
LINE
8
BLACK
6
CONTINUOUS
10
121.96
20
-81.6775
11
121.96
21
-82.1525
0
LINE
8
BLACK
6
CONTINUOUS
10
121.96
20
-82.1525
11
121.942
21
-82.2434
0
LINE
8
BLACK
6
CONTINUOUS
10
121.942
20
-82.2434
11
121.891
21
-82.3204
0
LINE
8
BLACK
6
CONTINUOUS
10
121.891
20
-82.3204
11
121.813
21
-82.3719
0
LINE
8
BLACK
6
CONTINUOUS
10
121.813
20
-82.3719
11
121.723
21
-82.39
0
LINE
8
BLACK
6
CONTINUOUS
10
121.723
20
-82.39
11
121.123
21
-82.39
0
LINE
8
BLACK
6
CONTINUOUS
10
121.123
20
-82.39
11
121.032
21
-82.3719
0
LINE
8
BLACK
6
CONTINUOUS
10
121.032
20
-82.3719
11
120.955
21
-82.3204
0
LINE
8
BLACK
6
CONTINUOUS
10
120.955
20
-82.3204
11
120.903
21
-82.2434
0
LINE
8
BLACK
6
CONTINUOUS
10
120.903
20
-82.2434
11
120.885
21
-82.1525
0
LINE
8
BLACK
6
CONTINUOUS
10
120.885
20
-82.1525
11
120.885
21
-81.6775
0
LINE
8
BLACK
6
CONTINUOUS
10
120.885
20
-81.6775
11
120.903
21
-81.5866
0
LINE
8
BLACK
6
CONTINUOUS
10
120.903
20
-81.5866
11
120.955
21
-81.5096
0
LINE
8
BLACK
6
CONTINUOUS
10
120.955
20
-81.5096
11
121.032
21
-81.4581
0
LINE
8
BLACK
6
CONTINUOUS
10
121.032
20
-81.4581
11
121.123
21
-81.44
0
LINE
8
BLACK
6
CONTINUOUS
10
121.123
20
-81.44
11
121.723
21
-81.44
0
LINE
8
BLACK
6
CONTINUOUS
10
121.723
20
-81.44
11
121.813
21
-81.4581
0
LINE
8
BLACK
6
CONTINUOUS
10
158.918
20
-79.2753
11
159.063
21
-79.3509
0
LINE
8
BLACK
6
CONTINUOUS
10
159.063
20
-79.3509
11
159.184
21
-79.4588
0
LINE
8
BLACK
6
CONTINUOUS
10
159.184
20
-79.4588
11
159.277
21
-79.5927
0
LINE
8
BLACK
6
CONTINUOUS
10
159.277
20
-79.5927
11
159.334
21
-79.7449
0
LINE
8
BLACK
6
CONTINUOUS
10
159.334
20
-79.7449
11
159.354
21
-79.9064
0
LINE
8
BLACK
6
CONTINUOUS
10
159.354
20
-79.9064
11
159.334
21
-80.0679
0
LINE
8
BLACK
6
CONTINUOUS
10
159.334
20
-80.0679
11
159.277
21
-80.2201
0
LINE
8
BLACK
6
CONTINUOUS
10
159.277
20
-80.2201
11
159.184
21
-80.354
0
LINE
8
BLACK
6
CONTINUOUS
10
159.184
20
-80.354
11
159.063
21
-80.4619
0
LINE
8
BLACK
6
CONTINUOUS
10
159.063
20
-80.4619
11
158.918
21
-80.5375
0
LINE
8
BLACK
6
CONTINUOUS
10
158.918
20
-80.5375
11
158.76
21
-80.5765
0
LINE
8
BLACK
6
CONTINUOUS
10
158.76
20
-80.5765
11
158.598
21
-80.5765
0
LINE
8
BLACK
6
CONTINUOUS
10
158.598
20
-80.5765
11
158.44
21
-80.5375
0
LINE
8
BLACK
6
CONTINUOUS
10
158.44
20
-80.5375
11
158.296
21
-80.4619
0
LINE
8
BLACK
6
CONTINUOUS
10
158.296
20
-80.4619
11
158.174
21
-80.354
0
LINE
8
BLACK
6
CONTINUOUS
10
158.174
20
-80.354
11
158.081
21
-80.2201
0
LINE
8
BLACK
6
CONTINUOUS
10
158.081
20
-80.2201
11
158.024
21
-80.0679
0
LINE
8
BLACK
6
CONTINUOUS
10
158.024
20
-80.0679
11
158.004
21
-79.9064
0
LINE
8
BLACK
6
CONTINUOUS
10
158.004
20
-79.9064
11
158.024
21
-79.7449
0
LINE
8
BLACK
6
CONTINUOUS
10
158.024
20
-79.7449
11
158.081
21
-79.5927
0
LINE
8
BLACK
6
CONTINUOUS
10
158.081
20
-79.5927
11
158.174
21
-79.4588
0
LINE
8
BLACK
6
CONTINUOUS
10
158.174
20
-79.4588
11
158.296
21
-79.3509
0
LINE
8
BLACK
6
CONTINUOUS
10
158.296
20
-79.3509
11
158.44
21
-79.2753
0
LINE
8
BLACK
6
CONTINUOUS
10
158.44
20
-79.2753
11
158.598
21
-79.2363
0
LINE
8
BLACK
6
CONTINUOUS
10
158.598
20
-79.2363
11
158.76
21
-79.2363
0
LINE
8
BLACK
6
CONTINUOUS
10
158.76
20
-79.2363
11
158.918
21
-79.2753
0
LINE
8
BLACK
6
CONTINUOUS
10
160.918
20
-79.2753
11
161.063
21
-79.3509
0
LINE
8
BLACK
6
CONTINUOUS
10
161.063
20
-79.3509
11
161.184
21
-79.4588
0
LINE
8
BLACK
6
CONTINUOUS
10
161.184
20
-79.4588
11
161.277
21
-79.5927
0
LINE
8
BLACK
6
CONTINUOUS
10
161.277
20
-79.5927
11
161.334
21
-79.7449
0
LINE
8
BLACK
6
CONTINUOUS
10
161.334
20
-79.7449
11
161.354
21
-79.9064
0
LINE
8
BLACK
6
CONTINUOUS
10
161.354
20
-79.9064
11
161.334
21
-80.0679
0
LINE
8
BLACK
6
CONTINUOUS
10
161.334
20
-80.0679
11
161.277
21
-80.2201
0
LINE
8
BLACK
6
CONTINUOUS
10
161.277
20
-80.2201
11
161.184
21
-80.354
0
LINE
8
BLACK
6
CONTINUOUS
10
161.184
20
-80.354
11
161.063
21
-80.4619
0
LINE
8
BLACK
6
CONTINUOUS
10
161.063
20
-80.4619
11
160.918
21
-80.5375
0
LINE
8
BLACK
6
CONTINUOUS
10
160.918
20
-80.5375
11
160.76
21
-80.5765
0
LINE
8
BLACK
6
CONTINUOUS
10
160.76
20
-80.5765
11
160.598
21
-80.5765
0
LINE
8
BLACK
6
CONTINUOUS
10
160.598
20
-80.5765
11
160.44
21
-80.5375
0
LINE
8
BLACK
6
CONTINUOUS
10
160.44
20
-80.5375
11
160.296
21
-80.4619
0
LINE
8
BLACK
6
CONTINUOUS
10
160.296
20
-80.4619
11
160.174
21
-80.354
0
LINE
8
BLACK
6
CONTINUOUS
10
160.174
20
-80.354
11
160.081
21
-80.2201
0
LINE
8
BLACK
6
CONTINUOUS
10
160.081
20
-80.2201
11
160.024
21
-80.0679
0
LINE
8
BLACK
6
CONTINUOUS
10
160.024
20
-80.0679
11
160.004
21
-79.9064
0
LINE
8
BLACK
6
CONTINUOUS
10
160.004
20
-79.9064
11
160.024
21
-79.7449
0
LINE
8
BLACK
6
CONTINUOUS
10
160.024
20
-79.7449
11
160.081
21
-79.5927
0
LINE
8
BLACK
6
CONTINUOUS
10
160.081
20
-79.5927
11
160.174
21
-79.4588
0
LINE
8
BLACK
6
CONTINUOUS
10
160.174
20
-79.4588
11
160.296
21
-79.3509
0
LINE
8
BLACK
6
CONTINUOUS
10
160.296
20
-79.3509
11
160.44
21
-79.2753
0
LINE
8
BLACK
6
CONTINUOUS
10
160.44
20
-79.2753
11
160.598
21
-79.2363
0
LINE
8
BLACK
6
CONTINUOUS
10
160.598
20
-79.2363
11
160.76
21
-79.2363
0
LINE
8
BLACK
6
CONTINUOUS
10
160.76
20
-79.2363
11
160.918
21
-79.2753
0
LINE
8
BLACK
6
CONTINUOUS
10
133.461
20
-79.4895
11
133.539
21
-79.541
0
LINE
8
BLACK
6
CONTINUOUS
10
133.539
20
-79.541
11
133.59
21
-79.618
0
LINE
8
BLACK
6
CONTINUOUS
10
133.59
20
-79.618
11
133.608
21
-79.7089
0
LINE
8
BLACK
6
CONTINUOUS
10
133.608
20
-79.7089
11
133.608
21
-80.3089
0
LINE
8
BLACK
6
CONTINUOUS
10
133.608
20
-80.3089
11
133.59
21
-80.3998
0
LINE
8
BLACK
6
CONTINUOUS
10
133.59
20
-80.3998
11
133.539
21
-80.4768
0
LINE
8
BLACK
6
CONTINUOUS
10
133.539
20
-80.4768
11
133.461
21
-80.5283
0
LINE
8
BLACK
6
CONTINUOUS
10
133.461
20
-80.5283
11
133.371
21
-80.5464
0
LINE
8
BLACK
6
CONTINUOUS
10
133.371
20
-80.5464
11
132.896
21
-80.5464
0
LINE
8
BLACK
6
CONTINUOUS
10
132.896
20
-80.5464
11
132.805
21
-80.5283
0
LINE
8
BLACK
6
CONTINUOUS
10
132.805
20
-80.5283
11
132.728
21
-80.4768
0
LINE
8
BLACK
6
CONTINUOUS
10
132.728
20
-80.4768
11
132.676
21
-80.3998
0
LINE
8
BLACK
6
CONTINUOUS
10
132.676
20
-80.3998
11
132.658
21
-80.3089
0
LINE
8
BLACK
6
CONTINUOUS
10
132.658
20
-80.3089
11
132.658
21
-79.7089
0
LINE
8
BLACK
6
CONTINUOUS
10
132.658
20
-79.7089
11
132.676
21
-79.618
0
LINE
8
BLACK
6
CONTINUOUS
10
132.676
20
-79.618
11
132.728
21
-79.541
0
LINE
8
BLACK
6
CONTINUOUS
10
132.728
20
-79.541
11
132.805
21
-79.4895
0
LINE
8
BLACK
6
CONTINUOUS
10
132.805
20
-79.4895
11
132.896
21
-79.4714
0
LINE
8
BLACK
6
CONTINUOUS
10
132.896
20
-79.4714
11
133.371
21
-79.4714
0
LINE
8
BLACK
6
CONTINUOUS
10
133.371
20
-79.4714
11
133.461
21
-79.4895
0
LINE
8
BLACK
6
CONTINUOUS
10
133.461
20
-77.7645
11
133.539
21
-77.816
0
LINE
8
BLACK
6
CONTINUOUS
10
133.539
20
-77.816
11
133.59
21
-77.893
0
LINE
8
BLACK
6
CONTINUOUS
10
133.59
20
-77.893
11
133.608
21
-77.9839
0
LINE
8
BLACK
6
CONTINUOUS
10
133.608
20
-77.9839
11
133.608
21
-78.5839
0
LINE
8
BLACK
6
CONTINUOUS
10
133.608
20
-78.5839
11
133.59
21
-78.6748
0
LINE
8
BLACK
6
CONTINUOUS
10
133.59
20
-78.6748
11
133.539
21
-78.7518
0
LINE
8
BLACK
6
CONTINUOUS
10
133.539
20
-78.7518
11
133.461
21
-78.8033
0
LINE
8
BLACK
6
CONTINUOUS
10
133.461
20
-78.8033
11
133.371
21
-78.8214
0
LINE
8
BLACK
6
CONTINUOUS
10
133.371
20
-78.8214
11
132.896
21
-78.8214
0
LINE
8
BLACK
6
CONTINUOUS
10
132.896
20
-78.8214
11
132.805
21
-78.8033
0
LINE
8
BLACK
6
CONTINUOUS
10
132.805
20
-78.8033
11
132.728
21
-78.7518
0
LINE
8
BLACK
6
CONTINUOUS
10
132.728
20
-78.7518
11
132.676
21
-78.6748
0
LINE
8
BLACK
6
CONTINUOUS
10
132.676
20
-78.6748
11
132.658
21
-78.5839
0
LINE
8
BLACK
6
CONTINUOUS
10
132.658
20
-78.5839
11
132.658
21
-77.9839
0
LINE
8
BLACK
6
CONTINUOUS
10
132.658
20
-77.9839
11
132.676
21
-77.893
0
LINE
8
BLACK
6
CONTINUOUS
10
132.676
20
-77.893
11
132.728
21
-77.816
0
LINE
8
BLACK
6
CONTINUOUS
10
132.728
20
-77.816
11
132.805
21
-77.7645
0
LINE
8
BLACK
6
CONTINUOUS
10
132.805
20
-77.7645
11
132.896
21
-77.7464
0
LINE
8
BLACK
6
CONTINUOUS
10
132.896
20
-77.7464
11
133.371
21
-77.7464
0
LINE
8
BLACK
6
CONTINUOUS
10
133.371
20
-77.7464
11
133.461
21
-77.7645
0
LINE
8
BLACK
6
CONTINUOUS
10
123.444
20
-76.4899
11
123.521
21
-76.5414
0
LINE
8
BLACK
6
CONTINUOUS
10
123.521
20
-76.5414
11
123.573
21
-76.6184
0
LINE
8
BLACK
6
CONTINUOUS
10
123.573
20
-76.6184
11
123.591
21
-76.7093
0
LINE
8
BLACK
6
CONTINUOUS
10
123.591
20
-76.7093
11
123.591
21
-77.1843
0
LINE
8
BLACK
6
CONTINUOUS
10
123.591
20
-77.1843
11
123.573
21
-77.2752
0
LINE
8
BLACK
6
CONTINUOUS
10
123.573
20
-77.2752
11
123.521
21
-77.3522
0
LINE
8
BLACK
6
CONTINUOUS
10
123.521
20
-77.3522
11
123.444
21
-77.4037
0
LINE
8
BLACK
6
CONTINUOUS
10
123.444
20
-77.4037
11
123.353
21
-77.4218
0
LINE
8
BLACK
6
CONTINUOUS
10
123.353
20
-77.4218
11
122.753
21
-77.4218
0
LINE
8
BLACK
6
CONTINUOUS
10
122.753
20
-77.4218
11
122.663
21
-77.4037
0
LINE
8
BLACK
6
CONTINUOUS
10
122.663
20
-77.4037
11
122.585
21
-77.3522
0
LINE
8
BLACK
6
CONTINUOUS
10
122.585
20
-77.3522
11
122.534
21
-77.2752
0
LINE
8
BLACK
6
CONTINUOUS
10
122.534
20
-77.2752
11
122.516
21
-77.1843
0
LINE
8
BLACK
6
CONTINUOUS
10
122.516
20
-77.1843
11
122.516
21
-76.7093
0
LINE
8
BLACK
6
CONTINUOUS
10
122.516
20
-76.7093
11
122.534
21
-76.6184
0
LINE
8
BLACK
6
CONTINUOUS
10
122.534
20
-76.6184
11
122.585
21
-76.5414
0
LINE
8
BLACK
6
CONTINUOUS
10
122.585
20
-76.5414
11
122.663
21
-76.4899
0
LINE
8
BLACK
6
CONTINUOUS
10
122.663
20
-76.4899
11
122.753
21
-76.4718
0
LINE
8
BLACK
6
CONTINUOUS
10
122.753
20
-76.4718
11
123.353
21
-76.4718
0
LINE
8
BLACK
6
CONTINUOUS
10
123.353
20
-76.4718
11
123.444
21
-76.4899
0
LINE
8
BLACK
6
CONTINUOUS
10
125.169
20
-76.4899
11
125.246
21
-76.5414
0
LINE
8
BLACK
6
CONTINUOUS
10
125.246
20
-76.5414
11
125.298
21
-76.6184
0
LINE
8
BLACK
6
CONTINUOUS
10
125.298
20
-76.6184
11
125.316
21
-76.7093
0
LINE
8
BLACK
6
CONTINUOUS
10
125.316
20
-76.7093
11
125.316
21
-77.1843
0
LINE
8
BLACK
6
CONTINUOUS
10
125.316
20
-77.1843
11
125.298
21
-77.2752
0
LINE
8
BLACK
6
CONTINUOUS
10
125.298
20
-77.2752
11
125.246
21
-77.3522
0
LINE
8
BLACK
6
CONTINUOUS
10
125.246
20
-77.3522
11
125.169
21
-77.4037
0
LINE
8
BLACK
6
CONTINUOUS
10
125.169
20
-77.4037
11
125.078
21
-77.4218
0
LINE
8
BLACK
6
CONTINUOUS
10
125.078
20
-77.4218
11
124.478
21
-77.4218
0
LINE
8
BLACK
6
CONTINUOUS
10
124.478
20
-77.4218
11
124.388
21
-77.4037
0
LINE
8
BLACK
6
CONTINUOUS
10
124.388
20
-77.4037
11
124.31
21
-77.3522
0
LINE
8
BLACK
6
CONTINUOUS
10
124.31
20
-77.3522
11
124.259
21
-77.2752
0
LINE
8
BLACK
6
CONTINUOUS
10
124.259
20
-77.2752
11
124.241
21
-77.1843
0
LINE
8
BLACK
6
CONTINUOUS
10
124.241
20
-77.1843
11
124.241
21
-76.7093
0
LINE
8
BLACK
6
CONTINUOUS
10
124.241
20
-76.7093
11
124.259
21
-76.6184
0
LINE
8
BLACK
6
CONTINUOUS
10
124.259
20
-76.6184
11
124.31
21
-76.5414
0
LINE
8
BLACK
6
CONTINUOUS
10
124.31
20
-76.5414
11
124.388
21
-76.4899
0
LINE
8
BLACK
6
CONTINUOUS
10
124.388
20
-76.4899
11
124.478
21
-76.4718
0
LINE
8
BLACK
6
CONTINUOUS
10
124.478
20
-76.4718
11
125.078
21
-76.4718
0
LINE
8
BLACK
6
CONTINUOUS
10
125.078
20
-76.4718
11
125.169
21
-76.4899
0
LINE
8
BLACK
6
CONTINUOUS
10
112.92
20
-60.2287
11
113.274
21
-60.2888
0
LINE
8
BLACK
6
CONTINUOUS
10
113.274
20
-60.2888
11
113.619
21
-60.3882
0
LINE
8
BLACK
6
CONTINUOUS
10
113.619
20
-60.3882
11
113.951
21
-60.5255
0
LINE
8
BLACK
6
CONTINUOUS
10
113.951
20
-60.5255
11
114.265
21
-60.6991
0
LINE
8
BLACK
6
CONTINUOUS
10
114.265
20
-60.6991
11
114.557
21
-60.9067
0
LINE
8
BLACK
6
CONTINUOUS
10
114.557
20
-60.9067
11
114.825
21
-61.1459
0
LINE
8
BLACK
6
CONTINUOUS
10
114.825
20
-61.1459
11
115.064
21
-61.4134
0
LINE
8
BLACK
6
CONTINUOUS
10
115.064
20
-61.4134
11
115.272
21
-61.7061
0
LINE
8
BLACK
6
CONTINUOUS
10
115.272
20
-61.7061
11
115.445
21
-62.0202
0
LINE
8
BLACK
6
CONTINUOUS
10
115.445
20
-62.0202
11
115.583
21
-62.3517
0
LINE
8
BLACK
6
CONTINUOUS
10
115.583
20
-62.3517
11
115.682
21
-62.6965
0
LINE
8
BLACK
6
CONTINUOUS
10
115.682
20
-62.6965
11
115.742
21
-63.0503
0
LINE
8
BLACK
6
CONTINUOUS
10
115.742
20
-63.0503
11
115.762
21
-63.4086
0
LINE
8
BLACK
6
CONTINUOUS
10
115.762
20
-63.4086
11
115.742
21
-63.7669
0
LINE
8
BLACK
6
CONTINUOUS
10
115.742
20
-63.7669
11
115.682
21
-64.1207
0
LINE
8
BLACK
6
CONTINUOUS
10
115.682
20
-64.1207
11
115.583
21
-64.4655
0
LINE
8
BLACK
6
CONTINUOUS
10
115.583
20
-64.4655
11
115.445
21
-64.797
0
LINE
8
BLACK
6
CONTINUOUS
10
115.445
20
-64.797
11
115.272
21
-65.1111
0
LINE
8
BLACK
6
CONTINUOUS
10
115.272
20
-65.1111
11
115.064
21
-65.4038
0
LINE
8
BLACK
6
CONTINUOUS
10
115.064
20
-65.4038
11
114.825
21
-65.6713
0
LINE
8
BLACK
6
CONTINUOUS
10
114.825
20
-65.6713
11
114.557
21
-65.9105
0
LINE
8
BLACK
6
CONTINUOUS
10
114.557
20
-65.9105
11
114.265
21
-66.1181
0
LINE
8
BLACK
6
CONTINUOUS
10
114.265
20
-66.1181
11
113.951
21
-66.2917
0
LINE
8
BLACK
6
CONTINUOUS
10
113.951
20
-66.2917
11
113.619
21
-66.429
0
LINE
8
BLACK
6
CONTINUOUS
10
113.619
20
-66.429
11
113.274
21
-66.5284
0
LINE
8
BLACK
6
CONTINUOUS
10
113.274
20
-66.5284
11
112.92
21
-66.5885
0
LINE
8
BLACK
6
CONTINUOUS
10
112.92
20
-66.5885
11
112.562
21
-66.6086
0
LINE
8
BLACK
6
CONTINUOUS
10
112.562
20
-66.6086
11
112.204
21
-66.5885
0
LINE
8
BLACK
6
CONTINUOUS
10
112.204
20
-66.5885
11
111.85
21
-66.5284
0
LINE
8
BLACK
6
CONTINUOUS
10
111.85
20
-66.5284
11
111.505
21
-66.429
0
LINE
8
BLACK
6
CONTINUOUS
10
111.505
20
-66.429
11
111.174
21
-66.2917
0
LINE
8
BLACK
6
CONTINUOUS
10
111.174
20
-66.2917
11
110.86
21
-66.1181
0
LINE
8
BLACK
6
CONTINUOUS
10
110.86
20
-66.1181
11
110.567
21
-65.9105
0
LINE
8
BLACK
6
CONTINUOUS
10
110.567
20
-65.9105
11
110.299
21
-65.6713
0
LINE
8
BLACK
6
CONTINUOUS
10
110.299
20
-65.6713
11
110.06
21
-65.4038
0
LINE
8
BLACK
6
CONTINUOUS
10
110.06
20
-65.4038
11
109.853
21
-65.1111
0
LINE
8
BLACK
6
CONTINUOUS
10
109.853
20
-65.1111
11
109.679
21
-64.797
0
LINE
8
BLACK
6
CONTINUOUS
10
109.679
20
-64.797
11
109.542
21
-64.4655
0
LINE
8
BLACK
6
CONTINUOUS
10
109.542
20
-64.4655
11
109.442
21
-64.1207
0
LINE
8
BLACK
6
CONTINUOUS
10
109.442
20
-64.1207
11
109.382
21
-63.7669
0
LINE
8
BLACK
6
CONTINUOUS
10
109.382
20
-63.7669
11
109.362
21
-63.4086
0
LINE
8
BLACK
6
CONTINUOUS
10
109.362
20
-63.4086
11
109.382
21
-63.0503
0
LINE
8
BLACK
6
CONTINUOUS
10
109.382
20
-63.0503
11
109.442
21
-62.6965
0
LINE
8
BLACK
6
CONTINUOUS
10
109.442
20
-62.6965
11
109.542
21
-62.3517
0
LINE
8
BLACK
6
CONTINUOUS
10
109.542
20
-62.3517
11
109.679
21
-62.0202
0
LINE
8
BLACK
6
CONTINUOUS
10
109.679
20
-62.0202
11
109.853
21
-61.7061
0
LINE
8
BLACK
6
CONTINUOUS
10
109.853
20
-61.7061
11
110.06
21
-61.4134
0
LINE
8
BLACK
6
CONTINUOUS
10
110.06
20
-61.4134
11
110.299
21
-61.1459
0
LINE
8
BLACK
6
CONTINUOUS
10
110.299
20
-61.1459
11
110.567
21
-60.9067
0
LINE
8
BLACK
6
CONTINUOUS
10
110.567
20
-60.9067
11
110.86
21
-60.6991
0
LINE
8
BLACK
6
CONTINUOUS
10
110.86
20
-60.6991
11
111.174
21
-60.5255
0
LINE
8
BLACK
6
CONTINUOUS
10
111.174
20
-60.5255
11
111.505
21
-60.3882
0
LINE
8
BLACK
6
CONTINUOUS
10
111.505
20
-60.3882
11
111.85
21
-60.2888
0
LINE
8
BLACK
6
CONTINUOUS
10
111.85
20
-60.2888
11
112.204
21
-60.2287
0
LINE
8
BLACK
6
CONTINUOUS
10
112.204
20
-60.2287
11
112.562
21
-60.2086
0
LINE
8
BLACK
6
CONTINUOUS
10
112.562
20
-60.2086
11
112.92
21
-60.2287
0
LINE
8
BLACK
6
CONTINUOUS
10
185.92
20
-60.2287
11
186.274
21
-60.2888
0
LINE
8
BLACK
6
CONTINUOUS
10
186.274
20
-60.2888
11
186.619
21
-60.3882
0
LINE
8
BLACK
6
CONTINUOUS
10
186.619
20
-60.3882
11
186.951
21
-60.5255
0
LINE
8
BLACK
6
CONTINUOUS
10
186.951
20
-60.5255
11
187.265
21
-60.6991
0
LINE
8
BLACK
6
CONTINUOUS
10
187.265
20
-60.6991
11
187.557
21
-60.9067
0
LINE
8
BLACK
6
CONTINUOUS
10
187.557
20
-60.9067
11
187.825
21
-61.1459
0
LINE
8
BLACK
6
CONTINUOUS
10
187.825
20
-61.1459
11
188.064
21
-61.4134
0
LINE
8
BLACK
6
CONTINUOUS
10
188.064
20
-61.4134
11
188.272
21
-61.7061
0
LINE
8
BLACK
6
CONTINUOUS
10
188.272
20
-61.7061
11
188.445
21
-62.0202
0
LINE
8
BLACK
6
CONTINUOUS
10
188.445
20
-62.0202
11
188.583
21
-62.3517
0
LINE
8
BLACK
6
CONTINUOUS
10
188.583
20
-62.3517
11
188.682
21
-62.6965
0
LINE
8
BLACK
6
CONTINUOUS
10
188.682
20
-62.6965
11
188.742
21
-63.0503
0
LINE
8
BLACK
6
CONTINUOUS
10
188.742
20
-63.0503
11
188.762
21
-63.4086
0
LINE
8
BLACK
6
CONTINUOUS
10
188.762
20
-63.4086
11
188.742
21
-63.7669
0
LINE
8
BLACK
6
CONTINUOUS
10
188.742
20
-63.7669
11
188.682
21
-64.1207
0
LINE
8
BLACK
6
CONTINUOUS
10
188.682
20
-64.1207
11
188.583
21
-64.4655
0
LINE
8
BLACK
6
CONTINUOUS
10
188.583
20
-64.4655
11
188.445
21
-64.797
0
LINE
8
BLACK
6
CONTINUOUS
10
188.445
20
-64.797
11
188.272
21
-65.1111
0
LINE
8
BLACK
6
CONTINUOUS
10
188.272
20
-65.1111
11
188.064
21
-65.4038
0
LINE
8
BLACK
6
CONTINUOUS
10
188.064
20
-65.4038
11
187.825
21
-65.6713
0
LINE
8
BLACK
6
CONTINUOUS
10
187.825
20
-65.6713
11
187.557
21
-65.9105
0
LINE
8
BLACK
6
CONTINUOUS
10
187.557
20
-65.9105
11
187.265
21
-66.1181
0
LINE
8
BLACK
6
CONTINUOUS
10
187.265
20
-66.1181
11
186.951
21
-66.2917
0
LINE
8
BLACK
6
CONTINUOUS
10
186.951
20
-66.2917
11
186.619
21
-66.429
0
LINE
8
BLACK
6
CONTINUOUS
10
186.619
20
-66.429
11
186.274
21
-66.5284
0
LINE
8
BLACK
6
CONTINUOUS
10
186.274
20
-66.5284
11
185.92
21
-66.5885
0
LINE
8
BLACK
6
CONTINUOUS
10
185.92
20
-66.5885
11
185.562
21
-66.6086
0
LINE
8
BLACK
6
CONTINUOUS
10
185.562
20
-66.6086
11
185.204
21
-66.5885
0
LINE
8
BLACK
6
CONTINUOUS
10
185.204
20
-66.5885
11
184.85
21
-66.5284
0
LINE
8
BLACK
6
CONTINUOUS
10
184.85
20
-66.5284
11
184.505
21
-66.429
0
LINE
8
BLACK
6
CONTINUOUS
10
184.505
20
-66.429
11
184.174
21
-66.2917
0
LINE
8
BLACK
6
CONTINUOUS
10
184.174
20
-66.2917
11
183.86
21
-66.1181
0
LINE
8
BLACK
6
CONTINUOUS
10
183.86
20
-66.1181
11
183.567
21
-65.9105
0
LINE
8
BLACK
6
CONTINUOUS
10
183.567
20
-65.9105
11
183.299
21
-65.6713
0
LINE
8
BLACK
6
CONTINUOUS
10
183.299
20
-65.6713
11
183.06
21
-65.4038
0
LINE
8
BLACK
6
CONTINUOUS
10
183.06
20
-65.4038
11
182.853
21
-65.1111
0
LINE
8
BLACK
6
CONTINUOUS
10
182.853
20
-65.1111
11
182.679
21
-64.797
0
LINE
8
BLACK
6
CONTINUOUS
10
182.679
20
-64.797
11
182.542
21
-64.4655
0
LINE
8
BLACK
6
CONTINUOUS
10
182.542
20
-64.4655
11
182.442
21
-64.1207
0
LINE
8
BLACK
6
CONTINUOUS
10
182.442
20
-64.1207
11
182.382
21
-63.7669
0
LINE
8
BLACK
6
CONTINUOUS
10
182.382
20
-63.7669
11
182.362
21
-63.4086
0
LINE
8
BLACK
6
CONTINUOUS
10
182.362
20
-63.4086
11
182.382
21
-63.0503
0
LINE
8
BLACK
6
CONTINUOUS
10
182.382
20
-63.0503
11
182.442
21
-62.6965
0
LINE
8
BLACK
6
CONTINUOUS
10
182.442
20
-62.6965
11
182.542
21
-62.3517
0
LINE
8
BLACK
6
CONTINUOUS
10
182.542
20
-62.3517
11
182.679
21
-62.0202
0
LINE
8
BLACK
6
CONTINUOUS
10
182.679
20
-62.0202
11
182.853
21
-61.7061
0
LINE
8
BLACK
6
CONTINUOUS
10
182.853
20
-61.7061
11
183.06
21
-61.4134
0
LINE
8
BLACK
6
CONTINUOUS
10
183.06
20
-61.4134
11
183.299
21
-61.1459
0
LINE
8
BLACK
6
CONTINUOUS
10
183.299
20
-61.1459
11
183.567
21
-60.9067
0
LINE
8
BLACK
6
CONTINUOUS
10
183.567
20
-60.9067
11
183.86
21
-60.6991
0
LINE
8
BLACK
6
CONTINUOUS
10
183.86
20
-60.6991
11
184.174
21
-60.5255
0
LINE
8
BLACK
6
CONTINUOUS
10
184.174
20
-60.5255
11
184.505
21
-60.3882
0
LINE
8
BLACK
6
CONTINUOUS
10
184.505
20
-60.3882
11
184.85
21
-60.2888
0
LINE
8
BLACK
6
CONTINUOUS
10
184.85
20
-60.2888
11
185.204
21
-60.2287
0
LINE
8
BLACK
6
CONTINUOUS
10
185.204
20
-60.2287
11
185.562
21
-60.2086
0
LINE
8
BLACK
6
CONTINUOUS
10
185.562
20
-60.2086
11
185.92
21
-60.2287
0
LINE
8
BLACK
6
CONTINUOUS
10
125.787
20
-65.5336
11
124.087
21
-65.5336
0
LINE
8
BLACK
6
CONTINUOUS
10
124.087
20
-65.5336
11
124.087
21
-63.8336
0
LINE
8
BLACK
6
CONTINUOUS
10
124.087
20
-63.8336
11
125.787
21
-63.8336
0
LINE
8
BLACK
6
CONTINUOUS
10
125.787
20
-63.8336
11
125.787
21
-65.5336
0
LINE
8
BLACK
6
CONTINUOUS
10
127.74
20
-63.8752
11
127.902
21
-63.9475
0
LINE
8
BLACK
6
CONTINUOUS
10
127.902
20
-63.9475
11
128.046
21
-64.0519
0
LINE
8
BLACK
6
CONTINUOUS
10
128.046
20
-64.0519
11
128.165
21
-64.184
0
LINE
8
BLACK
6
CONTINUOUS
10
128.165
20
-64.184
11
128.254
21
-64.3379
0
LINE
8
BLACK
6
CONTINUOUS
10
128.254
20
-64.3379
11
128.309
21
-64.5069
0
LINE
8
BLACK
6
CONTINUOUS
10
128.309
20
-64.5069
11
128.327
21
-64.6836
0
LINE
8
BLACK
6
CONTINUOUS
10
128.327
20
-64.6836
11
128.309
21
-64.8603
0
LINE
8
BLACK
6
CONTINUOUS
10
128.309
20
-64.8603
11
128.254
21
-65.0293
0
LINE
8
BLACK
6
CONTINUOUS
10
128.254
20
-65.0293
11
128.165
21
-65.1832
0
LINE
8
BLACK
6
CONTINUOUS
10
128.165
20
-65.1832
11
128.046
21
-65.3153
0
LINE
8
BLACK
6
CONTINUOUS
10
128.046
20
-65.3153
11
127.902
21
-65.4197
0
LINE
8
BLACK
6
CONTINUOUS
10
127.902
20
-65.4197
11
127.74
21
-65.492
0
LINE
8
BLACK
6
CONTINUOUS
10
127.74
20
-65.492
11
127.566
21
-65.5289
0
LINE
8
BLACK
6
CONTINUOUS
10
127.566
20
-65.5289
11
127.388
21
-65.5289
0
LINE
8
BLACK
6
CONTINUOUS
10
127.388
20
-65.5289
11
127.214
21
-65.492
0
LINE
8
BLACK
6
CONTINUOUS
10
127.214
20
-65.492
11
127.052
21
-65.4197
0
LINE
8
BLACK
6
CONTINUOUS
10
127.052
20
-65.4197
11
126.908
21
-65.3153
0
LINE
8
BLACK
6
CONTINUOUS
10
126.908
20
-65.3153
11
126.789
21
-65.1832
0
LINE
8
BLACK
6
CONTINUOUS
10
126.789
20
-65.1832
11
126.701
21
-65.0293
0
LINE
8
BLACK
6
CONTINUOUS
10
126.701
20
-65.0293
11
126.646
21
-64.8603
0
LINE
8
BLACK
6
CONTINUOUS
10
126.646
20
-64.8603
11
126.627
21
-64.6836
0
LINE
8
BLACK
6
CONTINUOUS
10
126.627
20
-64.6836
11
126.646
21
-64.5069
0
LINE
8
BLACK
6
CONTINUOUS
10
126.646
20
-64.5069
11
126.701
21
-64.3379
0
LINE
8
BLACK
6
CONTINUOUS
10
126.701
20
-64.3379
11
126.789
21
-64.184
0
LINE
8
BLACK
6
CONTINUOUS
10
126.789
20
-64.184
11
126.908
21
-64.0519
0
LINE
8
BLACK
6
CONTINUOUS
10
126.908
20
-64.0519
11
127.052
21
-63.9475
0
LINE
8
BLACK
6
CONTINUOUS
10
127.052
20
-63.9475
11
127.214
21
-63.8752
0
LINE
8
BLACK
6
CONTINUOUS
10
127.214
20
-63.8752
11
127.388
21
-63.8383
0
LINE
8
BLACK
6
CONTINUOUS
10
127.388
20
-63.8383
11
127.566
21
-63.8383
0
LINE
8
BLACK
6
CONTINUOUS
10
127.566
20
-63.8383
11
127.74
21
-63.8752
0
LINE
8
BLACK
6
CONTINUOUS
10
130.28
20
-63.8752
11
130.442
21
-63.9475
0
LINE
8
BLACK
6
CONTINUOUS
10
130.442
20
-63.9475
11
130.586
21
-64.0519
0
LINE
8
BLACK
6
CONTINUOUS
10
130.586
20
-64.0519
11
130.705
21
-64.184
0
LINE
8
BLACK
6
CONTINUOUS
10
130.705
20
-64.184
11
130.794
21
-64.3379
0
LINE
8
BLACK
6
CONTINUOUS
10
130.794
20
-64.3379
11
130.849
21
-64.5069
0
LINE
8
BLACK
6
CONTINUOUS
10
130.849
20
-64.5069
11
130.867
21
-64.6836
0
LINE
8
BLACK
6
CONTINUOUS
10
130.867
20
-64.6836
11
130.849
21
-64.8603
0
LINE
8
BLACK
6
CONTINUOUS
10
130.849
20
-64.8603
11
130.794
21
-65.0293
0
LINE
8
BLACK
6
CONTINUOUS
10
130.794
20
-65.0293
11
130.705
21
-65.1832
0
LINE
8
BLACK
6
CONTINUOUS
10
130.705
20
-65.1832
11
130.586
21
-65.3153
0
LINE
8
BLACK
6
CONTINUOUS
10
130.586
20
-65.3153
11
130.442
21
-65.4197
0
LINE
8
BLACK
6
CONTINUOUS
10
130.442
20
-65.4197
11
130.28
21
-65.492
0
LINE
8
BLACK
6
CONTINUOUS
10
130.28
20
-65.492
11
130.106
21
-65.5289
0
LINE
8
BLACK
6
CONTINUOUS
10
130.106
20
-65.5289
11
129.928
21
-65.5289
0
LINE
8
BLACK
6
CONTINUOUS
10
129.928
20
-65.5289
11
129.754
21
-65.492
0
LINE
8
BLACK
6
CONTINUOUS
10
129.754
20
-65.492
11
129.592
21
-65.4197
0
LINE
8
BLACK
6
CONTINUOUS
10
129.592
20
-65.4197
11
129.448
21
-65.3153
0
LINE
8
BLACK
6
CONTINUOUS
10
129.448
20
-65.3153
11
129.329
21
-65.1832
0
LINE
8
BLACK
6
CONTINUOUS
10
129.329
20
-65.1832
11
129.241
21
-65.0293
0
LINE
8
BLACK
6
CONTINUOUS
10
129.241
20
-65.0293
11
129.186
21
-64.8603
0
LINE
8
BLACK
6
CONTINUOUS
10
129.186
20
-64.8603
11
129.167
21
-64.6836
0
LINE
8
BLACK
6
CONTINUOUS
10
129.167
20
-64.6836
11
129.186
21
-64.5069
0
LINE
8
BLACK
6
CONTINUOUS
10
129.186
20
-64.5069
11
129.241
21
-64.3379
0
LINE
8
BLACK
6
CONTINUOUS
10
129.241
20
-64.3379
11
129.329
21
-64.184
0
LINE
8
BLACK
6
CONTINUOUS
10
129.329
20
-64.184
11
129.448
21
-64.0519
0
LINE
8
BLACK
6
CONTINUOUS
10
129.448
20
-64.0519
11
129.592
21
-63.9475
0
LINE
8
BLACK
6
CONTINUOUS
10
129.592
20
-63.9475
11
129.754
21
-63.8752
0
LINE
8
BLACK
6
CONTINUOUS
10
129.754
20
-63.8752
11
129.928
21
-63.8383
0
LINE
8
BLACK
6
CONTINUOUS
10
129.928
20
-63.8383
11
130.106
21
-63.8383
0
LINE
8
BLACK
6
CONTINUOUS
10
130.106
20
-63.8383
11
130.28
21
-63.8752
0
LINE
8
BLACK
6
CONTINUOUS
10
132.82
20
-63.8752
11
132.982
21
-63.9475
0
LINE
8
BLACK
6
CONTINUOUS
10
132.982
20
-63.9475
11
133.126
21
-64.0519
0
LINE
8
BLACK
6
CONTINUOUS
10
133.126
20
-64.0519
11
133.245
21
-64.184
0
LINE
8
BLACK
6
CONTINUOUS
10
133.245
20
-64.184
11
133.334
21
-64.3379
0
LINE
8
BLACK
6
CONTINUOUS
10
133.334
20
-64.3379
11
133.389
21
-64.5069
0
LINE
8
BLACK
6
CONTINUOUS
10
133.389
20
-64.5069
11
133.407
21
-64.6836
0
LINE
8
BLACK
6
CONTINUOUS
10
133.407
20
-64.6836
11
133.389
21
-64.8603
0
LINE
8
BLACK
6
CONTINUOUS
10
133.389
20
-64.8603
11
133.334
21
-65.0293
0
LINE
8
BLACK
6
CONTINUOUS
10
133.334
20
-65.0293
11
133.245
21
-65.1832
0
LINE
8
BLACK
6
CONTINUOUS
10
133.245
20
-65.1832
11
133.126
21
-65.3153
0
LINE
8
BLACK
6
CONTINUOUS
10
133.126
20
-65.3153
11
132.982
21
-65.4197
0
LINE
8
BLACK
6
CONTINUOUS
10
132.982
20
-65.4197
11
132.82
21
-65.492
0
LINE
8
BLACK
6
CONTINUOUS
10
132.82
20
-65.492
11
132.646
21
-65.5289
0
LINE
8
BLACK
6
CONTINUOUS
10
132.646
20
-65.5289
11
132.468
21
-65.5289
0
LINE
8
BLACK
6
CONTINUOUS
10
132.468
20
-65.5289
11
132.294
21
-65.492
0
LINE
8
BLACK
6
CONTINUOUS
10
132.294
20
-65.492
11
132.132
21
-65.4197
0
LINE
8
BLACK
6
CONTINUOUS
10
132.132
20
-65.4197
11
131.988
21
-65.3153
0
LINE
8
BLACK
6
CONTINUOUS
10
131.988
20
-65.3153
11
131.869
21
-65.1832
0
LINE
8
BLACK
6
CONTINUOUS
10
131.869
20
-65.1832
11
131.781
21
-65.0293
0
LINE
8
BLACK
6
CONTINUOUS
10
131.781
20
-65.0293
11
131.726
21
-64.8603
0
LINE
8
BLACK
6
CONTINUOUS
10
131.726
20
-64.8603
11
131.707
21
-64.6836
0
LINE
8
BLACK
6
CONTINUOUS
10
131.707
20
-64.6836
11
131.726
21
-64.5069
0
LINE
8
BLACK
6
CONTINUOUS
10
131.726
20
-64.5069
11
131.781
21
-64.3379
0
LINE
8
BLACK
6
CONTINUOUS
10
131.781
20
-64.3379
11
131.869
21
-64.184
0
LINE
8
BLACK
6
CONTINUOUS
10
131.869
20
-64.184
11
131.988
21
-64.0519
0
LINE
8
BLACK
6
CONTINUOUS
10
131.988
20
-64.0519
11
132.132
21
-63.9475
0
LINE
8
BLACK
6
CONTINUOUS
10
132.132
20
-63.9475
11
132.294
21
-63.8752
0
LINE
8
BLACK
6
CONTINUOUS
10
132.294
20
-63.8752
11
132.468
21
-63.8383
0
LINE
8
BLACK
6
CONTINUOUS
10
132.468
20
-63.8383
11
132.646
21
-63.8383
0
LINE
8
BLACK
6
CONTINUOUS
10
132.646
20
-63.8383
11
132.82
21
-63.8752
0
LINE
8
BLACK
6
CONTINUOUS
10
135.36
20
-63.8752
11
135.522
21
-63.9475
0
LINE
8
BLACK
6
CONTINUOUS
10
135.522
20
-63.9475
11
135.666
21
-64.0519
0
LINE
8
BLACK
6
CONTINUOUS
10
135.666
20
-64.0519
11
135.785
21
-64.184
0
LINE
8
BLACK
6
CONTINUOUS
10
135.785
20
-64.184
11
135.874
21
-64.3379
0
LINE
8
BLACK
6
CONTINUOUS
10
135.874
20
-64.3379
11
135.929
21
-64.5069
0
LINE
8
BLACK
6
CONTINUOUS
10
135.929
20
-64.5069
11
135.947
21
-64.6836
0
LINE
8
BLACK
6
CONTINUOUS
10
135.947
20
-64.6836
11
135.929
21
-64.8603
0
LINE
8
BLACK
6
CONTINUOUS
10
135.929
20
-64.8603
11
135.874
21
-65.0293
0
LINE
8
BLACK
6
CONTINUOUS
10
135.874
20
-65.0293
11
135.785
21
-65.1832
0
LINE
8
BLACK
6
CONTINUOUS
10
135.785
20
-65.1832
11
135.666
21
-65.3153
0
LINE
8
BLACK
6
CONTINUOUS
10
135.666
20
-65.3153
11
135.522
21
-65.4197
0
LINE
8
BLACK
6
CONTINUOUS
10
135.522
20
-65.4197
11
135.36
21
-65.492
0
LINE
8
BLACK
6
CONTINUOUS
10
135.36
20
-65.492
11
135.186
21
-65.5289
0
LINE
8
BLACK
6
CONTINUOUS
10
135.186
20
-65.5289
11
135.008
21
-65.5289
0
LINE
8
BLACK
6
CONTINUOUS
10
135.008
20
-65.5289
11
134.834
21
-65.492
0
LINE
8
BLACK
6
CONTINUOUS
10
134.834
20
-65.492
11
134.672
21
-65.4197
0
LINE
8
BLACK
6
CONTINUOUS
10
134.672
20
-65.4197
11
134.528
21
-65.3153
0
LINE
8
BLACK
6
CONTINUOUS
10
134.528
20
-65.3153
11
134.409
21
-65.1832
0
LINE
8
BLACK
6
CONTINUOUS
10
134.409
20
-65.1832
11
134.321
21
-65.0293
0
LINE
8
BLACK
6
CONTINUOUS
10
134.321
20
-65.0293
11
134.266
21
-64.8603
0
LINE
8
BLACK
6
CONTINUOUS
10
134.266
20
-64.8603
11
134.247
21
-64.6836
0
LINE
8
BLACK
6
CONTINUOUS
10
134.247
20
-64.6836
11
134.266
21
-64.5069
0
LINE
8
BLACK
6
CONTINUOUS
10
134.266
20
-64.5069
11
134.321
21
-64.3379
0
LINE
8
BLACK
6
CONTINUOUS
10
134.321
20
-64.3379
11
134.409
21
-64.184
0
LINE
8
BLACK
6
CONTINUOUS
10
134.409
20
-64.184
11
134.528
21
-64.0519
0
LINE
8
BLACK
6
CONTINUOUS
10
134.528
20
-64.0519
11
134.672
21
-63.9475
0
LINE
8
BLACK
6
CONTINUOUS
10
134.672
20
-63.9475
11
134.834
21
-63.8752
0
LINE
8
BLACK
6
CONTINUOUS
10
134.834
20
-63.8752
11
135.008
21
-63.8383
0
LINE
8
BLACK
6
CONTINUOUS
10
135.008
20
-63.8383
11
135.186
21
-63.8383
0
LINE
8
BLACK
6
CONTINUOUS
10
135.186
20
-63.8383
11
135.36
21
-63.8752
0
LINE
8
BLACK
6
CONTINUOUS
10
137.9
20
-63.8752
11
138.062
21
-63.9475
0
LINE
8
BLACK
6
CONTINUOUS
10
138.062
20
-63.9475
11
138.206
21
-64.0519
0
LINE
8
BLACK
6
CONTINUOUS
10
138.206
20
-64.0519
11
138.325
21
-64.184
0
LINE
8
BLACK
6
CONTINUOUS
10
138.325
20
-64.184
11
138.414
21
-64.3379
0
LINE
8
BLACK
6
CONTINUOUS
10
138.414
20
-64.3379
11
138.469
21
-64.5069
0
LINE
8
BLACK
6
CONTINUOUS
10
138.469
20
-64.5069
11
138.487
21
-64.6836
0
LINE
8
BLACK
6
CONTINUOUS
10
138.487
20
-64.6836
11
138.469
21
-64.8603
0
LINE
8
BLACK
6
CONTINUOUS
10
138.469
20
-64.8603
11
138.414
21
-65.0293
0
LINE
8
BLACK
6
CONTINUOUS
10
138.414
20
-65.0293
11
138.325
21
-65.1832
0
LINE
8
BLACK
6
CONTINUOUS
10
138.325
20
-65.1832
11
138.206
21
-65.3153
0
LINE
8
BLACK
6
CONTINUOUS
10
138.206
20
-65.3153
11
138.062
21
-65.4197
0
LINE
8
BLACK
6
CONTINUOUS
10
138.062
20
-65.4197
11
137.9
21
-65.492
0
LINE
8
BLACK
6
CONTINUOUS
10
137.9
20
-65.492
11
137.726
21
-65.5289
0
LINE
8
BLACK
6
CONTINUOUS
10
137.726
20
-65.5289
11
137.548
21
-65.5289
0
LINE
8
BLACK
6
CONTINUOUS
10
137.548
20
-65.5289
11
137.374
21
-65.492
0
LINE
8
BLACK
6
CONTINUOUS
10
137.374
20
-65.492
11
137.212
21
-65.4197
0
LINE
8
BLACK
6
CONTINUOUS
10
137.212
20
-65.4197
11
137.068
21
-65.3153
0
LINE
8
BLACK
6
CONTINUOUS
10
137.068
20
-65.3153
11
136.949
21
-65.1832
0
LINE
8
BLACK
6
CONTINUOUS
10
136.949
20
-65.1832
11
136.861
21
-65.0293
0
LINE
8
BLACK
6
CONTINUOUS
10
136.861
20
-65.0293
11
136.806
21
-64.8603
0
LINE
8
BLACK
6
CONTINUOUS
10
136.806
20
-64.8603
11
136.787
21
-64.6836
0
LINE
8
BLACK
6
CONTINUOUS
10
136.787
20
-64.6836
11
136.806
21
-64.5069
0
LINE
8
BLACK
6
CONTINUOUS
10
136.806
20
-64.5069
11
136.861
21
-64.3379
0
LINE
8
BLACK
6
CONTINUOUS
10
136.861
20
-64.3379
11
136.949
21
-64.184
0
LINE
8
BLACK
6
CONTINUOUS
10
136.949
20
-64.184
11
137.068
21
-64.0519
0
LINE
8
BLACK
6
CONTINUOUS
10
137.068
20
-64.0519
11
137.212
21
-63.9475
0
LINE
8
BLACK
6
CONTINUOUS
10
137.212
20
-63.9475
11
137.374
21
-63.8752
0
LINE
8
BLACK
6
CONTINUOUS
10
137.374
20
-63.8752
11
137.548
21
-63.8383
0
LINE
8
BLACK
6
CONTINUOUS
10
137.548
20
-63.8383
11
137.726
21
-63.8383
0
LINE
8
BLACK
6
CONTINUOUS
10
137.726
20
-63.8383
11
137.9
21
-63.8752
0
LINE
8
BLACK
6
CONTINUOUS
10
140.44
20
-63.8752
11
140.602
21
-63.9475
0
LINE
8
BLACK
6
CONTINUOUS
10
140.602
20
-63.9475
11
140.746
21
-64.0519
0
LINE
8
BLACK
6
CONTINUOUS
10
140.746
20
-64.0519
11
140.865
21
-64.184
0
LINE
8
BLACK
6
CONTINUOUS
10
140.865
20
-64.184
11
140.954
21
-64.3379
0
LINE
8
BLACK
6
CONTINUOUS
10
140.954
20
-64.3379
11
141.009
21
-64.5069
0
LINE
8
BLACK
6
CONTINUOUS
10
141.009
20
-64.5069
11
141.027
21
-64.6836
0
LINE
8
BLACK
6
CONTINUOUS
10
141.027
20
-64.6836
11
141.009
21
-64.8603
0
LINE
8
BLACK
6
CONTINUOUS
10
141.009
20
-64.8603
11
140.954
21
-65.0293
0
LINE
8
BLACK
6
CONTINUOUS
10
140.954
20
-65.0293
11
140.865
21
-65.1832
0
LINE
8
BLACK
6
CONTINUOUS
10
140.865
20
-65.1832
11
140.746
21
-65.3153
0
LINE
8
BLACK
6
CONTINUOUS
10
140.746
20
-65.3153
11
140.602
21
-65.4197
0
LINE
8
BLACK
6
CONTINUOUS
10
140.602
20
-65.4197
11
140.44
21
-65.492
0
LINE
8
BLACK
6
CONTINUOUS
10
140.44
20
-65.492
11
140.266
21
-65.5289
0
LINE
8
BLACK
6
CONTINUOUS
10
140.266
20
-65.5289
11
140.088
21
-65.5289
0
LINE
8
BLACK
6
CONTINUOUS
10
140.088
20
-65.5289
11
139.914
21
-65.492
0
LINE
8
BLACK
6
CONTINUOUS
10
139.914
20
-65.492
11
139.752
21
-65.4197
0
LINE
8
BLACK
6
CONTINUOUS
10
139.752
20
-65.4197
11
139.608
21
-65.3153
0
LINE
8
BLACK
6
CONTINUOUS
10
139.608
20
-65.3153
11
139.489
21
-65.1832
0
LINE
8
BLACK
6
CONTINUOUS
10
139.489
20
-65.1832
11
139.401
21
-65.0293
0
LINE
8
BLACK
6
CONTINUOUS
10
139.401
20
-65.0293
11
139.346
21
-64.8603
0
LINE
8
BLACK
6
CONTINUOUS
10
139.346
20
-64.8603
11
139.327
21
-64.6836
0
LINE
8
BLACK
6
CONTINUOUS
10
139.327
20
-64.6836
11
139.346
21
-64.5069
0
LINE
8
BLACK
6
CONTINUOUS
10
139.346
20
-64.5069
11
139.401
21
-64.3379
0
LINE
8
BLACK
6
CONTINUOUS
10
139.401
20
-64.3379
11
139.489
21
-64.184
0
LINE
8
BLACK
6
CONTINUOUS
10
139.489
20
-64.184
11
139.608
21
-64.0519
0
LINE
8
BLACK
6
CONTINUOUS
10
139.608
20
-64.0519
11
139.752
21
-63.9475
0
LINE
8
BLACK
6
CONTINUOUS
10
139.752
20
-63.9475
11
139.914
21
-63.8752
0
LINE
8
BLACK
6
CONTINUOUS
10
139.914
20
-63.8752
11
140.088
21
-63.8383
0
LINE
8
BLACK
6
CONTINUOUS
10
140.088
20
-63.8383
11
140.266
21
-63.8383
0
LINE
8
BLACK
6
CONTINUOUS
10
140.266
20
-63.8383
11
140.44
21
-63.8752
0
LINE
8
BLACK
6
CONTINUOUS
10
142.98
20
-63.8752
11
143.142
21
-63.9475
0
LINE
8
BLACK
6
CONTINUOUS
10
143.142
20
-63.9475
11
143.286
21
-64.0519
0
LINE
8
BLACK
6
CONTINUOUS
10
143.286
20
-64.0519
11
143.405
21
-64.184
0
LINE
8
BLACK
6
CONTINUOUS
10
143.405
20
-64.184
11
143.494
21
-64.3379
0
LINE
8
BLACK
6
CONTINUOUS
10
143.494
20
-64.3379
11
143.549
21
-64.5069
0
LINE
8
BLACK
6
CONTINUOUS
10
143.549
20
-64.5069
11
143.567
21
-64.6836
0
LINE
8
BLACK
6
CONTINUOUS
10
143.567
20
-64.6836
11
143.549
21
-64.8603
0
LINE
8
BLACK
6
CONTINUOUS
10
143.549
20
-64.8603
11
143.494
21
-65.0293
0
LINE
8
BLACK
6
CONTINUOUS
10
143.494
20
-65.0293
11
143.405
21
-65.1832
0
LINE
8
BLACK
6
CONTINUOUS
10
143.405
20
-65.1832
11
143.286
21
-65.3153
0
LINE
8
BLACK
6
CONTINUOUS
10
143.286
20
-65.3153
11
143.142
21
-65.4197
0
LINE
8
BLACK
6
CONTINUOUS
10
143.142
20
-65.4197
11
142.98
21
-65.492
0
LINE
8
BLACK
6
CONTINUOUS
10
142.98
20
-65.492
11
142.806
21
-65.5289
0
LINE
8
BLACK
6
CONTINUOUS
10
142.806
20
-65.5289
11
142.628
21
-65.5289
0
LINE
8
BLACK
6
CONTINUOUS
10
142.628
20
-65.5289
11
142.454
21
-65.492
0
LINE
8
BLACK
6
CONTINUOUS
10
142.454
20
-65.492
11
142.292
21
-65.4197
0
LINE
8
BLACK
6
CONTINUOUS
10
142.292
20
-65.4197
11
142.148
21
-65.3153
0
LINE
8
BLACK
6
CONTINUOUS
10
142.148
20
-65.3153
11
142.029
21
-65.1832
0
LINE
8
BLACK
6
CONTINUOUS
10
142.029
20
-65.1832
11
141.941
21
-65.0293
0
LINE
8
BLACK
6
CONTINUOUS
10
141.941
20
-65.0293
11
141.886
21
-64.8603
0
LINE
8
BLACK
6
CONTINUOUS
10
141.886
20
-64.8603
11
141.867
21
-64.6836
0
LINE
8
BLACK
6
CONTINUOUS
10
141.867
20
-64.6836
11
141.886
21
-64.5069
0
LINE
8
BLACK
6
CONTINUOUS
10
141.886
20
-64.5069
11
141.941
21
-64.3379
0
LINE
8
BLACK
6
CONTINUOUS
10
141.941
20
-64.3379
11
142.029
21
-64.184
0
LINE
8
BLACK
6
CONTINUOUS
10
142.029
20
-64.184
11
142.148
21
-64.0519
0
LINE
8
BLACK
6
CONTINUOUS
10
142.148
20
-64.0519
11
142.292
21
-63.9475
0
LINE
8
BLACK
6
CONTINUOUS
10
142.292
20
-63.9475
11
142.454
21
-63.8752
0
LINE
8
BLACK
6
CONTINUOUS
10
142.454
20
-63.8752
11
142.628
21
-63.8383
0
LINE
8
BLACK
6
CONTINUOUS
10
142.628
20
-63.8383
11
142.806
21
-63.8383
0
LINE
8
BLACK
6
CONTINUOUS
10
142.806
20
-63.8383
11
142.98
21
-63.8752
0
LINE
8
BLACK
6
CONTINUOUS
10
145.52
20
-63.8752
11
145.682
21
-63.9475
0
LINE
8
BLACK
6
CONTINUOUS
10
145.682
20
-63.9475
11
145.826
21
-64.0519
0
LINE
8
BLACK
6
CONTINUOUS
10
145.826
20
-64.0519
11
145.945
21
-64.184
0
LINE
8
BLACK
6
CONTINUOUS
10
145.945
20
-64.184
11
146.034
21
-64.3379
0
LINE
8
BLACK
6
CONTINUOUS
10
146.034
20
-64.3379
11
146.089
21
-64.5069
0
LINE
8
BLACK
6
CONTINUOUS
10
146.089
20
-64.5069
11
146.107
21
-64.6836
0
LINE
8
BLACK
6
CONTINUOUS
10
146.107
20
-64.6836
11
146.089
21
-64.8603
0
LINE
8
BLACK
6
CONTINUOUS
10
146.089
20
-64.8603
11
146.034
21
-65.0293
0
LINE
8
BLACK
6
CONTINUOUS
10
146.034
20
-65.0293
11
145.945
21
-65.1832
0
LINE
8
BLACK
6
CONTINUOUS
10
145.945
20
-65.1832
11
145.826
21
-65.3153
0
LINE
8
BLACK
6
CONTINUOUS
10
145.826
20
-65.3153
11
145.682
21
-65.4197
0
LINE
8
BLACK
6
CONTINUOUS
10
145.682
20
-65.4197
11
145.52
21
-65.492
0
LINE
8
BLACK
6
CONTINUOUS
10
145.52
20
-65.492
11
145.346
21
-65.5289
0
LINE
8
BLACK
6
CONTINUOUS
10
145.346
20
-65.5289
11
145.168
21
-65.5289
0
LINE
8
BLACK
6
CONTINUOUS
10
145.168
20
-65.5289
11
144.994
21
-65.492
0
LINE
8
BLACK
6
CONTINUOUS
10
144.994
20
-65.492
11
144.832
21
-65.4197
0
LINE
8
BLACK
6
CONTINUOUS
10
144.832
20
-65.4197
11
144.688
21
-65.3153
0
LINE
8
BLACK
6
CONTINUOUS
10
144.688
20
-65.3153
11
144.569
21
-65.1832
0
LINE
8
BLACK
6
CONTINUOUS
10
144.569
20
-65.1832
11
144.481
21
-65.0293
0
LINE
8
BLACK
6
CONTINUOUS
10
144.481
20
-65.0293
11
144.426
21
-64.8603
0
LINE
8
BLACK
6
CONTINUOUS
10
144.426
20
-64.8603
11
144.407
21
-64.6836
0
LINE
8
BLACK
6
CONTINUOUS
10
144.407
20
-64.6836
11
144.426
21
-64.5069
0
LINE
8
BLACK
6
CONTINUOUS
10
144.426
20
-64.5069
11
144.481
21
-64.3379
0
LINE
8
BLACK
6
CONTINUOUS
10
144.481
20
-64.3379
11
144.569
21
-64.184
0
LINE
8
BLACK
6
CONTINUOUS
10
144.569
20
-64.184
11
144.688
21
-64.0519
0
LINE
8
BLACK
6
CONTINUOUS
10
144.688
20
-64.0519
11
144.832
21
-63.9475
0
LINE
8
BLACK
6
CONTINUOUS
10
144.832
20
-63.9475
11
144.994
21
-63.8752
0
LINE
8
BLACK
6
CONTINUOUS
10
144.994
20
-63.8752
11
145.168
21
-63.8383
0
LINE
8
BLACK
6
CONTINUOUS
10
145.168
20
-63.8383
11
145.346
21
-63.8383
0
LINE
8
BLACK
6
CONTINUOUS
10
145.346
20
-63.8383
11
145.52
21
-63.8752
0
LINE
8
BLACK
6
CONTINUOUS
10
148.06
20
-63.8752
11
148.222
21
-63.9475
0
LINE
8
BLACK
6
CONTINUOUS
10
148.222
20
-63.9475
11
148.366
21
-64.0519
0
LINE
8
BLACK
6
CONTINUOUS
10
148.366
20
-64.0519
11
148.485
21
-64.184
0
LINE
8
BLACK
6
CONTINUOUS
10
148.485
20
-64.184
11
148.574
21
-64.3379
0
LINE
8
BLACK
6
CONTINUOUS
10
148.574
20
-64.3379
11
148.629
21
-64.5069
0
LINE
8
BLACK
6
CONTINUOUS
10
148.629
20
-64.5069
11
148.647
21
-64.6836
0
LINE
8
BLACK
6
CONTINUOUS
10
148.647
20
-64.6836
11
148.629
21
-64.8603
0
LINE
8
BLACK
6
CONTINUOUS
10
148.629
20
-64.8603
11
148.574
21
-65.0293
0
LINE
8
BLACK
6
CONTINUOUS
10
148.574
20
-65.0293
11
148.485
21
-65.1832
0
LINE
8
BLACK
6
CONTINUOUS
10
148.485
20
-65.1832
11
148.366
21
-65.3153
0
LINE
8
BLACK
6
CONTINUOUS
10
148.366
20
-65.3153
11
148.222
21
-65.4197
0
LINE
8
BLACK
6
CONTINUOUS
10
148.222
20
-65.4197
11
148.06
21
-65.492
0
LINE
8
BLACK
6
CONTINUOUS
10
148.06
20
-65.492
11
147.886
21
-65.5289
0
LINE
8
BLACK
6
CONTINUOUS
10
147.886
20
-65.5289
11
147.708
21
-65.5289
0
LINE
8
BLACK
6
CONTINUOUS
10
147.708
20
-65.5289
11
147.534
21
-65.492
0
LINE
8
BLACK
6
CONTINUOUS
10
147.534
20
-65.492
11
147.372
21
-65.4197
0
LINE
8
BLACK
6
CONTINUOUS
10
147.372
20
-65.4197
11
147.228
21
-65.3153
0
LINE
8
BLACK
6
CONTINUOUS
10
147.228
20
-65.3153
11
147.109
21
-65.1832
0
LINE
8
BLACK
6
CONTINUOUS
10
147.109
20
-65.1832
11
147.021
21
-65.0293
0
LINE
8
BLACK
6
CONTINUOUS
10
147.021
20
-65.0293
11
146.966
21
-64.8603
0
LINE
8
BLACK
6
CONTINUOUS
10
146.966
20
-64.8603
11
146.947
21
-64.6836
0
LINE
8
BLACK
6
CONTINUOUS
10
146.947
20
-64.6836
11
146.966
21
-64.5069
0
LINE
8
BLACK
6
CONTINUOUS
10
146.966
20
-64.5069
11
147.021
21
-64.3379
0
LINE
8
BLACK
6
CONTINUOUS
10
147.021
20
-64.3379
11
147.109
21
-64.184
0
LINE
8
BLACK
6
CONTINUOUS
10
147.109
20
-64.184
11
147.228
21
-64.0519
0
LINE
8
BLACK
6
CONTINUOUS
10
147.228
20
-64.0519
11
147.372
21
-63.9475
0
LINE
8
BLACK
6
CONTINUOUS
10
147.372
20
-63.9475
11
147.534
21
-63.8752
0
LINE
8
BLACK
6
CONTINUOUS
10
147.534
20
-63.8752
11
147.708
21
-63.8383
0
LINE
8
BLACK
6
CONTINUOUS
10
147.708
20
-63.8383
11
147.886
21
-63.8383
0
LINE
8
BLACK
6
CONTINUOUS
10
147.886
20
-63.8383
11
148.06
21
-63.8752
0
LINE
8
BLACK
6
CONTINUOUS
10
150.6
20
-63.8752
11
150.762
21
-63.9475
0
LINE
8
BLACK
6
CONTINUOUS
10
150.762
20
-63.9475
11
150.906
21
-64.0519
0
LINE
8
BLACK
6
CONTINUOUS
10
150.906
20
-64.0519
11
151.025
21
-64.184
0
LINE
8
BLACK
6
CONTINUOUS
10
151.025
20
-64.184
11
151.114
21
-64.3379
0
LINE
8
BLACK
6
CONTINUOUS
10
151.114
20
-64.3379
11
151.169
21
-64.5069
0
LINE
8
BLACK
6
CONTINUOUS
10
151.169
20
-64.5069
11
151.187
21
-64.6836
0
LINE
8
BLACK
6
CONTINUOUS
10
151.187
20
-64.6836
11
151.169
21
-64.8603
0
LINE
8
BLACK
6
CONTINUOUS
10
151.169
20
-64.8603
11
151.114
21
-65.0293
0
LINE
8
BLACK
6
CONTINUOUS
10
151.114
20
-65.0293
11
151.025
21
-65.1832
0
LINE
8
BLACK
6
CONTINUOUS
10
151.025
20
-65.1832
11
150.906
21
-65.3153
0
LINE
8
BLACK
6
CONTINUOUS
10
150.906
20
-65.3153
11
150.762
21
-65.4197
0
LINE
8
BLACK
6
CONTINUOUS
10
150.762
20
-65.4197
11
150.6
21
-65.492
0
LINE
8
BLACK
6
CONTINUOUS
10
150.6
20
-65.492
11
150.426
21
-65.5289
0
LINE
8
BLACK
6
CONTINUOUS
10
150.426
20
-65.5289
11
150.248
21
-65.5289
0
LINE
8
BLACK
6
CONTINUOUS
10
150.248
20
-65.5289
11
150.074
21
-65.492
0
LINE
8
BLACK
6
CONTINUOUS
10
150.074
20
-65.492
11
149.912
21
-65.4197
0
LINE
8
BLACK
6
CONTINUOUS
10
149.912
20
-65.4197
11
149.768
21
-65.3153
0
LINE
8
BLACK
6
CONTINUOUS
10
149.768
20
-65.3153
11
149.649
21
-65.1832
0
LINE
8
BLACK
6
CONTINUOUS
10
149.649
20
-65.1832
11
149.561
21
-65.0293
0
LINE
8
BLACK
6
CONTINUOUS
10
149.561
20
-65.0293
11
149.506
21
-64.8603
0
LINE
8
BLACK
6
CONTINUOUS
10
149.506
20
-64.8603
11
149.487
21
-64.6836
0
LINE
8
BLACK
6
CONTINUOUS
10
149.487
20
-64.6836
11
149.506
21
-64.5069
0
LINE
8
BLACK
6
CONTINUOUS
10
149.506
20
-64.5069
11
149.561
21
-64.3379
0
LINE
8
BLACK
6
CONTINUOUS
10
149.561
20
-64.3379
11
149.649
21
-64.184
0
LINE
8
BLACK
6
CONTINUOUS
10
149.649
20
-64.184
11
149.768
21
-64.0519
0
LINE
8
BLACK
6
CONTINUOUS
10
149.768
20
-64.0519
11
149.912
21
-63.9475
0
LINE
8
BLACK
6
CONTINUOUS
10
149.912
20
-63.9475
11
150.074
21
-63.8752
0
LINE
8
BLACK
6
CONTINUOUS
10
150.074
20
-63.8752
11
150.248
21
-63.8383
0
LINE
8
BLACK
6
CONTINUOUS
10
150.248
20
-63.8383
11
150.426
21
-63.8383
0
LINE
8
BLACK
6
CONTINUOUS
10
150.426
20
-63.8383
11
150.6
21
-63.8752
0
LINE
8
BLACK
6
CONTINUOUS
10
153.14
20
-63.8752
11
153.302
21
-63.9475
0
LINE
8
BLACK
6
CONTINUOUS
10
153.302
20
-63.9475
11
153.446
21
-64.0519
0
LINE
8
BLACK
6
CONTINUOUS
10
153.446
20
-64.0519
11
153.565
21
-64.184
0
LINE
8
BLACK
6
CONTINUOUS
10
153.565
20
-64.184
11
153.654
21
-64.3379
0
LINE
8
BLACK
6
CONTINUOUS
10
153.654
20
-64.3379
11
153.709
21
-64.5069
0
LINE
8
BLACK
6
CONTINUOUS
10
153.709
20
-64.5069
11
153.727
21
-64.6836
0
LINE
8
BLACK
6
CONTINUOUS
10
153.727
20
-64.6836
11
153.709
21
-64.8603
0
LINE
8
BLACK
6
CONTINUOUS
10
153.709
20
-64.8603
11
153.654
21
-65.0293
0
LINE
8
BLACK
6
CONTINUOUS
10
153.654
20
-65.0293
11
153.565
21
-65.1832
0
LINE
8
BLACK
6
CONTINUOUS
10
153.565
20
-65.1832
11
153.446
21
-65.3153
0
LINE
8
BLACK
6
CONTINUOUS
10
153.446
20
-65.3153
11
153.302
21
-65.4197
0
LINE
8
BLACK
6
CONTINUOUS
10
153.302
20
-65.4197
11
153.14
21
-65.492
0
LINE
8
BLACK
6
CONTINUOUS
10
153.14
20
-65.492
11
152.966
21
-65.5289
0
LINE
8
BLACK
6
CONTINUOUS
10
152.966
20
-65.5289
11
152.788
21
-65.5289
0
LINE
8
BLACK
6
CONTINUOUS
10
152.788
20
-65.5289
11
152.614
21
-65.492
0
LINE
8
BLACK
6
CONTINUOUS
10
152.614
20
-65.492
11
152.452
21
-65.4197
0
LINE
8
BLACK
6
CONTINUOUS
10
152.452
20
-65.4197
11
152.308
21
-65.3153
0
LINE
8
BLACK
6
CONTINUOUS
10
152.308
20
-65.3153
11
152.189
21
-65.1832
0
LINE
8
BLACK
6
CONTINUOUS
10
152.189
20
-65.1832
11
152.101
21
-65.0293
0
LINE
8
BLACK
6
CONTINUOUS
10
152.101
20
-65.0293
11
152.046
21
-64.8603
0
LINE
8
BLACK
6
CONTINUOUS
10
152.046
20
-64.8603
11
152.027
21
-64.6836
0
LINE
8
BLACK
6
CONTINUOUS
10
152.027
20
-64.6836
11
152.046
21
-64.5069
0
LINE
8
BLACK
6
CONTINUOUS
10
152.046
20
-64.5069
11
152.101
21
-64.3379
0
LINE
8
BLACK
6
CONTINUOUS
10
152.101
20
-64.3379
11
152.189
21
-64.184
0
LINE
8
BLACK
6
CONTINUOUS
10
152.189
20
-64.184
11
152.308
21
-64.0519
0
LINE
8
BLACK
6
CONTINUOUS
10
152.308
20
-64.0519
11
152.452
21
-63.9475
0
LINE
8
BLACK
6
CONTINUOUS
10
152.452
20
-63.9475
11
152.614
21
-63.8752
0
LINE
8
BLACK
6
CONTINUOUS
10
152.614
20
-63.8752
11
152.788
21
-63.8383
0
LINE
8
BLACK
6
CONTINUOUS
10
152.788
20
-63.8383
11
152.966
21
-63.8383
0
LINE
8
BLACK
6
CONTINUOUS
10
152.966
20
-63.8383
11
153.14
21
-63.8752
0
LINE
8
BLACK
6
CONTINUOUS
10
155.68
20
-63.8752
11
155.842
21
-63.9475
0
LINE
8
BLACK
6
CONTINUOUS
10
155.842
20
-63.9475
11
155.986
21
-64.0519
0
LINE
8
BLACK
6
CONTINUOUS
10
155.986
20
-64.0519
11
156.105
21
-64.184
0
LINE
8
BLACK
6
CONTINUOUS
10
156.105
20
-64.184
11
156.194
21
-64.3379
0
LINE
8
BLACK
6
CONTINUOUS
10
156.194
20
-64.3379
11
156.249
21
-64.5069
0
LINE
8
BLACK
6
CONTINUOUS
10
156.249
20
-64.5069
11
156.267
21
-64.6836
0
LINE
8
BLACK
6
CONTINUOUS
10
156.267
20
-64.6836
11
156.249
21
-64.8603
0
LINE
8
BLACK
6
CONTINUOUS
10
156.249
20
-64.8603
11
156.194
21
-65.0293
0
LINE
8
BLACK
6
CONTINUOUS
10
156.194
20
-65.0293
11
156.105
21
-65.1832
0
LINE
8
BLACK
6
CONTINUOUS
10
156.105
20
-65.1832
11
155.986
21
-65.3153
0
LINE
8
BLACK
6
CONTINUOUS
10
155.986
20
-65.3153
11
155.842
21
-65.4197
0
LINE
8
BLACK
6
CONTINUOUS
10
155.842
20
-65.4197
11
155.68
21
-65.492
0
LINE
8
BLACK
6
CONTINUOUS
10
155.68
20
-65.492
11
155.506
21
-65.5289
0
LINE
8
BLACK
6
CONTINUOUS
10
155.506
20
-65.5289
11
155.328
21
-65.5289
0
LINE
8
BLACK
6
CONTINUOUS
10
155.328
20
-65.5289
11
155.154
21
-65.492
0
LINE
8
BLACK
6
CONTINUOUS
10
155.154
20
-65.492
11
154.992
21
-65.4197
0
LINE
8
BLACK
6
CONTINUOUS
10
154.992
20
-65.4197
11
154.848
21
-65.3153
0
LINE
8
BLACK
6
CONTINUOUS
10
154.848
20
-65.3153
11
154.729
21
-65.1832
0
LINE
8
BLACK
6
CONTINUOUS
10
154.729
20
-65.1832
11
154.641
21
-65.0293
0
LINE
8
BLACK
6
CONTINUOUS
10
154.641
20
-65.0293
11
154.586
21
-64.8603
0
LINE
8
BLACK
6
CONTINUOUS
10
154.586
20
-64.8603
11
154.567
21
-64.6836
0
LINE
8
BLACK
6
CONTINUOUS
10
154.567
20
-64.6836
11
154.586
21
-64.5069
0
LINE
8
BLACK
6
CONTINUOUS
10
154.586
20
-64.5069
11
154.641
21
-64.3379
0
LINE
8
BLACK
6
CONTINUOUS
10
154.641
20
-64.3379
11
154.729
21
-64.184
0
LINE
8
BLACK
6
CONTINUOUS
10
154.729
20
-64.184
11
154.848
21
-64.0519
0
LINE
8
BLACK
6
CONTINUOUS
10
154.848
20
-64.0519
11
154.992
21
-63.9475
0
LINE
8
BLACK
6
CONTINUOUS
10
154.992
20
-63.9475
11
155.154
21
-63.8752
0
LINE
8
BLACK
6
CONTINUOUS
10
155.154
20
-63.8752
11
155.328
21
-63.8383
0
LINE
8
BLACK
6
CONTINUOUS
10
155.328
20
-63.8383
11
155.506
21
-63.8383
0
LINE
8
BLACK
6
CONTINUOUS
10
155.506
20
-63.8383
11
155.68
21
-63.8752
0
LINE
8
BLACK
6
CONTINUOUS
10
158.22
20
-63.8752
11
158.382
21
-63.9475
0
LINE
8
BLACK
6
CONTINUOUS
10
158.382
20
-63.9475
11
158.526
21
-64.0519
0
LINE
8
BLACK
6
CONTINUOUS
10
158.526
20
-64.0519
11
158.645
21
-64.184
0
LINE
8
BLACK
6
CONTINUOUS
10
158.645
20
-64.184
11
158.734
21
-64.3379
0
LINE
8
BLACK
6
CONTINUOUS
10
158.734
20
-64.3379
11
158.789
21
-64.5069
0
LINE
8
BLACK
6
CONTINUOUS
10
158.789
20
-64.5069
11
158.807
21
-64.6836
0
LINE
8
BLACK
6
CONTINUOUS
10
158.807
20
-64.6836
11
158.789
21
-64.8603
0
LINE
8
BLACK
6
CONTINUOUS
10
158.789
20
-64.8603
11
158.734
21
-65.0293
0
LINE
8
BLACK
6
CONTINUOUS
10
158.734
20
-65.0293
11
158.645
21
-65.1832
0
LINE
8
BLACK
6
CONTINUOUS
10
158.645
20
-65.1832
11
158.526
21
-65.3153
0
LINE
8
BLACK
6
CONTINUOUS
10
158.526
20
-65.3153
11
158.382
21
-65.4197
0
LINE
8
BLACK
6
CONTINUOUS
10
158.382
20
-65.4197
11
158.22
21
-65.492
0
LINE
8
BLACK
6
CONTINUOUS
10
158.22
20
-65.492
11
158.046
21
-65.5289
0
LINE
8
BLACK
6
CONTINUOUS
10
158.046
20
-65.5289
11
157.868
21
-65.5289
0
LINE
8
BLACK
6
CONTINUOUS
10
157.868
20
-65.5289
11
157.694
21
-65.492
0
LINE
8
BLACK
6
CONTINUOUS
10
157.694
20
-65.492
11
157.532
21
-65.4197
0
LINE
8
BLACK
6
CONTINUOUS
10
157.532
20
-65.4197
11
157.388
21
-65.3153
0
LINE
8
BLACK
6
CONTINUOUS
10
157.388
20
-65.3153
11
157.269
21
-65.1832
0
LINE
8
BLACK
6
CONTINUOUS
10
157.269
20
-65.1832
11
157.181
21
-65.0293
0
LINE
8
BLACK
6
CONTINUOUS
10
157.181
20
-65.0293
11
157.126
21
-64.8603
0
LINE
8
BLACK
6
CONTINUOUS
10
157.126
20
-64.8603
11
157.107
21
-64.6836
0
LINE
8
BLACK
6
CONTINUOUS
10
157.107
20
-64.6836
11
157.126
21
-64.5069
0
LINE
8
BLACK
6
CONTINUOUS
10
157.126
20
-64.5069
11
157.181
21
-64.3379
0
LINE
8
BLACK
6
CONTINUOUS
10
157.181
20
-64.3379
11
157.269
21
-64.184
0
LINE
8
BLACK
6
CONTINUOUS
10
157.269
20
-64.184
11
157.388
21
-64.0519
0
LINE
8
BLACK
6
CONTINUOUS
10
157.388
20
-64.0519
11
157.532
21
-63.9475
0
LINE
8
BLACK
6
CONTINUOUS
10
157.532
20
-63.9475
11
157.694
21
-63.8752
0
LINE
8
BLACK
6
CONTINUOUS
10
157.694
20
-63.8752
11
157.868
21
-63.8383
0
LINE
8
BLACK
6
CONTINUOUS
10
157.868
20
-63.8383
11
158.046
21
-63.8383
0
LINE
8
BLACK
6
CONTINUOUS
10
158.046
20
-63.8383
11
158.22
21
-63.8752
0
LINE
8
BLACK
6
CONTINUOUS
10
160.76
20
-63.8752
11
160.922
21
-63.9475
0
LINE
8
BLACK
6
CONTINUOUS
10
160.922
20
-63.9475
11
161.066
21
-64.0519
0
LINE
8
BLACK
6
CONTINUOUS
10
161.066
20
-64.0519
11
161.185
21
-64.184
0
LINE
8
BLACK
6
CONTINUOUS
10
161.185
20
-64.184
11
161.274
21
-64.3379
0
LINE
8
BLACK
6
CONTINUOUS
10
161.274
20
-64.3379
11
161.329
21
-64.5069
0
LINE
8
BLACK
6
CONTINUOUS
10
161.329
20
-64.5069
11
161.347
21
-64.6836
0
LINE
8
BLACK
6
CONTINUOUS
10
161.347
20
-64.6836
11
161.329
21
-64.8603
0
LINE
8
BLACK
6
CONTINUOUS
10
161.329
20
-64.8603
11
161.274
21
-65.0293
0
LINE
8
BLACK
6
CONTINUOUS
10
161.274
20
-65.0293
11
161.185
21
-65.1832
0
LINE
8
BLACK
6
CONTINUOUS
10
161.185
20
-65.1832
11
161.066
21
-65.3153
0
LINE
8
BLACK
6
CONTINUOUS
10
161.066
20
-65.3153
11
160.922
21
-65.4197
0
LINE
8
BLACK
6
CONTINUOUS
10
160.922
20
-65.4197
11
160.76
21
-65.492
0
LINE
8
BLACK
6
CONTINUOUS
10
160.76
20
-65.492
11
160.586
21
-65.5289
0
LINE
8
BLACK
6
CONTINUOUS
10
160.586
20
-65.5289
11
160.408
21
-65.5289
0
LINE
8
BLACK
6
CONTINUOUS
10
160.408
20
-65.5289
11
160.234
21
-65.492
0
LINE
8
BLACK
6
CONTINUOUS
10
160.234
20
-65.492
11
160.072
21
-65.4197
0
LINE
8
BLACK
6
CONTINUOUS
10
160.072
20
-65.4197
11
159.928
21
-65.3153
0
LINE
8
BLACK
6
CONTINUOUS
10
159.928
20
-65.3153
11
159.809
21
-65.1832
0
LINE
8
BLACK
6
CONTINUOUS
10
159.809
20
-65.1832
11
159.721
21
-65.0293
0
LINE
8
BLACK
6
CONTINUOUS
10
159.721
20
-65.0293
11
159.666
21
-64.8603
0
LINE
8
BLACK
6
CONTINUOUS
10
159.666
20
-64.8603
11
159.647
21
-64.6836
0
LINE
8
BLACK
6
CONTINUOUS
10
159.647
20
-64.6836
11
159.666
21
-64.5069
0
LINE
8
BLACK
6
CONTINUOUS
10
159.666
20
-64.5069
11
159.721
21
-64.3379
0
LINE
8
BLACK
6
CONTINUOUS
10
159.721
20
-64.3379
11
159.809
21
-64.184
0
LINE
8
BLACK
6
CONTINUOUS
10
159.809
20
-64.184
11
159.928
21
-64.0519
0
LINE
8
BLACK
6
CONTINUOUS
10
159.928
20
-64.0519
11
160.072
21
-63.9475
0
LINE
8
BLACK
6
CONTINUOUS
10
160.072
20
-63.9475
11
160.234
21
-63.8752
0
LINE
8
BLACK
6
CONTINUOUS
10
160.234
20
-63.8752
11
160.408
21
-63.8383
0
LINE
8
BLACK
6
CONTINUOUS
10
160.408
20
-63.8383
11
160.586
21
-63.8383
0
LINE
8
BLACK
6
CONTINUOUS
10
160.586
20
-63.8383
11
160.76
21
-63.8752
0
LINE
8
BLACK
6
CONTINUOUS
10
163.3
20
-63.8752
11
163.462
21
-63.9475
0
LINE
8
BLACK
6
CONTINUOUS
10
163.462
20
-63.9475
11
163.606
21
-64.0519
0
LINE
8
BLACK
6
CONTINUOUS
10
163.606
20
-64.0519
11
163.725
21
-64.184
0
LINE
8
BLACK
6
CONTINUOUS
10
163.725
20
-64.184
11
163.814
21
-64.3379
0
LINE
8
BLACK
6
CONTINUOUS
10
163.814
20
-64.3379
11
163.869
21
-64.5069
0
LINE
8
BLACK
6
CONTINUOUS
10
163.869
20
-64.5069
11
163.887
21
-64.6836
0
LINE
8
BLACK
6
CONTINUOUS
10
163.887
20
-64.6836
11
163.869
21
-64.8603
0
LINE
8
BLACK
6
CONTINUOUS
10
163.869
20
-64.8603
11
163.814
21
-65.0293
0
LINE
8
BLACK
6
CONTINUOUS
10
163.814
20
-65.0293
11
163.725
21
-65.1832
0
LINE
8
BLACK
6
CONTINUOUS
10
163.725
20
-65.1832
11
163.606
21
-65.3153
0
LINE
8
BLACK
6
CONTINUOUS
10
163.606
20
-65.3153
11
163.462
21
-65.4197
0
LINE
8
BLACK
6
CONTINUOUS
10
163.462
20
-65.4197
11
163.3
21
-65.492
0
LINE
8
BLACK
6
CONTINUOUS
10
163.3
20
-65.492
11
163.126
21
-65.5289
0
LINE
8
BLACK
6
CONTINUOUS
10
163.126
20
-65.5289
11
162.948
21
-65.5289
0
LINE
8
BLACK
6
CONTINUOUS
10
162.948
20
-65.5289
11
162.774
21
-65.492
0
LINE
8
BLACK
6
CONTINUOUS
10
162.774
20
-65.492
11
162.612
21
-65.4197
0
LINE
8
BLACK
6
CONTINUOUS
10
162.612
20
-65.4197
11
162.468
21
-65.3153
0
LINE
8
BLACK
6
CONTINUOUS
10
162.468
20
-65.3153
11
162.349
21
-65.1832
0
LINE
8
BLACK
6
CONTINUOUS
10
162.349
20
-65.1832
11
162.261
21
-65.0293
0
LINE
8
BLACK
6
CONTINUOUS
10
162.261
20
-65.0293
11
162.206
21
-64.8603
0
LINE
8
BLACK
6
CONTINUOUS
10
162.206
20
-64.8603
11
162.187
21
-64.6836
0
LINE
8
BLACK
6
CONTINUOUS
10
162.187
20
-64.6836
11
162.206
21
-64.5069
0
LINE
8
BLACK
6
CONTINUOUS
10
162.206
20
-64.5069
11
162.261
21
-64.3379
0
LINE
8
BLACK
6
CONTINUOUS
10
162.261
20
-64.3379
11
162.349
21
-64.184
0
LINE
8
BLACK
6
CONTINUOUS
10
162.349
20
-64.184
11
162.468
21
-64.0519
0
LINE
8
BLACK
6
CONTINUOUS
10
162.468
20
-64.0519
11
162.612
21
-63.9475
0
LINE
8
BLACK
6
CONTINUOUS
10
162.612
20
-63.9475
11
162.774
21
-63.8752
0
LINE
8
BLACK
6
CONTINUOUS
10
162.774
20
-63.8752
11
162.948
21
-63.8383
0
LINE
8
BLACK
6
CONTINUOUS
10
162.948
20
-63.8383
11
163.126
21
-63.8383
0
LINE
8
BLACK
6
CONTINUOUS
10
163.126
20
-63.8383
11
163.3
21
-63.8752
0
LINE
8
BLACK
6
CONTINUOUS
10
165.84
20
-63.8752
11
166.002
21
-63.9475
0
LINE
8
BLACK
6
CONTINUOUS
10
166.002
20
-63.9475
11
166.146
21
-64.0519
0
LINE
8
BLACK
6
CONTINUOUS
10
166.146
20
-64.0519
11
166.265
21
-64.184
0
LINE
8
BLACK
6
CONTINUOUS
10
166.265
20
-64.184
11
166.354
21
-64.3379
0
LINE
8
BLACK
6
CONTINUOUS
10
166.354
20
-64.3379
11
166.409
21
-64.5069
0
LINE
8
BLACK
6
CONTINUOUS
10
166.409
20
-64.5069
11
166.427
21
-64.6836
0
LINE
8
BLACK
6
CONTINUOUS
10
166.427
20
-64.6836
11
166.409
21
-64.8603
0
LINE
8
BLACK
6
CONTINUOUS
10
166.409
20
-64.8603
11
166.354
21
-65.0293
0
LINE
8
BLACK
6
CONTINUOUS
10
166.354
20
-65.0293
11
166.265
21
-65.1832
0
LINE
8
BLACK
6
CONTINUOUS
10
166.265
20
-65.1832
11
166.146
21
-65.3153
0
LINE
8
BLACK
6
CONTINUOUS
10
166.146
20
-65.3153
11
166.002
21
-65.4197
0
LINE
8
BLACK
6
CONTINUOUS
10
166.002
20
-65.4197
11
165.84
21
-65.492
0
LINE
8
BLACK
6
CONTINUOUS
10
165.84
20
-65.492
11
165.666
21
-65.5289
0
LINE
8
BLACK
6
CONTINUOUS
10
165.666
20
-65.5289
11
165.488
21
-65.5289
0
LINE
8
BLACK
6
CONTINUOUS
10
165.488
20
-65.5289
11
165.314
21
-65.492
0
LINE
8
BLACK
6
CONTINUOUS
10
165.314
20
-65.492
11
165.152
21
-65.4197
0
LINE
8
BLACK
6
CONTINUOUS
10
165.152
20
-65.4197
11
165.008
21
-65.3153
0
LINE
8
BLACK
6
CONTINUOUS
10
165.008
20
-65.3153
11
164.889
21
-65.1832
0
LINE
8
BLACK
6
CONTINUOUS
10
164.889
20
-65.1832
11
164.801
21
-65.0293
0
LINE
8
BLACK
6
CONTINUOUS
10
164.801
20
-65.0293
11
164.746
21
-64.8603
0
LINE
8
BLACK
6
CONTINUOUS
10
164.746
20
-64.8603
11
164.727
21
-64.6836
0
LINE
8
BLACK
6
CONTINUOUS
10
164.727
20
-64.6836
11
164.746
21
-64.5069
0
LINE
8
BLACK
6
CONTINUOUS
10
164.746
20
-64.5069
11
164.801
21
-64.3379
0
LINE
8
BLACK
6
CONTINUOUS
10
164.801
20
-64.3379
11
164.889
21
-64.184
0
LINE
8
BLACK
6
CONTINUOUS
10
164.889
20
-64.184
11
165.008
21
-64.0519
0
LINE
8
BLACK
6
CONTINUOUS
10
165.008
20
-64.0519
11
165.152
21
-63.9475
0
LINE
8
BLACK
6
CONTINUOUS
10
165.152
20
-63.9475
11
165.314
21
-63.8752
0
LINE
8
BLACK
6
CONTINUOUS
10
165.314
20
-63.8752
11
165.488
21
-63.8383
0
LINE
8
BLACK
6
CONTINUOUS
10
165.488
20
-63.8383
11
165.666
21
-63.8383
0
LINE
8
BLACK
6
CONTINUOUS
10
165.666
20
-63.8383
11
165.84
21
-63.8752
0
LINE
8
BLACK
6
CONTINUOUS
10
168.38
20
-63.8752
11
168.542
21
-63.9475
0
LINE
8
BLACK
6
CONTINUOUS
10
168.542
20
-63.9475
11
168.686
21
-64.0519
0
LINE
8
BLACK
6
CONTINUOUS
10
168.686
20
-64.0519
11
168.805
21
-64.184
0
LINE
8
BLACK
6
CONTINUOUS
10
168.805
20
-64.184
11
168.894
21
-64.3379
0
LINE
8
BLACK
6
CONTINUOUS
10
168.894
20
-64.3379
11
168.949
21
-64.5069
0
LINE
8
BLACK
6
CONTINUOUS
10
168.949
20
-64.5069
11
168.967
21
-64.6836
0
LINE
8
BLACK
6
CONTINUOUS
10
168.967
20
-64.6836
11
168.949
21
-64.8603
0
LINE
8
BLACK
6
CONTINUOUS
10
168.949
20
-64.8603
11
168.894
21
-65.0293
0
LINE
8
BLACK
6
CONTINUOUS
10
168.894
20
-65.0293
11
168.805
21
-65.1832
0
LINE
8
BLACK
6
CONTINUOUS
10
168.805
20
-65.1832
11
168.686
21
-65.3153
0
LINE
8
BLACK
6
CONTINUOUS
10
168.686
20
-65.3153
11
168.542
21
-65.4197
0
LINE
8
BLACK
6
CONTINUOUS
10
168.542
20
-65.4197
11
168.38
21
-65.492
0
LINE
8
BLACK
6
CONTINUOUS
10
168.38
20
-65.492
11
168.206
21
-65.5289
0
LINE
8
BLACK
6
CONTINUOUS
10
168.206
20
-65.5289
11
168.028
21
-65.5289
0
LINE
8
BLACK
6
CONTINUOUS
10
168.028
20
-65.5289
11
167.854
21
-65.492
0
LINE
8
BLACK
6
CONTINUOUS
10
167.854
20
-65.492
11
167.692
21
-65.4197
0
LINE
8
BLACK
6
CONTINUOUS
10
167.692
20
-65.4197
11
167.548
21
-65.3153
0
LINE
8
BLACK
6
CONTINUOUS
10
167.548
20
-65.3153
11
167.429
21
-65.1832
0
LINE
8
BLACK
6
CONTINUOUS
10
167.429
20
-65.1832
11
167.341
21
-65.0293
0
LINE
8
BLACK
6
CONTINUOUS
10
167.341
20
-65.0293
11
167.286
21
-64.8603
0
LINE
8
BLACK
6
CONTINUOUS
10
167.286
20
-64.8603
11
167.267
21
-64.6836
0
LINE
8
BLACK
6
CONTINUOUS
10
167.267
20
-64.6836
11
167.286
21
-64.5069
0
LINE
8
BLACK
6
CONTINUOUS
10
167.286
20
-64.5069
11
167.341
21
-64.3379
0
LINE
8
BLACK
6
CONTINUOUS
10
167.341
20
-64.3379
11
167.429
21
-64.184
0
LINE
8
BLACK
6
CONTINUOUS
10
167.429
20
-64.184
11
167.548
21
-64.0519
0
LINE
8
BLACK
6
CONTINUOUS
10
167.548
20
-64.0519
11
167.692
21
-63.9475
0
LINE
8
BLACK
6
CONTINUOUS
10
167.692
20
-63.9475
11
167.854
21
-63.8752
0
LINE
8
BLACK
6
CONTINUOUS
10
167.854
20
-63.8752
11
168.028
21
-63.8383
0
LINE
8
BLACK
6
CONTINUOUS
10
168.028
20
-63.8383
11
168.206
21
-63.8383
0
LINE
8
BLACK
6
CONTINUOUS
10
168.206
20
-63.8383
11
168.38
21
-63.8752
0
LINE
8
BLACK
6
CONTINUOUS
10
170.92
20
-63.8752
11
171.082
21
-63.9475
0
LINE
8
BLACK
6
CONTINUOUS
10
171.082
20
-63.9475
11
171.226
21
-64.0519
0
LINE
8
BLACK
6
CONTINUOUS
10
171.226
20
-64.0519
11
171.345
21
-64.184
0
LINE
8
BLACK
6
CONTINUOUS
10
171.345
20
-64.184
11
171.434
21
-64.3379
0
LINE
8
BLACK
6
CONTINUOUS
10
171.434
20
-64.3379
11
171.489
21
-64.5069
0
LINE
8
BLACK
6
CONTINUOUS
10
171.489
20
-64.5069
11
171.507
21
-64.6836
0
LINE
8
BLACK
6
CONTINUOUS
10
171.507
20
-64.6836
11
171.489
21
-64.8603
0
LINE
8
BLACK
6
CONTINUOUS
10
171.489
20
-64.8603
11
171.434
21
-65.0293
0
LINE
8
BLACK
6
CONTINUOUS
10
171.434
20
-65.0293
11
171.345
21
-65.1832
0
LINE
8
BLACK
6
CONTINUOUS
10
171.345
20
-65.1832
11
171.226
21
-65.3153
0
LINE
8
BLACK
6
CONTINUOUS
10
171.226
20
-65.3153
11
171.082
21
-65.4197
0
LINE
8
BLACK
6
CONTINUOUS
10
171.082
20
-65.4197
11
170.92
21
-65.492
0
LINE
8
BLACK
6
CONTINUOUS
10
170.92
20
-65.492
11
170.746
21
-65.5289
0
LINE
8
BLACK
6
CONTINUOUS
10
170.746
20
-65.5289
11
170.568
21
-65.5289
0
LINE
8
BLACK
6
CONTINUOUS
10
170.568
20
-65.5289
11
170.394
21
-65.492
0
LINE
8
BLACK
6
CONTINUOUS
10
170.394
20
-65.492
11
170.232
21
-65.4197
0
LINE
8
BLACK
6
CONTINUOUS
10
170.232
20
-65.4197
11
170.088
21
-65.3153
0
LINE
8
BLACK
6
CONTINUOUS
10
170.088
20
-65.3153
11
169.969
21
-65.1832
0
LINE
8
BLACK
6
CONTINUOUS
10
169.969
20
-65.1832
11
169.881
21
-65.0293
0
LINE
8
BLACK
6
CONTINUOUS
10
169.881
20
-65.0293
11
169.826
21
-64.8603
0
LINE
8
BLACK
6
CONTINUOUS
10
169.826
20
-64.8603
11
169.807
21
-64.6836
0
LINE
8
BLACK
6
CONTINUOUS
10
169.807
20
-64.6836
11
169.826
21
-64.5069
0
LINE
8
BLACK
6
CONTINUOUS
10
169.826
20
-64.5069
11
169.881
21
-64.3379
0
LINE
8
BLACK
6
CONTINUOUS
10
169.881
20
-64.3379
11
169.969
21
-64.184
0
LINE
8
BLACK
6
CONTINUOUS
10
169.969
20
-64.184
11
170.088
21
-64.0519
0
LINE
8
BLACK
6
CONTINUOUS
10
170.088
20
-64.0519
11
170.232
21
-63.9475
0
LINE
8
BLACK
6
CONTINUOUS
10
170.232
20
-63.9475
11
170.394
21
-63.8752
0
LINE
8
BLACK
6
CONTINUOUS
10
170.394
20
-63.8752
11
170.568
21
-63.8383
0
LINE
8
BLACK
6
CONTINUOUS
10
170.568
20
-63.8383
11
170.746
21
-63.8383
0
LINE
8
BLACK
6
CONTINUOUS
10
170.746
20
-63.8383
11
170.92
21
-63.8752
0
LINE
8
BLACK
6
CONTINUOUS
10
173.46
20
-63.8752
11
173.622
21
-63.9475
0
LINE
8
BLACK
6
CONTINUOUS
10
173.622
20
-63.9475
11
173.766
21
-64.0519
0
LINE
8
BLACK
6
CONTINUOUS
10
173.766
20
-64.0519
11
173.885
21
-64.184
0
LINE
8
BLACK
6
CONTINUOUS
10
173.885
20
-64.184
11
173.974
21
-64.3379
0
LINE
8
BLACK
6
CONTINUOUS
10
173.974
20
-64.3379
11
174.029
21
-64.5069
0
LINE
8
BLACK
6
CONTINUOUS
10
174.029
20
-64.5069
11
174.047
21
-64.6836
0
LINE
8
BLACK
6
CONTINUOUS
10
174.047
20
-64.6836
11
174.029
21
-64.8603
0
LINE
8
BLACK
6
CONTINUOUS
10
174.029
20
-64.8603
11
173.974
21
-65.0293
0
LINE
8
BLACK
6
CONTINUOUS
10
173.974
20
-65.0293
11
173.885
21
-65.1832
0
LINE
8
BLACK
6
CONTINUOUS
10
173.885
20
-65.1832
11
173.766
21
-65.3153
0
LINE
8
BLACK
6
CONTINUOUS
10
173.766
20
-65.3153
11
173.622
21
-65.4197
0
LINE
8
BLACK
6
CONTINUOUS
10
173.622
20
-65.4197
11
173.46
21
-65.492
0
LINE
8
BLACK
6
CONTINUOUS
10
173.46
20
-65.492
11
173.286
21
-65.5289
0
LINE
8
BLACK
6
CONTINUOUS
10
173.286
20
-65.5289
11
173.108
21
-65.5289
0
LINE
8
BLACK
6
CONTINUOUS
10
173.108
20
-65.5289
11
172.934
21
-65.492
0
LINE
8
BLACK
6
CONTINUOUS
10
172.934
20
-65.492
11
172.772
21
-65.4197
0
LINE
8
BLACK
6
CONTINUOUS
10
172.772
20
-65.4197
11
172.628
21
-65.3153
0
LINE
8
BLACK
6
CONTINUOUS
10
172.628
20
-65.3153
11
172.509
21
-65.1832
0
LINE
8
BLACK
6
CONTINUOUS
10
172.509
20
-65.1832
11
172.421
21
-65.0293
0
LINE
8
BLACK
6
CONTINUOUS
10
172.421
20
-65.0293
11
172.366
21
-64.8603
0
LINE
8
BLACK
6
CONTINUOUS
10
172.366
20
-64.8603
11
172.347
21
-64.6836
0
LINE
8
BLACK
6
CONTINUOUS
10
172.347
20
-64.6836
11
172.366
21
-64.5069
0
LINE
8
BLACK
6
CONTINUOUS
10
172.366
20
-64.5069
11
172.421
21
-64.3379
0
LINE
8
BLACK
6
CONTINUOUS
10
172.421
20
-64.3379
11
172.509
21
-64.184
0
LINE
8
BLACK
6
CONTINUOUS
10
172.509
20
-64.184
11
172.628
21
-64.0519
0
LINE
8
BLACK
6
CONTINUOUS
10
172.628
20
-64.0519
11
172.772
21
-63.9475
0
LINE
8
BLACK
6
CONTINUOUS
10
172.772
20
-63.9475
11
172.934
21
-63.8752
0
LINE
8
BLACK
6
CONTINUOUS
10
172.934
20
-63.8752
11
173.108
21
-63.8383
0
LINE
8
BLACK
6
CONTINUOUS
10
173.108
20
-63.8383
11
173.286
21
-63.8383
0
LINE
8
BLACK
6
CONTINUOUS
10
173.286
20
-63.8383
11
173.46
21
-63.8752
0
LINE
8
BLACK
6
CONTINUOUS
10
125.2
20
-61.3352
11
125.362
21
-61.4075
0
LINE
8
BLACK
6
CONTINUOUS
10
125.362
20
-61.4075
11
125.506
21
-61.5119
0
LINE
8
BLACK
6
CONTINUOUS
10
125.506
20
-61.5119
11
125.625
21
-61.644
0
LINE
8
BLACK
6
CONTINUOUS
10
125.625
20
-61.644
11
125.714
21
-61.7979
0
LINE
8
BLACK
6
CONTINUOUS
10
125.714
20
-61.7979
11
125.769
21
-61.9669
0
LINE
8
BLACK
6
CONTINUOUS
10
125.769
20
-61.9669
11
125.787
21
-62.1436
0
LINE
8
BLACK
6
CONTINUOUS
10
125.787
20
-62.1436
11
125.769
21
-62.3203
0
LINE
8
BLACK
6
CONTINUOUS
10
125.769
20
-62.3203
11
125.714
21
-62.4893
0
LINE
8
BLACK
6
CONTINUOUS
10
125.714
20
-62.4893
11
125.625
21
-62.6432
0
LINE
8
BLACK
6
CONTINUOUS
10
125.625
20
-62.6432
11
125.506
21
-62.7753
0
LINE
8
BLACK
6
CONTINUOUS
10
125.506
20
-62.7753
11
125.362
21
-62.8797
0
LINE
8
BLACK
6
CONTINUOUS
10
125.362
20
-62.8797
11
125.2
21
-62.952
0
LINE
8
BLACK
6
CONTINUOUS
10
125.2
20
-62.952
11
125.026
21
-62.9889
0
LINE
8
BLACK
6
CONTINUOUS
10
125.026
20
-62.9889
11
124.848
21
-62.9889
0
LINE
8
BLACK
6
CONTINUOUS
10
124.848
20
-62.9889
11
124.674
21
-62.952
0
LINE
8
BLACK
6
CONTINUOUS
10
124.674
20
-62.952
11
124.512
21
-62.8797
0
LINE
8
BLACK
6
CONTINUOUS
10
124.512
20
-62.8797
11
124.368
21
-62.7753
0
LINE
8
BLACK
6
CONTINUOUS
10
124.368
20
-62.7753
11
124.249
21
-62.6432
0
LINE
8
BLACK
6
CONTINUOUS
10
124.249
20
-62.6432
11
124.161
21
-62.4893
0
LINE
8
BLACK
6
CONTINUOUS
10
124.161
20
-62.4893
11
124.106
21
-62.3203
0
LINE
8
BLACK
6
CONTINUOUS
10
124.106
20
-62.3203
11
124.087
21
-62.1436
0
LINE
8
BLACK
6
CONTINUOUS
10
124.087
20
-62.1436
11
124.106
21
-61.9669
0
LINE
8
BLACK
6
CONTINUOUS
10
124.106
20
-61.9669
11
124.161
21
-61.7979
0
LINE
8
BLACK
6
CONTINUOUS
10
124.161
20
-61.7979
11
124.249
21
-61.644
0
LINE
8
BLACK
6
CONTINUOUS
10
124.249
20
-61.644
11
124.368
21
-61.5119
0
LINE
8
BLACK
6
CONTINUOUS
10
124.368
20
-61.5119
11
124.512
21
-61.4075
0
LINE
8
BLACK
6
CONTINUOUS
10
124.512
20
-61.4075
11
124.674
21
-61.3352
0
LINE
8
BLACK
6
CONTINUOUS
10
124.674
20
-61.3352
11
124.848
21
-61.2983
0
LINE
8
BLACK
6
CONTINUOUS
10
124.848
20
-61.2983
11
125.026
21
-61.2983
0
LINE
8
BLACK
6
CONTINUOUS
10
125.026
20
-61.2983
11
125.2
21
-61.3352
0
LINE
8
BLACK
6
CONTINUOUS
10
127.74
20
-61.3352
11
127.902
21
-61.4075
0
LINE
8
BLACK
6
CONTINUOUS
10
127.902
20
-61.4075
11
128.046
21
-61.5119
0
LINE
8
BLACK
6
CONTINUOUS
10
128.046
20
-61.5119
11
128.165
21
-61.644
0
LINE
8
BLACK
6
CONTINUOUS
10
128.165
20
-61.644
11
128.254
21
-61.7979
0
LINE
8
BLACK
6
CONTINUOUS
10
128.254
20
-61.7979
11
128.309
21
-61.9669
0
LINE
8
BLACK
6
CONTINUOUS
10
128.309
20
-61.9669
11
128.327
21
-62.1436
0
LINE
8
BLACK
6
CONTINUOUS
10
128.327
20
-62.1436
11
128.309
21
-62.3203
0
LINE
8
BLACK
6
CONTINUOUS
10
128.309
20
-62.3203
11
128.254
21
-62.4893
0
LINE
8
BLACK
6
CONTINUOUS
10
128.254
20
-62.4893
11
128.165
21
-62.6432
0
LINE
8
BLACK
6
CONTINUOUS
10
128.165
20
-62.6432
11
128.046
21
-62.7753
0
LINE
8
BLACK
6
CONTINUOUS
10
128.046
20
-62.7753
11
127.902
21
-62.8797
0
LINE
8
BLACK
6
CONTINUOUS
10
127.902
20
-62.8797
11
127.74
21
-62.952
0
LINE
8
BLACK
6
CONTINUOUS
10
127.74
20
-62.952
11
127.566
21
-62.9889
0
LINE
8
BLACK
6
CONTINUOUS
10
127.566
20
-62.9889
11
127.388
21
-62.9889
0
LINE
8
BLACK
6
CONTINUOUS
10
127.388
20
-62.9889
11
127.214
21
-62.952
0
LINE
8
BLACK
6
CONTINUOUS
10
127.214
20
-62.952
11
127.052
21
-62.8797
0
LINE
8
BLACK
6
CONTINUOUS
10
127.052
20
-62.8797
11
126.908
21
-62.7753
0
LINE
8
BLACK
6
CONTINUOUS
10
126.908
20
-62.7753
11
126.789
21
-62.6432
0
LINE
8
BLACK
6
CONTINUOUS
10
126.789
20
-62.6432
11
126.701
21
-62.4893
0
LINE
8
BLACK
6
CONTINUOUS
10
126.701
20
-62.4893
11
126.646
21
-62.3203
0
LINE
8
BLACK
6
CONTINUOUS
10
126.646
20
-62.3203
11
126.627
21
-62.1436
0
LINE
8
BLACK
6
CONTINUOUS
10
126.627
20
-62.1436
11
126.646
21
-61.9669
0
LINE
8
BLACK
6
CONTINUOUS
10
126.646
20
-61.9669
11
126.701
21
-61.7979
0
LINE
8
BLACK
6
CONTINUOUS
10
126.701
20
-61.7979
11
126.789
21
-61.644
0
LINE
8
BLACK
6
CONTINUOUS
10
126.789
20
-61.644
11
126.908
21
-61.5119
0
LINE
8
BLACK
6
CONTINUOUS
10
126.908
20
-61.5119
11
127.052
21
-61.4075
0
LINE
8
BLACK
6
CONTINUOUS
10
127.052
20
-61.4075
11
127.214
21
-61.3352
0
LINE
8
BLACK
6
CONTINUOUS
10
127.214
20
-61.3352
11
127.388
21
-61.2983
0
LINE
8
BLACK
6
CONTINUOUS
10
127.388
20
-61.2983
11
127.566
21
-61.2983
0
LINE
8
BLACK
6
CONTINUOUS
10
127.566
20
-61.2983
11
127.74
21
-61.3352
0
LINE
8
BLACK
6
CONTINUOUS
10
130.28
20
-61.3352
11
130.442
21
-61.4075
0
LINE
8
BLACK
6
CONTINUOUS
10
130.442
20
-61.4075
11
130.586
21
-61.5119
0
LINE
8
BLACK
6
CONTINUOUS
10
130.586
20
-61.5119
11
130.705
21
-61.644
0
LINE
8
BLACK
6
CONTINUOUS
10
130.705
20
-61.644
11
130.794
21
-61.7979
0
LINE
8
BLACK
6
CONTINUOUS
10
130.794
20
-61.7979
11
130.849
21
-61.9669
0
LINE
8
BLACK
6
CONTINUOUS
10
130.849
20
-61.9669
11
130.867
21
-62.1436
0
LINE
8
BLACK
6
CONTINUOUS
10
130.867
20
-62.1436
11
130.849
21
-62.3203
0
LINE
8
BLACK
6
CONTINUOUS
10
130.849
20
-62.3203
11
130.794
21
-62.4893
0
LINE
8
BLACK
6
CONTINUOUS
10
130.794
20
-62.4893
11
130.705
21
-62.6432
0
LINE
8
BLACK
6
CONTINUOUS
10
130.705
20
-62.6432
11
130.586
21
-62.7753
0
LINE
8
BLACK
6
CONTINUOUS
10
130.586
20
-62.7753
11
130.442
21
-62.8797
0
LINE
8
BLACK
6
CONTINUOUS
10
130.442
20
-62.8797
11
130.28
21
-62.952
0
LINE
8
BLACK
6
CONTINUOUS
10
130.28
20
-62.952
11
130.106
21
-62.9889
0
LINE
8
BLACK
6
CONTINUOUS
10
130.106
20
-62.9889
11
129.928
21
-62.9889
0
LINE
8
BLACK
6
CONTINUOUS
10
129.928
20
-62.9889
11
129.754
21
-62.952
0
LINE
8
BLACK
6
CONTINUOUS
10
129.754
20
-62.952
11
129.592
21
-62.8797
0
LINE
8
BLACK
6
CONTINUOUS
10
129.592
20
-62.8797
11
129.448
21
-62.7753
0
LINE
8
BLACK
6
CONTINUOUS
10
129.448
20
-62.7753
11
129.329
21
-62.6432
0
LINE
8
BLACK
6
CONTINUOUS
10
129.329
20
-62.6432
11
129.241
21
-62.4893
0
LINE
8
BLACK
6
CONTINUOUS
10
129.241
20
-62.4893
11
129.186
21
-62.3203
0
LINE
8
BLACK
6
CONTINUOUS
10
129.186
20
-62.3203
11
129.167
21
-62.1436
0
LINE
8
BLACK
6
CONTINUOUS
10
129.167
20
-62.1436
11
129.186
21
-61.9669
0
LINE
8
BLACK
6
CONTINUOUS
10
129.186
20
-61.9669
11
129.241
21
-61.7979
0
LINE
8
BLACK
6
CONTINUOUS
10
129.241
20
-61.7979
11
129.329
21
-61.644
0
LINE
8
BLACK
6
CONTINUOUS
10
129.329
20
-61.644
11
129.448
21
-61.5119
0
LINE
8
BLACK
6
CONTINUOUS
10
129.448
20
-61.5119
11
129.592
21
-61.4075
0
LINE
8
BLACK
6
CONTINUOUS
10
129.592
20
-61.4075
11
129.754
21
-61.3352
0
LINE
8
BLACK
6
CONTINUOUS
10
129.754
20
-61.3352
11
129.928
21
-61.2983
0
LINE
8
BLACK
6
CONTINUOUS
10
129.928
20
-61.2983
11
130.106
21
-61.2983
0
LINE
8
BLACK
6
CONTINUOUS
10
130.106
20
-61.2983
11
130.28
21
-61.3352
0
LINE
8
BLACK
6
CONTINUOUS
10
132.82
20
-61.3352
11
132.982
21
-61.4075
0
LINE
8
BLACK
6
CONTINUOUS
10
132.982
20
-61.4075
11
133.126
21
-61.5119
0
LINE
8
BLACK
6
CONTINUOUS
10
133.126
20
-61.5119
11
133.245
21
-61.644
0
LINE
8
BLACK
6
CONTINUOUS
10
133.245
20
-61.644
11
133.334
21
-61.7979
0
LINE
8
BLACK
6
CONTINUOUS
10
133.334
20
-61.7979
11
133.389
21
-61.9669
0
LINE
8
BLACK
6
CONTINUOUS
10
133.389
20
-61.9669
11
133.407
21
-62.1436
0
LINE
8
BLACK
6
CONTINUOUS
10
133.407
20
-62.1436
11
133.389
21
-62.3203
0
LINE
8
BLACK
6
CONTINUOUS
10
133.389
20
-62.3203
11
133.334
21
-62.4893
0
LINE
8
BLACK
6
CONTINUOUS
10
133.334
20
-62.4893
11
133.245
21
-62.6432
0
LINE
8
BLACK
6
CONTINUOUS
10
133.245
20
-62.6432
11
133.126
21
-62.7753
0
LINE
8
BLACK
6
CONTINUOUS
10
133.126
20
-62.7753
11
132.982
21
-62.8797
0
LINE
8
BLACK
6
CONTINUOUS
10
132.982
20
-62.8797
11
132.82
21
-62.952
0
LINE
8
BLACK
6
CONTINUOUS
10
132.82
20
-62.952
11
132.646
21
-62.9889
0
LINE
8
BLACK
6
CONTINUOUS
10
132.646
20
-62.9889
11
132.468
21
-62.9889
0
LINE
8
BLACK
6
CONTINUOUS
10
132.468
20
-62.9889
11
132.294
21
-62.952
0
LINE
8
BLACK
6
CONTINUOUS
10
132.294
20
-62.952
11
132.132
21
-62.8797
0
LINE
8
BLACK
6
CONTINUOUS
10
132.132
20
-62.8797
11
131.988
21
-62.7753
0
LINE
8
BLACK
6
CONTINUOUS
10
131.988
20
-62.7753
11
131.869
21
-62.6432
0
LINE
8
BLACK
6
CONTINUOUS
10
131.869
20
-62.6432
11
131.781
21
-62.4893
0
LINE
8
BLACK
6
CONTINUOUS
10
131.781
20
-62.4893
11
131.726
21
-62.3203
0
LINE
8
BLACK
6
CONTINUOUS
10
131.726
20
-62.3203
11
131.707
21
-62.1436
0
LINE
8
BLACK
6
CONTINUOUS
10
131.707
20
-62.1436
11
131.726
21
-61.9669
0
LINE
8
BLACK
6
CONTINUOUS
10
131.726
20
-61.9669
11
131.781
21
-61.7979
0
LINE
8
BLACK
6
CONTINUOUS
10
131.781
20
-61.7979
11
131.869
21
-61.644
0
LINE
8
BLACK
6
CONTINUOUS
10
131.869
20
-61.644
11
131.988
21
-61.5119
0
LINE
8
BLACK
6
CONTINUOUS
10
131.988
20
-61.5119
11
132.132
21
-61.4075
0
LINE
8
BLACK
6
CONTINUOUS
10
132.132
20
-61.4075
11
132.294
21
-61.3352
0
LINE
8
BLACK
6
CONTINUOUS
10
132.294
20
-61.3352
11
132.468
21
-61.2983
0
LINE
8
BLACK
6
CONTINUOUS
10
132.468
20
-61.2983
11
132.646
21
-61.2983
0
LINE
8
BLACK
6
CONTINUOUS
10
132.646
20
-61.2983
11
132.82
21
-61.3352
0
LINE
8
BLACK
6
CONTINUOUS
10
135.36
20
-61.3352
11
135.522
21
-61.4075
0
LINE
8
BLACK
6
CONTINUOUS
10
135.522
20
-61.4075
11
135.666
21
-61.5119
0
LINE
8
BLACK
6
CONTINUOUS
10
135.666
20
-61.5119
11
135.785
21
-61.644
0
LINE
8
BLACK
6
CONTINUOUS
10
135.785
20
-61.644
11
135.874
21
-61.7979
0
LINE
8
BLACK
6
CONTINUOUS
10
135.874
20
-61.7979
11
135.929
21
-61.9669
0
LINE
8
BLACK
6
CONTINUOUS
10
135.929
20
-61.9669
11
135.947
21
-62.1436
0
LINE
8
BLACK
6
CONTINUOUS
10
135.947
20
-62.1436
11
135.929
21
-62.3203
0
LINE
8
BLACK
6
CONTINUOUS
10
135.929
20
-62.3203
11
135.874
21
-62.4893
0
LINE
8
BLACK
6
CONTINUOUS
10
135.874
20
-62.4893
11
135.785
21
-62.6432
0
LINE
8
BLACK
6
CONTINUOUS
10
135.785
20
-62.6432
11
135.666
21
-62.7753
0
LINE
8
BLACK
6
CONTINUOUS
10
135.666
20
-62.7753
11
135.522
21
-62.8797
0
LINE
8
BLACK
6
CONTINUOUS
10
135.522
20
-62.8797
11
135.36
21
-62.952
0
LINE
8
BLACK
6
CONTINUOUS
10
135.36
20
-62.952
11
135.186
21
-62.9889
0
LINE
8
BLACK
6
CONTINUOUS
10
135.186
20
-62.9889
11
135.008
21
-62.9889
0
LINE
8
BLACK
6
CONTINUOUS
10
135.008
20
-62.9889
11
134.834
21
-62.952
0
LINE
8
BLACK
6
CONTINUOUS
10
134.834
20
-62.952
11
134.672
21
-62.8797
0
LINE
8
BLACK
6
CONTINUOUS
10
134.672
20
-62.8797
11
134.528
21
-62.7753
0
LINE
8
BLACK
6
CONTINUOUS
10
134.528
20
-62.7753
11
134.409
21
-62.6432
0
LINE
8
BLACK
6
CONTINUOUS
10
134.409
20
-62.6432
11
134.321
21
-62.4893
0
LINE
8
BLACK
6
CONTINUOUS
10
134.321
20
-62.4893
11
134.266
21
-62.3203
0
LINE
8
BLACK
6
CONTINUOUS
10
134.266
20
-62.3203
11
134.247
21
-62.1436
0
LINE
8
BLACK
6
CONTINUOUS
10
134.247
20
-62.1436
11
134.266
21
-61.9669
0
LINE
8
BLACK
6
CONTINUOUS
10
134.266
20
-61.9669
11
134.321
21
-61.7979
0
LINE
8
BLACK
6
CONTINUOUS
10
134.321
20
-61.7979
11
134.409
21
-61.644
0
LINE
8
BLACK
6
CONTINUOUS
10
134.409
20
-61.644
11
134.528
21
-61.5119
0
LINE
8
BLACK
6
CONTINUOUS
10
134.528
20
-61.5119
11
134.672
21
-61.4075
0
LINE
8
BLACK
6
CONTINUOUS
10
134.672
20
-61.4075
11
134.834
21
-61.3352
0
LINE
8
BLACK
6
CONTINUOUS
10
134.834
20
-61.3352
11
135.008
21
-61.2983
0
LINE
8
BLACK
6
CONTINUOUS
10
135.008
20
-61.2983
11
135.186
21
-61.2983
0
LINE
8
BLACK
6
CONTINUOUS
10
135.186
20
-61.2983
11
135.36
21
-61.3352
0
LINE
8
BLACK
6
CONTINUOUS
10
137.9
20
-61.3352
11
138.062
21
-61.4075
0
LINE
8
BLACK
6
CONTINUOUS
10
138.062
20
-61.4075
11
138.206
21
-61.5119
0
LINE
8
BLACK
6
CONTINUOUS
10
138.206
20
-61.5119
11
138.325
21
-61.644
0
LINE
8
BLACK
6
CONTINUOUS
10
138.325
20
-61.644
11
138.414
21
-61.7979
0
LINE
8
BLACK
6
CONTINUOUS
10
138.414
20
-61.7979
11
138.469
21
-61.9669
0
LINE
8
BLACK
6
CONTINUOUS
10
138.469
20
-61.9669
11
138.487
21
-62.1436
0
LINE
8
BLACK
6
CONTINUOUS
10
138.487
20
-62.1436
11
138.469
21
-62.3203
0
LINE
8
BLACK
6
CONTINUOUS
10
138.469
20
-62.3203
11
138.414
21
-62.4893
0
LINE
8
BLACK
6
CONTINUOUS
10
138.414
20
-62.4893
11
138.325
21
-62.6432
0
LINE
8
BLACK
6
CONTINUOUS
10
138.325
20
-62.6432
11
138.206
21
-62.7753
0
LINE
8
BLACK
6
CONTINUOUS
10
138.206
20
-62.7753
11
138.062
21
-62.8797
0
LINE
8
BLACK
6
CONTINUOUS
10
138.062
20
-62.8797
11
137.9
21
-62.952
0
LINE
8
BLACK
6
CONTINUOUS
10
137.9
20
-62.952
11
137.726
21
-62.9889
0
LINE
8
BLACK
6
CONTINUOUS
10
137.726
20
-62.9889
11
137.548
21
-62.9889
0
LINE
8
BLACK
6
CONTINUOUS
10
137.548
20
-62.9889
11
137.374
21
-62.952
0
LINE
8
BLACK
6
CONTINUOUS
10
137.374
20
-62.952
11
137.212
21
-62.8797
0
LINE
8
BLACK
6
CONTINUOUS
10
137.212
20
-62.8797
11
137.068
21
-62.7753
0
LINE
8
BLACK
6
CONTINUOUS
10
137.068
20
-62.7753
11
136.949
21
-62.6432
0
LINE
8
BLACK
6
CONTINUOUS
10
136.949
20
-62.6432
11
136.861
21
-62.4893
0
LINE
8
BLACK
6
CONTINUOUS
10
136.861
20
-62.4893
11
136.806
21
-62.3203
0
LINE
8
BLACK
6
CONTINUOUS
10
136.806
20
-62.3203
11
136.787
21
-62.1436
0
LINE
8
BLACK
6
CONTINUOUS
10
136.787
20
-62.1436
11
136.806
21
-61.9669
0
LINE
8
BLACK
6
CONTINUOUS
10
136.806
20
-61.9669
11
136.861
21
-61.7979
0
LINE
8
BLACK
6
CONTINUOUS
10
136.861
20
-61.7979
11
136.949
21
-61.644
0
LINE
8
BLACK
6
CONTINUOUS
10
136.949
20
-61.644
11
137.068
21
-61.5119
0
LINE
8
BLACK
6
CONTINUOUS
10
137.068
20
-61.5119
11
137.212
21
-61.4075
0
LINE
8
BLACK
6
CONTINUOUS
10
137.212
20
-61.4075
11
137.374
21
-61.3352
0
LINE
8
BLACK
6
CONTINUOUS
10
137.374
20
-61.3352
11
137.548
21
-61.2983
0
LINE
8
BLACK
6
CONTINUOUS
10
137.548
20
-61.2983
11
137.726
21
-61.2983
0
LINE
8
BLACK
6
CONTINUOUS
10
137.726
20
-61.2983
11
137.9
21
-61.3352
0
LINE
8
BLACK
6
CONTINUOUS
10
140.44
20
-61.3352
11
140.602
21
-61.4075
0
LINE
8
BLACK
6
CONTINUOUS
10
140.602
20
-61.4075
11
140.746
21
-61.5119
0
LINE
8
BLACK
6
CONTINUOUS
10
140.746
20
-61.5119
11
140.865
21
-61.644
0
LINE
8
BLACK
6
CONTINUOUS
10
140.865
20
-61.644
11
140.954
21
-61.7979
0
LINE
8
BLACK
6
CONTINUOUS
10
140.954
20
-61.7979
11
141.009
21
-61.9669
0
LINE
8
BLACK
6
CONTINUOUS
10
141.009
20
-61.9669
11
141.027
21
-62.1436
0
LINE
8
BLACK
6
CONTINUOUS
10
141.027
20
-62.1436
11
141.009
21
-62.3203
0
LINE
8
BLACK
6
CONTINUOUS
10
141.009
20
-62.3203
11
140.954
21
-62.4893
0
LINE
8
BLACK
6
CONTINUOUS
10
140.954
20
-62.4893
11
140.865
21
-62.6432
0
LINE
8
BLACK
6
CONTINUOUS
10
140.865
20
-62.6432
11
140.746
21
-62.7753
0
LINE
8
BLACK
6
CONTINUOUS
10
140.746
20
-62.7753
11
140.602
21
-62.8797
0
LINE
8
BLACK
6
CONTINUOUS
10
140.602
20
-62.8797
11
140.44
21
-62.952
0
LINE
8
BLACK
6
CONTINUOUS
10
140.44
20
-62.952
11
140.266
21
-62.9889
0
LINE
8
BLACK
6
CONTINUOUS
10
140.266
20
-62.9889
11
140.088
21
-62.9889
0
LINE
8
BLACK
6
CONTINUOUS
10
140.088
20
-62.9889
11
139.914
21
-62.952
0
LINE
8
BLACK
6
CONTINUOUS
10
139.914
20
-62.952
11
139.752
21
-62.8797
0
LINE
8
BLACK
6
CONTINUOUS
10
139.752
20
-62.8797
11
139.608
21
-62.7753
0
LINE
8
BLACK
6
CONTINUOUS
10
139.608
20
-62.7753
11
139.489
21
-62.6432
0
LINE
8
BLACK
6
CONTINUOUS
10
139.489
20
-62.6432
11
139.401
21
-62.4893
0
LINE
8
BLACK
6
CONTINUOUS
10
139.401
20
-62.4893
11
139.346
21
-62.3203
0
LINE
8
BLACK
6
CONTINUOUS
10
139.346
20
-62.3203
11
139.327
21
-62.1436
0
LINE
8
BLACK
6
CONTINUOUS
10
139.327
20
-62.1436
11
139.346
21
-61.9669
0
LINE
8
BLACK
6
CONTINUOUS
10
139.346
20
-61.9669
11
139.401
21
-61.7979
0
LINE
8
BLACK
6
CONTINUOUS
10
139.401
20
-61.7979
11
139.489
21
-61.644
0
LINE
8
BLACK
6
CONTINUOUS
10
139.489
20
-61.644
11
139.608
21
-61.5119
0
LINE
8
BLACK
6
CONTINUOUS
10
139.608
20
-61.5119
11
139.752
21
-61.4075
0
LINE
8
BLACK
6
CONTINUOUS
10
139.752
20
-61.4075
11
139.914
21
-61.3352
0
LINE
8
BLACK
6
CONTINUOUS
10
139.914
20
-61.3352
11
140.088
21
-61.2983
0
LINE
8
BLACK
6
CONTINUOUS
10
140.088
20
-61.2983
11
140.266
21
-61.2983
0
LINE
8
BLACK
6
CONTINUOUS
10
140.266
20
-61.2983
11
140.44
21
-61.3352
0
LINE
8
BLACK
6
CONTINUOUS
10
142.98
20
-61.3352
11
143.142
21
-61.4075
0
LINE
8
BLACK
6
CONTINUOUS
10
143.142
20
-61.4075
11
143.286
21
-61.5119
0
LINE
8
BLACK
6
CONTINUOUS
10
143.286
20
-61.5119
11
143.405
21
-61.644
0
LINE
8
BLACK
6
CONTINUOUS
10
143.405
20
-61.644
11
143.494
21
-61.7979
0
LINE
8
BLACK
6
CONTINUOUS
10
143.494
20
-61.7979
11
143.549
21
-61.9669
0
LINE
8
BLACK
6
CONTINUOUS
10
143.549
20
-61.9669
11
143.567
21
-62.1436
0
LINE
8
BLACK
6
CONTINUOUS
10
143.567
20
-62.1436
11
143.549
21
-62.3203
0
LINE
8
BLACK
6
CONTINUOUS
10
143.549
20
-62.3203
11
143.494
21
-62.4893
0
LINE
8
BLACK
6
CONTINUOUS
10
143.494
20
-62.4893
11
143.405
21
-62.6432
0
LINE
8
BLACK
6
CONTINUOUS
10
143.405
20
-62.6432
11
143.286
21
-62.7753
0
LINE
8
BLACK
6
CONTINUOUS
10
143.286
20
-62.7753
11
143.142
21
-62.8797
0
LINE
8
BLACK
6
CONTINUOUS
10
143.142
20
-62.8797
11
142.98
21
-62.952
0
LINE
8
BLACK
6
CONTINUOUS
10
142.98
20
-62.952
11
142.806
21
-62.9889
0
LINE
8
BLACK
6
CONTINUOUS
10
142.806
20
-62.9889
11
142.628
21
-62.9889
0
LINE
8
BLACK
6
CONTINUOUS
10
142.628
20
-62.9889
11
142.454
21
-62.952
0
LINE
8
BLACK
6
CONTINUOUS
10
142.454
20
-62.952
11
142.292
21
-62.8797
0
LINE
8
BLACK
6
CONTINUOUS
10
142.292
20
-62.8797
11
142.148
21
-62.7753
0
LINE
8
BLACK
6
CONTINUOUS
10
142.148
20
-62.7753
11
142.029
21
-62.6432
0
LINE
8
BLACK
6
CONTINUOUS
10
142.029
20
-62.6432
11
141.941
21
-62.4893
0
LINE
8
BLACK
6
CONTINUOUS
10
141.941
20
-62.4893
11
141.886
21
-62.3203
0
LINE
8
BLACK
6
CONTINUOUS
10
141.886
20
-62.3203
11
141.867
21
-62.1436
0
LINE
8
BLACK
6
CONTINUOUS
10
141.867
20
-62.1436
11
141.886
21
-61.9669
0
LINE
8
BLACK
6
CONTINUOUS
10
141.886
20
-61.9669
11
141.941
21
-61.7979
0
LINE
8
BLACK
6
CONTINUOUS
10
141.941
20
-61.7979
11
142.029
21
-61.644
0
LINE
8
BLACK
6
CONTINUOUS
10
142.029
20
-61.644
11
142.148
21
-61.5119
0
LINE
8
BLACK
6
CONTINUOUS
10
142.148
20
-61.5119
11
142.292
21
-61.4075
0
LINE
8
BLACK
6
CONTINUOUS
10
142.292
20
-61.4075
11
142.454
21
-61.3352
0
LINE
8
BLACK
6
CONTINUOUS
10
142.454
20
-61.3352
11
142.628
21
-61.2983
0
LINE
8
BLACK
6
CONTINUOUS
10
142.628
20
-61.2983
11
142.806
21
-61.2983
0
LINE
8
BLACK
6
CONTINUOUS
10
142.806
20
-61.2983
11
142.98
21
-61.3352
0
LINE
8
BLACK
6
CONTINUOUS
10
145.52
20
-61.3352
11
145.682
21
-61.4075
0
LINE
8
BLACK
6
CONTINUOUS
10
145.682
20
-61.4075
11
145.826
21
-61.5119
0
LINE
8
BLACK
6
CONTINUOUS
10
145.826
20
-61.5119
11
145.945
21
-61.644
0
LINE
8
BLACK
6
CONTINUOUS
10
145.945
20
-61.644
11
146.034
21
-61.7979
0
LINE
8
BLACK
6
CONTINUOUS
10
146.034
20
-61.7979
11
146.089
21
-61.9669
0
LINE
8
BLACK
6
CONTINUOUS
10
146.089
20
-61.9669
11
146.107
21
-62.1436
0
LINE
8
BLACK
6
CONTINUOUS
10
146.107
20
-62.1436
11
146.089
21
-62.3203
0
LINE
8
BLACK
6
CONTINUOUS
10
146.089
20
-62.3203
11
146.034
21
-62.4893
0
LINE
8
BLACK
6
CONTINUOUS
10
146.034
20
-62.4893
11
145.945
21
-62.6432
0
LINE
8
BLACK
6
CONTINUOUS
10
145.945
20
-62.6432
11
145.826
21
-62.7753
0
LINE
8
BLACK
6
CONTINUOUS
10
145.826
20
-62.7753
11
145.682
21
-62.8797
0
LINE
8
BLACK
6
CONTINUOUS
10
145.682
20
-62.8797
11
145.52
21
-62.952
0
LINE
8
BLACK
6
CONTINUOUS
10
145.52
20
-62.952
11
145.346
21
-62.9889
0
LINE
8
BLACK
6
CONTINUOUS
10
145.346
20
-62.9889
11
145.168
21
-62.9889
0
LINE
8
BLACK
6
CONTINUOUS
10
145.168
20
-62.9889
11
144.994
21
-62.952
0
LINE
8
BLACK
6
CONTINUOUS
10
144.994
20
-62.952
11
144.832
21
-62.8797
0
LINE
8
BLACK
6
CONTINUOUS
10
144.832
20
-62.8797
11
144.688
21
-62.7753
0
LINE
8
BLACK
6
CONTINUOUS
10
144.688
20
-62.7753
11
144.569
21
-62.6432
0
LINE
8
BLACK
6
CONTINUOUS
10
144.569
20
-62.6432
11
144.481
21
-62.4893
0
LINE
8
BLACK
6
CONTINUOUS
10
144.481
20
-62.4893
11
144.426
21
-62.3203
0
LINE
8
BLACK
6
CONTINUOUS
10
144.426
20
-62.3203
11
144.407
21
-62.1436
0
LINE
8
BLACK
6
CONTINUOUS
10
144.407
20
-62.1436
11
144.426
21
-61.9669
0
LINE
8
BLACK
6
CONTINUOUS
10
144.426
20
-61.9669
11
144.481
21
-61.7979
0
LINE
8
BLACK
6
CONTINUOUS
10
144.481
20
-61.7979
11
144.569
21
-61.644
0
LINE
8
BLACK
6
CONTINUOUS
10
144.569
20
-61.644
11
144.688
21
-61.5119
0
LINE
8
BLACK
6
CONTINUOUS
10
144.688
20
-61.5119
11
144.832
21
-61.4075
0
LINE
8
BLACK
6
CONTINUOUS
10
144.832
20
-61.4075
11
144.994
21
-61.3352
0
LINE
8
BLACK
6
CONTINUOUS
10
144.994
20
-61.3352
11
145.168
21
-61.2983
0
LINE
8
BLACK
6
CONTINUOUS
10
145.168
20
-61.2983
11
145.346
21
-61.2983
0
LINE
8
BLACK
6
CONTINUOUS
10
145.346
20
-61.2983
11
145.52
21
-61.3352
0
LINE
8
BLACK
6
CONTINUOUS
10
148.06
20
-61.3352
11
148.222
21
-61.4075
0
LINE
8
BLACK
6
CONTINUOUS
10
148.222
20
-61.4075
11
148.366
21
-61.5119
0
LINE
8
BLACK
6
CONTINUOUS
10
148.366
20
-61.5119
11
148.485
21
-61.644
0
LINE
8
BLACK
6
CONTINUOUS
10
148.485
20
-61.644
11
148.574
21
-61.7979
0
LINE
8
BLACK
6
CONTINUOUS
10
148.574
20
-61.7979
11
148.629
21
-61.9669
0
LINE
8
BLACK
6
CONTINUOUS
10
148.629
20
-61.9669
11
148.647
21
-62.1436
0
LINE
8
BLACK
6
CONTINUOUS
10
148.647
20
-62.1436
11
148.629
21
-62.3203
0
LINE
8
BLACK
6
CONTINUOUS
10
148.629
20
-62.3203
11
148.574
21
-62.4893
0
LINE
8
BLACK
6
CONTINUOUS
10
148.574
20
-62.4893
11
148.485
21
-62.6432
0
LINE
8
BLACK
6
CONTINUOUS
10
148.485
20
-62.6432
11
148.366
21
-62.7753
0
LINE
8
BLACK
6
CONTINUOUS
10
148.366
20
-62.7753
11
148.222
21
-62.8797
0
LINE
8
BLACK
6
CONTINUOUS
10
148.222
20
-62.8797
11
148.06
21
-62.952
0
LINE
8
BLACK
6
CONTINUOUS
10
148.06
20
-62.952
11
147.886
21
-62.9889
0
LINE
8
BLACK
6
CONTINUOUS
10
147.886
20
-62.9889
11
147.708
21
-62.9889
0
LINE
8
BLACK
6
CONTINUOUS
10
147.708
20
-62.9889
11
147.534
21
-62.952
0
LINE
8
BLACK
6
CONTINUOUS
10
147.534
20
-62.952
11
147.372
21
-62.8797
0
LINE
8
BLACK
6
CONTINUOUS
10
147.372
20
-62.8797
11
147.228
21
-62.7753
0
LINE
8
BLACK
6
CONTINUOUS
10
147.228
20
-62.7753
11
147.109
21
-62.6432
0
LINE
8
BLACK
6
CONTINUOUS
10
147.109
20
-62.6432
11
147.021
21
-62.4893
0
LINE
8
BLACK
6
CONTINUOUS
10
147.021
20
-62.4893
11
146.966
21
-62.3203
0
LINE
8
BLACK
6
CONTINUOUS
10
146.966
20
-62.3203
11
146.947
21
-62.1436
0
LINE
8
BLACK
6
CONTINUOUS
10
146.947
20
-62.1436
11
146.966
21
-61.9669
0
LINE
8
BLACK
6
CONTINUOUS
10
146.966
20
-61.9669
11
147.021
21
-61.7979
0
LINE
8
BLACK
6
CONTINUOUS
10
147.021
20
-61.7979
11
147.109
21
-61.644
0
LINE
8
BLACK
6
CONTINUOUS
10
147.109
20
-61.644
11
147.228
21
-61.5119
0
LINE
8
BLACK
6
CONTINUOUS
10
147.228
20
-61.5119
11
147.372
21
-61.4075
0
LINE
8
BLACK
6
CONTINUOUS
10
147.372
20
-61.4075
11
147.534
21
-61.3352
0
LINE
8
BLACK
6
CONTINUOUS
10
147.534
20
-61.3352
11
147.708
21
-61.2983
0
LINE
8
BLACK
6
CONTINUOUS
10
147.708
20
-61.2983
11
147.886
21
-61.2983
0
LINE
8
BLACK
6
CONTINUOUS
10
147.886
20
-61.2983
11
148.06
21
-61.3352
0
LINE
8
BLACK
6
CONTINUOUS
10
150.6
20
-61.3352
11
150.762
21
-61.4075
0
LINE
8
BLACK
6
CONTINUOUS
10
150.762
20
-61.4075
11
150.906
21
-61.5119
0
LINE
8
BLACK
6
CONTINUOUS
10
150.906
20
-61.5119
11
151.025
21
-61.644
0
LINE
8
BLACK
6
CONTINUOUS
10
151.025
20
-61.644
11
151.114
21
-61.7979
0
LINE
8
BLACK
6
CONTINUOUS
10
151.114
20
-61.7979
11
151.169
21
-61.9669
0
LINE
8
BLACK
6
CONTINUOUS
10
151.169
20
-61.9669
11
151.187
21
-62.1436
0
LINE
8
BLACK
6
CONTINUOUS
10
151.187
20
-62.1436
11
151.169
21
-62.3203
0
LINE
8
BLACK
6
CONTINUOUS
10
151.169
20
-62.3203
11
151.114
21
-62.4893
0
LINE
8
BLACK
6
CONTINUOUS
10
151.114
20
-62.4893
11
151.025
21
-62.6432
0
LINE
8
BLACK
6
CONTINUOUS
10
151.025
20
-62.6432
11
150.906
21
-62.7753
0
LINE
8
BLACK
6
CONTINUOUS
10
150.906
20
-62.7753
11
150.762
21
-62.8797
0
LINE
8
BLACK
6
CONTINUOUS
10
150.762
20
-62.8797
11
150.6
21
-62.952
0
LINE
8
BLACK
6
CONTINUOUS
10
150.6
20
-62.952
11
150.426
21
-62.9889
0
LINE
8
BLACK
6
CONTINUOUS
10
150.426
20
-62.9889
11
150.248
21
-62.9889
0
LINE
8
BLACK
6
CONTINUOUS
10
150.248
20
-62.9889
11
150.074
21
-62.952
0
LINE
8
BLACK
6
CONTINUOUS
10
150.074
20
-62.952
11
149.912
21
-62.8797
0
LINE
8
BLACK
6
CONTINUOUS
10
149.912
20
-62.8797
11
149.768
21
-62.7753
0
LINE
8
BLACK
6
CONTINUOUS
10
149.768
20
-62.7753
11
149.649
21
-62.6432
0
LINE
8
BLACK
6
CONTINUOUS
10
149.649
20
-62.6432
11
149.561
21
-62.4893
0
LINE
8
BLACK
6
CONTINUOUS
10
149.561
20
-62.4893
11
149.506
21
-62.3203
0
LINE
8
BLACK
6
CONTINUOUS
10
149.506
20
-62.3203
11
149.487
21
-62.1436
0
LINE
8
BLACK
6
CONTINUOUS
10
149.487
20
-62.1436
11
149.506
21
-61.9669
0
LINE
8
BLACK
6
CONTINUOUS
10
149.506
20
-61.9669
11
149.561
21
-61.7979
0
LINE
8
BLACK
6
CONTINUOUS
10
149.561
20
-61.7979
11
149.649
21
-61.644
0
LINE
8
BLACK
6
CONTINUOUS
10
149.649
20
-61.644
11
149.768
21
-61.5119
0
LINE
8
BLACK
6
CONTINUOUS
10
149.768
20
-61.5119
11
149.912
21
-61.4075
0
LINE
8
BLACK
6
CONTINUOUS
10
149.912
20
-61.4075
11
150.074
21
-61.3352
0
LINE
8
BLACK
6
CONTINUOUS
10
150.074
20
-61.3352
11
150.248
21
-61.2983
0
LINE
8
BLACK
6
CONTINUOUS
10
150.248
20
-61.2983
11
150.426
21
-61.2983
0
LINE
8
BLACK
6
CONTINUOUS
10
150.426
20
-61.2983
11
150.6
21
-61.3352
0
LINE
8
BLACK
6
CONTINUOUS
10
153.14
20
-61.3352
11
153.302
21
-61.4075
0
LINE
8
BLACK
6
CONTINUOUS
10
153.302
20
-61.4075
11
153.446
21
-61.5119
0
LINE
8
BLACK
6
CONTINUOUS
10
153.446
20
-61.5119
11
153.565
21
-61.644
0
LINE
8
BLACK
6
CONTINUOUS
10
153.565
20
-61.644
11
153.654
21
-61.7979
0
LINE
8
BLACK
6
CONTINUOUS
10
153.654
20
-61.7979
11
153.709
21
-61.9669
0
LINE
8
BLACK
6
CONTINUOUS
10
153.709
20
-61.9669
11
153.727
21
-62.1436
0
LINE
8
BLACK
6
CONTINUOUS
10
153.727
20
-62.1436
11
153.709
21
-62.3203
0
LINE
8
BLACK
6
CONTINUOUS
10
153.709
20
-62.3203
11
153.654
21
-62.4893
0
LINE
8
BLACK
6
CONTINUOUS
10
153.654
20
-62.4893
11
153.565
21
-62.6432
0
LINE
8
BLACK
6
CONTINUOUS
10
153.565
20
-62.6432
11
153.446
21
-62.7753
0
LINE
8
BLACK
6
CONTINUOUS
10
153.446
20
-62.7753
11
153.302
21
-62.8797
0
LINE
8
BLACK
6
CONTINUOUS
10
153.302
20
-62.8797
11
153.14
21
-62.952
0
LINE
8
BLACK
6
CONTINUOUS
10
153.14
20
-62.952
11
152.966
21
-62.9889
0
LINE
8
BLACK
6
CONTINUOUS
10
152.966
20
-62.9889
11
152.788
21
-62.9889
0
LINE
8
BLACK
6
CONTINUOUS
10
152.788
20
-62.9889
11
152.614
21
-62.952
0
LINE
8
BLACK
6
CONTINUOUS
10
152.614
20
-62.952
11
152.452
21
-62.8797
0
LINE
8
BLACK
6
CONTINUOUS
10
152.452
20
-62.8797
11
152.308
21
-62.7753
0
LINE
8
BLACK
6
CONTINUOUS
10
152.308
20
-62.7753
11
152.189
21
-62.6432
0
LINE
8
BLACK
6
CONTINUOUS
10
152.189
20
-62.6432
11
152.101
21
-62.4893
0
LINE
8
BLACK
6
CONTINUOUS
10
152.101
20
-62.4893
11
152.046
21
-62.3203
0
LINE
8
BLACK
6
CONTINUOUS
10
152.046
20
-62.3203
11
152.027
21
-62.1436
0
LINE
8
BLACK
6
CONTINUOUS
10
152.027
20
-62.1436
11
152.046
21
-61.9669
0
LINE
8
BLACK
6
CONTINUOUS
10
152.046
20
-61.9669
11
152.101
21
-61.7979
0
LINE
8
BLACK
6
CONTINUOUS
10
152.101
20
-61.7979
11
152.189
21
-61.644
0
LINE
8
BLACK
6
CONTINUOUS
10
152.189
20
-61.644
11
152.308
21
-61.5119
0
LINE
8
BLACK
6
CONTINUOUS
10
152.308
20
-61.5119
11
152.452
21
-61.4075
0
LINE
8
BLACK
6
CONTINUOUS
10
152.452
20
-61.4075
11
152.614
21
-61.3352
0
LINE
8
BLACK
6
CONTINUOUS
10
152.614
20
-61.3352
11
152.788
21
-61.2983
0
LINE
8
BLACK
6
CONTINUOUS
10
152.788
20
-61.2983
11
152.966
21
-61.2983
0
LINE
8
BLACK
6
CONTINUOUS
10
152.966
20
-61.2983
11
153.14
21
-61.3352
0
LINE
8
BLACK
6
CONTINUOUS
10
155.68
20
-61.3352
11
155.842
21
-61.4075
0
LINE
8
BLACK
6
CONTINUOUS
10
155.842
20
-61.4075
11
155.986
21
-61.5119
0
LINE
8
BLACK
6
CONTINUOUS
10
155.986
20
-61.5119
11
156.105
21
-61.644
0
LINE
8
BLACK
6
CONTINUOUS
10
156.105
20
-61.644
11
156.194
21
-61.7979
0
LINE
8
BLACK
6
CONTINUOUS
10
156.194
20
-61.7979
11
156.249
21
-61.9669
0
LINE
8
BLACK
6
CONTINUOUS
10
156.249
20
-61.9669
11
156.267
21
-62.1436
0
LINE
8
BLACK
6
CONTINUOUS
10
156.267
20
-62.1436
11
156.249
21
-62.3203
0
LINE
8
BLACK
6
CONTINUOUS
10
156.249
20
-62.3203
11
156.194
21
-62.4893
0
LINE
8
BLACK
6
CONTINUOUS
10
156.194
20
-62.4893
11
156.105
21
-62.6432
0
LINE
8
BLACK
6
CONTINUOUS
10
156.105
20
-62.6432
11
155.986
21
-62.7753
0
LINE
8
BLACK
6
CONTINUOUS
10
155.986
20
-62.7753
11
155.842
21
-62.8797
0
LINE
8
BLACK
6
CONTINUOUS
10
155.842
20
-62.8797
11
155.68
21
-62.952
0
LINE
8
BLACK
6
CONTINUOUS
10
155.68
20
-62.952
11
155.506
21
-62.9889
0
LINE
8
BLACK
6
CONTINUOUS
10
155.506
20
-62.9889
11
155.328
21
-62.9889
0
LINE
8
BLACK
6
CONTINUOUS
10
155.328
20
-62.9889
11
155.154
21
-62.952
0
LINE
8
BLACK
6
CONTINUOUS
10
155.154
20
-62.952
11
154.992
21
-62.8797
0
LINE
8
BLACK
6
CONTINUOUS
10
154.992
20
-62.8797
11
154.848
21
-62.7753
0
LINE
8
BLACK
6
CONTINUOUS
10
154.848
20
-62.7753
11
154.729
21
-62.6432
0
LINE
8
BLACK
6
CONTINUOUS
10
154.729
20
-62.6432
11
154.641
21
-62.4893
0
LINE
8
BLACK
6
CONTINUOUS
10
154.641
20
-62.4893
11
154.586
21
-62.3203
0
LINE
8
BLACK
6
CONTINUOUS
10
154.586
20
-62.3203
11
154.567
21
-62.1436
0
LINE
8
BLACK
6
CONTINUOUS
10
154.567
20
-62.1436
11
154.586
21
-61.9669
0
LINE
8
BLACK
6
CONTINUOUS
10
154.586
20
-61.9669
11
154.641
21
-61.7979
0
LINE
8
BLACK
6
CONTINUOUS
10
154.641
20
-61.7979
11
154.729
21
-61.644
0
LINE
8
BLACK
6
CONTINUOUS
10
154.729
20
-61.644
11
154.848
21
-61.5119
0
LINE
8
BLACK
6
CONTINUOUS
10
154.848
20
-61.5119
11
154.992
21
-61.4075
0
LINE
8
BLACK
6
CONTINUOUS
10
154.992
20
-61.4075
11
155.154
21
-61.3352
0
LINE
8
BLACK
6
CONTINUOUS
10
155.154
20
-61.3352
11
155.328
21
-61.2983
0
LINE
8
BLACK
6
CONTINUOUS
10
155.328
20
-61.2983
11
155.506
21
-61.2983
0
LINE
8
BLACK
6
CONTINUOUS
10
155.506
20
-61.2983
11
155.68
21
-61.3352
0
LINE
8
BLACK
6
CONTINUOUS
10
158.22
20
-61.3352
11
158.382
21
-61.4075
0
LINE
8
BLACK
6
CONTINUOUS
10
158.382
20
-61.4075
11
158.526
21
-61.5119
0
LINE
8
BLACK
6
CONTINUOUS
10
158.526
20
-61.5119
11
158.645
21
-61.644
0
LINE
8
BLACK
6
CONTINUOUS
10
158.645
20
-61.644
11
158.734
21
-61.7979
0
LINE
8
BLACK
6
CONTINUOUS
10
158.734
20
-61.7979
11
158.789
21
-61.9669
0
LINE
8
BLACK
6
CONTINUOUS
10
158.789
20
-61.9669
11
158.807
21
-62.1436
0
LINE
8
BLACK
6
CONTINUOUS
10
158.807
20
-62.1436
11
158.789
21
-62.3203
0
LINE
8
BLACK
6
CONTINUOUS
10
158.789
20
-62.3203
11
158.734
21
-62.4893
0
LINE
8
BLACK
6
CONTINUOUS
10
158.734
20
-62.4893
11
158.645
21
-62.6432
0
LINE
8
BLACK
6
CONTINUOUS
10
158.645
20
-62.6432
11
158.526
21
-62.7753
0
LINE
8
BLACK
6
CONTINUOUS
10
158.526
20
-62.7753
11
158.382
21
-62.8797
0
LINE
8
BLACK
6
CONTINUOUS
10
158.382
20
-62.8797
11
158.22
21
-62.952
0
LINE
8
BLACK
6
CONTINUOUS
10
158.22
20
-62.952
11
158.046
21
-62.9889
0
LINE
8
BLACK
6
CONTINUOUS
10
158.046
20
-62.9889
11
157.868
21
-62.9889
0
LINE
8
BLACK
6
CONTINUOUS
10
157.868
20
-62.9889
11
157.694
21
-62.952
0
LINE
8
BLACK
6
CONTINUOUS
10
157.694
20
-62.952
11
157.532
21
-62.8797
0
LINE
8
BLACK
6
CONTINUOUS
10
157.532
20
-62.8797
11
157.388
21
-62.7753
0
LINE
8
BLACK
6
CONTINUOUS
10
157.388
20
-62.7753
11
157.269
21
-62.6432
0
LINE
8
BLACK
6
CONTINUOUS
10
157.269
20
-62.6432
11
157.181
21
-62.4893
0
LINE
8
BLACK
6
CONTINUOUS
10
157.181
20
-62.4893
11
157.126
21
-62.3203
0
LINE
8
BLACK
6
CONTINUOUS
10
157.126
20
-62.3203
11
157.107
21
-62.1436
0
LINE
8
BLACK
6
CONTINUOUS
10
157.107
20
-62.1436
11
157.126
21
-61.9669
0
LINE
8
BLACK
6
CONTINUOUS
10
157.126
20
-61.9669
11
157.181
21
-61.7979
0
LINE
8
BLACK
6
CONTINUOUS
10
157.181
20
-61.7979
11
157.269
21
-61.644
0
LINE
8
BLACK
6
CONTINUOUS
10
157.269
20
-61.644
11
157.388
21
-61.5119
0
LINE
8
BLACK
6
CONTINUOUS
10
157.388
20
-61.5119
11
157.532
21
-61.4075
0
LINE
8
BLACK
6
CONTINUOUS
10
157.532
20
-61.4075
11
157.694
21
-61.3352
0
LINE
8
BLACK
6
CONTINUOUS
10
157.694
20
-61.3352
11
157.868
21
-61.2983
0
LINE
8
BLACK
6
CONTINUOUS
10
157.868
20
-61.2983
11
158.046
21
-61.2983
0
LINE
8
BLACK
6
CONTINUOUS
10
158.046
20
-61.2983
11
158.22
21
-61.3352
0
LINE
8
BLACK
6
CONTINUOUS
10
160.76
20
-61.3352
11
160.922
21
-61.4075
0
LINE
8
BLACK
6
CONTINUOUS
10
160.922
20
-61.4075
11
161.066
21
-61.5119
0
LINE
8
BLACK
6
CONTINUOUS
10
161.066
20
-61.5119
11
161.185
21
-61.644
0
LINE
8
BLACK
6
CONTINUOUS
10
161.185
20
-61.644
11
161.274
21
-61.7979
0
LINE
8
BLACK
6
CONTINUOUS
10
161.274
20
-61.7979
11
161.329
21
-61.9669
0
LINE
8
BLACK
6
CONTINUOUS
10
161.329
20
-61.9669
11
161.347
21
-62.1436
0
LINE
8
BLACK
6
CONTINUOUS
10
161.347
20
-62.1436
11
161.329
21
-62.3203
0
LINE
8
BLACK
6
CONTINUOUS
10
161.329
20
-62.3203
11
161.274
21
-62.4893
0
LINE
8
BLACK
6
CONTINUOUS
10
161.274
20
-62.4893
11
161.185
21
-62.6432
0
LINE
8
BLACK
6
CONTINUOUS
10
161.185
20
-62.6432
11
161.066
21
-62.7753
0
LINE
8
BLACK
6
CONTINUOUS
10
161.066
20
-62.7753
11
160.922
21
-62.8797
0
LINE
8
BLACK
6
CONTINUOUS
10
160.922
20
-62.8797
11
160.76
21
-62.952
0
LINE
8
BLACK
6
CONTINUOUS
10
160.76
20
-62.952
11
160.586
21
-62.9889
0
LINE
8
BLACK
6
CONTINUOUS
10
160.586
20
-62.9889
11
160.408
21
-62.9889
0
LINE
8
BLACK
6
CONTINUOUS
10
160.408
20
-62.9889
11
160.234
21
-62.952
0
LINE
8
BLACK
6
CONTINUOUS
10
160.234
20
-62.952
11
160.072
21
-62.8797
0
LINE
8
BLACK
6
CONTINUOUS
10
160.072
20
-62.8797
11
159.928
21
-62.7753
0
LINE
8
BLACK
6
CONTINUOUS
10
159.928
20
-62.7753
11
159.809
21
-62.6432
0
LINE
8
BLACK
6
CONTINUOUS
10
159.809
20
-62.6432
11
159.721
21
-62.4893
0
LINE
8
BLACK
6
CONTINUOUS
10
159.721
20
-62.4893
11
159.666
21
-62.3203
0
LINE
8
BLACK
6
CONTINUOUS
10
159.666
20
-62.3203
11
159.647
21
-62.1436
0
LINE
8
BLACK
6
CONTINUOUS
10
159.647
20
-62.1436
11
159.666
21
-61.9669
0
LINE
8
BLACK
6
CONTINUOUS
10
159.666
20
-61.9669
11
159.721
21
-61.7979
0
LINE
8
BLACK
6
CONTINUOUS
10
159.721
20
-61.7979
11
159.809
21
-61.644
0
LINE
8
BLACK
6
CONTINUOUS
10
159.809
20
-61.644
11
159.928
21
-61.5119
0
LINE
8
BLACK
6
CONTINUOUS
10
159.928
20
-61.5119
11
160.072
21
-61.4075
0
LINE
8
BLACK
6
CONTINUOUS
10
160.072
20
-61.4075
11
160.234
21
-61.3352
0
LINE
8
BLACK
6
CONTINUOUS
10
160.234
20
-61.3352
11
160.408
21
-61.2983
0
LINE
8
BLACK
6
CONTINUOUS
10
160.408
20
-61.2983
11
160.586
21
-61.2983
0
LINE
8
BLACK
6
CONTINUOUS
10
160.586
20
-61.2983
11
160.76
21
-61.3352
0
LINE
8
BLACK
6
CONTINUOUS
10
163.3
20
-61.3352
11
163.462
21
-61.4075
0
LINE
8
BLACK
6
CONTINUOUS
10
163.462
20
-61.4075
11
163.606
21
-61.5119
0
LINE
8
BLACK
6
CONTINUOUS
10
163.606
20
-61.5119
11
163.725
21
-61.644
0
LINE
8
BLACK
6
CONTINUOUS
10
163.725
20
-61.644
11
163.814
21
-61.7979
0
LINE
8
BLACK
6
CONTINUOUS
10
163.814
20
-61.7979
11
163.869
21
-61.9669
0
LINE
8
BLACK
6
CONTINUOUS
10
163.869
20
-61.9669
11
163.887
21
-62.1436
0
LINE
8
BLACK
6
CONTINUOUS
10
163.887
20
-62.1436
11
163.869
21
-62.3203
0
LINE
8
BLACK
6
CONTINUOUS
10
163.869
20
-62.3203
11
163.814
21
-62.4893
0
LINE
8
BLACK
6
CONTINUOUS
10
163.814
20
-62.4893
11
163.725
21
-62.6432
0
LINE
8
BLACK
6
CONTINUOUS
10
163.725
20
-62.6432
11
163.606
21
-62.7753
0
LINE
8
BLACK
6
CONTINUOUS
10
163.606
20
-62.7753
11
163.462
21
-62.8797
0
LINE
8
BLACK
6
CONTINUOUS
10
163.462
20
-62.8797
11
163.3
21
-62.952
0
LINE
8
BLACK
6
CONTINUOUS
10
163.3
20
-62.952
11
163.126
21
-62.9889
0
LINE
8
BLACK
6
CONTINUOUS
10
163.126
20
-62.9889
11
162.948
21
-62.9889
0
LINE
8
BLACK
6
CONTINUOUS
10
162.948
20
-62.9889
11
162.774
21
-62.952
0
LINE
8
BLACK
6
CONTINUOUS
10
162.774
20
-62.952
11
162.612
21
-62.8797
0
LINE
8
BLACK
6
CONTINUOUS
10
162.612
20
-62.8797
11
162.468
21
-62.7753
0
LINE
8
BLACK
6
CONTINUOUS
10
162.468
20
-62.7753
11
162.349
21
-62.6432
0
LINE
8
BLACK
6
CONTINUOUS
10
162.349
20
-62.6432
11
162.261
21
-62.4893
0
LINE
8
BLACK
6
CONTINUOUS
10
162.261
20
-62.4893
11
162.206
21
-62.3203
0
LINE
8
BLACK
6
CONTINUOUS
10
162.206
20
-62.3203
11
162.187
21
-62.1436
0
LINE
8
BLACK
6
CONTINUOUS
10
162.187
20
-62.1436
11
162.206
21
-61.9669
0
LINE
8
BLACK
6
CONTINUOUS
10
162.206
20
-61.9669
11
162.261
21
-61.7979
0
LINE
8
BLACK
6
CONTINUOUS
10
162.261
20
-61.7979
11
162.349
21
-61.644
0
LINE
8
BLACK
6
CONTINUOUS
10
162.349
20
-61.644
11
162.468
21
-61.5119
0
LINE
8
BLACK
6
CONTINUOUS
10
162.468
20
-61.5119
11
162.612
21
-61.4075
0
LINE
8
BLACK
6
CONTINUOUS
10
162.612
20
-61.4075
11
162.774
21
-61.3352
0
LINE
8
BLACK
6
CONTINUOUS
10
162.774
20
-61.3352
11
162.948
21
-61.2983
0
LINE
8
BLACK
6
CONTINUOUS
10
162.948
20
-61.2983
11
163.126
21
-61.2983
0
LINE
8
BLACK
6
CONTINUOUS
10
163.126
20
-61.2983
11
163.3
21
-61.3352
0
LINE
8
BLACK
6
CONTINUOUS
10
165.84
20
-61.3352
11
166.002
21
-61.4075
0
LINE
8
BLACK
6
CONTINUOUS
10
166.002
20
-61.4075
11
166.146
21
-61.5119
0
LINE
8
BLACK
6
CONTINUOUS
10
166.146
20
-61.5119
11
166.265
21
-61.644
0
LINE
8
BLACK
6
CONTINUOUS
10
166.265
20
-61.644
11
166.354
21
-61.7979
0
LINE
8
BLACK
6
CONTINUOUS
10
166.354
20
-61.7979
11
166.409
21
-61.9669
0
LINE
8
BLACK
6
CONTINUOUS
10
166.409
20
-61.9669
11
166.427
21
-62.1436
0
LINE
8
BLACK
6
CONTINUOUS
10
166.427
20
-62.1436
11
166.409
21
-62.3203
0
LINE
8
BLACK
6
CONTINUOUS
10
166.409
20
-62.3203
11
166.354
21
-62.4893
0
LINE
8
BLACK
6
CONTINUOUS
10
166.354
20
-62.4893
11
166.265
21
-62.6432
0
LINE
8
BLACK
6
CONTINUOUS
10
166.265
20
-62.6432
11
166.146
21
-62.7753
0
LINE
8
BLACK
6
CONTINUOUS
10
166.146
20
-62.7753
11
166.002
21
-62.8797
0
LINE
8
BLACK
6
CONTINUOUS
10
166.002
20
-62.8797
11
165.84
21
-62.952
0
LINE
8
BLACK
6
CONTINUOUS
10
165.84
20
-62.952
11
165.666
21
-62.9889
0
LINE
8
BLACK
6
CONTINUOUS
10
165.666
20
-62.9889
11
165.488
21
-62.9889
0
LINE
8
BLACK
6
CONTINUOUS
10
165.488
20
-62.9889
11
165.314
21
-62.952
0
LINE
8
BLACK
6
CONTINUOUS
10
165.314
20
-62.952
11
165.152
21
-62.8797
0
LINE
8
BLACK
6
CONTINUOUS
10
165.152
20
-62.8797
11
165.008
21
-62.7753
0
LINE
8
BLACK
6
CONTINUOUS
10
165.008
20
-62.7753
11
164.889
21
-62.6432
0
LINE
8
BLACK
6
CONTINUOUS
10
164.889
20
-62.6432
11
164.801
21
-62.4893
0
LINE
8
BLACK
6
CONTINUOUS
10
164.801
20
-62.4893
11
164.746
21
-62.3203
0
LINE
8
BLACK
6
CONTINUOUS
10
164.746
20
-62.3203
11
164.727
21
-62.1436
0
LINE
8
BLACK
6
CONTINUOUS
10
164.727
20
-62.1436
11
164.746
21
-61.9669
0
LINE
8
BLACK
6
CONTINUOUS
10
164.746
20
-61.9669
11
164.801
21
-61.7979
0
LINE
8
BLACK
6
CONTINUOUS
10
164.801
20
-61.7979
11
164.889
21
-61.644
0
LINE
8
BLACK
6
CONTINUOUS
10
164.889
20
-61.644
11
165.008
21
-61.5119
0
LINE
8
BLACK
6
CONTINUOUS
10
165.008
20
-61.5119
11
165.152
21
-61.4075
0
LINE
8
BLACK
6
CONTINUOUS
10
165.152
20
-61.4075
11
165.314
21
-61.3352
0
LINE
8
BLACK
6
CONTINUOUS
10
165.314
20
-61.3352
11
165.488
21
-61.2983
0
LINE
8
BLACK
6
CONTINUOUS
10
165.488
20
-61.2983
11
165.666
21
-61.2983
0
LINE
8
BLACK
6
CONTINUOUS
10
165.666
20
-61.2983
11
165.84
21
-61.3352
0
LINE
8
BLACK
6
CONTINUOUS
10
168.38
20
-61.3352
11
168.542
21
-61.4075
0
LINE
8
BLACK
6
CONTINUOUS
10
168.542
20
-61.4075
11
168.686
21
-61.5119
0
LINE
8
BLACK
6
CONTINUOUS
10
168.686
20
-61.5119
11
168.805
21
-61.644
0
LINE
8
BLACK
6
CONTINUOUS
10
168.805
20
-61.644
11
168.894
21
-61.7979
0
LINE
8
BLACK
6
CONTINUOUS
10
168.894
20
-61.7979
11
168.949
21
-61.9669
0
LINE
8
BLACK
6
CONTINUOUS
10
168.949
20
-61.9669
11
168.967
21
-62.1436
0
LINE
8
BLACK
6
CONTINUOUS
10
168.967
20
-62.1436
11
168.949
21
-62.3203
0
LINE
8
BLACK
6
CONTINUOUS
10
168.949
20
-62.3203
11
168.894
21
-62.4893
0
LINE
8
BLACK
6
CONTINUOUS
10
168.894
20
-62.4893
11
168.805
21
-62.6432
0
LINE
8
BLACK
6
CONTINUOUS
10
168.805
20
-62.6432
11
168.686
21
-62.7753
0
LINE
8
BLACK
6
CONTINUOUS
10
168.686
20
-62.7753
11
168.542
21
-62.8797
0
LINE
8
BLACK
6
CONTINUOUS
10
168.542
20
-62.8797
11
168.38
21
-62.952
0
LINE
8
BLACK
6
CONTINUOUS
10
168.38
20
-62.952
11
168.206
21
-62.9889
0
LINE
8
BLACK
6
CONTINUOUS
10
168.206
20
-62.9889
11
168.028
21
-62.9889
0
LINE
8
BLACK
6
CONTINUOUS
10
168.028
20
-62.9889
11
167.854
21
-62.952
0
LINE
8
BLACK
6
CONTINUOUS
10
167.854
20
-62.952
11
167.692
21
-62.8797
0
LINE
8
BLACK
6
CONTINUOUS
10
167.692
20
-62.8797
11
167.548
21
-62.7753
0
LINE
8
BLACK
6
CONTINUOUS
10
167.548
20
-62.7753
11
167.429
21
-62.6432
0
LINE
8
BLACK
6
CONTINUOUS
10
167.429
20
-62.6432
11
167.341
21
-62.4893
0
LINE
8
BLACK
6
CONTINUOUS
10
167.341
20
-62.4893
11
167.286
21
-62.3203
0
LINE
8
BLACK
6
CONTINUOUS
10
167.286
20
-62.3203
11
167.267
21
-62.1436
0
LINE
8
BLACK
6
CONTINUOUS
10
167.267
20
-62.1436
11
167.286
21
-61.9669
0
LINE
8
BLACK
6
CONTINUOUS
10
167.286
20
-61.9669
11
167.341
21
-61.7979
0
LINE
8
BLACK
6
CONTINUOUS
10
167.341
20
-61.7979
11
167.429
21
-61.644
0
LINE
8
BLACK
6
CONTINUOUS
10
167.429
20
-61.644
11
167.548
21
-61.5119
0
LINE
8
BLACK
6
CONTINUOUS
10
167.548
20
-61.5119
11
167.692
21
-61.4075
0
LINE
8
BLACK
6
CONTINUOUS
10
167.692
20
-61.4075
11
167.854
21
-61.3352
0
LINE
8
BLACK
6
CONTINUOUS
10
167.854
20
-61.3352
11
168.028
21
-61.2983
0
LINE
8
BLACK
6
CONTINUOUS
10
168.028
20
-61.2983
11
168.206
21
-61.2983
0
LINE
8
BLACK
6
CONTINUOUS
10
168.206
20
-61.2983
11
168.38
21
-61.3352
0
LINE
8
BLACK
6
CONTINUOUS
10
170.92
20
-61.3352
11
171.082
21
-61.4075
0
LINE
8
BLACK
6
CONTINUOUS
10
171.082
20
-61.4075
11
171.226
21
-61.5119
0
LINE
8
BLACK
6
CONTINUOUS
10
171.226
20
-61.5119
11
171.345
21
-61.644
0
LINE
8
BLACK
6
CONTINUOUS
10
171.345
20
-61.644
11
171.434
21
-61.7979
0
LINE
8
BLACK
6
CONTINUOUS
10
171.434
20
-61.7979
11
171.489
21
-61.9669
0
LINE
8
BLACK
6
CONTINUOUS
10
171.489
20
-61.9669
11
171.507
21
-62.1436
0
LINE
8
BLACK
6
CONTINUOUS
10
171.507
20
-62.1436
11
171.489
21
-62.3203
0
LINE
8
BLACK
6
CONTINUOUS
10
171.489
20
-62.3203
11
171.434
21
-62.4893
0
LINE
8
BLACK
6
CONTINUOUS
10
171.434
20
-62.4893
11
171.345
21
-62.6432
0
LINE
8
BLACK
6
CONTINUOUS
10
171.345
20
-62.6432
11
171.226
21
-62.7753
0
LINE
8
BLACK
6
CONTINUOUS
10
171.226
20
-62.7753
11
171.082
21
-62.8797
0
LINE
8
BLACK
6
CONTINUOUS
10
171.082
20
-62.8797
11
170.92
21
-62.952
0
LINE
8
BLACK
6
CONTINUOUS
10
170.92
20
-62.952
11
170.746
21
-62.9889
0
LINE
8
BLACK
6
CONTINUOUS
10
170.746
20
-62.9889
11
170.568
21
-62.9889
0
LINE
8
BLACK
6
CONTINUOUS
10
170.568
20
-62.9889
11
170.394
21
-62.952
0
LINE
8
BLACK
6
CONTINUOUS
10
170.394
20
-62.952
11
170.232
21
-62.8797
0
LINE
8
BLACK
6
CONTINUOUS
10
170.232
20
-62.8797
11
170.088
21
-62.7753
0
LINE
8
BLACK
6
CONTINUOUS
10
170.088
20
-62.7753
11
169.969
21
-62.6432
0
LINE
8
BLACK
6
CONTINUOUS
10
169.969
20
-62.6432
11
169.881
21
-62.4893
0
LINE
8
BLACK
6
CONTINUOUS
10
169.881
20
-62.4893
11
169.826
21
-62.3203
0
LINE
8
BLACK
6
CONTINUOUS
10
169.826
20
-62.3203
11
169.807
21
-62.1436
0
LINE
8
BLACK
6
CONTINUOUS
10
169.807
20
-62.1436
11
169.826
21
-61.9669
0
LINE
8
BLACK
6
CONTINUOUS
10
169.826
20
-61.9669
11
169.881
21
-61.7979
0
LINE
8
BLACK
6
CONTINUOUS
10
169.881
20
-61.7979
11
169.969
21
-61.644
0
LINE
8
BLACK
6
CONTINUOUS
10
169.969
20
-61.644
11
170.088
21
-61.5119
0
LINE
8
BLACK
6
CONTINUOUS
10
170.088
20
-61.5119
11
170.232
21
-61.4075
0
LINE
8
BLACK
6
CONTINUOUS
10
170.232
20
-61.4075
11
170.394
21
-61.3352
0
LINE
8
BLACK
6
CONTINUOUS
10
170.394
20
-61.3352
11
170.568
21
-61.2983
0
LINE
8
BLACK
6
CONTINUOUS
10
170.568
20
-61.2983
11
170.746
21
-61.2983
0
LINE
8
BLACK
6
CONTINUOUS
10
170.746
20
-61.2983
11
170.92
21
-61.3352
0
LINE
8
BLACK
6
CONTINUOUS
10
173.46
20
-61.3352
11
173.622
21
-61.4075
0
LINE
8
BLACK
6
CONTINUOUS
10
173.622
20
-61.4075
11
173.766
21
-61.5119
0
LINE
8
BLACK
6
CONTINUOUS
10
173.766
20
-61.5119
11
173.885
21
-61.644
0
LINE
8
BLACK
6
CONTINUOUS
10
173.885
20
-61.644
11
173.974
21
-61.7979
0
LINE
8
BLACK
6
CONTINUOUS
10
173.974
20
-61.7979
11
174.029
21
-61.9669
0
LINE
8
BLACK
6
CONTINUOUS
10
174.029
20
-61.9669
11
174.047
21
-62.1436
0
LINE
8
BLACK
6
CONTINUOUS
10
174.047
20
-62.1436
11
174.029
21
-62.3203
0
LINE
8
BLACK
6
CONTINUOUS
10
174.029
20
-62.3203
11
173.974
21
-62.4893
0
LINE
8
BLACK
6
CONTINUOUS
10
173.974
20
-62.4893
11
173.885
21
-62.6432
0
LINE
8
BLACK
6
CONTINUOUS
10
173.885
20
-62.6432
11
173.766
21
-62.7753
0
LINE
8
BLACK
6
CONTINUOUS
10
173.766
20
-62.7753
11
173.622
21
-62.8797
0
LINE
8
BLACK
6
CONTINUOUS
10
173.622
20
-62.8797
11
173.46
21
-62.952
0
LINE
8
BLACK
6
CONTINUOUS
10
173.46
20
-62.952
11
173.286
21
-62.9889
0
LINE
8
BLACK
6
CONTINUOUS
10
173.286
20
-62.9889
11
173.108
21
-62.9889
0
LINE
8
BLACK
6
CONTINUOUS
10
173.108
20
-62.9889
11
172.934
21
-62.952
0
LINE
8
BLACK
6
CONTINUOUS
10
172.934
20
-62.952
11
172.772
21
-62.8797
0
LINE
8
BLACK
6
CONTINUOUS
10
172.772
20
-62.8797
11
172.628
21
-62.7753
0
LINE
8
BLACK
6
CONTINUOUS
10
172.628
20
-62.7753
11
172.509
21
-62.6432
0
LINE
8
BLACK
6
CONTINUOUS
10
172.509
20
-62.6432
11
172.421
21
-62.4893
0
LINE
8
BLACK
6
CONTINUOUS
10
172.421
20
-62.4893
11
172.366
21
-62.3203
0
LINE
8
BLACK
6
CONTINUOUS
10
172.366
20
-62.3203
11
172.347
21
-62.1436
0
LINE
8
BLACK
6
CONTINUOUS
10
172.347
20
-62.1436
11
172.366
21
-61.9669
0
LINE
8
BLACK
6
CONTINUOUS
10
172.366
20
-61.9669
11
172.421
21
-61.7979
0
LINE
8
BLACK
6
CONTINUOUS
10
172.421
20
-61.7979
11
172.509
21
-61.644
0
LINE
8
BLACK
6
CONTINUOUS
10
172.509
20
-61.644
11
172.628
21
-61.5119
0
LINE
8
BLACK
6
CONTINUOUS
10
172.628
20
-61.5119
11
172.772
21
-61.4075
0
LINE
8
BLACK
6
CONTINUOUS
10
172.772
20
-61.4075
11
172.934
21
-61.3352
0
LINE
8
BLACK
6
CONTINUOUS
10
172.934
20
-61.3352
11
173.108
21
-61.2983
0
LINE
8
BLACK
6
CONTINUOUS
10
173.108
20
-61.2983
11
173.286
21
-61.2983
0
LINE
8
BLACK
6
CONTINUOUS
10
173.286
20
-61.2983
11
173.46
21
-61.3352
  0
ENDSEC
  0
EOF
