%TF.GenerationSoftware,KiCad,Pcbnew,7.0.2-6a45011f42~172~ubuntu20.04.1*%
%TF.CreationDate,2023-05-04T18:05:37+02:00*%
%TF.ProjectId,EPS,4550532e-6b69-4636-9164-5f7063625858,v1.0.1*%
%TF.SameCoordinates,Original*%
%TF.FileFunction,Drillmap*%
%TF.FilePolarity,Positive*%
%FSLAX45Y45*%
G04 Gerber Fmt 4.5, Leading zero omitted, Abs format (unit mm)*
G04 Created by KiCad (PCBNEW 7.0.2-6a45011f42~172~ubuntu20.04.1) date 2023-05-04 18:05:37*
%MOMM*%
%LPD*%
G01*
G04 APERTURE LIST*
%ADD10C,0.100000*%
%ADD11C,0.200000*%
%ADD12C,0.030000*%
%ADD13C,0.040000*%
%ADD14C,0.050000*%
%ADD15C,0.075000*%
%ADD16C,0.080000*%
%ADD17C,0.320000*%
G04 APERTURE END LIST*
D10*
X11156210Y-5740860D02*
G75*
G03*
X10656210Y-6240860I0J-500000D01*
G01*
X10656210Y-13740860D02*
G75*
G03*
X11156210Y-14240860I500000J0D01*
G01*
X18656210Y-14240860D02*
G75*
G03*
X19156210Y-13740860I0J500000D01*
G01*
X19156210Y-6240860D02*
X19156210Y-13740860D01*
X11156210Y-5740860D02*
X18656210Y-5740860D01*
X10656210Y-13740860D02*
X10656210Y-6240860D01*
X18656210Y-14240860D02*
X11156210Y-14240860D01*
X19156210Y-6240860D02*
G75*
G03*
X18656210Y-5740860I-500000J0D01*
G01*
D11*
D12*
X15266810Y-12615460D02*
X15296810Y-12645460D01*
X15296810Y-12615460D02*
X15266810Y-12645460D01*
X15266810Y-12818660D02*
X15296810Y-12848660D01*
X15296810Y-12818660D02*
X15266810Y-12848660D01*
X15419210Y-12615460D02*
X15449210Y-12645460D01*
X15449210Y-12615460D02*
X15419210Y-12645460D01*
X15419210Y-12818660D02*
X15449210Y-12848660D01*
X15449210Y-12818660D02*
X15419210Y-12848660D01*
X17413410Y-7189460D02*
X17443410Y-7219460D01*
X17443410Y-7189460D02*
X17413410Y-7219460D01*
X17639470Y-7075160D02*
X17669470Y-7105160D01*
X17669470Y-7075160D02*
X17639470Y-7105160D01*
D13*
X10753814Y-9052814D02*
G75*
G03*
X10753814Y-9052814I-20000J0D01*
G01*
X10755210Y-9154160D02*
G75*
G03*
X10755210Y-9154160I-20000J0D01*
G01*
X10805028Y-7299954D02*
G75*
G03*
X10805028Y-7299954I-20000J0D01*
G01*
X10856810Y-8900160D02*
G75*
G03*
X10856810Y-8900160I-20000J0D01*
G01*
X10882210Y-7363460D02*
G75*
G03*
X10882210Y-7363460I-20000J0D01*
G01*
X10932913Y-9302782D02*
G75*
G03*
X10932913Y-9302782I-20000J0D01*
G01*
X10953776Y-8827510D02*
G75*
G03*
X10953776Y-8827510I-20000J0D01*
G01*
X10958510Y-7274460D02*
G75*
G03*
X10958510Y-7274460I-20000J0D01*
G01*
X11026144Y-9338810D02*
G75*
G03*
X11026144Y-9338810I-20000J0D01*
G01*
X11046650Y-5921578D02*
G75*
G03*
X11046650Y-5921578I-20000J0D01*
G01*
X11058404Y-7252710D02*
G75*
G03*
X11058404Y-7252710I-20000J0D01*
G01*
X11125504Y-5982995D02*
G75*
G03*
X11125504Y-5982995I-20000J0D01*
G01*
X11199381Y-5911590D02*
G75*
G03*
X11199381Y-5911590I-20000J0D01*
G01*
X11433390Y-7711440D02*
G75*
G03*
X11433390Y-7711440I-20000J0D01*
G01*
X11433390Y-8686800D02*
G75*
G03*
X11433390Y-8686800I-20000J0D01*
G01*
X11622613Y-7499610D02*
G75*
G03*
X11622613Y-7499610I-20000J0D01*
G01*
X11709635Y-8811260D02*
G75*
G03*
X11709635Y-8811260I-20000J0D01*
G01*
X11723960Y-7477760D02*
G75*
G03*
X11723960Y-7477760I-20000J0D01*
G01*
X11771010Y-9504660D02*
G75*
G03*
X11771010Y-9504660I-20000J0D01*
G01*
X11786460Y-8875197D02*
G75*
G03*
X11786460Y-8875197I-20000J0D01*
G01*
X11789906Y-9023407D02*
G75*
G03*
X11789906Y-9023407I-20000J0D01*
G01*
X11796610Y-7363460D02*
G75*
G03*
X11796610Y-7363460I-20000J0D01*
G01*
X11796613Y-7263504D02*
G75*
G03*
X11796613Y-7263504I-20000J0D01*
G01*
X11885510Y-9052560D02*
G75*
G03*
X11885510Y-9052560I-20000J0D01*
G01*
X11923410Y-9504660D02*
G75*
G03*
X11923410Y-9504660I-20000J0D01*
G01*
X11973410Y-13586460D02*
G75*
G03*
X11973410Y-13586460I-20000J0D01*
G01*
X12012510Y-9141460D02*
G75*
G03*
X12012510Y-9141460I-20000J0D01*
G01*
X12045644Y-6982140D02*
G75*
G03*
X12045644Y-6982140I-20000J0D01*
G01*
X12075810Y-9504660D02*
G75*
G03*
X12075810Y-9504660I-20000J0D01*
G01*
X12085637Y-9073324D02*
G75*
G03*
X12085637Y-9073324I-20000J0D01*
G01*
X12120810Y-6916260D02*
G75*
G03*
X12120810Y-6916260I-20000J0D01*
G01*
X12126810Y-13332460D02*
G75*
G03*
X12126810Y-13332460I-20000J0D01*
G01*
X12126810Y-13840460D02*
G75*
G03*
X12126810Y-13840460I-20000J0D01*
G01*
X12247810Y-6916260D02*
G75*
G03*
X12247810Y-6916260I-20000J0D01*
G01*
X12261430Y-9022080D02*
G75*
G03*
X12261430Y-9022080I-20000J0D01*
G01*
X12261430Y-9179560D02*
G75*
G03*
X12261430Y-9179560I-20000J0D01*
G01*
X12329647Y-6973642D02*
G75*
G03*
X12329647Y-6973642I-20000J0D01*
G01*
X12342685Y-8095790D02*
G75*
G03*
X12342685Y-8095790I-20000J0D01*
G01*
X12342710Y-8414130D02*
G75*
G03*
X12342710Y-8414130I-20000J0D01*
G01*
X12342710Y-8514080D02*
G75*
G03*
X12342710Y-8514080I-20000J0D01*
G01*
X12342710Y-13218160D02*
G75*
G03*
X12342710Y-13218160I-20000J0D01*
G01*
X12342710Y-13954760D02*
G75*
G03*
X12342710Y-13954760I-20000J0D01*
G01*
X12342861Y-8195740D02*
G75*
G03*
X12342861Y-8195740I-20000J0D01*
G01*
X12362140Y-7843520D02*
G75*
G03*
X12362140Y-7843520I-20000J0D01*
G01*
X12399390Y-7188010D02*
G75*
G03*
X12399390Y-7188010I-20000J0D01*
G01*
X12462090Y-7843520D02*
G75*
G03*
X12462090Y-7843520I-20000J0D01*
G01*
X12477630Y-9294880D02*
G75*
G03*
X12477630Y-9294880I-20000J0D01*
G01*
X12497950Y-8294120D02*
G75*
G03*
X12497950Y-8294120I-20000J0D01*
G01*
X12686297Y-6681277D02*
G75*
G03*
X12686297Y-6681277I-20000J0D01*
G01*
X12767710Y-6739260D02*
G75*
G03*
X12767710Y-6739260I-20000J0D01*
G01*
X12812610Y-7058660D02*
G75*
G03*
X12812610Y-7058660I-20000J0D01*
G01*
X12812610Y-10741660D02*
G75*
G03*
X12812610Y-10741660I-20000J0D01*
G01*
X12812610Y-11122660D02*
G75*
G03*
X12812610Y-11122660I-20000J0D01*
G01*
X12812610Y-11503660D02*
G75*
G03*
X12812610Y-11503660I-20000J0D01*
G01*
X12886570Y-7946140D02*
G75*
G03*
X12886570Y-7946140I-20000J0D01*
G01*
X12908012Y-7115910D02*
G75*
G03*
X12908012Y-7115910I-20000J0D01*
G01*
X12926910Y-8216010D02*
G75*
G03*
X12926910Y-8216010I-20000J0D01*
G01*
X12926910Y-8315960D02*
G75*
G03*
X12926910Y-8315960I-20000J0D01*
G01*
X12939612Y-7388647D02*
G75*
G03*
X12939612Y-7388647I-20000J0D01*
G01*
X13012260Y-7489264D02*
G75*
G03*
X13012260Y-7489264I-20000J0D01*
G01*
X13021710Y-6751960D02*
G75*
G03*
X13021710Y-6751960I-20000J0D01*
G01*
X13039558Y-7389484D02*
G75*
G03*
X13039558Y-7389484I-20000J0D01*
G01*
X13041210Y-8061960D02*
G75*
G03*
X13041210Y-8061960I-20000J0D01*
G01*
X13042860Y-7115910D02*
G75*
G03*
X13042860Y-7115910I-20000J0D01*
G01*
X13042860Y-8176260D02*
G75*
G03*
X13042860Y-8176260I-20000J0D01*
G01*
X13063180Y-8686800D02*
G75*
G03*
X13063180Y-8686800I-20000J0D01*
G01*
X13096465Y-6685614D02*
G75*
G03*
X13096465Y-6685614I-20000J0D01*
G01*
X13141160Y-8061960D02*
G75*
G03*
X13141160Y-8061960I-20000J0D01*
G01*
X13142810Y-7115910D02*
G75*
G03*
X13142810Y-7115910I-20000J0D01*
G01*
X13142810Y-8176260D02*
G75*
G03*
X13142810Y-8176260I-20000J0D01*
G01*
X13155510Y-10741660D02*
G75*
G03*
X13155510Y-10741660I-20000J0D01*
G01*
X13155510Y-11122660D02*
G75*
G03*
X13155510Y-11122660I-20000J0D01*
G01*
X13155510Y-11503660D02*
G75*
G03*
X13155510Y-11503660I-20000J0D01*
G01*
X13163130Y-8686800D02*
G75*
G03*
X13163130Y-8686800I-20000J0D01*
G01*
X13185990Y-7862950D02*
G75*
G03*
X13185990Y-7862950I-20000J0D01*
G01*
X13185990Y-7962900D02*
G75*
G03*
X13185990Y-7962900I-20000J0D01*
G01*
X13346010Y-7198360D02*
G75*
G03*
X13346010Y-7198360I-20000J0D01*
G01*
X13409510Y-11503660D02*
G75*
G03*
X13409510Y-11503660I-20000J0D01*
G01*
X13415345Y-7271010D02*
G75*
G03*
X13415345Y-7271010I-20000J0D01*
G01*
X13498410Y-9625710D02*
G75*
G03*
X13498410Y-9625710I-20000J0D01*
G01*
X13498410Y-9725660D02*
G75*
G03*
X13498410Y-9725660I-20000J0D01*
G01*
X13498410Y-9827260D02*
G75*
G03*
X13498410Y-9827260I-20000J0D01*
G01*
X13498410Y-9928860D02*
G75*
G03*
X13498410Y-9928860I-20000J0D01*
G01*
X13498410Y-10028810D02*
G75*
G03*
X13498410Y-10028810I-20000J0D01*
G01*
X13536510Y-11455400D02*
G75*
G03*
X13536510Y-11455400I-20000J0D01*
G01*
X13613281Y-9878631D02*
G75*
G03*
X13613281Y-9878631I-20000J0D01*
G01*
X13663510Y-11503660D02*
G75*
G03*
X13663510Y-11503660I-20000J0D01*
G01*
X13688910Y-8404860D02*
G75*
G03*
X13688910Y-8404860I-20000J0D01*
G01*
X13759585Y-8477510D02*
G75*
G03*
X13759585Y-8477510I-20000J0D01*
G01*
X13762668Y-8164699D02*
G75*
G03*
X13762668Y-8164699I-20000J0D01*
G01*
X13828210Y-8240160D02*
G75*
G03*
X13828210Y-8240160I-20000J0D01*
G01*
X13866710Y-7985760D02*
G75*
G03*
X13866710Y-7985760I-20000J0D01*
G01*
X13879410Y-13290860D02*
G75*
G03*
X13879410Y-13290860I-20000J0D01*
G01*
X13892410Y-9109460D02*
G75*
G03*
X13892410Y-9109460I-20000J0D01*
G01*
X13917510Y-11503660D02*
G75*
G03*
X13917510Y-11503660I-20000J0D01*
G01*
X13937385Y-8058410D02*
G75*
G03*
X13937385Y-8058410I-20000J0D01*
G01*
X13993710Y-8798560D02*
G75*
G03*
X13993710Y-8798560I-20000J0D01*
G01*
X13993710Y-9408160D02*
G75*
G03*
X13993710Y-9408160I-20000J0D01*
G01*
X14117250Y-7370920D02*
G75*
G03*
X14117250Y-7370920I-20000J0D01*
G01*
X14133410Y-13290860D02*
G75*
G03*
X14133410Y-13290860I-20000J0D01*
G01*
X14196910Y-8798560D02*
G75*
G03*
X14196910Y-8798560I-20000J0D01*
G01*
X14196910Y-9408160D02*
G75*
G03*
X14196910Y-9408160I-20000J0D01*
G01*
X14387410Y-13290860D02*
G75*
G03*
X14387410Y-13290860I-20000J0D01*
G01*
X14561750Y-8239600D02*
G75*
G03*
X14561750Y-8239600I-20000J0D01*
G01*
X14572830Y-10106660D02*
G75*
G03*
X14572830Y-10106660I-20000J0D01*
G01*
X14637088Y-8173917D02*
G75*
G03*
X14637088Y-8173917I-20000J0D01*
G01*
X14707260Y-13520610D02*
G75*
G03*
X14707260Y-13520610I-20000J0D01*
G01*
X14717610Y-12274860D02*
G75*
G03*
X14717610Y-12274860I-20000J0D01*
G01*
X14717610Y-12374810D02*
G75*
G03*
X14717610Y-12374810I-20000J0D01*
G01*
X14717610Y-12719360D02*
G75*
G03*
X14717610Y-12719360I-20000J0D01*
G01*
X14767490Y-6979760D02*
G75*
G03*
X14767490Y-6979760I-20000J0D01*
G01*
X14908110Y-6779260D02*
G75*
G03*
X14908110Y-6779260I-20000J0D01*
G01*
X14978785Y-6708584D02*
G75*
G03*
X14978785Y-6708584I-20000J0D01*
G01*
X14981060Y-5975610D02*
G75*
G03*
X14981060Y-5975610I-20000J0D01*
G01*
X15022410Y-13163860D02*
G75*
G03*
X15022410Y-13163860I-20000J0D01*
G01*
X15053710Y-5899410D02*
G75*
G03*
X15053710Y-5899410I-20000J0D01*
G01*
X15057260Y-12460709D02*
G75*
G03*
X15057260Y-12460709I-20000J0D01*
G01*
X15057972Y-12560656D02*
G75*
G03*
X15057972Y-12560656I-20000J0D01*
G01*
X15073210Y-10106660D02*
G75*
G03*
X15073210Y-10106660I-20000J0D01*
G01*
X15098610Y-13265460D02*
G75*
G03*
X15098610Y-13265460I-20000J0D01*
G01*
X15111310Y-6728460D02*
G75*
G03*
X15111310Y-6728460I-20000J0D01*
G01*
X15181985Y-6657784D02*
G75*
G03*
X15181985Y-6657784I-20000J0D01*
G01*
X15235060Y-5976620D02*
G75*
G03*
X15235060Y-5976620I-20000J0D01*
G01*
X15258324Y-7271010D02*
G75*
G03*
X15258324Y-7271010I-20000J0D01*
G01*
X15302168Y-8330661D02*
G75*
G03*
X15302168Y-8330661I-20000J0D01*
G01*
X15307710Y-5902960D02*
G75*
G03*
X15307710Y-5902960I-20000J0D01*
G01*
X15314510Y-6664960D02*
G75*
G03*
X15314510Y-6664960I-20000J0D01*
G01*
X15320157Y-6996010D02*
G75*
G03*
X15320157Y-6996010I-20000J0D01*
G01*
X15346610Y-7221060D02*
G75*
G03*
X15346610Y-7221060I-20000J0D01*
G01*
X15372010Y-8402160D02*
G75*
G03*
X15372010Y-8402160I-20000J0D01*
G01*
X15378010Y-12291060D02*
G75*
G03*
X15378010Y-12291060I-20000J0D01*
G01*
X15390960Y-13506510D02*
G75*
G03*
X15390960Y-13506510I-20000J0D01*
G01*
X15399763Y-6592310D02*
G75*
G03*
X15399763Y-6592310I-20000J0D01*
G01*
X15409173Y-7053010D02*
G75*
G03*
X15409173Y-7053010I-20000J0D01*
G01*
X15499854Y-13287056D02*
G75*
G03*
X15499854Y-13287056I-20000J0D01*
G01*
X15500502Y-13187108D02*
G75*
G03*
X15500502Y-13187108I-20000J0D01*
G01*
X15542100Y-12119920D02*
G75*
G03*
X15542100Y-12119920I-20000J0D01*
G01*
X15573130Y-7145320D02*
G75*
G03*
X15573130Y-7145320I-20000J0D01*
G01*
X15606610Y-12427260D02*
G75*
G03*
X15606610Y-12427260I-20000J0D01*
G01*
X15613777Y-7054008D02*
G75*
G03*
X15613777Y-7054008I-20000J0D01*
G01*
X15619310Y-9789160D02*
G75*
G03*
X15619310Y-9789160I-20000J0D01*
G01*
X15669712Y-7648950D02*
G75*
G03*
X15669712Y-7648950I-20000J0D01*
G01*
X15670410Y-12259060D02*
G75*
G03*
X15670410Y-12259060I-20000J0D01*
G01*
X15680562Y-12881628D02*
G75*
G03*
X15680562Y-12881628I-20000J0D01*
G01*
X15708210Y-13189260D02*
G75*
G03*
X15708210Y-13189260I-20000J0D01*
G01*
X15711038Y-13292038D02*
G75*
G03*
X15711038Y-13292038I-20000J0D01*
G01*
X15728530Y-9789160D02*
G75*
G03*
X15728530Y-9789160I-20000J0D01*
G01*
X15760713Y-12378163D02*
G75*
G03*
X15760713Y-12378163I-20000J0D01*
G01*
X15764090Y-7721650D02*
G75*
G03*
X15764090Y-7721650I-20000J0D01*
G01*
X15784710Y-12259060D02*
G75*
G03*
X15784710Y-12259060I-20000J0D01*
G01*
X15808156Y-13190229D02*
G75*
G03*
X15808156Y-13190229I-20000J0D01*
G01*
X15810988Y-13291820D02*
G75*
G03*
X15810988Y-13291820I-20000J0D01*
G01*
X15831389Y-12448839D02*
G75*
G03*
X15831389Y-12448839I-20000J0D01*
G01*
X15835210Y-9789160D02*
G75*
G03*
X15835210Y-9789160I-20000J0D01*
G01*
X15911710Y-12119360D02*
G75*
G03*
X15911710Y-12119360I-20000J0D01*
G01*
X15949510Y-12947960D02*
G75*
G03*
X15949510Y-12947960I-20000J0D01*
G01*
X15949510Y-13189260D02*
G75*
G03*
X15949510Y-13189260I-20000J0D01*
G01*
X15949510Y-13443260D02*
G75*
G03*
X15949510Y-13443260I-20000J0D01*
G01*
X16003832Y-12728025D02*
G75*
G03*
X16003832Y-12728025I-20000J0D01*
G01*
X16075341Y-12658193D02*
G75*
G03*
X16075341Y-12658193I-20000J0D01*
G01*
X16191642Y-6949808D02*
G75*
G03*
X16191642Y-6949808I-20000J0D01*
G01*
X16267010Y-6884160D02*
G75*
G03*
X16267010Y-6884160I-20000J0D01*
G01*
X16267010Y-7719060D02*
G75*
G03*
X16267010Y-7719060I-20000J0D01*
G01*
X16267010Y-12947960D02*
G75*
G03*
X16267010Y-12947960I-20000J0D01*
G01*
X16267010Y-13189260D02*
G75*
G03*
X16267010Y-13189260I-20000J0D01*
G01*
X16267010Y-13443260D02*
G75*
G03*
X16267010Y-13443260I-20000J0D01*
G01*
X16368610Y-6741160D02*
G75*
G03*
X16368610Y-6741160I-20000J0D01*
G01*
X16368610Y-7782560D02*
G75*
G03*
X16368610Y-7782560I-20000J0D01*
G01*
X16441260Y-6814726D02*
G75*
G03*
X16441260Y-6814726I-20000J0D01*
G01*
X16546410Y-6664960D02*
G75*
G03*
X16546410Y-6664960I-20000J0D01*
G01*
X16546410Y-7896860D02*
G75*
G03*
X16546410Y-7896860I-20000J0D01*
G01*
X16619060Y-6735635D02*
G75*
G03*
X16619060Y-6735635I-20000J0D01*
G01*
X16643910Y-10729560D02*
G75*
G03*
X16643910Y-10729560I-20000J0D01*
G01*
X16660710Y-9585960D02*
G75*
G03*
X16660710Y-9585960I-20000J0D01*
G01*
X16660710Y-10043160D02*
G75*
G03*
X16660710Y-10043160I-20000J0D01*
G01*
X16739750Y-7262880D02*
G75*
G03*
X16739750Y-7262880I-20000J0D01*
G01*
X16813110Y-9319260D02*
G75*
G03*
X16813110Y-9319260I-20000J0D01*
G01*
X16831148Y-7332722D02*
G75*
G03*
X16831148Y-7332722I-20000J0D01*
G01*
X17006450Y-7252720D02*
G75*
G03*
X17006450Y-7252720I-20000J0D01*
G01*
X17015722Y-7372191D02*
G75*
G03*
X17015722Y-7372191I-20000J0D01*
G01*
X17099710Y-7675360D02*
G75*
G03*
X17099710Y-7675360I-20000J0D01*
G01*
X17194410Y-7725160D02*
G75*
G03*
X17194410Y-7725160I-20000J0D01*
G01*
X17270310Y-7020560D02*
G75*
G03*
X17270310Y-7020560I-20000J0D01*
G01*
X17351590Y-10317480D02*
G75*
G03*
X17351590Y-10317480I-20000J0D01*
G01*
X17351590Y-10426700D02*
G75*
G03*
X17351590Y-10426700I-20000J0D01*
G01*
X17351590Y-10533380D02*
G75*
G03*
X17351590Y-10533380I-20000J0D01*
G01*
X17359210Y-11236960D02*
G75*
G03*
X17359210Y-11236960I-20000J0D01*
G01*
X17359210Y-11706860D02*
G75*
G03*
X17359210Y-11706860I-20000J0D01*
G01*
X17359210Y-12528860D02*
G75*
G03*
X17359210Y-12528860I-20000J0D01*
G01*
X17511610Y-11033760D02*
G75*
G03*
X17511610Y-11033760I-20000J0D01*
G01*
X17613210Y-11706860D02*
G75*
G03*
X17613210Y-11706860I-20000J0D01*
G01*
X17613210Y-12528860D02*
G75*
G03*
X17613210Y-12528860I-20000J0D01*
G01*
X17740210Y-10906760D02*
G75*
G03*
X17740210Y-10906760I-20000J0D01*
G01*
X17770690Y-7675880D02*
G75*
G03*
X17770690Y-7675880I-20000J0D01*
G01*
X17867210Y-11706860D02*
G75*
G03*
X17867210Y-11706860I-20000J0D01*
G01*
X17867210Y-12528860D02*
G75*
G03*
X17867210Y-12528860I-20000J0D01*
G01*
X17955539Y-7020560D02*
G75*
G03*
X17955539Y-7020560I-20000J0D01*
G01*
X17968810Y-11033760D02*
G75*
G03*
X17968810Y-11033760I-20000J0D01*
G01*
X18042660Y-7795450D02*
G75*
G03*
X18042660Y-7795450I-20000J0D01*
G01*
X18120780Y-6067280D02*
G75*
G03*
X18120780Y-6067280I-20000J0D01*
G01*
X18121210Y-11236960D02*
G75*
G03*
X18121210Y-11236960I-20000J0D01*
G01*
X18121210Y-11706860D02*
G75*
G03*
X18121210Y-11706860I-20000J0D01*
G01*
X18121210Y-12528860D02*
G75*
G03*
X18121210Y-12528860I-20000J0D01*
G01*
X18121510Y-5959860D02*
G75*
G03*
X18121510Y-5959860I-20000J0D01*
G01*
X18210110Y-7414260D02*
G75*
G03*
X18210110Y-7414260I-20000J0D01*
G01*
X18286610Y-7344160D02*
G75*
G03*
X18286610Y-7344160I-20000J0D01*
G01*
X18403150Y-8069580D02*
G75*
G03*
X18403150Y-8069580I-20000J0D01*
G01*
X18503863Y-12732060D02*
G75*
G03*
X18503863Y-12732060I-20000J0D01*
G01*
X18603810Y-12732854D02*
G75*
G03*
X18603810Y-12732854I-20000J0D01*
G01*
X18654610Y-7518400D02*
G75*
G03*
X18654610Y-7518400I-20000J0D01*
G01*
D14*
X11016210Y-6315860D02*
X11016210Y-6365860D01*
X10991210Y-6340860D02*
X11041210Y-6340860D01*
X11016210Y-13615860D02*
X11016210Y-13665860D01*
X10991210Y-13640860D02*
X11041210Y-13640860D01*
X11086504Y-6146154D02*
X11086504Y-6196154D01*
X11061504Y-6171154D02*
X11111504Y-6171154D01*
X11086504Y-6485566D02*
X11086504Y-6535566D01*
X11061504Y-6510566D02*
X11111504Y-6510566D01*
X11086504Y-13446154D02*
X11086504Y-13496154D01*
X11061504Y-13471154D02*
X11111504Y-13471154D01*
X11086504Y-13785566D02*
X11086504Y-13835566D01*
X11061504Y-13810566D02*
X11111504Y-13810566D01*
X11256210Y-6075860D02*
X11256210Y-6125860D01*
X11231210Y-6100860D02*
X11281210Y-6100860D01*
X11256210Y-6555860D02*
X11256210Y-6605860D01*
X11231210Y-6580860D02*
X11281210Y-6580860D01*
X11256210Y-13375860D02*
X11256210Y-13425860D01*
X11231210Y-13400860D02*
X11281210Y-13400860D01*
X11256210Y-13855860D02*
X11256210Y-13905860D01*
X11231210Y-13880860D02*
X11281210Y-13880860D01*
X11425916Y-6146154D02*
X11425916Y-6196154D01*
X11400916Y-6171154D02*
X11450916Y-6171154D01*
X11425916Y-6485566D02*
X11425916Y-6535566D01*
X11400916Y-6510566D02*
X11450916Y-6510566D01*
X11425916Y-13446154D02*
X11425916Y-13496154D01*
X11400916Y-13471154D02*
X11450916Y-13471154D01*
X11425916Y-13785566D02*
X11425916Y-13835566D01*
X11400916Y-13810566D02*
X11450916Y-13810566D01*
X11496210Y-6315860D02*
X11496210Y-6365860D01*
X11471210Y-6340860D02*
X11521210Y-6340860D01*
X11496210Y-13615860D02*
X11496210Y-13665860D01*
X11471210Y-13640860D02*
X11521210Y-13640860D01*
X15396110Y-13670360D02*
X15396110Y-13720360D01*
X15371110Y-13695360D02*
X15421110Y-13695360D01*
X15496110Y-13670360D02*
X15496110Y-13720360D01*
X15471110Y-13695360D02*
X15521110Y-13695360D01*
X18316210Y-6315860D02*
X18316210Y-6365860D01*
X18291210Y-6340860D02*
X18341210Y-6340860D01*
X18316210Y-13615860D02*
X18316210Y-13665860D01*
X18291210Y-13640860D02*
X18341210Y-13640860D01*
X18386504Y-6146154D02*
X18386504Y-6196154D01*
X18361504Y-6171154D02*
X18411504Y-6171154D01*
X18386504Y-6485566D02*
X18386504Y-6535566D01*
X18361504Y-6510566D02*
X18411504Y-6510566D01*
X18386504Y-13446154D02*
X18386504Y-13496154D01*
X18361504Y-13471154D02*
X18411504Y-13471154D01*
X18386504Y-13785566D02*
X18386504Y-13835566D01*
X18361504Y-13810566D02*
X18411504Y-13810566D01*
X18556210Y-6075860D02*
X18556210Y-6125860D01*
X18531210Y-6100860D02*
X18581210Y-6100860D01*
X18556210Y-6555860D02*
X18556210Y-6605860D01*
X18531210Y-6580860D02*
X18581210Y-6580860D01*
X18556210Y-13375860D02*
X18556210Y-13425860D01*
X18531210Y-13400860D02*
X18581210Y-13400860D01*
X18556210Y-13855860D02*
X18556210Y-13905860D01*
X18531210Y-13880860D02*
X18581210Y-13880860D01*
X18725916Y-6146154D02*
X18725916Y-6196154D01*
X18700916Y-6171154D02*
X18750916Y-6171154D01*
X18725916Y-6485566D02*
X18725916Y-6535566D01*
X18700916Y-6510566D02*
X18750916Y-6510566D01*
X18725916Y-13446154D02*
X18725916Y-13496154D01*
X18700916Y-13471154D02*
X18750916Y-13471154D01*
X18725916Y-13785566D02*
X18725916Y-13835566D01*
X18700916Y-13810566D02*
X18750916Y-13810566D01*
X18796210Y-6315860D02*
X18796210Y-6365860D01*
X18771210Y-6340860D02*
X18821210Y-6340860D01*
X18796210Y-13615860D02*
X18796210Y-13665860D01*
X18771210Y-13640860D02*
X18821210Y-13640860D01*
D15*
X11374827Y-10777377D02*
X11374827Y-10724343D01*
X11321793Y-10724343D01*
X11321793Y-10777377D01*
X11374827Y-10777377D01*
X11374827Y-10977377D02*
X11374827Y-10924343D01*
X11321793Y-10924343D01*
X11321793Y-10977377D01*
X11374827Y-10977377D01*
X11374827Y-11639377D02*
X11374827Y-11586343D01*
X11321793Y-11586343D01*
X11321793Y-11639377D01*
X11374827Y-11639377D01*
X11374827Y-11839377D02*
X11374827Y-11786343D01*
X11321793Y-11786343D01*
X11321793Y-11839377D01*
X11374827Y-11839377D01*
X11374827Y-12515677D02*
X11374827Y-12462643D01*
X11321793Y-12462643D01*
X11321793Y-12515677D01*
X11374827Y-12515677D01*
X11374827Y-12715677D02*
X11374827Y-12662643D01*
X11321793Y-12662643D01*
X11321793Y-12715677D01*
X11374827Y-12715677D01*
X11378527Y-9905177D02*
X11378527Y-9852143D01*
X11325493Y-9852143D01*
X11325493Y-9905177D01*
X11378527Y-9905177D01*
X11378527Y-10105177D02*
X11378527Y-10052143D01*
X11325493Y-10052143D01*
X11325493Y-10105177D01*
X11378527Y-10105177D01*
X18517727Y-11744177D02*
X18517727Y-11691143D01*
X18464693Y-11691143D01*
X18464693Y-11744177D01*
X18517727Y-11744177D01*
X18517727Y-11944177D02*
X18517727Y-11891143D01*
X18464693Y-11891143D01*
X18464693Y-11944177D01*
X18517727Y-11944177D01*
D16*
X15867910Y-8030640D02*
X15907910Y-7990640D01*
X15867910Y-7950640D01*
X15827910Y-7990640D01*
X15867910Y-8030640D01*
X15867910Y-8230640D02*
X15907910Y-8190640D01*
X15867910Y-8150640D01*
X15827910Y-8190640D01*
X15867910Y-8230640D01*
X15867910Y-8430640D02*
X15907910Y-8390640D01*
X15867910Y-8350640D01*
X15827910Y-8390640D01*
X15867910Y-8430640D01*
X15867910Y-8630640D02*
X15907910Y-8590640D01*
X15867910Y-8550640D01*
X15827910Y-8590640D01*
X15867910Y-8630640D01*
X15867910Y-8830640D02*
X15907910Y-8790640D01*
X15867910Y-8750640D01*
X15827910Y-8790640D01*
X15867910Y-8830640D01*
X16067910Y-8030640D02*
X16107910Y-7990640D01*
X16067910Y-7950640D01*
X16027910Y-7990640D01*
X16067910Y-8030640D01*
X16067910Y-8230640D02*
X16107910Y-8190640D01*
X16067910Y-8150640D01*
X16027910Y-8190640D01*
X16067910Y-8230640D01*
X16067910Y-8430640D02*
X16107910Y-8390640D01*
X16067910Y-8350640D01*
X16027910Y-8390640D01*
X16067910Y-8430640D01*
X16067910Y-8630640D02*
X16107910Y-8590640D01*
X16067910Y-8550640D01*
X16027910Y-8590640D01*
X16067910Y-8630640D01*
X16067910Y-8830640D02*
X16107910Y-8790640D01*
X16067910Y-8750640D01*
X16027910Y-8790640D01*
X16067910Y-8830640D01*
D10*
X12443710Y-6164360D02*
X12543710Y-6264360D01*
X12543710Y-6164360D02*
X12443710Y-6264360D01*
X12543710Y-6214360D02*
G75*
G03*
X12543710Y-6214360I-50000J0D01*
G01*
X12443710Y-6418360D02*
X12543710Y-6518360D01*
X12543710Y-6418360D02*
X12443710Y-6518360D01*
X12543710Y-6468360D02*
G75*
G03*
X12543710Y-6468360I-50000J0D01*
G01*
X12697710Y-6164360D02*
X12797710Y-6264360D01*
X12797710Y-6164360D02*
X12697710Y-6264360D01*
X12797710Y-6214360D02*
G75*
G03*
X12797710Y-6214360I-50000J0D01*
G01*
X12697710Y-6418360D02*
X12797710Y-6518360D01*
X12797710Y-6418360D02*
X12697710Y-6518360D01*
X12797710Y-6468360D02*
G75*
G03*
X12797710Y-6468360I-50000J0D01*
G01*
X12819310Y-9522760D02*
X12919310Y-9622760D01*
X12919310Y-9522760D02*
X12819310Y-9622760D01*
X12919310Y-9572760D02*
G75*
G03*
X12919310Y-9572760I-50000J0D01*
G01*
X12819310Y-9776760D02*
X12919310Y-9876760D01*
X12919310Y-9776760D02*
X12819310Y-9876760D01*
X12919310Y-9826760D02*
G75*
G03*
X12919310Y-9826760I-50000J0D01*
G01*
X12951710Y-6164360D02*
X13051710Y-6264360D01*
X13051710Y-6164360D02*
X12951710Y-6264360D01*
X13051710Y-6214360D02*
G75*
G03*
X13051710Y-6214360I-50000J0D01*
G01*
X12951710Y-6418360D02*
X13051710Y-6518360D01*
X13051710Y-6418360D02*
X12951710Y-6518360D01*
X13051710Y-6468360D02*
G75*
G03*
X13051710Y-6468360I-50000J0D01*
G01*
X13073310Y-9522760D02*
X13173310Y-9622760D01*
X13173310Y-9522760D02*
X13073310Y-9622760D01*
X13173310Y-9572760D02*
G75*
G03*
X13173310Y-9572760I-50000J0D01*
G01*
X13073310Y-9776760D02*
X13173310Y-9876760D01*
X13173310Y-9776760D02*
X13073310Y-9876760D01*
X13173310Y-9826760D02*
G75*
G03*
X13173310Y-9826760I-50000J0D01*
G01*
X13205710Y-6164360D02*
X13305710Y-6264360D01*
X13305710Y-6164360D02*
X13205710Y-6264360D01*
X13305710Y-6214360D02*
G75*
G03*
X13305710Y-6214360I-50000J0D01*
G01*
X13205710Y-6418360D02*
X13305710Y-6518360D01*
X13305710Y-6418360D02*
X13205710Y-6518360D01*
X13305710Y-6468360D02*
G75*
G03*
X13305710Y-6468360I-50000J0D01*
G01*
X13459710Y-6164360D02*
X13559710Y-6264360D01*
X13559710Y-6164360D02*
X13459710Y-6264360D01*
X13559710Y-6214360D02*
G75*
G03*
X13559710Y-6214360I-50000J0D01*
G01*
X13459710Y-6418360D02*
X13559710Y-6518360D01*
X13559710Y-6418360D02*
X13459710Y-6518360D01*
X13559710Y-6468360D02*
G75*
G03*
X13559710Y-6468360I-50000J0D01*
G01*
X13713710Y-6164360D02*
X13813710Y-6264360D01*
X13813710Y-6164360D02*
X13713710Y-6264360D01*
X13813710Y-6214360D02*
G75*
G03*
X13813710Y-6214360I-50000J0D01*
G01*
X13713710Y-6418360D02*
X13813710Y-6518360D01*
X13813710Y-6418360D02*
X13713710Y-6518360D01*
X13813710Y-6468360D02*
G75*
G03*
X13813710Y-6468360I-50000J0D01*
G01*
X13967710Y-6164360D02*
X14067710Y-6264360D01*
X14067710Y-6164360D02*
X13967710Y-6264360D01*
X14067710Y-6214360D02*
G75*
G03*
X14067710Y-6214360I-50000J0D01*
G01*
X13967710Y-6418360D02*
X14067710Y-6518360D01*
X14067710Y-6418360D02*
X13967710Y-6518360D01*
X14067710Y-6468360D02*
G75*
G03*
X14067710Y-6468360I-50000J0D01*
G01*
X14221710Y-6164360D02*
X14321710Y-6264360D01*
X14321710Y-6164360D02*
X14221710Y-6264360D01*
X14321710Y-6214360D02*
G75*
G03*
X14321710Y-6214360I-50000J0D01*
G01*
X14221710Y-6418360D02*
X14321710Y-6518360D01*
X14321710Y-6418360D02*
X14221710Y-6518360D01*
X14321710Y-6468360D02*
G75*
G03*
X14321710Y-6468360I-50000J0D01*
G01*
X14475710Y-6164360D02*
X14575710Y-6264360D01*
X14575710Y-6164360D02*
X14475710Y-6264360D01*
X14575710Y-6214360D02*
G75*
G03*
X14575710Y-6214360I-50000J0D01*
G01*
X14475710Y-6418360D02*
X14575710Y-6518360D01*
X14575710Y-6418360D02*
X14475710Y-6518360D01*
X14575710Y-6468360D02*
G75*
G03*
X14575710Y-6468360I-50000J0D01*
G01*
X14534810Y-13645360D02*
X14634810Y-13745360D01*
X14634810Y-13645360D02*
X14534810Y-13745360D01*
X14634810Y-13695360D02*
G75*
G03*
X14634810Y-13695360I-50000J0D01*
G01*
X14729710Y-6164360D02*
X14829710Y-6264360D01*
X14829710Y-6164360D02*
X14729710Y-6264360D01*
X14829710Y-6214360D02*
G75*
G03*
X14829710Y-6214360I-50000J0D01*
G01*
X14729710Y-6418360D02*
X14829710Y-6518360D01*
X14829710Y-6418360D02*
X14729710Y-6518360D01*
X14829710Y-6468360D02*
G75*
G03*
X14829710Y-6468360I-50000J0D01*
G01*
X14788810Y-13645360D02*
X14888810Y-13745360D01*
X14888810Y-13645360D02*
X14788810Y-13745360D01*
X14888810Y-13695360D02*
G75*
G03*
X14888810Y-13695360I-50000J0D01*
G01*
X14983710Y-6164360D02*
X15083710Y-6264360D01*
X15083710Y-6164360D02*
X14983710Y-6264360D01*
X15083710Y-6214360D02*
G75*
G03*
X15083710Y-6214360I-50000J0D01*
G01*
X14983710Y-6418360D02*
X15083710Y-6518360D01*
X15083710Y-6418360D02*
X14983710Y-6518360D01*
X15083710Y-6468360D02*
G75*
G03*
X15083710Y-6468360I-50000J0D01*
G01*
X15042810Y-13645360D02*
X15142810Y-13745360D01*
X15142810Y-13645360D02*
X15042810Y-13745360D01*
X15142810Y-13695360D02*
G75*
G03*
X15142810Y-13695360I-50000J0D01*
G01*
X15237710Y-6164360D02*
X15337710Y-6264360D01*
X15337710Y-6164360D02*
X15237710Y-6264360D01*
X15337710Y-6214360D02*
G75*
G03*
X15337710Y-6214360I-50000J0D01*
G01*
X15237710Y-6418360D02*
X15337710Y-6518360D01*
X15337710Y-6418360D02*
X15237710Y-6518360D01*
X15337710Y-6468360D02*
G75*
G03*
X15337710Y-6468360I-50000J0D01*
G01*
X15491710Y-6164360D02*
X15591710Y-6264360D01*
X15591710Y-6164360D02*
X15491710Y-6264360D01*
X15591710Y-6214360D02*
G75*
G03*
X15591710Y-6214360I-50000J0D01*
G01*
X15491710Y-6418360D02*
X15591710Y-6518360D01*
X15591710Y-6418360D02*
X15491710Y-6518360D01*
X15591710Y-6468360D02*
G75*
G03*
X15591710Y-6468360I-50000J0D01*
G01*
X15745710Y-6164360D02*
X15845710Y-6264360D01*
X15845710Y-6164360D02*
X15745710Y-6264360D01*
X15845710Y-6214360D02*
G75*
G03*
X15845710Y-6214360I-50000J0D01*
G01*
X15745710Y-6418360D02*
X15845710Y-6518360D01*
X15845710Y-6418360D02*
X15745710Y-6518360D01*
X15845710Y-6468360D02*
G75*
G03*
X15845710Y-6468360I-50000J0D01*
G01*
X15999710Y-6164360D02*
X16099710Y-6264360D01*
X16099710Y-6164360D02*
X15999710Y-6264360D01*
X16099710Y-6214360D02*
G75*
G03*
X16099710Y-6214360I-50000J0D01*
G01*
X15999710Y-6418360D02*
X16099710Y-6518360D01*
X16099710Y-6418360D02*
X15999710Y-6518360D01*
X16099710Y-6468360D02*
G75*
G03*
X16099710Y-6468360I-50000J0D01*
G01*
X16253710Y-6164360D02*
X16353710Y-6264360D01*
X16353710Y-6164360D02*
X16253710Y-6264360D01*
X16353710Y-6214360D02*
G75*
G03*
X16353710Y-6214360I-50000J0D01*
G01*
X16253710Y-6418360D02*
X16353710Y-6518360D01*
X16353710Y-6418360D02*
X16253710Y-6518360D01*
X16353710Y-6468360D02*
G75*
G03*
X16353710Y-6468360I-50000J0D01*
G01*
X16507710Y-6164360D02*
X16607710Y-6264360D01*
X16607710Y-6164360D02*
X16507710Y-6264360D01*
X16607710Y-6214360D02*
G75*
G03*
X16607710Y-6214360I-50000J0D01*
G01*
X16507710Y-6418360D02*
X16607710Y-6518360D01*
X16607710Y-6418360D02*
X16507710Y-6518360D01*
X16607710Y-6468360D02*
G75*
G03*
X16607710Y-6468360I-50000J0D01*
G01*
X16761710Y-6164360D02*
X16861710Y-6264360D01*
X16861710Y-6164360D02*
X16761710Y-6264360D01*
X16861710Y-6214360D02*
G75*
G03*
X16861710Y-6214360I-50000J0D01*
G01*
X16761710Y-6418360D02*
X16861710Y-6518360D01*
X16861710Y-6418360D02*
X16761710Y-6518360D01*
X16861710Y-6468360D02*
G75*
G03*
X16861710Y-6468360I-50000J0D01*
G01*
X16998610Y-12861960D02*
X17098610Y-12961960D01*
X17098610Y-12861960D02*
X16998610Y-12961960D01*
X17098610Y-12911960D02*
G75*
G03*
X17098610Y-12911960I-50000J0D01*
G01*
X16998610Y-13115960D02*
X17098610Y-13215960D01*
X17098610Y-13115960D02*
X16998610Y-13215960D01*
X17098610Y-13165960D02*
G75*
G03*
X17098610Y-13165960I-50000J0D01*
G01*
X17015710Y-6164360D02*
X17115710Y-6264360D01*
X17115710Y-6164360D02*
X17015710Y-6264360D01*
X17115710Y-6214360D02*
G75*
G03*
X17115710Y-6214360I-50000J0D01*
G01*
X17015710Y-6418360D02*
X17115710Y-6518360D01*
X17115710Y-6418360D02*
X17015710Y-6518360D01*
X17115710Y-6468360D02*
G75*
G03*
X17115710Y-6468360I-50000J0D01*
G01*
X17252610Y-12861960D02*
X17352610Y-12961960D01*
X17352610Y-12861960D02*
X17252610Y-12961960D01*
X17352610Y-12911960D02*
G75*
G03*
X17352610Y-12911960I-50000J0D01*
G01*
X17252610Y-13115960D02*
X17352610Y-13215960D01*
X17352610Y-13115960D02*
X17252610Y-13215960D01*
X17352610Y-13165960D02*
G75*
G03*
X17352610Y-13165960I-50000J0D01*
G01*
X17269710Y-6164360D02*
X17369710Y-6264360D01*
X17369710Y-6164360D02*
X17269710Y-6264360D01*
X17369710Y-6214360D02*
G75*
G03*
X17369710Y-6214360I-50000J0D01*
G01*
X17269710Y-6418360D02*
X17369710Y-6518360D01*
X17369710Y-6418360D02*
X17269710Y-6518360D01*
X17369710Y-6468360D02*
G75*
G03*
X17369710Y-6468360I-50000J0D01*
G01*
D17*
X11096210Y-6180860D02*
X11416210Y-6500860D01*
X11416210Y-6180860D02*
X11096210Y-6500860D01*
X11256210Y-6180860D02*
X11256210Y-6500860D01*
X11096210Y-6340860D02*
X11416210Y-6340860D01*
X11096210Y-13480860D02*
X11416210Y-13800860D01*
X11416210Y-13480860D02*
X11096210Y-13800860D01*
X11256210Y-13480860D02*
X11256210Y-13800860D01*
X11096210Y-13640860D02*
X11416210Y-13640860D01*
X18396210Y-6180860D02*
X18716210Y-6500860D01*
X18716210Y-6180860D02*
X18396210Y-6500860D01*
X18556210Y-6180860D02*
X18556210Y-6500860D01*
X18396210Y-6340860D02*
X18716210Y-6340860D01*
X18396210Y-13480860D02*
X18716210Y-13800860D01*
X18716210Y-13480860D02*
X18396210Y-13800860D01*
X18556210Y-13480860D02*
X18556210Y-13800860D01*
X18396210Y-13640860D02*
X18716210Y-13640860D01*
D11*
X10898829Y-14558384D02*
X10898829Y-14358384D01*
X10898829Y-14358384D02*
X10946448Y-14358384D01*
X10946448Y-14358384D02*
X10975020Y-14367908D01*
X10975020Y-14367908D02*
X10994067Y-14386955D01*
X10994067Y-14386955D02*
X11003591Y-14406003D01*
X11003591Y-14406003D02*
X11013115Y-14444098D01*
X11013115Y-14444098D02*
X11013115Y-14472669D01*
X11013115Y-14472669D02*
X11003591Y-14510765D01*
X11003591Y-14510765D02*
X10994067Y-14529812D01*
X10994067Y-14529812D02*
X10975020Y-14548860D01*
X10975020Y-14548860D02*
X10946448Y-14558384D01*
X10946448Y-14558384D02*
X10898829Y-14558384D01*
X11098829Y-14558384D02*
X11098829Y-14425050D01*
X11098829Y-14463146D02*
X11108353Y-14444098D01*
X11108353Y-14444098D02*
X11117877Y-14434574D01*
X11117877Y-14434574D02*
X11136924Y-14425050D01*
X11136924Y-14425050D02*
X11155972Y-14425050D01*
X11222638Y-14558384D02*
X11222638Y-14425050D01*
X11222638Y-14358384D02*
X11213115Y-14367908D01*
X11213115Y-14367908D02*
X11222638Y-14377431D01*
X11222638Y-14377431D02*
X11232162Y-14367908D01*
X11232162Y-14367908D02*
X11222638Y-14358384D01*
X11222638Y-14358384D02*
X11222638Y-14377431D01*
X11346448Y-14558384D02*
X11327400Y-14548860D01*
X11327400Y-14548860D02*
X11317877Y-14529812D01*
X11317877Y-14529812D02*
X11317877Y-14358384D01*
X11451210Y-14558384D02*
X11432162Y-14548860D01*
X11432162Y-14548860D02*
X11422638Y-14529812D01*
X11422638Y-14529812D02*
X11422638Y-14358384D01*
X11679781Y-14558384D02*
X11679781Y-14358384D01*
X11679781Y-14358384D02*
X11746448Y-14501241D01*
X11746448Y-14501241D02*
X11813115Y-14358384D01*
X11813115Y-14358384D02*
X11813115Y-14558384D01*
X11994067Y-14558384D02*
X11994067Y-14453622D01*
X11994067Y-14453622D02*
X11984543Y-14434574D01*
X11984543Y-14434574D02*
X11965496Y-14425050D01*
X11965496Y-14425050D02*
X11927400Y-14425050D01*
X11927400Y-14425050D02*
X11908353Y-14434574D01*
X11994067Y-14548860D02*
X11975019Y-14558384D01*
X11975019Y-14558384D02*
X11927400Y-14558384D01*
X11927400Y-14558384D02*
X11908353Y-14548860D01*
X11908353Y-14548860D02*
X11898829Y-14529812D01*
X11898829Y-14529812D02*
X11898829Y-14510765D01*
X11898829Y-14510765D02*
X11908353Y-14491717D01*
X11908353Y-14491717D02*
X11927400Y-14482193D01*
X11927400Y-14482193D02*
X11975019Y-14482193D01*
X11975019Y-14482193D02*
X11994067Y-14472669D01*
X12089305Y-14425050D02*
X12089305Y-14625050D01*
X12089305Y-14434574D02*
X12108353Y-14425050D01*
X12108353Y-14425050D02*
X12146448Y-14425050D01*
X12146448Y-14425050D02*
X12165496Y-14434574D01*
X12165496Y-14434574D02*
X12175019Y-14444098D01*
X12175019Y-14444098D02*
X12184543Y-14463146D01*
X12184543Y-14463146D02*
X12184543Y-14520288D01*
X12184543Y-14520288D02*
X12175019Y-14539336D01*
X12175019Y-14539336D02*
X12165496Y-14548860D01*
X12165496Y-14548860D02*
X12146448Y-14558384D01*
X12146448Y-14558384D02*
X12108353Y-14558384D01*
X12108353Y-14558384D02*
X12089305Y-14548860D01*
X12270258Y-14539336D02*
X12279781Y-14548860D01*
X12279781Y-14548860D02*
X12270258Y-14558384D01*
X12270258Y-14558384D02*
X12260734Y-14548860D01*
X12260734Y-14548860D02*
X12270258Y-14539336D01*
X12270258Y-14539336D02*
X12270258Y-14558384D01*
X12270258Y-14434574D02*
X12279781Y-14444098D01*
X12279781Y-14444098D02*
X12270258Y-14453622D01*
X12270258Y-14453622D02*
X12260734Y-14444098D01*
X12260734Y-14444098D02*
X12270258Y-14434574D01*
X12270258Y-14434574D02*
X12270258Y-14453622D01*
D12*
X10621210Y-14870860D02*
X10651210Y-14900860D01*
X10651210Y-14870860D02*
X10621210Y-14900860D01*
D11*
X10936924Y-14778384D02*
X10955972Y-14778384D01*
X10955972Y-14778384D02*
X10975020Y-14787908D01*
X10975020Y-14787908D02*
X10984543Y-14797431D01*
X10984543Y-14797431D02*
X10994067Y-14816479D01*
X10994067Y-14816479D02*
X11003591Y-14854574D01*
X11003591Y-14854574D02*
X11003591Y-14902193D01*
X11003591Y-14902193D02*
X10994067Y-14940288D01*
X10994067Y-14940288D02*
X10984543Y-14959336D01*
X10984543Y-14959336D02*
X10975020Y-14968860D01*
X10975020Y-14968860D02*
X10955972Y-14978384D01*
X10955972Y-14978384D02*
X10936924Y-14978384D01*
X10936924Y-14978384D02*
X10917877Y-14968860D01*
X10917877Y-14968860D02*
X10908353Y-14959336D01*
X10908353Y-14959336D02*
X10898829Y-14940288D01*
X10898829Y-14940288D02*
X10889305Y-14902193D01*
X10889305Y-14902193D02*
X10889305Y-14854574D01*
X10889305Y-14854574D02*
X10898829Y-14816479D01*
X10898829Y-14816479D02*
X10908353Y-14797431D01*
X10908353Y-14797431D02*
X10917877Y-14787908D01*
X10917877Y-14787908D02*
X10936924Y-14778384D01*
X11089305Y-14959336D02*
X11098829Y-14968860D01*
X11098829Y-14968860D02*
X11089305Y-14978384D01*
X11089305Y-14978384D02*
X11079781Y-14968860D01*
X11079781Y-14968860D02*
X11089305Y-14959336D01*
X11089305Y-14959336D02*
X11089305Y-14978384D01*
X11165496Y-14778384D02*
X11289305Y-14778384D01*
X11289305Y-14778384D02*
X11222638Y-14854574D01*
X11222638Y-14854574D02*
X11251210Y-14854574D01*
X11251210Y-14854574D02*
X11270258Y-14864098D01*
X11270258Y-14864098D02*
X11279781Y-14873622D01*
X11279781Y-14873622D02*
X11289305Y-14892669D01*
X11289305Y-14892669D02*
X11289305Y-14940288D01*
X11289305Y-14940288D02*
X11279781Y-14959336D01*
X11279781Y-14959336D02*
X11270258Y-14968860D01*
X11270258Y-14968860D02*
X11251210Y-14978384D01*
X11251210Y-14978384D02*
X11194067Y-14978384D01*
X11194067Y-14978384D02*
X11175020Y-14968860D01*
X11175020Y-14968860D02*
X11165496Y-14959336D01*
X11413115Y-14778384D02*
X11432162Y-14778384D01*
X11432162Y-14778384D02*
X11451210Y-14787908D01*
X11451210Y-14787908D02*
X11460734Y-14797431D01*
X11460734Y-14797431D02*
X11470258Y-14816479D01*
X11470258Y-14816479D02*
X11479781Y-14854574D01*
X11479781Y-14854574D02*
X11479781Y-14902193D01*
X11479781Y-14902193D02*
X11470258Y-14940288D01*
X11470258Y-14940288D02*
X11460734Y-14959336D01*
X11460734Y-14959336D02*
X11451210Y-14968860D01*
X11451210Y-14968860D02*
X11432162Y-14978384D01*
X11432162Y-14978384D02*
X11413115Y-14978384D01*
X11413115Y-14978384D02*
X11394067Y-14968860D01*
X11394067Y-14968860D02*
X11384543Y-14959336D01*
X11384543Y-14959336D02*
X11375019Y-14940288D01*
X11375019Y-14940288D02*
X11365496Y-14902193D01*
X11365496Y-14902193D02*
X11365496Y-14854574D01*
X11365496Y-14854574D02*
X11375019Y-14816479D01*
X11375019Y-14816479D02*
X11384543Y-14797431D01*
X11384543Y-14797431D02*
X11394067Y-14787908D01*
X11394067Y-14787908D02*
X11413115Y-14778384D01*
X11603591Y-14778384D02*
X11622639Y-14778384D01*
X11622639Y-14778384D02*
X11641686Y-14787908D01*
X11641686Y-14787908D02*
X11651210Y-14797431D01*
X11651210Y-14797431D02*
X11660734Y-14816479D01*
X11660734Y-14816479D02*
X11670258Y-14854574D01*
X11670258Y-14854574D02*
X11670258Y-14902193D01*
X11670258Y-14902193D02*
X11660734Y-14940288D01*
X11660734Y-14940288D02*
X11651210Y-14959336D01*
X11651210Y-14959336D02*
X11641686Y-14968860D01*
X11641686Y-14968860D02*
X11622639Y-14978384D01*
X11622639Y-14978384D02*
X11603591Y-14978384D01*
X11603591Y-14978384D02*
X11584543Y-14968860D01*
X11584543Y-14968860D02*
X11575019Y-14959336D01*
X11575019Y-14959336D02*
X11565496Y-14940288D01*
X11565496Y-14940288D02*
X11555972Y-14902193D01*
X11555972Y-14902193D02*
X11555972Y-14854574D01*
X11555972Y-14854574D02*
X11565496Y-14816479D01*
X11565496Y-14816479D02*
X11575019Y-14797431D01*
X11575019Y-14797431D02*
X11584543Y-14787908D01*
X11584543Y-14787908D02*
X11603591Y-14778384D01*
X11755972Y-14978384D02*
X11755972Y-14845050D01*
X11755972Y-14864098D02*
X11765496Y-14854574D01*
X11765496Y-14854574D02*
X11784543Y-14845050D01*
X11784543Y-14845050D02*
X11813115Y-14845050D01*
X11813115Y-14845050D02*
X11832162Y-14854574D01*
X11832162Y-14854574D02*
X11841686Y-14873622D01*
X11841686Y-14873622D02*
X11841686Y-14978384D01*
X11841686Y-14873622D02*
X11851210Y-14854574D01*
X11851210Y-14854574D02*
X11870258Y-14845050D01*
X11870258Y-14845050D02*
X11898829Y-14845050D01*
X11898829Y-14845050D02*
X11917877Y-14854574D01*
X11917877Y-14854574D02*
X11927400Y-14873622D01*
X11927400Y-14873622D02*
X11927400Y-14978384D01*
X12022639Y-14978384D02*
X12022639Y-14845050D01*
X12022639Y-14864098D02*
X12032162Y-14854574D01*
X12032162Y-14854574D02*
X12051210Y-14845050D01*
X12051210Y-14845050D02*
X12079781Y-14845050D01*
X12079781Y-14845050D02*
X12098829Y-14854574D01*
X12098829Y-14854574D02*
X12108353Y-14873622D01*
X12108353Y-14873622D02*
X12108353Y-14978384D01*
X12108353Y-14873622D02*
X12117877Y-14854574D01*
X12117877Y-14854574D02*
X12136924Y-14845050D01*
X12136924Y-14845050D02*
X12165496Y-14845050D01*
X12165496Y-14845050D02*
X12184543Y-14854574D01*
X12184543Y-14854574D02*
X12194067Y-14873622D01*
X12194067Y-14873622D02*
X12194067Y-14978384D01*
X12584543Y-14768860D02*
X12413115Y-15026003D01*
X12841686Y-14778384D02*
X12860734Y-14778384D01*
X12860734Y-14778384D02*
X12879782Y-14787908D01*
X12879782Y-14787908D02*
X12889305Y-14797431D01*
X12889305Y-14797431D02*
X12898829Y-14816479D01*
X12898829Y-14816479D02*
X12908353Y-14854574D01*
X12908353Y-14854574D02*
X12908353Y-14902193D01*
X12908353Y-14902193D02*
X12898829Y-14940288D01*
X12898829Y-14940288D02*
X12889305Y-14959336D01*
X12889305Y-14959336D02*
X12879782Y-14968860D01*
X12879782Y-14968860D02*
X12860734Y-14978384D01*
X12860734Y-14978384D02*
X12841686Y-14978384D01*
X12841686Y-14978384D02*
X12822639Y-14968860D01*
X12822639Y-14968860D02*
X12813115Y-14959336D01*
X12813115Y-14959336D02*
X12803591Y-14940288D01*
X12803591Y-14940288D02*
X12794067Y-14902193D01*
X12794067Y-14902193D02*
X12794067Y-14854574D01*
X12794067Y-14854574D02*
X12803591Y-14816479D01*
X12803591Y-14816479D02*
X12813115Y-14797431D01*
X12813115Y-14797431D02*
X12822639Y-14787908D01*
X12822639Y-14787908D02*
X12841686Y-14778384D01*
X12994067Y-14959336D02*
X13003591Y-14968860D01*
X13003591Y-14968860D02*
X12994067Y-14978384D01*
X12994067Y-14978384D02*
X12984543Y-14968860D01*
X12984543Y-14968860D02*
X12994067Y-14959336D01*
X12994067Y-14959336D02*
X12994067Y-14978384D01*
X13127401Y-14778384D02*
X13146448Y-14778384D01*
X13146448Y-14778384D02*
X13165496Y-14787908D01*
X13165496Y-14787908D02*
X13175020Y-14797431D01*
X13175020Y-14797431D02*
X13184543Y-14816479D01*
X13184543Y-14816479D02*
X13194067Y-14854574D01*
X13194067Y-14854574D02*
X13194067Y-14902193D01*
X13194067Y-14902193D02*
X13184543Y-14940288D01*
X13184543Y-14940288D02*
X13175020Y-14959336D01*
X13175020Y-14959336D02*
X13165496Y-14968860D01*
X13165496Y-14968860D02*
X13146448Y-14978384D01*
X13146448Y-14978384D02*
X13127401Y-14978384D01*
X13127401Y-14978384D02*
X13108353Y-14968860D01*
X13108353Y-14968860D02*
X13098829Y-14959336D01*
X13098829Y-14959336D02*
X13089305Y-14940288D01*
X13089305Y-14940288D02*
X13079782Y-14902193D01*
X13079782Y-14902193D02*
X13079782Y-14854574D01*
X13079782Y-14854574D02*
X13089305Y-14816479D01*
X13089305Y-14816479D02*
X13098829Y-14797431D01*
X13098829Y-14797431D02*
X13108353Y-14787908D01*
X13108353Y-14787908D02*
X13127401Y-14778384D01*
X13384543Y-14978384D02*
X13270258Y-14978384D01*
X13327401Y-14978384D02*
X13327401Y-14778384D01*
X13327401Y-14778384D02*
X13308353Y-14806955D01*
X13308353Y-14806955D02*
X13289305Y-14826003D01*
X13289305Y-14826003D02*
X13270258Y-14835527D01*
X13575020Y-14978384D02*
X13460734Y-14978384D01*
X13517877Y-14978384D02*
X13517877Y-14778384D01*
X13517877Y-14778384D02*
X13498829Y-14806955D01*
X13498829Y-14806955D02*
X13479782Y-14826003D01*
X13479782Y-14826003D02*
X13460734Y-14835527D01*
X13689305Y-14864098D02*
X13670258Y-14854574D01*
X13670258Y-14854574D02*
X13660734Y-14845050D01*
X13660734Y-14845050D02*
X13651210Y-14826003D01*
X13651210Y-14826003D02*
X13651210Y-14816479D01*
X13651210Y-14816479D02*
X13660734Y-14797431D01*
X13660734Y-14797431D02*
X13670258Y-14787908D01*
X13670258Y-14787908D02*
X13689305Y-14778384D01*
X13689305Y-14778384D02*
X13727401Y-14778384D01*
X13727401Y-14778384D02*
X13746448Y-14787908D01*
X13746448Y-14787908D02*
X13755972Y-14797431D01*
X13755972Y-14797431D02*
X13765496Y-14816479D01*
X13765496Y-14816479D02*
X13765496Y-14826003D01*
X13765496Y-14826003D02*
X13755972Y-14845050D01*
X13755972Y-14845050D02*
X13746448Y-14854574D01*
X13746448Y-14854574D02*
X13727401Y-14864098D01*
X13727401Y-14864098D02*
X13689305Y-14864098D01*
X13689305Y-14864098D02*
X13670258Y-14873622D01*
X13670258Y-14873622D02*
X13660734Y-14883146D01*
X13660734Y-14883146D02*
X13651210Y-14902193D01*
X13651210Y-14902193D02*
X13651210Y-14940288D01*
X13651210Y-14940288D02*
X13660734Y-14959336D01*
X13660734Y-14959336D02*
X13670258Y-14968860D01*
X13670258Y-14968860D02*
X13689305Y-14978384D01*
X13689305Y-14978384D02*
X13727401Y-14978384D01*
X13727401Y-14978384D02*
X13746448Y-14968860D01*
X13746448Y-14968860D02*
X13755972Y-14959336D01*
X13755972Y-14959336D02*
X13765496Y-14940288D01*
X13765496Y-14940288D02*
X13765496Y-14902193D01*
X13765496Y-14902193D02*
X13755972Y-14883146D01*
X13755972Y-14883146D02*
X13746448Y-14873622D01*
X13746448Y-14873622D02*
X13727401Y-14864098D01*
X13841686Y-14778384D02*
X13841686Y-14816479D01*
X13917877Y-14778384D02*
X13917877Y-14816479D01*
X14213115Y-15054574D02*
X14203591Y-15045050D01*
X14203591Y-15045050D02*
X14184544Y-15016479D01*
X14184544Y-15016479D02*
X14175020Y-14997431D01*
X14175020Y-14997431D02*
X14165496Y-14968860D01*
X14165496Y-14968860D02*
X14155972Y-14921241D01*
X14155972Y-14921241D02*
X14155972Y-14883146D01*
X14155972Y-14883146D02*
X14165496Y-14835527D01*
X14165496Y-14835527D02*
X14175020Y-14806955D01*
X14175020Y-14806955D02*
X14184544Y-14787908D01*
X14184544Y-14787908D02*
X14203591Y-14759336D01*
X14203591Y-14759336D02*
X14213115Y-14749812D01*
X14375020Y-14778384D02*
X14336924Y-14778384D01*
X14336924Y-14778384D02*
X14317877Y-14787908D01*
X14317877Y-14787908D02*
X14308353Y-14797431D01*
X14308353Y-14797431D02*
X14289305Y-14826003D01*
X14289305Y-14826003D02*
X14279782Y-14864098D01*
X14279782Y-14864098D02*
X14279782Y-14940288D01*
X14279782Y-14940288D02*
X14289305Y-14959336D01*
X14289305Y-14959336D02*
X14298829Y-14968860D01*
X14298829Y-14968860D02*
X14317877Y-14978384D01*
X14317877Y-14978384D02*
X14355972Y-14978384D01*
X14355972Y-14978384D02*
X14375020Y-14968860D01*
X14375020Y-14968860D02*
X14384544Y-14959336D01*
X14384544Y-14959336D02*
X14394067Y-14940288D01*
X14394067Y-14940288D02*
X14394067Y-14892669D01*
X14394067Y-14892669D02*
X14384544Y-14873622D01*
X14384544Y-14873622D02*
X14375020Y-14864098D01*
X14375020Y-14864098D02*
X14355972Y-14854574D01*
X14355972Y-14854574D02*
X14317877Y-14854574D01*
X14317877Y-14854574D02*
X14298829Y-14864098D01*
X14298829Y-14864098D02*
X14289305Y-14873622D01*
X14289305Y-14873622D02*
X14279782Y-14892669D01*
X14632163Y-14978384D02*
X14632163Y-14778384D01*
X14717877Y-14978384D02*
X14717877Y-14873622D01*
X14717877Y-14873622D02*
X14708353Y-14854574D01*
X14708353Y-14854574D02*
X14689306Y-14845050D01*
X14689306Y-14845050D02*
X14660734Y-14845050D01*
X14660734Y-14845050D02*
X14641686Y-14854574D01*
X14641686Y-14854574D02*
X14632163Y-14864098D01*
X14841686Y-14978384D02*
X14822639Y-14968860D01*
X14822639Y-14968860D02*
X14813115Y-14959336D01*
X14813115Y-14959336D02*
X14803591Y-14940288D01*
X14803591Y-14940288D02*
X14803591Y-14883146D01*
X14803591Y-14883146D02*
X14813115Y-14864098D01*
X14813115Y-14864098D02*
X14822639Y-14854574D01*
X14822639Y-14854574D02*
X14841686Y-14845050D01*
X14841686Y-14845050D02*
X14870258Y-14845050D01*
X14870258Y-14845050D02*
X14889306Y-14854574D01*
X14889306Y-14854574D02*
X14898829Y-14864098D01*
X14898829Y-14864098D02*
X14908353Y-14883146D01*
X14908353Y-14883146D02*
X14908353Y-14940288D01*
X14908353Y-14940288D02*
X14898829Y-14959336D01*
X14898829Y-14959336D02*
X14889306Y-14968860D01*
X14889306Y-14968860D02*
X14870258Y-14978384D01*
X14870258Y-14978384D02*
X14841686Y-14978384D01*
X15022639Y-14978384D02*
X15003591Y-14968860D01*
X15003591Y-14968860D02*
X14994067Y-14949812D01*
X14994067Y-14949812D02*
X14994067Y-14778384D01*
X15175020Y-14968860D02*
X15155972Y-14978384D01*
X15155972Y-14978384D02*
X15117877Y-14978384D01*
X15117877Y-14978384D02*
X15098829Y-14968860D01*
X15098829Y-14968860D02*
X15089306Y-14949812D01*
X15089306Y-14949812D02*
X15089306Y-14873622D01*
X15089306Y-14873622D02*
X15098829Y-14854574D01*
X15098829Y-14854574D02*
X15117877Y-14845050D01*
X15117877Y-14845050D02*
X15155972Y-14845050D01*
X15155972Y-14845050D02*
X15175020Y-14854574D01*
X15175020Y-14854574D02*
X15184544Y-14873622D01*
X15184544Y-14873622D02*
X15184544Y-14892669D01*
X15184544Y-14892669D02*
X15089306Y-14911717D01*
X15260734Y-14968860D02*
X15279782Y-14978384D01*
X15279782Y-14978384D02*
X15317877Y-14978384D01*
X15317877Y-14978384D02*
X15336925Y-14968860D01*
X15336925Y-14968860D02*
X15346448Y-14949812D01*
X15346448Y-14949812D02*
X15346448Y-14940288D01*
X15346448Y-14940288D02*
X15336925Y-14921241D01*
X15336925Y-14921241D02*
X15317877Y-14911717D01*
X15317877Y-14911717D02*
X15289306Y-14911717D01*
X15289306Y-14911717D02*
X15270258Y-14902193D01*
X15270258Y-14902193D02*
X15260734Y-14883146D01*
X15260734Y-14883146D02*
X15260734Y-14873622D01*
X15260734Y-14873622D02*
X15270258Y-14854574D01*
X15270258Y-14854574D02*
X15289306Y-14845050D01*
X15289306Y-14845050D02*
X15317877Y-14845050D01*
X15317877Y-14845050D02*
X15336925Y-14854574D01*
X15413115Y-15054574D02*
X15422639Y-15045050D01*
X15422639Y-15045050D02*
X15441687Y-15016479D01*
X15441687Y-15016479D02*
X15451210Y-14997431D01*
X15451210Y-14997431D02*
X15460734Y-14968860D01*
X15460734Y-14968860D02*
X15470258Y-14921241D01*
X15470258Y-14921241D02*
X15470258Y-14883146D01*
X15470258Y-14883146D02*
X15460734Y-14835527D01*
X15460734Y-14835527D02*
X15451210Y-14806955D01*
X15451210Y-14806955D02*
X15441687Y-14787908D01*
X15441687Y-14787908D02*
X15422639Y-14759336D01*
X15422639Y-14759336D02*
X15413115Y-14749812D01*
D13*
X10651210Y-15149860D02*
G75*
G03*
X10651210Y-15149860I-20000J0D01*
G01*
D11*
X10936924Y-15042384D02*
X10955972Y-15042384D01*
X10955972Y-15042384D02*
X10975020Y-15051908D01*
X10975020Y-15051908D02*
X10984543Y-15061431D01*
X10984543Y-15061431D02*
X10994067Y-15080479D01*
X10994067Y-15080479D02*
X11003591Y-15118574D01*
X11003591Y-15118574D02*
X11003591Y-15166193D01*
X11003591Y-15166193D02*
X10994067Y-15204288D01*
X10994067Y-15204288D02*
X10984543Y-15223336D01*
X10984543Y-15223336D02*
X10975020Y-15232860D01*
X10975020Y-15232860D02*
X10955972Y-15242384D01*
X10955972Y-15242384D02*
X10936924Y-15242384D01*
X10936924Y-15242384D02*
X10917877Y-15232860D01*
X10917877Y-15232860D02*
X10908353Y-15223336D01*
X10908353Y-15223336D02*
X10898829Y-15204288D01*
X10898829Y-15204288D02*
X10889305Y-15166193D01*
X10889305Y-15166193D02*
X10889305Y-15118574D01*
X10889305Y-15118574D02*
X10898829Y-15080479D01*
X10898829Y-15080479D02*
X10908353Y-15061431D01*
X10908353Y-15061431D02*
X10917877Y-15051908D01*
X10917877Y-15051908D02*
X10936924Y-15042384D01*
X11089305Y-15223336D02*
X11098829Y-15232860D01*
X11098829Y-15232860D02*
X11089305Y-15242384D01*
X11089305Y-15242384D02*
X11079781Y-15232860D01*
X11079781Y-15232860D02*
X11089305Y-15223336D01*
X11089305Y-15223336D02*
X11089305Y-15242384D01*
X11270258Y-15109050D02*
X11270258Y-15242384D01*
X11222638Y-15032860D02*
X11175020Y-15175717D01*
X11175020Y-15175717D02*
X11298829Y-15175717D01*
X11413115Y-15042384D02*
X11432162Y-15042384D01*
X11432162Y-15042384D02*
X11451210Y-15051908D01*
X11451210Y-15051908D02*
X11460734Y-15061431D01*
X11460734Y-15061431D02*
X11470258Y-15080479D01*
X11470258Y-15080479D02*
X11479781Y-15118574D01*
X11479781Y-15118574D02*
X11479781Y-15166193D01*
X11479781Y-15166193D02*
X11470258Y-15204288D01*
X11470258Y-15204288D02*
X11460734Y-15223336D01*
X11460734Y-15223336D02*
X11451210Y-15232860D01*
X11451210Y-15232860D02*
X11432162Y-15242384D01*
X11432162Y-15242384D02*
X11413115Y-15242384D01*
X11413115Y-15242384D02*
X11394067Y-15232860D01*
X11394067Y-15232860D02*
X11384543Y-15223336D01*
X11384543Y-15223336D02*
X11375019Y-15204288D01*
X11375019Y-15204288D02*
X11365496Y-15166193D01*
X11365496Y-15166193D02*
X11365496Y-15118574D01*
X11365496Y-15118574D02*
X11375019Y-15080479D01*
X11375019Y-15080479D02*
X11384543Y-15061431D01*
X11384543Y-15061431D02*
X11394067Y-15051908D01*
X11394067Y-15051908D02*
X11413115Y-15042384D01*
X11603591Y-15042384D02*
X11622639Y-15042384D01*
X11622639Y-15042384D02*
X11641686Y-15051908D01*
X11641686Y-15051908D02*
X11651210Y-15061431D01*
X11651210Y-15061431D02*
X11660734Y-15080479D01*
X11660734Y-15080479D02*
X11670258Y-15118574D01*
X11670258Y-15118574D02*
X11670258Y-15166193D01*
X11670258Y-15166193D02*
X11660734Y-15204288D01*
X11660734Y-15204288D02*
X11651210Y-15223336D01*
X11651210Y-15223336D02*
X11641686Y-15232860D01*
X11641686Y-15232860D02*
X11622639Y-15242384D01*
X11622639Y-15242384D02*
X11603591Y-15242384D01*
X11603591Y-15242384D02*
X11584543Y-15232860D01*
X11584543Y-15232860D02*
X11575019Y-15223336D01*
X11575019Y-15223336D02*
X11565496Y-15204288D01*
X11565496Y-15204288D02*
X11555972Y-15166193D01*
X11555972Y-15166193D02*
X11555972Y-15118574D01*
X11555972Y-15118574D02*
X11565496Y-15080479D01*
X11565496Y-15080479D02*
X11575019Y-15061431D01*
X11575019Y-15061431D02*
X11584543Y-15051908D01*
X11584543Y-15051908D02*
X11603591Y-15042384D01*
X11755972Y-15242384D02*
X11755972Y-15109050D01*
X11755972Y-15128098D02*
X11765496Y-15118574D01*
X11765496Y-15118574D02*
X11784543Y-15109050D01*
X11784543Y-15109050D02*
X11813115Y-15109050D01*
X11813115Y-15109050D02*
X11832162Y-15118574D01*
X11832162Y-15118574D02*
X11841686Y-15137622D01*
X11841686Y-15137622D02*
X11841686Y-15242384D01*
X11841686Y-15137622D02*
X11851210Y-15118574D01*
X11851210Y-15118574D02*
X11870258Y-15109050D01*
X11870258Y-15109050D02*
X11898829Y-15109050D01*
X11898829Y-15109050D02*
X11917877Y-15118574D01*
X11917877Y-15118574D02*
X11927400Y-15137622D01*
X11927400Y-15137622D02*
X11927400Y-15242384D01*
X12022639Y-15242384D02*
X12022639Y-15109050D01*
X12022639Y-15128098D02*
X12032162Y-15118574D01*
X12032162Y-15118574D02*
X12051210Y-15109050D01*
X12051210Y-15109050D02*
X12079781Y-15109050D01*
X12079781Y-15109050D02*
X12098829Y-15118574D01*
X12098829Y-15118574D02*
X12108353Y-15137622D01*
X12108353Y-15137622D02*
X12108353Y-15242384D01*
X12108353Y-15137622D02*
X12117877Y-15118574D01*
X12117877Y-15118574D02*
X12136924Y-15109050D01*
X12136924Y-15109050D02*
X12165496Y-15109050D01*
X12165496Y-15109050D02*
X12184543Y-15118574D01*
X12184543Y-15118574D02*
X12194067Y-15137622D01*
X12194067Y-15137622D02*
X12194067Y-15242384D01*
X12584543Y-15032860D02*
X12413115Y-15290003D01*
X12841686Y-15042384D02*
X12860734Y-15042384D01*
X12860734Y-15042384D02*
X12879782Y-15051908D01*
X12879782Y-15051908D02*
X12889305Y-15061431D01*
X12889305Y-15061431D02*
X12898829Y-15080479D01*
X12898829Y-15080479D02*
X12908353Y-15118574D01*
X12908353Y-15118574D02*
X12908353Y-15166193D01*
X12908353Y-15166193D02*
X12898829Y-15204288D01*
X12898829Y-15204288D02*
X12889305Y-15223336D01*
X12889305Y-15223336D02*
X12879782Y-15232860D01*
X12879782Y-15232860D02*
X12860734Y-15242384D01*
X12860734Y-15242384D02*
X12841686Y-15242384D01*
X12841686Y-15242384D02*
X12822639Y-15232860D01*
X12822639Y-15232860D02*
X12813115Y-15223336D01*
X12813115Y-15223336D02*
X12803591Y-15204288D01*
X12803591Y-15204288D02*
X12794067Y-15166193D01*
X12794067Y-15166193D02*
X12794067Y-15118574D01*
X12794067Y-15118574D02*
X12803591Y-15080479D01*
X12803591Y-15080479D02*
X12813115Y-15061431D01*
X12813115Y-15061431D02*
X12822639Y-15051908D01*
X12822639Y-15051908D02*
X12841686Y-15042384D01*
X12994067Y-15223336D02*
X13003591Y-15232860D01*
X13003591Y-15232860D02*
X12994067Y-15242384D01*
X12994067Y-15242384D02*
X12984543Y-15232860D01*
X12984543Y-15232860D02*
X12994067Y-15223336D01*
X12994067Y-15223336D02*
X12994067Y-15242384D01*
X13127401Y-15042384D02*
X13146448Y-15042384D01*
X13146448Y-15042384D02*
X13165496Y-15051908D01*
X13165496Y-15051908D02*
X13175020Y-15061431D01*
X13175020Y-15061431D02*
X13184543Y-15080479D01*
X13184543Y-15080479D02*
X13194067Y-15118574D01*
X13194067Y-15118574D02*
X13194067Y-15166193D01*
X13194067Y-15166193D02*
X13184543Y-15204288D01*
X13184543Y-15204288D02*
X13175020Y-15223336D01*
X13175020Y-15223336D02*
X13165496Y-15232860D01*
X13165496Y-15232860D02*
X13146448Y-15242384D01*
X13146448Y-15242384D02*
X13127401Y-15242384D01*
X13127401Y-15242384D02*
X13108353Y-15232860D01*
X13108353Y-15232860D02*
X13098829Y-15223336D01*
X13098829Y-15223336D02*
X13089305Y-15204288D01*
X13089305Y-15204288D02*
X13079782Y-15166193D01*
X13079782Y-15166193D02*
X13079782Y-15118574D01*
X13079782Y-15118574D02*
X13089305Y-15080479D01*
X13089305Y-15080479D02*
X13098829Y-15061431D01*
X13098829Y-15061431D02*
X13108353Y-15051908D01*
X13108353Y-15051908D02*
X13127401Y-15042384D01*
X13384543Y-15242384D02*
X13270258Y-15242384D01*
X13327401Y-15242384D02*
X13327401Y-15042384D01*
X13327401Y-15042384D02*
X13308353Y-15070955D01*
X13308353Y-15070955D02*
X13289305Y-15090003D01*
X13289305Y-15090003D02*
X13270258Y-15099527D01*
X13565496Y-15042384D02*
X13470258Y-15042384D01*
X13470258Y-15042384D02*
X13460734Y-15137622D01*
X13460734Y-15137622D02*
X13470258Y-15128098D01*
X13470258Y-15128098D02*
X13489305Y-15118574D01*
X13489305Y-15118574D02*
X13536924Y-15118574D01*
X13536924Y-15118574D02*
X13555972Y-15128098D01*
X13555972Y-15128098D02*
X13565496Y-15137622D01*
X13565496Y-15137622D02*
X13575020Y-15156669D01*
X13575020Y-15156669D02*
X13575020Y-15204288D01*
X13575020Y-15204288D02*
X13565496Y-15223336D01*
X13565496Y-15223336D02*
X13555972Y-15232860D01*
X13555972Y-15232860D02*
X13536924Y-15242384D01*
X13536924Y-15242384D02*
X13489305Y-15242384D01*
X13489305Y-15242384D02*
X13470258Y-15232860D01*
X13470258Y-15232860D02*
X13460734Y-15223336D01*
X13641686Y-15042384D02*
X13775020Y-15042384D01*
X13775020Y-15042384D02*
X13689305Y-15242384D01*
X13841686Y-15042384D02*
X13841686Y-15080479D01*
X13917877Y-15042384D02*
X13917877Y-15080479D01*
X14213115Y-15318574D02*
X14203591Y-15309050D01*
X14203591Y-15309050D02*
X14184544Y-15280479D01*
X14184544Y-15280479D02*
X14175020Y-15261431D01*
X14175020Y-15261431D02*
X14165496Y-15232860D01*
X14165496Y-15232860D02*
X14155972Y-15185241D01*
X14155972Y-15185241D02*
X14155972Y-15147146D01*
X14155972Y-15147146D02*
X14165496Y-15099527D01*
X14165496Y-15099527D02*
X14175020Y-15070955D01*
X14175020Y-15070955D02*
X14184544Y-15051908D01*
X14184544Y-15051908D02*
X14203591Y-15023336D01*
X14203591Y-15023336D02*
X14213115Y-15013812D01*
X14279782Y-15061431D02*
X14289305Y-15051908D01*
X14289305Y-15051908D02*
X14308353Y-15042384D01*
X14308353Y-15042384D02*
X14355972Y-15042384D01*
X14355972Y-15042384D02*
X14375020Y-15051908D01*
X14375020Y-15051908D02*
X14384544Y-15061431D01*
X14384544Y-15061431D02*
X14394067Y-15080479D01*
X14394067Y-15080479D02*
X14394067Y-15099527D01*
X14394067Y-15099527D02*
X14384544Y-15128098D01*
X14384544Y-15128098D02*
X14270258Y-15242384D01*
X14270258Y-15242384D02*
X14394067Y-15242384D01*
X14584544Y-15242384D02*
X14470258Y-15242384D01*
X14527401Y-15242384D02*
X14527401Y-15042384D01*
X14527401Y-15042384D02*
X14508353Y-15070955D01*
X14508353Y-15070955D02*
X14489305Y-15090003D01*
X14489305Y-15090003D02*
X14470258Y-15099527D01*
X14708353Y-15042384D02*
X14727401Y-15042384D01*
X14727401Y-15042384D02*
X14746448Y-15051908D01*
X14746448Y-15051908D02*
X14755972Y-15061431D01*
X14755972Y-15061431D02*
X14765496Y-15080479D01*
X14765496Y-15080479D02*
X14775020Y-15118574D01*
X14775020Y-15118574D02*
X14775020Y-15166193D01*
X14775020Y-15166193D02*
X14765496Y-15204288D01*
X14765496Y-15204288D02*
X14755972Y-15223336D01*
X14755972Y-15223336D02*
X14746448Y-15232860D01*
X14746448Y-15232860D02*
X14727401Y-15242384D01*
X14727401Y-15242384D02*
X14708353Y-15242384D01*
X14708353Y-15242384D02*
X14689305Y-15232860D01*
X14689305Y-15232860D02*
X14679782Y-15223336D01*
X14679782Y-15223336D02*
X14670258Y-15204288D01*
X14670258Y-15204288D02*
X14660734Y-15166193D01*
X14660734Y-15166193D02*
X14660734Y-15118574D01*
X14660734Y-15118574D02*
X14670258Y-15080479D01*
X14670258Y-15080479D02*
X14679782Y-15061431D01*
X14679782Y-15061431D02*
X14689305Y-15051908D01*
X14689305Y-15051908D02*
X14708353Y-15042384D01*
X15013115Y-15242384D02*
X15013115Y-15042384D01*
X15098829Y-15242384D02*
X15098829Y-15137622D01*
X15098829Y-15137622D02*
X15089306Y-15118574D01*
X15089306Y-15118574D02*
X15070258Y-15109050D01*
X15070258Y-15109050D02*
X15041686Y-15109050D01*
X15041686Y-15109050D02*
X15022639Y-15118574D01*
X15022639Y-15118574D02*
X15013115Y-15128098D01*
X15222639Y-15242384D02*
X15203591Y-15232860D01*
X15203591Y-15232860D02*
X15194067Y-15223336D01*
X15194067Y-15223336D02*
X15184544Y-15204288D01*
X15184544Y-15204288D02*
X15184544Y-15147146D01*
X15184544Y-15147146D02*
X15194067Y-15128098D01*
X15194067Y-15128098D02*
X15203591Y-15118574D01*
X15203591Y-15118574D02*
X15222639Y-15109050D01*
X15222639Y-15109050D02*
X15251210Y-15109050D01*
X15251210Y-15109050D02*
X15270258Y-15118574D01*
X15270258Y-15118574D02*
X15279782Y-15128098D01*
X15279782Y-15128098D02*
X15289306Y-15147146D01*
X15289306Y-15147146D02*
X15289306Y-15204288D01*
X15289306Y-15204288D02*
X15279782Y-15223336D01*
X15279782Y-15223336D02*
X15270258Y-15232860D01*
X15270258Y-15232860D02*
X15251210Y-15242384D01*
X15251210Y-15242384D02*
X15222639Y-15242384D01*
X15403591Y-15242384D02*
X15384544Y-15232860D01*
X15384544Y-15232860D02*
X15375020Y-15213812D01*
X15375020Y-15213812D02*
X15375020Y-15042384D01*
X15555972Y-15232860D02*
X15536925Y-15242384D01*
X15536925Y-15242384D02*
X15498829Y-15242384D01*
X15498829Y-15242384D02*
X15479782Y-15232860D01*
X15479782Y-15232860D02*
X15470258Y-15213812D01*
X15470258Y-15213812D02*
X15470258Y-15137622D01*
X15470258Y-15137622D02*
X15479782Y-15118574D01*
X15479782Y-15118574D02*
X15498829Y-15109050D01*
X15498829Y-15109050D02*
X15536925Y-15109050D01*
X15536925Y-15109050D02*
X15555972Y-15118574D01*
X15555972Y-15118574D02*
X15565496Y-15137622D01*
X15565496Y-15137622D02*
X15565496Y-15156669D01*
X15565496Y-15156669D02*
X15470258Y-15175717D01*
X15641687Y-15232860D02*
X15660734Y-15242384D01*
X15660734Y-15242384D02*
X15698829Y-15242384D01*
X15698829Y-15242384D02*
X15717877Y-15232860D01*
X15717877Y-15232860D02*
X15727401Y-15213812D01*
X15727401Y-15213812D02*
X15727401Y-15204288D01*
X15727401Y-15204288D02*
X15717877Y-15185241D01*
X15717877Y-15185241D02*
X15698829Y-15175717D01*
X15698829Y-15175717D02*
X15670258Y-15175717D01*
X15670258Y-15175717D02*
X15651210Y-15166193D01*
X15651210Y-15166193D02*
X15641687Y-15147146D01*
X15641687Y-15147146D02*
X15641687Y-15137622D01*
X15641687Y-15137622D02*
X15651210Y-15118574D01*
X15651210Y-15118574D02*
X15670258Y-15109050D01*
X15670258Y-15109050D02*
X15698829Y-15109050D01*
X15698829Y-15109050D02*
X15717877Y-15118574D01*
X15794068Y-15318574D02*
X15803591Y-15309050D01*
X15803591Y-15309050D02*
X15822639Y-15280479D01*
X15822639Y-15280479D02*
X15832163Y-15261431D01*
X15832163Y-15261431D02*
X15841687Y-15232860D01*
X15841687Y-15232860D02*
X15851210Y-15185241D01*
X15851210Y-15185241D02*
X15851210Y-15147146D01*
X15851210Y-15147146D02*
X15841687Y-15099527D01*
X15841687Y-15099527D02*
X15832163Y-15070955D01*
X15832163Y-15070955D02*
X15822639Y-15051908D01*
X15822639Y-15051908D02*
X15803591Y-15023336D01*
X15803591Y-15023336D02*
X15794068Y-15013812D01*
D14*
X10626210Y-15388860D02*
X10626210Y-15438860D01*
X10601210Y-15413860D02*
X10651210Y-15413860D01*
D11*
X10936924Y-15306384D02*
X10955972Y-15306384D01*
X10955972Y-15306384D02*
X10975020Y-15315908D01*
X10975020Y-15315908D02*
X10984543Y-15325431D01*
X10984543Y-15325431D02*
X10994067Y-15344479D01*
X10994067Y-15344479D02*
X11003591Y-15382574D01*
X11003591Y-15382574D02*
X11003591Y-15430193D01*
X11003591Y-15430193D02*
X10994067Y-15468288D01*
X10994067Y-15468288D02*
X10984543Y-15487336D01*
X10984543Y-15487336D02*
X10975020Y-15496860D01*
X10975020Y-15496860D02*
X10955972Y-15506384D01*
X10955972Y-15506384D02*
X10936924Y-15506384D01*
X10936924Y-15506384D02*
X10917877Y-15496860D01*
X10917877Y-15496860D02*
X10908353Y-15487336D01*
X10908353Y-15487336D02*
X10898829Y-15468288D01*
X10898829Y-15468288D02*
X10889305Y-15430193D01*
X10889305Y-15430193D02*
X10889305Y-15382574D01*
X10889305Y-15382574D02*
X10898829Y-15344479D01*
X10898829Y-15344479D02*
X10908353Y-15325431D01*
X10908353Y-15325431D02*
X10917877Y-15315908D01*
X10917877Y-15315908D02*
X10936924Y-15306384D01*
X11089305Y-15487336D02*
X11098829Y-15496860D01*
X11098829Y-15496860D02*
X11089305Y-15506384D01*
X11089305Y-15506384D02*
X11079781Y-15496860D01*
X11079781Y-15496860D02*
X11089305Y-15487336D01*
X11089305Y-15487336D02*
X11089305Y-15506384D01*
X11279781Y-15306384D02*
X11184543Y-15306384D01*
X11184543Y-15306384D02*
X11175020Y-15401622D01*
X11175020Y-15401622D02*
X11184543Y-15392098D01*
X11184543Y-15392098D02*
X11203591Y-15382574D01*
X11203591Y-15382574D02*
X11251210Y-15382574D01*
X11251210Y-15382574D02*
X11270258Y-15392098D01*
X11270258Y-15392098D02*
X11279781Y-15401622D01*
X11279781Y-15401622D02*
X11289305Y-15420669D01*
X11289305Y-15420669D02*
X11289305Y-15468288D01*
X11289305Y-15468288D02*
X11279781Y-15487336D01*
X11279781Y-15487336D02*
X11270258Y-15496860D01*
X11270258Y-15496860D02*
X11251210Y-15506384D01*
X11251210Y-15506384D02*
X11203591Y-15506384D01*
X11203591Y-15506384D02*
X11184543Y-15496860D01*
X11184543Y-15496860D02*
X11175020Y-15487336D01*
X11413115Y-15306384D02*
X11432162Y-15306384D01*
X11432162Y-15306384D02*
X11451210Y-15315908D01*
X11451210Y-15315908D02*
X11460734Y-15325431D01*
X11460734Y-15325431D02*
X11470258Y-15344479D01*
X11470258Y-15344479D02*
X11479781Y-15382574D01*
X11479781Y-15382574D02*
X11479781Y-15430193D01*
X11479781Y-15430193D02*
X11470258Y-15468288D01*
X11470258Y-15468288D02*
X11460734Y-15487336D01*
X11460734Y-15487336D02*
X11451210Y-15496860D01*
X11451210Y-15496860D02*
X11432162Y-15506384D01*
X11432162Y-15506384D02*
X11413115Y-15506384D01*
X11413115Y-15506384D02*
X11394067Y-15496860D01*
X11394067Y-15496860D02*
X11384543Y-15487336D01*
X11384543Y-15487336D02*
X11375019Y-15468288D01*
X11375019Y-15468288D02*
X11365496Y-15430193D01*
X11365496Y-15430193D02*
X11365496Y-15382574D01*
X11365496Y-15382574D02*
X11375019Y-15344479D01*
X11375019Y-15344479D02*
X11384543Y-15325431D01*
X11384543Y-15325431D02*
X11394067Y-15315908D01*
X11394067Y-15315908D02*
X11413115Y-15306384D01*
X11603591Y-15306384D02*
X11622639Y-15306384D01*
X11622639Y-15306384D02*
X11641686Y-15315908D01*
X11641686Y-15315908D02*
X11651210Y-15325431D01*
X11651210Y-15325431D02*
X11660734Y-15344479D01*
X11660734Y-15344479D02*
X11670258Y-15382574D01*
X11670258Y-15382574D02*
X11670258Y-15430193D01*
X11670258Y-15430193D02*
X11660734Y-15468288D01*
X11660734Y-15468288D02*
X11651210Y-15487336D01*
X11651210Y-15487336D02*
X11641686Y-15496860D01*
X11641686Y-15496860D02*
X11622639Y-15506384D01*
X11622639Y-15506384D02*
X11603591Y-15506384D01*
X11603591Y-15506384D02*
X11584543Y-15496860D01*
X11584543Y-15496860D02*
X11575019Y-15487336D01*
X11575019Y-15487336D02*
X11565496Y-15468288D01*
X11565496Y-15468288D02*
X11555972Y-15430193D01*
X11555972Y-15430193D02*
X11555972Y-15382574D01*
X11555972Y-15382574D02*
X11565496Y-15344479D01*
X11565496Y-15344479D02*
X11575019Y-15325431D01*
X11575019Y-15325431D02*
X11584543Y-15315908D01*
X11584543Y-15315908D02*
X11603591Y-15306384D01*
X11755972Y-15506384D02*
X11755972Y-15373050D01*
X11755972Y-15392098D02*
X11765496Y-15382574D01*
X11765496Y-15382574D02*
X11784543Y-15373050D01*
X11784543Y-15373050D02*
X11813115Y-15373050D01*
X11813115Y-15373050D02*
X11832162Y-15382574D01*
X11832162Y-15382574D02*
X11841686Y-15401622D01*
X11841686Y-15401622D02*
X11841686Y-15506384D01*
X11841686Y-15401622D02*
X11851210Y-15382574D01*
X11851210Y-15382574D02*
X11870258Y-15373050D01*
X11870258Y-15373050D02*
X11898829Y-15373050D01*
X11898829Y-15373050D02*
X11917877Y-15382574D01*
X11917877Y-15382574D02*
X11927400Y-15401622D01*
X11927400Y-15401622D02*
X11927400Y-15506384D01*
X12022639Y-15506384D02*
X12022639Y-15373050D01*
X12022639Y-15392098D02*
X12032162Y-15382574D01*
X12032162Y-15382574D02*
X12051210Y-15373050D01*
X12051210Y-15373050D02*
X12079781Y-15373050D01*
X12079781Y-15373050D02*
X12098829Y-15382574D01*
X12098829Y-15382574D02*
X12108353Y-15401622D01*
X12108353Y-15401622D02*
X12108353Y-15506384D01*
X12108353Y-15401622D02*
X12117877Y-15382574D01*
X12117877Y-15382574D02*
X12136924Y-15373050D01*
X12136924Y-15373050D02*
X12165496Y-15373050D01*
X12165496Y-15373050D02*
X12184543Y-15382574D01*
X12184543Y-15382574D02*
X12194067Y-15401622D01*
X12194067Y-15401622D02*
X12194067Y-15506384D01*
X12584543Y-15296860D02*
X12413115Y-15554003D01*
X12841686Y-15306384D02*
X12860734Y-15306384D01*
X12860734Y-15306384D02*
X12879782Y-15315908D01*
X12879782Y-15315908D02*
X12889305Y-15325431D01*
X12889305Y-15325431D02*
X12898829Y-15344479D01*
X12898829Y-15344479D02*
X12908353Y-15382574D01*
X12908353Y-15382574D02*
X12908353Y-15430193D01*
X12908353Y-15430193D02*
X12898829Y-15468288D01*
X12898829Y-15468288D02*
X12889305Y-15487336D01*
X12889305Y-15487336D02*
X12879782Y-15496860D01*
X12879782Y-15496860D02*
X12860734Y-15506384D01*
X12860734Y-15506384D02*
X12841686Y-15506384D01*
X12841686Y-15506384D02*
X12822639Y-15496860D01*
X12822639Y-15496860D02*
X12813115Y-15487336D01*
X12813115Y-15487336D02*
X12803591Y-15468288D01*
X12803591Y-15468288D02*
X12794067Y-15430193D01*
X12794067Y-15430193D02*
X12794067Y-15382574D01*
X12794067Y-15382574D02*
X12803591Y-15344479D01*
X12803591Y-15344479D02*
X12813115Y-15325431D01*
X12813115Y-15325431D02*
X12822639Y-15315908D01*
X12822639Y-15315908D02*
X12841686Y-15306384D01*
X12994067Y-15487336D02*
X13003591Y-15496860D01*
X13003591Y-15496860D02*
X12994067Y-15506384D01*
X12994067Y-15506384D02*
X12984543Y-15496860D01*
X12984543Y-15496860D02*
X12994067Y-15487336D01*
X12994067Y-15487336D02*
X12994067Y-15506384D01*
X13127401Y-15306384D02*
X13146448Y-15306384D01*
X13146448Y-15306384D02*
X13165496Y-15315908D01*
X13165496Y-15315908D02*
X13175020Y-15325431D01*
X13175020Y-15325431D02*
X13184543Y-15344479D01*
X13184543Y-15344479D02*
X13194067Y-15382574D01*
X13194067Y-15382574D02*
X13194067Y-15430193D01*
X13194067Y-15430193D02*
X13184543Y-15468288D01*
X13184543Y-15468288D02*
X13175020Y-15487336D01*
X13175020Y-15487336D02*
X13165496Y-15496860D01*
X13165496Y-15496860D02*
X13146448Y-15506384D01*
X13146448Y-15506384D02*
X13127401Y-15506384D01*
X13127401Y-15506384D02*
X13108353Y-15496860D01*
X13108353Y-15496860D02*
X13098829Y-15487336D01*
X13098829Y-15487336D02*
X13089305Y-15468288D01*
X13089305Y-15468288D02*
X13079782Y-15430193D01*
X13079782Y-15430193D02*
X13079782Y-15382574D01*
X13079782Y-15382574D02*
X13089305Y-15344479D01*
X13089305Y-15344479D02*
X13098829Y-15325431D01*
X13098829Y-15325431D02*
X13108353Y-15315908D01*
X13108353Y-15315908D02*
X13127401Y-15306384D01*
X13384543Y-15506384D02*
X13270258Y-15506384D01*
X13327401Y-15506384D02*
X13327401Y-15306384D01*
X13327401Y-15306384D02*
X13308353Y-15334955D01*
X13308353Y-15334955D02*
X13289305Y-15354003D01*
X13289305Y-15354003D02*
X13270258Y-15363527D01*
X13479782Y-15506384D02*
X13517877Y-15506384D01*
X13517877Y-15506384D02*
X13536924Y-15496860D01*
X13536924Y-15496860D02*
X13546448Y-15487336D01*
X13546448Y-15487336D02*
X13565496Y-15458765D01*
X13565496Y-15458765D02*
X13575020Y-15420669D01*
X13575020Y-15420669D02*
X13575020Y-15344479D01*
X13575020Y-15344479D02*
X13565496Y-15325431D01*
X13565496Y-15325431D02*
X13555972Y-15315908D01*
X13555972Y-15315908D02*
X13536924Y-15306384D01*
X13536924Y-15306384D02*
X13498829Y-15306384D01*
X13498829Y-15306384D02*
X13479782Y-15315908D01*
X13479782Y-15315908D02*
X13470258Y-15325431D01*
X13470258Y-15325431D02*
X13460734Y-15344479D01*
X13460734Y-15344479D02*
X13460734Y-15392098D01*
X13460734Y-15392098D02*
X13470258Y-15411146D01*
X13470258Y-15411146D02*
X13479782Y-15420669D01*
X13479782Y-15420669D02*
X13498829Y-15430193D01*
X13498829Y-15430193D02*
X13536924Y-15430193D01*
X13536924Y-15430193D02*
X13555972Y-15420669D01*
X13555972Y-15420669D02*
X13565496Y-15411146D01*
X13565496Y-15411146D02*
X13575020Y-15392098D01*
X13641686Y-15306384D02*
X13775020Y-15306384D01*
X13775020Y-15306384D02*
X13689305Y-15506384D01*
X13841686Y-15306384D02*
X13841686Y-15344479D01*
X13917877Y-15306384D02*
X13917877Y-15344479D01*
X14213115Y-15582574D02*
X14203591Y-15573050D01*
X14203591Y-15573050D02*
X14184544Y-15544479D01*
X14184544Y-15544479D02*
X14175020Y-15525431D01*
X14175020Y-15525431D02*
X14165496Y-15496860D01*
X14165496Y-15496860D02*
X14155972Y-15449241D01*
X14155972Y-15449241D02*
X14155972Y-15411146D01*
X14155972Y-15411146D02*
X14165496Y-15363527D01*
X14165496Y-15363527D02*
X14175020Y-15334955D01*
X14175020Y-15334955D02*
X14184544Y-15315908D01*
X14184544Y-15315908D02*
X14203591Y-15287336D01*
X14203591Y-15287336D02*
X14213115Y-15277812D01*
X14270258Y-15306384D02*
X14394067Y-15306384D01*
X14394067Y-15306384D02*
X14327401Y-15382574D01*
X14327401Y-15382574D02*
X14355972Y-15382574D01*
X14355972Y-15382574D02*
X14375020Y-15392098D01*
X14375020Y-15392098D02*
X14384544Y-15401622D01*
X14384544Y-15401622D02*
X14394067Y-15420669D01*
X14394067Y-15420669D02*
X14394067Y-15468288D01*
X14394067Y-15468288D02*
X14384544Y-15487336D01*
X14384544Y-15487336D02*
X14375020Y-15496860D01*
X14375020Y-15496860D02*
X14355972Y-15506384D01*
X14355972Y-15506384D02*
X14298829Y-15506384D01*
X14298829Y-15506384D02*
X14279782Y-15496860D01*
X14279782Y-15496860D02*
X14270258Y-15487336D01*
X14565496Y-15373050D02*
X14565496Y-15506384D01*
X14517877Y-15296860D02*
X14470258Y-15439717D01*
X14470258Y-15439717D02*
X14594067Y-15439717D01*
X14822639Y-15506384D02*
X14822639Y-15306384D01*
X14908353Y-15506384D02*
X14908353Y-15401622D01*
X14908353Y-15401622D02*
X14898829Y-15382574D01*
X14898829Y-15382574D02*
X14879782Y-15373050D01*
X14879782Y-15373050D02*
X14851210Y-15373050D01*
X14851210Y-15373050D02*
X14832163Y-15382574D01*
X14832163Y-15382574D02*
X14822639Y-15392098D01*
X15032163Y-15506384D02*
X15013115Y-15496860D01*
X15013115Y-15496860D02*
X15003591Y-15487336D01*
X15003591Y-15487336D02*
X14994067Y-15468288D01*
X14994067Y-15468288D02*
X14994067Y-15411146D01*
X14994067Y-15411146D02*
X15003591Y-15392098D01*
X15003591Y-15392098D02*
X15013115Y-15382574D01*
X15013115Y-15382574D02*
X15032163Y-15373050D01*
X15032163Y-15373050D02*
X15060734Y-15373050D01*
X15060734Y-15373050D02*
X15079782Y-15382574D01*
X15079782Y-15382574D02*
X15089306Y-15392098D01*
X15089306Y-15392098D02*
X15098829Y-15411146D01*
X15098829Y-15411146D02*
X15098829Y-15468288D01*
X15098829Y-15468288D02*
X15089306Y-15487336D01*
X15089306Y-15487336D02*
X15079782Y-15496860D01*
X15079782Y-15496860D02*
X15060734Y-15506384D01*
X15060734Y-15506384D02*
X15032163Y-15506384D01*
X15213115Y-15506384D02*
X15194067Y-15496860D01*
X15194067Y-15496860D02*
X15184544Y-15477812D01*
X15184544Y-15477812D02*
X15184544Y-15306384D01*
X15365496Y-15496860D02*
X15346448Y-15506384D01*
X15346448Y-15506384D02*
X15308353Y-15506384D01*
X15308353Y-15506384D02*
X15289306Y-15496860D01*
X15289306Y-15496860D02*
X15279782Y-15477812D01*
X15279782Y-15477812D02*
X15279782Y-15401622D01*
X15279782Y-15401622D02*
X15289306Y-15382574D01*
X15289306Y-15382574D02*
X15308353Y-15373050D01*
X15308353Y-15373050D02*
X15346448Y-15373050D01*
X15346448Y-15373050D02*
X15365496Y-15382574D01*
X15365496Y-15382574D02*
X15375020Y-15401622D01*
X15375020Y-15401622D02*
X15375020Y-15420669D01*
X15375020Y-15420669D02*
X15279782Y-15439717D01*
X15451210Y-15496860D02*
X15470258Y-15506384D01*
X15470258Y-15506384D02*
X15508353Y-15506384D01*
X15508353Y-15506384D02*
X15527401Y-15496860D01*
X15527401Y-15496860D02*
X15536925Y-15477812D01*
X15536925Y-15477812D02*
X15536925Y-15468288D01*
X15536925Y-15468288D02*
X15527401Y-15449241D01*
X15527401Y-15449241D02*
X15508353Y-15439717D01*
X15508353Y-15439717D02*
X15479782Y-15439717D01*
X15479782Y-15439717D02*
X15460734Y-15430193D01*
X15460734Y-15430193D02*
X15451210Y-15411146D01*
X15451210Y-15411146D02*
X15451210Y-15401622D01*
X15451210Y-15401622D02*
X15460734Y-15382574D01*
X15460734Y-15382574D02*
X15479782Y-15373050D01*
X15479782Y-15373050D02*
X15508353Y-15373050D01*
X15508353Y-15373050D02*
X15527401Y-15382574D01*
X15603591Y-15582574D02*
X15613115Y-15573050D01*
X15613115Y-15573050D02*
X15632163Y-15544479D01*
X15632163Y-15544479D02*
X15641687Y-15525431D01*
X15641687Y-15525431D02*
X15651210Y-15496860D01*
X15651210Y-15496860D02*
X15660734Y-15449241D01*
X15660734Y-15449241D02*
X15660734Y-15411146D01*
X15660734Y-15411146D02*
X15651210Y-15363527D01*
X15651210Y-15363527D02*
X15641687Y-15334955D01*
X15641687Y-15334955D02*
X15632163Y-15315908D01*
X15632163Y-15315908D02*
X15613115Y-15287336D01*
X15613115Y-15287336D02*
X15603591Y-15277812D01*
D15*
X10640227Y-15704377D02*
X10640227Y-15651343D01*
X10587193Y-15651343D01*
X10587193Y-15704377D01*
X10640227Y-15704377D01*
D11*
X10936924Y-15570384D02*
X10955972Y-15570384D01*
X10955972Y-15570384D02*
X10975020Y-15579908D01*
X10975020Y-15579908D02*
X10984543Y-15589431D01*
X10984543Y-15589431D02*
X10994067Y-15608479D01*
X10994067Y-15608479D02*
X11003591Y-15646574D01*
X11003591Y-15646574D02*
X11003591Y-15694193D01*
X11003591Y-15694193D02*
X10994067Y-15732288D01*
X10994067Y-15732288D02*
X10984543Y-15751336D01*
X10984543Y-15751336D02*
X10975020Y-15760860D01*
X10975020Y-15760860D02*
X10955972Y-15770384D01*
X10955972Y-15770384D02*
X10936924Y-15770384D01*
X10936924Y-15770384D02*
X10917877Y-15760860D01*
X10917877Y-15760860D02*
X10908353Y-15751336D01*
X10908353Y-15751336D02*
X10898829Y-15732288D01*
X10898829Y-15732288D02*
X10889305Y-15694193D01*
X10889305Y-15694193D02*
X10889305Y-15646574D01*
X10889305Y-15646574D02*
X10898829Y-15608479D01*
X10898829Y-15608479D02*
X10908353Y-15589431D01*
X10908353Y-15589431D02*
X10917877Y-15579908D01*
X10917877Y-15579908D02*
X10936924Y-15570384D01*
X11089305Y-15751336D02*
X11098829Y-15760860D01*
X11098829Y-15760860D02*
X11089305Y-15770384D01*
X11089305Y-15770384D02*
X11079781Y-15760860D01*
X11079781Y-15760860D02*
X11089305Y-15751336D01*
X11089305Y-15751336D02*
X11089305Y-15770384D01*
X11165496Y-15570384D02*
X11298829Y-15570384D01*
X11298829Y-15570384D02*
X11213115Y-15770384D01*
X11470258Y-15570384D02*
X11375019Y-15570384D01*
X11375019Y-15570384D02*
X11365496Y-15665622D01*
X11365496Y-15665622D02*
X11375019Y-15656098D01*
X11375019Y-15656098D02*
X11394067Y-15646574D01*
X11394067Y-15646574D02*
X11441686Y-15646574D01*
X11441686Y-15646574D02*
X11460734Y-15656098D01*
X11460734Y-15656098D02*
X11470258Y-15665622D01*
X11470258Y-15665622D02*
X11479781Y-15684669D01*
X11479781Y-15684669D02*
X11479781Y-15732288D01*
X11479781Y-15732288D02*
X11470258Y-15751336D01*
X11470258Y-15751336D02*
X11460734Y-15760860D01*
X11460734Y-15760860D02*
X11441686Y-15770384D01*
X11441686Y-15770384D02*
X11394067Y-15770384D01*
X11394067Y-15770384D02*
X11375019Y-15760860D01*
X11375019Y-15760860D02*
X11365496Y-15751336D01*
X11603591Y-15570384D02*
X11622639Y-15570384D01*
X11622639Y-15570384D02*
X11641686Y-15579908D01*
X11641686Y-15579908D02*
X11651210Y-15589431D01*
X11651210Y-15589431D02*
X11660734Y-15608479D01*
X11660734Y-15608479D02*
X11670258Y-15646574D01*
X11670258Y-15646574D02*
X11670258Y-15694193D01*
X11670258Y-15694193D02*
X11660734Y-15732288D01*
X11660734Y-15732288D02*
X11651210Y-15751336D01*
X11651210Y-15751336D02*
X11641686Y-15760860D01*
X11641686Y-15760860D02*
X11622639Y-15770384D01*
X11622639Y-15770384D02*
X11603591Y-15770384D01*
X11603591Y-15770384D02*
X11584543Y-15760860D01*
X11584543Y-15760860D02*
X11575019Y-15751336D01*
X11575019Y-15751336D02*
X11565496Y-15732288D01*
X11565496Y-15732288D02*
X11555972Y-15694193D01*
X11555972Y-15694193D02*
X11555972Y-15646574D01*
X11555972Y-15646574D02*
X11565496Y-15608479D01*
X11565496Y-15608479D02*
X11575019Y-15589431D01*
X11575019Y-15589431D02*
X11584543Y-15579908D01*
X11584543Y-15579908D02*
X11603591Y-15570384D01*
X11755972Y-15770384D02*
X11755972Y-15637050D01*
X11755972Y-15656098D02*
X11765496Y-15646574D01*
X11765496Y-15646574D02*
X11784543Y-15637050D01*
X11784543Y-15637050D02*
X11813115Y-15637050D01*
X11813115Y-15637050D02*
X11832162Y-15646574D01*
X11832162Y-15646574D02*
X11841686Y-15665622D01*
X11841686Y-15665622D02*
X11841686Y-15770384D01*
X11841686Y-15665622D02*
X11851210Y-15646574D01*
X11851210Y-15646574D02*
X11870258Y-15637050D01*
X11870258Y-15637050D02*
X11898829Y-15637050D01*
X11898829Y-15637050D02*
X11917877Y-15646574D01*
X11917877Y-15646574D02*
X11927400Y-15665622D01*
X11927400Y-15665622D02*
X11927400Y-15770384D01*
X12022639Y-15770384D02*
X12022639Y-15637050D01*
X12022639Y-15656098D02*
X12032162Y-15646574D01*
X12032162Y-15646574D02*
X12051210Y-15637050D01*
X12051210Y-15637050D02*
X12079781Y-15637050D01*
X12079781Y-15637050D02*
X12098829Y-15646574D01*
X12098829Y-15646574D02*
X12108353Y-15665622D01*
X12108353Y-15665622D02*
X12108353Y-15770384D01*
X12108353Y-15665622D02*
X12117877Y-15646574D01*
X12117877Y-15646574D02*
X12136924Y-15637050D01*
X12136924Y-15637050D02*
X12165496Y-15637050D01*
X12165496Y-15637050D02*
X12184543Y-15646574D01*
X12184543Y-15646574D02*
X12194067Y-15665622D01*
X12194067Y-15665622D02*
X12194067Y-15770384D01*
X12584543Y-15560860D02*
X12413115Y-15818003D01*
X12841686Y-15570384D02*
X12860734Y-15570384D01*
X12860734Y-15570384D02*
X12879782Y-15579908D01*
X12879782Y-15579908D02*
X12889305Y-15589431D01*
X12889305Y-15589431D02*
X12898829Y-15608479D01*
X12898829Y-15608479D02*
X12908353Y-15646574D01*
X12908353Y-15646574D02*
X12908353Y-15694193D01*
X12908353Y-15694193D02*
X12898829Y-15732288D01*
X12898829Y-15732288D02*
X12889305Y-15751336D01*
X12889305Y-15751336D02*
X12879782Y-15760860D01*
X12879782Y-15760860D02*
X12860734Y-15770384D01*
X12860734Y-15770384D02*
X12841686Y-15770384D01*
X12841686Y-15770384D02*
X12822639Y-15760860D01*
X12822639Y-15760860D02*
X12813115Y-15751336D01*
X12813115Y-15751336D02*
X12803591Y-15732288D01*
X12803591Y-15732288D02*
X12794067Y-15694193D01*
X12794067Y-15694193D02*
X12794067Y-15646574D01*
X12794067Y-15646574D02*
X12803591Y-15608479D01*
X12803591Y-15608479D02*
X12813115Y-15589431D01*
X12813115Y-15589431D02*
X12822639Y-15579908D01*
X12822639Y-15579908D02*
X12841686Y-15570384D01*
X12994067Y-15751336D02*
X13003591Y-15760860D01*
X13003591Y-15760860D02*
X12994067Y-15770384D01*
X12994067Y-15770384D02*
X12984543Y-15760860D01*
X12984543Y-15760860D02*
X12994067Y-15751336D01*
X12994067Y-15751336D02*
X12994067Y-15770384D01*
X13127401Y-15570384D02*
X13146448Y-15570384D01*
X13146448Y-15570384D02*
X13165496Y-15579908D01*
X13165496Y-15579908D02*
X13175020Y-15589431D01*
X13175020Y-15589431D02*
X13184543Y-15608479D01*
X13184543Y-15608479D02*
X13194067Y-15646574D01*
X13194067Y-15646574D02*
X13194067Y-15694193D01*
X13194067Y-15694193D02*
X13184543Y-15732288D01*
X13184543Y-15732288D02*
X13175020Y-15751336D01*
X13175020Y-15751336D02*
X13165496Y-15760860D01*
X13165496Y-15760860D02*
X13146448Y-15770384D01*
X13146448Y-15770384D02*
X13127401Y-15770384D01*
X13127401Y-15770384D02*
X13108353Y-15760860D01*
X13108353Y-15760860D02*
X13098829Y-15751336D01*
X13098829Y-15751336D02*
X13089305Y-15732288D01*
X13089305Y-15732288D02*
X13079782Y-15694193D01*
X13079782Y-15694193D02*
X13079782Y-15646574D01*
X13079782Y-15646574D02*
X13089305Y-15608479D01*
X13089305Y-15608479D02*
X13098829Y-15589431D01*
X13098829Y-15589431D02*
X13108353Y-15579908D01*
X13108353Y-15579908D02*
X13127401Y-15570384D01*
X13270258Y-15589431D02*
X13279782Y-15579908D01*
X13279782Y-15579908D02*
X13298829Y-15570384D01*
X13298829Y-15570384D02*
X13346448Y-15570384D01*
X13346448Y-15570384D02*
X13365496Y-15579908D01*
X13365496Y-15579908D02*
X13375020Y-15589431D01*
X13375020Y-15589431D02*
X13384543Y-15608479D01*
X13384543Y-15608479D02*
X13384543Y-15627527D01*
X13384543Y-15627527D02*
X13375020Y-15656098D01*
X13375020Y-15656098D02*
X13260734Y-15770384D01*
X13260734Y-15770384D02*
X13384543Y-15770384D01*
X13479782Y-15770384D02*
X13517877Y-15770384D01*
X13517877Y-15770384D02*
X13536924Y-15760860D01*
X13536924Y-15760860D02*
X13546448Y-15751336D01*
X13546448Y-15751336D02*
X13565496Y-15722765D01*
X13565496Y-15722765D02*
X13575020Y-15684669D01*
X13575020Y-15684669D02*
X13575020Y-15608479D01*
X13575020Y-15608479D02*
X13565496Y-15589431D01*
X13565496Y-15589431D02*
X13555972Y-15579908D01*
X13555972Y-15579908D02*
X13536924Y-15570384D01*
X13536924Y-15570384D02*
X13498829Y-15570384D01*
X13498829Y-15570384D02*
X13479782Y-15579908D01*
X13479782Y-15579908D02*
X13470258Y-15589431D01*
X13470258Y-15589431D02*
X13460734Y-15608479D01*
X13460734Y-15608479D02*
X13460734Y-15656098D01*
X13460734Y-15656098D02*
X13470258Y-15675146D01*
X13470258Y-15675146D02*
X13479782Y-15684669D01*
X13479782Y-15684669D02*
X13498829Y-15694193D01*
X13498829Y-15694193D02*
X13536924Y-15694193D01*
X13536924Y-15694193D02*
X13555972Y-15684669D01*
X13555972Y-15684669D02*
X13565496Y-15675146D01*
X13565496Y-15675146D02*
X13575020Y-15656098D01*
X13755972Y-15570384D02*
X13660734Y-15570384D01*
X13660734Y-15570384D02*
X13651210Y-15665622D01*
X13651210Y-15665622D02*
X13660734Y-15656098D01*
X13660734Y-15656098D02*
X13679782Y-15646574D01*
X13679782Y-15646574D02*
X13727401Y-15646574D01*
X13727401Y-15646574D02*
X13746448Y-15656098D01*
X13746448Y-15656098D02*
X13755972Y-15665622D01*
X13755972Y-15665622D02*
X13765496Y-15684669D01*
X13765496Y-15684669D02*
X13765496Y-15732288D01*
X13765496Y-15732288D02*
X13755972Y-15751336D01*
X13755972Y-15751336D02*
X13746448Y-15760860D01*
X13746448Y-15760860D02*
X13727401Y-15770384D01*
X13727401Y-15770384D02*
X13679782Y-15770384D01*
X13679782Y-15770384D02*
X13660734Y-15760860D01*
X13660734Y-15760860D02*
X13651210Y-15751336D01*
X13841686Y-15570384D02*
X13841686Y-15608479D01*
X13917877Y-15570384D02*
X13917877Y-15608479D01*
X14213115Y-15846574D02*
X14203591Y-15837050D01*
X14203591Y-15837050D02*
X14184544Y-15808479D01*
X14184544Y-15808479D02*
X14175020Y-15789431D01*
X14175020Y-15789431D02*
X14165496Y-15760860D01*
X14165496Y-15760860D02*
X14155972Y-15713241D01*
X14155972Y-15713241D02*
X14155972Y-15675146D01*
X14155972Y-15675146D02*
X14165496Y-15627527D01*
X14165496Y-15627527D02*
X14175020Y-15598955D01*
X14175020Y-15598955D02*
X14184544Y-15579908D01*
X14184544Y-15579908D02*
X14203591Y-15551336D01*
X14203591Y-15551336D02*
X14213115Y-15541812D01*
X14394067Y-15770384D02*
X14279782Y-15770384D01*
X14336924Y-15770384D02*
X14336924Y-15570384D01*
X14336924Y-15570384D02*
X14317877Y-15598955D01*
X14317877Y-15598955D02*
X14298829Y-15618003D01*
X14298829Y-15618003D02*
X14279782Y-15627527D01*
X14517877Y-15570384D02*
X14536925Y-15570384D01*
X14536925Y-15570384D02*
X14555972Y-15579908D01*
X14555972Y-15579908D02*
X14565496Y-15589431D01*
X14565496Y-15589431D02*
X14575020Y-15608479D01*
X14575020Y-15608479D02*
X14584544Y-15646574D01*
X14584544Y-15646574D02*
X14584544Y-15694193D01*
X14584544Y-15694193D02*
X14575020Y-15732288D01*
X14575020Y-15732288D02*
X14565496Y-15751336D01*
X14565496Y-15751336D02*
X14555972Y-15760860D01*
X14555972Y-15760860D02*
X14536925Y-15770384D01*
X14536925Y-15770384D02*
X14517877Y-15770384D01*
X14517877Y-15770384D02*
X14498829Y-15760860D01*
X14498829Y-15760860D02*
X14489305Y-15751336D01*
X14489305Y-15751336D02*
X14479782Y-15732288D01*
X14479782Y-15732288D02*
X14470258Y-15694193D01*
X14470258Y-15694193D02*
X14470258Y-15646574D01*
X14470258Y-15646574D02*
X14479782Y-15608479D01*
X14479782Y-15608479D02*
X14489305Y-15589431D01*
X14489305Y-15589431D02*
X14498829Y-15579908D01*
X14498829Y-15579908D02*
X14517877Y-15570384D01*
X14822639Y-15770384D02*
X14822639Y-15570384D01*
X14908353Y-15770384D02*
X14908353Y-15665622D01*
X14908353Y-15665622D02*
X14898829Y-15646574D01*
X14898829Y-15646574D02*
X14879782Y-15637050D01*
X14879782Y-15637050D02*
X14851210Y-15637050D01*
X14851210Y-15637050D02*
X14832163Y-15646574D01*
X14832163Y-15646574D02*
X14822639Y-15656098D01*
X15032163Y-15770384D02*
X15013115Y-15760860D01*
X15013115Y-15760860D02*
X15003591Y-15751336D01*
X15003591Y-15751336D02*
X14994067Y-15732288D01*
X14994067Y-15732288D02*
X14994067Y-15675146D01*
X14994067Y-15675146D02*
X15003591Y-15656098D01*
X15003591Y-15656098D02*
X15013115Y-15646574D01*
X15013115Y-15646574D02*
X15032163Y-15637050D01*
X15032163Y-15637050D02*
X15060734Y-15637050D01*
X15060734Y-15637050D02*
X15079782Y-15646574D01*
X15079782Y-15646574D02*
X15089306Y-15656098D01*
X15089306Y-15656098D02*
X15098829Y-15675146D01*
X15098829Y-15675146D02*
X15098829Y-15732288D01*
X15098829Y-15732288D02*
X15089306Y-15751336D01*
X15089306Y-15751336D02*
X15079782Y-15760860D01*
X15079782Y-15760860D02*
X15060734Y-15770384D01*
X15060734Y-15770384D02*
X15032163Y-15770384D01*
X15213115Y-15770384D02*
X15194067Y-15760860D01*
X15194067Y-15760860D02*
X15184544Y-15741812D01*
X15184544Y-15741812D02*
X15184544Y-15570384D01*
X15365496Y-15760860D02*
X15346448Y-15770384D01*
X15346448Y-15770384D02*
X15308353Y-15770384D01*
X15308353Y-15770384D02*
X15289306Y-15760860D01*
X15289306Y-15760860D02*
X15279782Y-15741812D01*
X15279782Y-15741812D02*
X15279782Y-15665622D01*
X15279782Y-15665622D02*
X15289306Y-15646574D01*
X15289306Y-15646574D02*
X15308353Y-15637050D01*
X15308353Y-15637050D02*
X15346448Y-15637050D01*
X15346448Y-15637050D02*
X15365496Y-15646574D01*
X15365496Y-15646574D02*
X15375020Y-15665622D01*
X15375020Y-15665622D02*
X15375020Y-15684669D01*
X15375020Y-15684669D02*
X15279782Y-15703717D01*
X15451210Y-15760860D02*
X15470258Y-15770384D01*
X15470258Y-15770384D02*
X15508353Y-15770384D01*
X15508353Y-15770384D02*
X15527401Y-15760860D01*
X15527401Y-15760860D02*
X15536925Y-15741812D01*
X15536925Y-15741812D02*
X15536925Y-15732288D01*
X15536925Y-15732288D02*
X15527401Y-15713241D01*
X15527401Y-15713241D02*
X15508353Y-15703717D01*
X15508353Y-15703717D02*
X15479782Y-15703717D01*
X15479782Y-15703717D02*
X15460734Y-15694193D01*
X15460734Y-15694193D02*
X15451210Y-15675146D01*
X15451210Y-15675146D02*
X15451210Y-15665622D01*
X15451210Y-15665622D02*
X15460734Y-15646574D01*
X15460734Y-15646574D02*
X15479782Y-15637050D01*
X15479782Y-15637050D02*
X15508353Y-15637050D01*
X15508353Y-15637050D02*
X15527401Y-15646574D01*
X15603591Y-15846574D02*
X15613115Y-15837050D01*
X15613115Y-15837050D02*
X15632163Y-15808479D01*
X15632163Y-15808479D02*
X15641687Y-15789431D01*
X15641687Y-15789431D02*
X15651210Y-15760860D01*
X15651210Y-15760860D02*
X15660734Y-15713241D01*
X15660734Y-15713241D02*
X15660734Y-15675146D01*
X15660734Y-15675146D02*
X15651210Y-15627527D01*
X15651210Y-15627527D02*
X15641687Y-15598955D01*
X15641687Y-15598955D02*
X15632163Y-15579908D01*
X15632163Y-15579908D02*
X15613115Y-15551336D01*
X15613115Y-15551336D02*
X15603591Y-15541812D01*
D16*
X10611210Y-15981860D02*
X10651210Y-15941860D01*
X10611210Y-15901860D01*
X10571210Y-15941860D01*
X10611210Y-15981860D01*
D11*
X10936924Y-15834384D02*
X10955972Y-15834384D01*
X10955972Y-15834384D02*
X10975020Y-15843908D01*
X10975020Y-15843908D02*
X10984543Y-15853431D01*
X10984543Y-15853431D02*
X10994067Y-15872479D01*
X10994067Y-15872479D02*
X11003591Y-15910574D01*
X11003591Y-15910574D02*
X11003591Y-15958193D01*
X11003591Y-15958193D02*
X10994067Y-15996288D01*
X10994067Y-15996288D02*
X10984543Y-16015336D01*
X10984543Y-16015336D02*
X10975020Y-16024860D01*
X10975020Y-16024860D02*
X10955972Y-16034384D01*
X10955972Y-16034384D02*
X10936924Y-16034384D01*
X10936924Y-16034384D02*
X10917877Y-16024860D01*
X10917877Y-16024860D02*
X10908353Y-16015336D01*
X10908353Y-16015336D02*
X10898829Y-15996288D01*
X10898829Y-15996288D02*
X10889305Y-15958193D01*
X10889305Y-15958193D02*
X10889305Y-15910574D01*
X10889305Y-15910574D02*
X10898829Y-15872479D01*
X10898829Y-15872479D02*
X10908353Y-15853431D01*
X10908353Y-15853431D02*
X10917877Y-15843908D01*
X10917877Y-15843908D02*
X10936924Y-15834384D01*
X11089305Y-16015336D02*
X11098829Y-16024860D01*
X11098829Y-16024860D02*
X11089305Y-16034384D01*
X11089305Y-16034384D02*
X11079781Y-16024860D01*
X11079781Y-16024860D02*
X11089305Y-16015336D01*
X11089305Y-16015336D02*
X11089305Y-16034384D01*
X11213115Y-15920098D02*
X11194067Y-15910574D01*
X11194067Y-15910574D02*
X11184543Y-15901050D01*
X11184543Y-15901050D02*
X11175020Y-15882003D01*
X11175020Y-15882003D02*
X11175020Y-15872479D01*
X11175020Y-15872479D02*
X11184543Y-15853431D01*
X11184543Y-15853431D02*
X11194067Y-15843908D01*
X11194067Y-15843908D02*
X11213115Y-15834384D01*
X11213115Y-15834384D02*
X11251210Y-15834384D01*
X11251210Y-15834384D02*
X11270258Y-15843908D01*
X11270258Y-15843908D02*
X11279781Y-15853431D01*
X11279781Y-15853431D02*
X11289305Y-15872479D01*
X11289305Y-15872479D02*
X11289305Y-15882003D01*
X11289305Y-15882003D02*
X11279781Y-15901050D01*
X11279781Y-15901050D02*
X11270258Y-15910574D01*
X11270258Y-15910574D02*
X11251210Y-15920098D01*
X11251210Y-15920098D02*
X11213115Y-15920098D01*
X11213115Y-15920098D02*
X11194067Y-15929622D01*
X11194067Y-15929622D02*
X11184543Y-15939146D01*
X11184543Y-15939146D02*
X11175020Y-15958193D01*
X11175020Y-15958193D02*
X11175020Y-15996288D01*
X11175020Y-15996288D02*
X11184543Y-16015336D01*
X11184543Y-16015336D02*
X11194067Y-16024860D01*
X11194067Y-16024860D02*
X11213115Y-16034384D01*
X11213115Y-16034384D02*
X11251210Y-16034384D01*
X11251210Y-16034384D02*
X11270258Y-16024860D01*
X11270258Y-16024860D02*
X11279781Y-16015336D01*
X11279781Y-16015336D02*
X11289305Y-15996288D01*
X11289305Y-15996288D02*
X11289305Y-15958193D01*
X11289305Y-15958193D02*
X11279781Y-15939146D01*
X11279781Y-15939146D02*
X11270258Y-15929622D01*
X11270258Y-15929622D02*
X11251210Y-15920098D01*
X11413115Y-15834384D02*
X11432162Y-15834384D01*
X11432162Y-15834384D02*
X11451210Y-15843908D01*
X11451210Y-15843908D02*
X11460734Y-15853431D01*
X11460734Y-15853431D02*
X11470258Y-15872479D01*
X11470258Y-15872479D02*
X11479781Y-15910574D01*
X11479781Y-15910574D02*
X11479781Y-15958193D01*
X11479781Y-15958193D02*
X11470258Y-15996288D01*
X11470258Y-15996288D02*
X11460734Y-16015336D01*
X11460734Y-16015336D02*
X11451210Y-16024860D01*
X11451210Y-16024860D02*
X11432162Y-16034384D01*
X11432162Y-16034384D02*
X11413115Y-16034384D01*
X11413115Y-16034384D02*
X11394067Y-16024860D01*
X11394067Y-16024860D02*
X11384543Y-16015336D01*
X11384543Y-16015336D02*
X11375019Y-15996288D01*
X11375019Y-15996288D02*
X11365496Y-15958193D01*
X11365496Y-15958193D02*
X11365496Y-15910574D01*
X11365496Y-15910574D02*
X11375019Y-15872479D01*
X11375019Y-15872479D02*
X11384543Y-15853431D01*
X11384543Y-15853431D02*
X11394067Y-15843908D01*
X11394067Y-15843908D02*
X11413115Y-15834384D01*
X11603591Y-15834384D02*
X11622639Y-15834384D01*
X11622639Y-15834384D02*
X11641686Y-15843908D01*
X11641686Y-15843908D02*
X11651210Y-15853431D01*
X11651210Y-15853431D02*
X11660734Y-15872479D01*
X11660734Y-15872479D02*
X11670258Y-15910574D01*
X11670258Y-15910574D02*
X11670258Y-15958193D01*
X11670258Y-15958193D02*
X11660734Y-15996288D01*
X11660734Y-15996288D02*
X11651210Y-16015336D01*
X11651210Y-16015336D02*
X11641686Y-16024860D01*
X11641686Y-16024860D02*
X11622639Y-16034384D01*
X11622639Y-16034384D02*
X11603591Y-16034384D01*
X11603591Y-16034384D02*
X11584543Y-16024860D01*
X11584543Y-16024860D02*
X11575019Y-16015336D01*
X11575019Y-16015336D02*
X11565496Y-15996288D01*
X11565496Y-15996288D02*
X11555972Y-15958193D01*
X11555972Y-15958193D02*
X11555972Y-15910574D01*
X11555972Y-15910574D02*
X11565496Y-15872479D01*
X11565496Y-15872479D02*
X11575019Y-15853431D01*
X11575019Y-15853431D02*
X11584543Y-15843908D01*
X11584543Y-15843908D02*
X11603591Y-15834384D01*
X11755972Y-16034384D02*
X11755972Y-15901050D01*
X11755972Y-15920098D02*
X11765496Y-15910574D01*
X11765496Y-15910574D02*
X11784543Y-15901050D01*
X11784543Y-15901050D02*
X11813115Y-15901050D01*
X11813115Y-15901050D02*
X11832162Y-15910574D01*
X11832162Y-15910574D02*
X11841686Y-15929622D01*
X11841686Y-15929622D02*
X11841686Y-16034384D01*
X11841686Y-15929622D02*
X11851210Y-15910574D01*
X11851210Y-15910574D02*
X11870258Y-15901050D01*
X11870258Y-15901050D02*
X11898829Y-15901050D01*
X11898829Y-15901050D02*
X11917877Y-15910574D01*
X11917877Y-15910574D02*
X11927400Y-15929622D01*
X11927400Y-15929622D02*
X11927400Y-16034384D01*
X12022639Y-16034384D02*
X12022639Y-15901050D01*
X12022639Y-15920098D02*
X12032162Y-15910574D01*
X12032162Y-15910574D02*
X12051210Y-15901050D01*
X12051210Y-15901050D02*
X12079781Y-15901050D01*
X12079781Y-15901050D02*
X12098829Y-15910574D01*
X12098829Y-15910574D02*
X12108353Y-15929622D01*
X12108353Y-15929622D02*
X12108353Y-16034384D01*
X12108353Y-15929622D02*
X12117877Y-15910574D01*
X12117877Y-15910574D02*
X12136924Y-15901050D01*
X12136924Y-15901050D02*
X12165496Y-15901050D01*
X12165496Y-15901050D02*
X12184543Y-15910574D01*
X12184543Y-15910574D02*
X12194067Y-15929622D01*
X12194067Y-15929622D02*
X12194067Y-16034384D01*
X12584543Y-15824860D02*
X12413115Y-16082003D01*
X12841686Y-15834384D02*
X12860734Y-15834384D01*
X12860734Y-15834384D02*
X12879782Y-15843908D01*
X12879782Y-15843908D02*
X12889305Y-15853431D01*
X12889305Y-15853431D02*
X12898829Y-15872479D01*
X12898829Y-15872479D02*
X12908353Y-15910574D01*
X12908353Y-15910574D02*
X12908353Y-15958193D01*
X12908353Y-15958193D02*
X12898829Y-15996288D01*
X12898829Y-15996288D02*
X12889305Y-16015336D01*
X12889305Y-16015336D02*
X12879782Y-16024860D01*
X12879782Y-16024860D02*
X12860734Y-16034384D01*
X12860734Y-16034384D02*
X12841686Y-16034384D01*
X12841686Y-16034384D02*
X12822639Y-16024860D01*
X12822639Y-16024860D02*
X12813115Y-16015336D01*
X12813115Y-16015336D02*
X12803591Y-15996288D01*
X12803591Y-15996288D02*
X12794067Y-15958193D01*
X12794067Y-15958193D02*
X12794067Y-15910574D01*
X12794067Y-15910574D02*
X12803591Y-15872479D01*
X12803591Y-15872479D02*
X12813115Y-15853431D01*
X12813115Y-15853431D02*
X12822639Y-15843908D01*
X12822639Y-15843908D02*
X12841686Y-15834384D01*
X12994067Y-16015336D02*
X13003591Y-16024860D01*
X13003591Y-16024860D02*
X12994067Y-16034384D01*
X12994067Y-16034384D02*
X12984543Y-16024860D01*
X12984543Y-16024860D02*
X12994067Y-16015336D01*
X12994067Y-16015336D02*
X12994067Y-16034384D01*
X13127401Y-15834384D02*
X13146448Y-15834384D01*
X13146448Y-15834384D02*
X13165496Y-15843908D01*
X13165496Y-15843908D02*
X13175020Y-15853431D01*
X13175020Y-15853431D02*
X13184543Y-15872479D01*
X13184543Y-15872479D02*
X13194067Y-15910574D01*
X13194067Y-15910574D02*
X13194067Y-15958193D01*
X13194067Y-15958193D02*
X13184543Y-15996288D01*
X13184543Y-15996288D02*
X13175020Y-16015336D01*
X13175020Y-16015336D02*
X13165496Y-16024860D01*
X13165496Y-16024860D02*
X13146448Y-16034384D01*
X13146448Y-16034384D02*
X13127401Y-16034384D01*
X13127401Y-16034384D02*
X13108353Y-16024860D01*
X13108353Y-16024860D02*
X13098829Y-16015336D01*
X13098829Y-16015336D02*
X13089305Y-15996288D01*
X13089305Y-15996288D02*
X13079782Y-15958193D01*
X13079782Y-15958193D02*
X13079782Y-15910574D01*
X13079782Y-15910574D02*
X13089305Y-15872479D01*
X13089305Y-15872479D02*
X13098829Y-15853431D01*
X13098829Y-15853431D02*
X13108353Y-15843908D01*
X13108353Y-15843908D02*
X13127401Y-15834384D01*
X13260734Y-15834384D02*
X13384543Y-15834384D01*
X13384543Y-15834384D02*
X13317877Y-15910574D01*
X13317877Y-15910574D02*
X13346448Y-15910574D01*
X13346448Y-15910574D02*
X13365496Y-15920098D01*
X13365496Y-15920098D02*
X13375020Y-15929622D01*
X13375020Y-15929622D02*
X13384543Y-15948669D01*
X13384543Y-15948669D02*
X13384543Y-15996288D01*
X13384543Y-15996288D02*
X13375020Y-16015336D01*
X13375020Y-16015336D02*
X13365496Y-16024860D01*
X13365496Y-16024860D02*
X13346448Y-16034384D01*
X13346448Y-16034384D02*
X13289305Y-16034384D01*
X13289305Y-16034384D02*
X13270258Y-16024860D01*
X13270258Y-16024860D02*
X13260734Y-16015336D01*
X13575020Y-16034384D02*
X13460734Y-16034384D01*
X13517877Y-16034384D02*
X13517877Y-15834384D01*
X13517877Y-15834384D02*
X13498829Y-15862955D01*
X13498829Y-15862955D02*
X13479782Y-15882003D01*
X13479782Y-15882003D02*
X13460734Y-15891527D01*
X13755972Y-15834384D02*
X13660734Y-15834384D01*
X13660734Y-15834384D02*
X13651210Y-15929622D01*
X13651210Y-15929622D02*
X13660734Y-15920098D01*
X13660734Y-15920098D02*
X13679782Y-15910574D01*
X13679782Y-15910574D02*
X13727401Y-15910574D01*
X13727401Y-15910574D02*
X13746448Y-15920098D01*
X13746448Y-15920098D02*
X13755972Y-15929622D01*
X13755972Y-15929622D02*
X13765496Y-15948669D01*
X13765496Y-15948669D02*
X13765496Y-15996288D01*
X13765496Y-15996288D02*
X13755972Y-16015336D01*
X13755972Y-16015336D02*
X13746448Y-16024860D01*
X13746448Y-16024860D02*
X13727401Y-16034384D01*
X13727401Y-16034384D02*
X13679782Y-16034384D01*
X13679782Y-16034384D02*
X13660734Y-16024860D01*
X13660734Y-16024860D02*
X13651210Y-16015336D01*
X13841686Y-15834384D02*
X13841686Y-15872479D01*
X13917877Y-15834384D02*
X13917877Y-15872479D01*
X14213115Y-16110574D02*
X14203591Y-16101050D01*
X14203591Y-16101050D02*
X14184544Y-16072479D01*
X14184544Y-16072479D02*
X14175020Y-16053431D01*
X14175020Y-16053431D02*
X14165496Y-16024860D01*
X14165496Y-16024860D02*
X14155972Y-15977241D01*
X14155972Y-15977241D02*
X14155972Y-15939146D01*
X14155972Y-15939146D02*
X14165496Y-15891527D01*
X14165496Y-15891527D02*
X14175020Y-15862955D01*
X14175020Y-15862955D02*
X14184544Y-15843908D01*
X14184544Y-15843908D02*
X14203591Y-15815336D01*
X14203591Y-15815336D02*
X14213115Y-15805812D01*
X14394067Y-16034384D02*
X14279782Y-16034384D01*
X14336924Y-16034384D02*
X14336924Y-15834384D01*
X14336924Y-15834384D02*
X14317877Y-15862955D01*
X14317877Y-15862955D02*
X14298829Y-15882003D01*
X14298829Y-15882003D02*
X14279782Y-15891527D01*
X14517877Y-15834384D02*
X14536925Y-15834384D01*
X14536925Y-15834384D02*
X14555972Y-15843908D01*
X14555972Y-15843908D02*
X14565496Y-15853431D01*
X14565496Y-15853431D02*
X14575020Y-15872479D01*
X14575020Y-15872479D02*
X14584544Y-15910574D01*
X14584544Y-15910574D02*
X14584544Y-15958193D01*
X14584544Y-15958193D02*
X14575020Y-15996288D01*
X14575020Y-15996288D02*
X14565496Y-16015336D01*
X14565496Y-16015336D02*
X14555972Y-16024860D01*
X14555972Y-16024860D02*
X14536925Y-16034384D01*
X14536925Y-16034384D02*
X14517877Y-16034384D01*
X14517877Y-16034384D02*
X14498829Y-16024860D01*
X14498829Y-16024860D02*
X14489305Y-16015336D01*
X14489305Y-16015336D02*
X14479782Y-15996288D01*
X14479782Y-15996288D02*
X14470258Y-15958193D01*
X14470258Y-15958193D02*
X14470258Y-15910574D01*
X14470258Y-15910574D02*
X14479782Y-15872479D01*
X14479782Y-15872479D02*
X14489305Y-15853431D01*
X14489305Y-15853431D02*
X14498829Y-15843908D01*
X14498829Y-15843908D02*
X14517877Y-15834384D01*
X14822639Y-16034384D02*
X14822639Y-15834384D01*
X14908353Y-16034384D02*
X14908353Y-15929622D01*
X14908353Y-15929622D02*
X14898829Y-15910574D01*
X14898829Y-15910574D02*
X14879782Y-15901050D01*
X14879782Y-15901050D02*
X14851210Y-15901050D01*
X14851210Y-15901050D02*
X14832163Y-15910574D01*
X14832163Y-15910574D02*
X14822639Y-15920098D01*
X15032163Y-16034384D02*
X15013115Y-16024860D01*
X15013115Y-16024860D02*
X15003591Y-16015336D01*
X15003591Y-16015336D02*
X14994067Y-15996288D01*
X14994067Y-15996288D02*
X14994067Y-15939146D01*
X14994067Y-15939146D02*
X15003591Y-15920098D01*
X15003591Y-15920098D02*
X15013115Y-15910574D01*
X15013115Y-15910574D02*
X15032163Y-15901050D01*
X15032163Y-15901050D02*
X15060734Y-15901050D01*
X15060734Y-15901050D02*
X15079782Y-15910574D01*
X15079782Y-15910574D02*
X15089306Y-15920098D01*
X15089306Y-15920098D02*
X15098829Y-15939146D01*
X15098829Y-15939146D02*
X15098829Y-15996288D01*
X15098829Y-15996288D02*
X15089306Y-16015336D01*
X15089306Y-16015336D02*
X15079782Y-16024860D01*
X15079782Y-16024860D02*
X15060734Y-16034384D01*
X15060734Y-16034384D02*
X15032163Y-16034384D01*
X15213115Y-16034384D02*
X15194067Y-16024860D01*
X15194067Y-16024860D02*
X15184544Y-16005812D01*
X15184544Y-16005812D02*
X15184544Y-15834384D01*
X15365496Y-16024860D02*
X15346448Y-16034384D01*
X15346448Y-16034384D02*
X15308353Y-16034384D01*
X15308353Y-16034384D02*
X15289306Y-16024860D01*
X15289306Y-16024860D02*
X15279782Y-16005812D01*
X15279782Y-16005812D02*
X15279782Y-15929622D01*
X15279782Y-15929622D02*
X15289306Y-15910574D01*
X15289306Y-15910574D02*
X15308353Y-15901050D01*
X15308353Y-15901050D02*
X15346448Y-15901050D01*
X15346448Y-15901050D02*
X15365496Y-15910574D01*
X15365496Y-15910574D02*
X15375020Y-15929622D01*
X15375020Y-15929622D02*
X15375020Y-15948669D01*
X15375020Y-15948669D02*
X15279782Y-15967717D01*
X15451210Y-16024860D02*
X15470258Y-16034384D01*
X15470258Y-16034384D02*
X15508353Y-16034384D01*
X15508353Y-16034384D02*
X15527401Y-16024860D01*
X15527401Y-16024860D02*
X15536925Y-16005812D01*
X15536925Y-16005812D02*
X15536925Y-15996288D01*
X15536925Y-15996288D02*
X15527401Y-15977241D01*
X15527401Y-15977241D02*
X15508353Y-15967717D01*
X15508353Y-15967717D02*
X15479782Y-15967717D01*
X15479782Y-15967717D02*
X15460734Y-15958193D01*
X15460734Y-15958193D02*
X15451210Y-15939146D01*
X15451210Y-15939146D02*
X15451210Y-15929622D01*
X15451210Y-15929622D02*
X15460734Y-15910574D01*
X15460734Y-15910574D02*
X15479782Y-15901050D01*
X15479782Y-15901050D02*
X15508353Y-15901050D01*
X15508353Y-15901050D02*
X15527401Y-15910574D01*
X15603591Y-16110574D02*
X15613115Y-16101050D01*
X15613115Y-16101050D02*
X15632163Y-16072479D01*
X15632163Y-16072479D02*
X15641687Y-16053431D01*
X15641687Y-16053431D02*
X15651210Y-16024860D01*
X15651210Y-16024860D02*
X15660734Y-15977241D01*
X15660734Y-15977241D02*
X15660734Y-15939146D01*
X15660734Y-15939146D02*
X15651210Y-15891527D01*
X15651210Y-15891527D02*
X15641687Y-15862955D01*
X15641687Y-15862955D02*
X15632163Y-15843908D01*
X15632163Y-15843908D02*
X15613115Y-15815336D01*
X15613115Y-15815336D02*
X15603591Y-15805812D01*
D10*
X10551210Y-16155860D02*
X10651210Y-16255860D01*
X10651210Y-16155860D02*
X10551210Y-16255860D01*
X10651210Y-16205860D02*
G75*
G03*
X10651210Y-16205860I-50000J0D01*
G01*
D11*
X11003591Y-16298384D02*
X10889305Y-16298384D01*
X10946448Y-16298384D02*
X10946448Y-16098384D01*
X10946448Y-16098384D02*
X10927400Y-16126955D01*
X10927400Y-16126955D02*
X10908353Y-16146003D01*
X10908353Y-16146003D02*
X10889305Y-16155527D01*
X11089305Y-16279336D02*
X11098829Y-16288860D01*
X11098829Y-16288860D02*
X11089305Y-16298384D01*
X11089305Y-16298384D02*
X11079781Y-16288860D01*
X11079781Y-16288860D02*
X11089305Y-16279336D01*
X11089305Y-16279336D02*
X11089305Y-16298384D01*
X11222638Y-16098384D02*
X11241686Y-16098384D01*
X11241686Y-16098384D02*
X11260734Y-16107908D01*
X11260734Y-16107908D02*
X11270258Y-16117431D01*
X11270258Y-16117431D02*
X11279781Y-16136479D01*
X11279781Y-16136479D02*
X11289305Y-16174574D01*
X11289305Y-16174574D02*
X11289305Y-16222193D01*
X11289305Y-16222193D02*
X11279781Y-16260288D01*
X11279781Y-16260288D02*
X11270258Y-16279336D01*
X11270258Y-16279336D02*
X11260734Y-16288860D01*
X11260734Y-16288860D02*
X11241686Y-16298384D01*
X11241686Y-16298384D02*
X11222638Y-16298384D01*
X11222638Y-16298384D02*
X11203591Y-16288860D01*
X11203591Y-16288860D02*
X11194067Y-16279336D01*
X11194067Y-16279336D02*
X11184543Y-16260288D01*
X11184543Y-16260288D02*
X11175020Y-16222193D01*
X11175020Y-16222193D02*
X11175020Y-16174574D01*
X11175020Y-16174574D02*
X11184543Y-16136479D01*
X11184543Y-16136479D02*
X11194067Y-16117431D01*
X11194067Y-16117431D02*
X11203591Y-16107908D01*
X11203591Y-16107908D02*
X11222638Y-16098384D01*
X11413115Y-16098384D02*
X11432162Y-16098384D01*
X11432162Y-16098384D02*
X11451210Y-16107908D01*
X11451210Y-16107908D02*
X11460734Y-16117431D01*
X11460734Y-16117431D02*
X11470258Y-16136479D01*
X11470258Y-16136479D02*
X11479781Y-16174574D01*
X11479781Y-16174574D02*
X11479781Y-16222193D01*
X11479781Y-16222193D02*
X11470258Y-16260288D01*
X11470258Y-16260288D02*
X11460734Y-16279336D01*
X11460734Y-16279336D02*
X11451210Y-16288860D01*
X11451210Y-16288860D02*
X11432162Y-16298384D01*
X11432162Y-16298384D02*
X11413115Y-16298384D01*
X11413115Y-16298384D02*
X11394067Y-16288860D01*
X11394067Y-16288860D02*
X11384543Y-16279336D01*
X11384543Y-16279336D02*
X11375019Y-16260288D01*
X11375019Y-16260288D02*
X11365496Y-16222193D01*
X11365496Y-16222193D02*
X11365496Y-16174574D01*
X11365496Y-16174574D02*
X11375019Y-16136479D01*
X11375019Y-16136479D02*
X11384543Y-16117431D01*
X11384543Y-16117431D02*
X11394067Y-16107908D01*
X11394067Y-16107908D02*
X11413115Y-16098384D01*
X11603591Y-16098384D02*
X11622639Y-16098384D01*
X11622639Y-16098384D02*
X11641686Y-16107908D01*
X11641686Y-16107908D02*
X11651210Y-16117431D01*
X11651210Y-16117431D02*
X11660734Y-16136479D01*
X11660734Y-16136479D02*
X11670258Y-16174574D01*
X11670258Y-16174574D02*
X11670258Y-16222193D01*
X11670258Y-16222193D02*
X11660734Y-16260288D01*
X11660734Y-16260288D02*
X11651210Y-16279336D01*
X11651210Y-16279336D02*
X11641686Y-16288860D01*
X11641686Y-16288860D02*
X11622639Y-16298384D01*
X11622639Y-16298384D02*
X11603591Y-16298384D01*
X11603591Y-16298384D02*
X11584543Y-16288860D01*
X11584543Y-16288860D02*
X11575019Y-16279336D01*
X11575019Y-16279336D02*
X11565496Y-16260288D01*
X11565496Y-16260288D02*
X11555972Y-16222193D01*
X11555972Y-16222193D02*
X11555972Y-16174574D01*
X11555972Y-16174574D02*
X11565496Y-16136479D01*
X11565496Y-16136479D02*
X11575019Y-16117431D01*
X11575019Y-16117431D02*
X11584543Y-16107908D01*
X11584543Y-16107908D02*
X11603591Y-16098384D01*
X11755972Y-16298384D02*
X11755972Y-16165050D01*
X11755972Y-16184098D02*
X11765496Y-16174574D01*
X11765496Y-16174574D02*
X11784543Y-16165050D01*
X11784543Y-16165050D02*
X11813115Y-16165050D01*
X11813115Y-16165050D02*
X11832162Y-16174574D01*
X11832162Y-16174574D02*
X11841686Y-16193622D01*
X11841686Y-16193622D02*
X11841686Y-16298384D01*
X11841686Y-16193622D02*
X11851210Y-16174574D01*
X11851210Y-16174574D02*
X11870258Y-16165050D01*
X11870258Y-16165050D02*
X11898829Y-16165050D01*
X11898829Y-16165050D02*
X11917877Y-16174574D01*
X11917877Y-16174574D02*
X11927400Y-16193622D01*
X11927400Y-16193622D02*
X11927400Y-16298384D01*
X12022639Y-16298384D02*
X12022639Y-16165050D01*
X12022639Y-16184098D02*
X12032162Y-16174574D01*
X12032162Y-16174574D02*
X12051210Y-16165050D01*
X12051210Y-16165050D02*
X12079781Y-16165050D01*
X12079781Y-16165050D02*
X12098829Y-16174574D01*
X12098829Y-16174574D02*
X12108353Y-16193622D01*
X12108353Y-16193622D02*
X12108353Y-16298384D01*
X12108353Y-16193622D02*
X12117877Y-16174574D01*
X12117877Y-16174574D02*
X12136924Y-16165050D01*
X12136924Y-16165050D02*
X12165496Y-16165050D01*
X12165496Y-16165050D02*
X12184543Y-16174574D01*
X12184543Y-16174574D02*
X12194067Y-16193622D01*
X12194067Y-16193622D02*
X12194067Y-16298384D01*
X12584543Y-16088860D02*
X12413115Y-16346003D01*
X12841686Y-16098384D02*
X12860734Y-16098384D01*
X12860734Y-16098384D02*
X12879782Y-16107908D01*
X12879782Y-16107908D02*
X12889305Y-16117431D01*
X12889305Y-16117431D02*
X12898829Y-16136479D01*
X12898829Y-16136479D02*
X12908353Y-16174574D01*
X12908353Y-16174574D02*
X12908353Y-16222193D01*
X12908353Y-16222193D02*
X12898829Y-16260288D01*
X12898829Y-16260288D02*
X12889305Y-16279336D01*
X12889305Y-16279336D02*
X12879782Y-16288860D01*
X12879782Y-16288860D02*
X12860734Y-16298384D01*
X12860734Y-16298384D02*
X12841686Y-16298384D01*
X12841686Y-16298384D02*
X12822639Y-16288860D01*
X12822639Y-16288860D02*
X12813115Y-16279336D01*
X12813115Y-16279336D02*
X12803591Y-16260288D01*
X12803591Y-16260288D02*
X12794067Y-16222193D01*
X12794067Y-16222193D02*
X12794067Y-16174574D01*
X12794067Y-16174574D02*
X12803591Y-16136479D01*
X12803591Y-16136479D02*
X12813115Y-16117431D01*
X12813115Y-16117431D02*
X12822639Y-16107908D01*
X12822639Y-16107908D02*
X12841686Y-16098384D01*
X12994067Y-16279336D02*
X13003591Y-16288860D01*
X13003591Y-16288860D02*
X12994067Y-16298384D01*
X12994067Y-16298384D02*
X12984543Y-16288860D01*
X12984543Y-16288860D02*
X12994067Y-16279336D01*
X12994067Y-16279336D02*
X12994067Y-16298384D01*
X13127401Y-16098384D02*
X13146448Y-16098384D01*
X13146448Y-16098384D02*
X13165496Y-16107908D01*
X13165496Y-16107908D02*
X13175020Y-16117431D01*
X13175020Y-16117431D02*
X13184543Y-16136479D01*
X13184543Y-16136479D02*
X13194067Y-16174574D01*
X13194067Y-16174574D02*
X13194067Y-16222193D01*
X13194067Y-16222193D02*
X13184543Y-16260288D01*
X13184543Y-16260288D02*
X13175020Y-16279336D01*
X13175020Y-16279336D02*
X13165496Y-16288860D01*
X13165496Y-16288860D02*
X13146448Y-16298384D01*
X13146448Y-16298384D02*
X13127401Y-16298384D01*
X13127401Y-16298384D02*
X13108353Y-16288860D01*
X13108353Y-16288860D02*
X13098829Y-16279336D01*
X13098829Y-16279336D02*
X13089305Y-16260288D01*
X13089305Y-16260288D02*
X13079782Y-16222193D01*
X13079782Y-16222193D02*
X13079782Y-16174574D01*
X13079782Y-16174574D02*
X13089305Y-16136479D01*
X13089305Y-16136479D02*
X13098829Y-16117431D01*
X13098829Y-16117431D02*
X13108353Y-16107908D01*
X13108353Y-16107908D02*
X13127401Y-16098384D01*
X13260734Y-16098384D02*
X13384543Y-16098384D01*
X13384543Y-16098384D02*
X13317877Y-16174574D01*
X13317877Y-16174574D02*
X13346448Y-16174574D01*
X13346448Y-16174574D02*
X13365496Y-16184098D01*
X13365496Y-16184098D02*
X13375020Y-16193622D01*
X13375020Y-16193622D02*
X13384543Y-16212669D01*
X13384543Y-16212669D02*
X13384543Y-16260288D01*
X13384543Y-16260288D02*
X13375020Y-16279336D01*
X13375020Y-16279336D02*
X13365496Y-16288860D01*
X13365496Y-16288860D02*
X13346448Y-16298384D01*
X13346448Y-16298384D02*
X13289305Y-16298384D01*
X13289305Y-16298384D02*
X13270258Y-16288860D01*
X13270258Y-16288860D02*
X13260734Y-16279336D01*
X13479782Y-16298384D02*
X13517877Y-16298384D01*
X13517877Y-16298384D02*
X13536924Y-16288860D01*
X13536924Y-16288860D02*
X13546448Y-16279336D01*
X13546448Y-16279336D02*
X13565496Y-16250765D01*
X13565496Y-16250765D02*
X13575020Y-16212669D01*
X13575020Y-16212669D02*
X13575020Y-16136479D01*
X13575020Y-16136479D02*
X13565496Y-16117431D01*
X13565496Y-16117431D02*
X13555972Y-16107908D01*
X13555972Y-16107908D02*
X13536924Y-16098384D01*
X13536924Y-16098384D02*
X13498829Y-16098384D01*
X13498829Y-16098384D02*
X13479782Y-16107908D01*
X13479782Y-16107908D02*
X13470258Y-16117431D01*
X13470258Y-16117431D02*
X13460734Y-16136479D01*
X13460734Y-16136479D02*
X13460734Y-16184098D01*
X13460734Y-16184098D02*
X13470258Y-16203146D01*
X13470258Y-16203146D02*
X13479782Y-16212669D01*
X13479782Y-16212669D02*
X13498829Y-16222193D01*
X13498829Y-16222193D02*
X13536924Y-16222193D01*
X13536924Y-16222193D02*
X13555972Y-16212669D01*
X13555972Y-16212669D02*
X13565496Y-16203146D01*
X13565496Y-16203146D02*
X13575020Y-16184098D01*
X13746448Y-16165050D02*
X13746448Y-16298384D01*
X13698829Y-16088860D02*
X13651210Y-16231717D01*
X13651210Y-16231717D02*
X13775020Y-16231717D01*
X13841686Y-16098384D02*
X13841686Y-16136479D01*
X13917877Y-16098384D02*
X13917877Y-16136479D01*
X14213115Y-16374574D02*
X14203591Y-16365050D01*
X14203591Y-16365050D02*
X14184544Y-16336479D01*
X14184544Y-16336479D02*
X14175020Y-16317431D01*
X14175020Y-16317431D02*
X14165496Y-16288860D01*
X14165496Y-16288860D02*
X14155972Y-16241241D01*
X14155972Y-16241241D02*
X14155972Y-16203146D01*
X14155972Y-16203146D02*
X14165496Y-16155527D01*
X14165496Y-16155527D02*
X14175020Y-16126955D01*
X14175020Y-16126955D02*
X14184544Y-16107908D01*
X14184544Y-16107908D02*
X14203591Y-16079336D01*
X14203591Y-16079336D02*
X14213115Y-16069812D01*
X14384544Y-16098384D02*
X14289305Y-16098384D01*
X14289305Y-16098384D02*
X14279782Y-16193622D01*
X14279782Y-16193622D02*
X14289305Y-16184098D01*
X14289305Y-16184098D02*
X14308353Y-16174574D01*
X14308353Y-16174574D02*
X14355972Y-16174574D01*
X14355972Y-16174574D02*
X14375020Y-16184098D01*
X14375020Y-16184098D02*
X14384544Y-16193622D01*
X14384544Y-16193622D02*
X14394067Y-16212669D01*
X14394067Y-16212669D02*
X14394067Y-16260288D01*
X14394067Y-16260288D02*
X14384544Y-16279336D01*
X14384544Y-16279336D02*
X14375020Y-16288860D01*
X14375020Y-16288860D02*
X14355972Y-16298384D01*
X14355972Y-16298384D02*
X14308353Y-16298384D01*
X14308353Y-16298384D02*
X14289305Y-16288860D01*
X14289305Y-16288860D02*
X14279782Y-16279336D01*
X14584544Y-16298384D02*
X14470258Y-16298384D01*
X14527401Y-16298384D02*
X14527401Y-16098384D01*
X14527401Y-16098384D02*
X14508353Y-16126955D01*
X14508353Y-16126955D02*
X14489305Y-16146003D01*
X14489305Y-16146003D02*
X14470258Y-16155527D01*
X14822639Y-16298384D02*
X14822639Y-16098384D01*
X14908353Y-16298384D02*
X14908353Y-16193622D01*
X14908353Y-16193622D02*
X14898829Y-16174574D01*
X14898829Y-16174574D02*
X14879782Y-16165050D01*
X14879782Y-16165050D02*
X14851210Y-16165050D01*
X14851210Y-16165050D02*
X14832163Y-16174574D01*
X14832163Y-16174574D02*
X14822639Y-16184098D01*
X15032163Y-16298384D02*
X15013115Y-16288860D01*
X15013115Y-16288860D02*
X15003591Y-16279336D01*
X15003591Y-16279336D02*
X14994067Y-16260288D01*
X14994067Y-16260288D02*
X14994067Y-16203146D01*
X14994067Y-16203146D02*
X15003591Y-16184098D01*
X15003591Y-16184098D02*
X15013115Y-16174574D01*
X15013115Y-16174574D02*
X15032163Y-16165050D01*
X15032163Y-16165050D02*
X15060734Y-16165050D01*
X15060734Y-16165050D02*
X15079782Y-16174574D01*
X15079782Y-16174574D02*
X15089306Y-16184098D01*
X15089306Y-16184098D02*
X15098829Y-16203146D01*
X15098829Y-16203146D02*
X15098829Y-16260288D01*
X15098829Y-16260288D02*
X15089306Y-16279336D01*
X15089306Y-16279336D02*
X15079782Y-16288860D01*
X15079782Y-16288860D02*
X15060734Y-16298384D01*
X15060734Y-16298384D02*
X15032163Y-16298384D01*
X15213115Y-16298384D02*
X15194067Y-16288860D01*
X15194067Y-16288860D02*
X15184544Y-16269812D01*
X15184544Y-16269812D02*
X15184544Y-16098384D01*
X15365496Y-16288860D02*
X15346448Y-16298384D01*
X15346448Y-16298384D02*
X15308353Y-16298384D01*
X15308353Y-16298384D02*
X15289306Y-16288860D01*
X15289306Y-16288860D02*
X15279782Y-16269812D01*
X15279782Y-16269812D02*
X15279782Y-16193622D01*
X15279782Y-16193622D02*
X15289306Y-16174574D01*
X15289306Y-16174574D02*
X15308353Y-16165050D01*
X15308353Y-16165050D02*
X15346448Y-16165050D01*
X15346448Y-16165050D02*
X15365496Y-16174574D01*
X15365496Y-16174574D02*
X15375020Y-16193622D01*
X15375020Y-16193622D02*
X15375020Y-16212669D01*
X15375020Y-16212669D02*
X15279782Y-16231717D01*
X15451210Y-16288860D02*
X15470258Y-16298384D01*
X15470258Y-16298384D02*
X15508353Y-16298384D01*
X15508353Y-16298384D02*
X15527401Y-16288860D01*
X15527401Y-16288860D02*
X15536925Y-16269812D01*
X15536925Y-16269812D02*
X15536925Y-16260288D01*
X15536925Y-16260288D02*
X15527401Y-16241241D01*
X15527401Y-16241241D02*
X15508353Y-16231717D01*
X15508353Y-16231717D02*
X15479782Y-16231717D01*
X15479782Y-16231717D02*
X15460734Y-16222193D01*
X15460734Y-16222193D02*
X15451210Y-16203146D01*
X15451210Y-16203146D02*
X15451210Y-16193622D01*
X15451210Y-16193622D02*
X15460734Y-16174574D01*
X15460734Y-16174574D02*
X15479782Y-16165050D01*
X15479782Y-16165050D02*
X15508353Y-16165050D01*
X15508353Y-16165050D02*
X15527401Y-16174574D01*
X15603591Y-16374574D02*
X15613115Y-16365050D01*
X15613115Y-16365050D02*
X15632163Y-16336479D01*
X15632163Y-16336479D02*
X15641687Y-16317431D01*
X15641687Y-16317431D02*
X15651210Y-16288860D01*
X15651210Y-16288860D02*
X15660734Y-16241241D01*
X15660734Y-16241241D02*
X15660734Y-16203146D01*
X15660734Y-16203146D02*
X15651210Y-16155527D01*
X15651210Y-16155527D02*
X15641687Y-16126955D01*
X15641687Y-16126955D02*
X15632163Y-16107908D01*
X15632163Y-16107908D02*
X15613115Y-16079336D01*
X15613115Y-16079336D02*
X15603591Y-16069812D01*
X10451210Y-16369860D02*
X10651210Y-16569860D01*
X10651210Y-16369860D02*
X10451210Y-16569860D01*
X10551210Y-16369860D02*
X10551210Y-16569860D01*
X10451210Y-16469860D02*
X10651210Y-16469860D01*
X10879781Y-16362384D02*
X11003591Y-16362384D01*
X11003591Y-16362384D02*
X10936924Y-16438574D01*
X10936924Y-16438574D02*
X10965496Y-16438574D01*
X10965496Y-16438574D02*
X10984543Y-16448098D01*
X10984543Y-16448098D02*
X10994067Y-16457622D01*
X10994067Y-16457622D02*
X11003591Y-16476669D01*
X11003591Y-16476669D02*
X11003591Y-16524288D01*
X11003591Y-16524288D02*
X10994067Y-16543336D01*
X10994067Y-16543336D02*
X10984543Y-16552860D01*
X10984543Y-16552860D02*
X10965496Y-16562384D01*
X10965496Y-16562384D02*
X10908353Y-16562384D01*
X10908353Y-16562384D02*
X10889305Y-16552860D01*
X10889305Y-16552860D02*
X10879781Y-16543336D01*
X11089305Y-16543336D02*
X11098829Y-16552860D01*
X11098829Y-16552860D02*
X11089305Y-16562384D01*
X11089305Y-16562384D02*
X11079781Y-16552860D01*
X11079781Y-16552860D02*
X11089305Y-16543336D01*
X11089305Y-16543336D02*
X11089305Y-16562384D01*
X11175020Y-16381431D02*
X11184543Y-16371908D01*
X11184543Y-16371908D02*
X11203591Y-16362384D01*
X11203591Y-16362384D02*
X11251210Y-16362384D01*
X11251210Y-16362384D02*
X11270258Y-16371908D01*
X11270258Y-16371908D02*
X11279781Y-16381431D01*
X11279781Y-16381431D02*
X11289305Y-16400479D01*
X11289305Y-16400479D02*
X11289305Y-16419527D01*
X11289305Y-16419527D02*
X11279781Y-16448098D01*
X11279781Y-16448098D02*
X11165496Y-16562384D01*
X11165496Y-16562384D02*
X11289305Y-16562384D01*
X11413115Y-16362384D02*
X11432162Y-16362384D01*
X11432162Y-16362384D02*
X11451210Y-16371908D01*
X11451210Y-16371908D02*
X11460734Y-16381431D01*
X11460734Y-16381431D02*
X11470258Y-16400479D01*
X11470258Y-16400479D02*
X11479781Y-16438574D01*
X11479781Y-16438574D02*
X11479781Y-16486193D01*
X11479781Y-16486193D02*
X11470258Y-16524288D01*
X11470258Y-16524288D02*
X11460734Y-16543336D01*
X11460734Y-16543336D02*
X11451210Y-16552860D01*
X11451210Y-16552860D02*
X11432162Y-16562384D01*
X11432162Y-16562384D02*
X11413115Y-16562384D01*
X11413115Y-16562384D02*
X11394067Y-16552860D01*
X11394067Y-16552860D02*
X11384543Y-16543336D01*
X11384543Y-16543336D02*
X11375019Y-16524288D01*
X11375019Y-16524288D02*
X11365496Y-16486193D01*
X11365496Y-16486193D02*
X11365496Y-16438574D01*
X11365496Y-16438574D02*
X11375019Y-16400479D01*
X11375019Y-16400479D02*
X11384543Y-16381431D01*
X11384543Y-16381431D02*
X11394067Y-16371908D01*
X11394067Y-16371908D02*
X11413115Y-16362384D01*
X11603591Y-16362384D02*
X11622639Y-16362384D01*
X11622639Y-16362384D02*
X11641686Y-16371908D01*
X11641686Y-16371908D02*
X11651210Y-16381431D01*
X11651210Y-16381431D02*
X11660734Y-16400479D01*
X11660734Y-16400479D02*
X11670258Y-16438574D01*
X11670258Y-16438574D02*
X11670258Y-16486193D01*
X11670258Y-16486193D02*
X11660734Y-16524288D01*
X11660734Y-16524288D02*
X11651210Y-16543336D01*
X11651210Y-16543336D02*
X11641686Y-16552860D01*
X11641686Y-16552860D02*
X11622639Y-16562384D01*
X11622639Y-16562384D02*
X11603591Y-16562384D01*
X11603591Y-16562384D02*
X11584543Y-16552860D01*
X11584543Y-16552860D02*
X11575019Y-16543336D01*
X11575019Y-16543336D02*
X11565496Y-16524288D01*
X11565496Y-16524288D02*
X11555972Y-16486193D01*
X11555972Y-16486193D02*
X11555972Y-16438574D01*
X11555972Y-16438574D02*
X11565496Y-16400479D01*
X11565496Y-16400479D02*
X11575019Y-16381431D01*
X11575019Y-16381431D02*
X11584543Y-16371908D01*
X11584543Y-16371908D02*
X11603591Y-16362384D01*
X11755972Y-16562384D02*
X11755972Y-16429050D01*
X11755972Y-16448098D02*
X11765496Y-16438574D01*
X11765496Y-16438574D02*
X11784543Y-16429050D01*
X11784543Y-16429050D02*
X11813115Y-16429050D01*
X11813115Y-16429050D02*
X11832162Y-16438574D01*
X11832162Y-16438574D02*
X11841686Y-16457622D01*
X11841686Y-16457622D02*
X11841686Y-16562384D01*
X11841686Y-16457622D02*
X11851210Y-16438574D01*
X11851210Y-16438574D02*
X11870258Y-16429050D01*
X11870258Y-16429050D02*
X11898829Y-16429050D01*
X11898829Y-16429050D02*
X11917877Y-16438574D01*
X11917877Y-16438574D02*
X11927400Y-16457622D01*
X11927400Y-16457622D02*
X11927400Y-16562384D01*
X12022639Y-16562384D02*
X12022639Y-16429050D01*
X12022639Y-16448098D02*
X12032162Y-16438574D01*
X12032162Y-16438574D02*
X12051210Y-16429050D01*
X12051210Y-16429050D02*
X12079781Y-16429050D01*
X12079781Y-16429050D02*
X12098829Y-16438574D01*
X12098829Y-16438574D02*
X12108353Y-16457622D01*
X12108353Y-16457622D02*
X12108353Y-16562384D01*
X12108353Y-16457622D02*
X12117877Y-16438574D01*
X12117877Y-16438574D02*
X12136924Y-16429050D01*
X12136924Y-16429050D02*
X12165496Y-16429050D01*
X12165496Y-16429050D02*
X12184543Y-16438574D01*
X12184543Y-16438574D02*
X12194067Y-16457622D01*
X12194067Y-16457622D02*
X12194067Y-16562384D01*
X12584543Y-16352860D02*
X12413115Y-16610003D01*
X12841686Y-16362384D02*
X12860734Y-16362384D01*
X12860734Y-16362384D02*
X12879782Y-16371908D01*
X12879782Y-16371908D02*
X12889305Y-16381431D01*
X12889305Y-16381431D02*
X12898829Y-16400479D01*
X12898829Y-16400479D02*
X12908353Y-16438574D01*
X12908353Y-16438574D02*
X12908353Y-16486193D01*
X12908353Y-16486193D02*
X12898829Y-16524288D01*
X12898829Y-16524288D02*
X12889305Y-16543336D01*
X12889305Y-16543336D02*
X12879782Y-16552860D01*
X12879782Y-16552860D02*
X12860734Y-16562384D01*
X12860734Y-16562384D02*
X12841686Y-16562384D01*
X12841686Y-16562384D02*
X12822639Y-16552860D01*
X12822639Y-16552860D02*
X12813115Y-16543336D01*
X12813115Y-16543336D02*
X12803591Y-16524288D01*
X12803591Y-16524288D02*
X12794067Y-16486193D01*
X12794067Y-16486193D02*
X12794067Y-16438574D01*
X12794067Y-16438574D02*
X12803591Y-16400479D01*
X12803591Y-16400479D02*
X12813115Y-16381431D01*
X12813115Y-16381431D02*
X12822639Y-16371908D01*
X12822639Y-16371908D02*
X12841686Y-16362384D01*
X12994067Y-16543336D02*
X13003591Y-16552860D01*
X13003591Y-16552860D02*
X12994067Y-16562384D01*
X12994067Y-16562384D02*
X12984543Y-16552860D01*
X12984543Y-16552860D02*
X12994067Y-16543336D01*
X12994067Y-16543336D02*
X12994067Y-16562384D01*
X13194067Y-16562384D02*
X13079782Y-16562384D01*
X13136924Y-16562384D02*
X13136924Y-16362384D01*
X13136924Y-16362384D02*
X13117877Y-16390955D01*
X13117877Y-16390955D02*
X13098829Y-16410003D01*
X13098829Y-16410003D02*
X13079782Y-16419527D01*
X13270258Y-16381431D02*
X13279782Y-16371908D01*
X13279782Y-16371908D02*
X13298829Y-16362384D01*
X13298829Y-16362384D02*
X13346448Y-16362384D01*
X13346448Y-16362384D02*
X13365496Y-16371908D01*
X13365496Y-16371908D02*
X13375020Y-16381431D01*
X13375020Y-16381431D02*
X13384543Y-16400479D01*
X13384543Y-16400479D02*
X13384543Y-16419527D01*
X13384543Y-16419527D02*
X13375020Y-16448098D01*
X13375020Y-16448098D02*
X13260734Y-16562384D01*
X13260734Y-16562384D02*
X13384543Y-16562384D01*
X13555972Y-16362384D02*
X13517877Y-16362384D01*
X13517877Y-16362384D02*
X13498829Y-16371908D01*
X13498829Y-16371908D02*
X13489305Y-16381431D01*
X13489305Y-16381431D02*
X13470258Y-16410003D01*
X13470258Y-16410003D02*
X13460734Y-16448098D01*
X13460734Y-16448098D02*
X13460734Y-16524288D01*
X13460734Y-16524288D02*
X13470258Y-16543336D01*
X13470258Y-16543336D02*
X13479782Y-16552860D01*
X13479782Y-16552860D02*
X13498829Y-16562384D01*
X13498829Y-16562384D02*
X13536924Y-16562384D01*
X13536924Y-16562384D02*
X13555972Y-16552860D01*
X13555972Y-16552860D02*
X13565496Y-16543336D01*
X13565496Y-16543336D02*
X13575020Y-16524288D01*
X13575020Y-16524288D02*
X13575020Y-16476669D01*
X13575020Y-16476669D02*
X13565496Y-16457622D01*
X13565496Y-16457622D02*
X13555972Y-16448098D01*
X13555972Y-16448098D02*
X13536924Y-16438574D01*
X13536924Y-16438574D02*
X13498829Y-16438574D01*
X13498829Y-16438574D02*
X13479782Y-16448098D01*
X13479782Y-16448098D02*
X13470258Y-16457622D01*
X13470258Y-16457622D02*
X13460734Y-16476669D01*
X13698829Y-16362384D02*
X13717877Y-16362384D01*
X13717877Y-16362384D02*
X13736924Y-16371908D01*
X13736924Y-16371908D02*
X13746448Y-16381431D01*
X13746448Y-16381431D02*
X13755972Y-16400479D01*
X13755972Y-16400479D02*
X13765496Y-16438574D01*
X13765496Y-16438574D02*
X13765496Y-16486193D01*
X13765496Y-16486193D02*
X13755972Y-16524288D01*
X13755972Y-16524288D02*
X13746448Y-16543336D01*
X13746448Y-16543336D02*
X13736924Y-16552860D01*
X13736924Y-16552860D02*
X13717877Y-16562384D01*
X13717877Y-16562384D02*
X13698829Y-16562384D01*
X13698829Y-16562384D02*
X13679782Y-16552860D01*
X13679782Y-16552860D02*
X13670258Y-16543336D01*
X13670258Y-16543336D02*
X13660734Y-16524288D01*
X13660734Y-16524288D02*
X13651210Y-16486193D01*
X13651210Y-16486193D02*
X13651210Y-16438574D01*
X13651210Y-16438574D02*
X13660734Y-16400479D01*
X13660734Y-16400479D02*
X13670258Y-16381431D01*
X13670258Y-16381431D02*
X13679782Y-16371908D01*
X13679782Y-16371908D02*
X13698829Y-16362384D01*
X13841686Y-16362384D02*
X13841686Y-16400479D01*
X13917877Y-16362384D02*
X13917877Y-16400479D01*
X14213115Y-16638574D02*
X14203591Y-16629050D01*
X14203591Y-16629050D02*
X14184544Y-16600479D01*
X14184544Y-16600479D02*
X14175020Y-16581431D01*
X14175020Y-16581431D02*
X14165496Y-16552860D01*
X14165496Y-16552860D02*
X14155972Y-16505241D01*
X14155972Y-16505241D02*
X14155972Y-16467146D01*
X14155972Y-16467146D02*
X14165496Y-16419527D01*
X14165496Y-16419527D02*
X14175020Y-16390955D01*
X14175020Y-16390955D02*
X14184544Y-16371908D01*
X14184544Y-16371908D02*
X14203591Y-16343336D01*
X14203591Y-16343336D02*
X14213115Y-16333812D01*
X14375020Y-16429050D02*
X14375020Y-16562384D01*
X14327401Y-16352860D02*
X14279782Y-16495717D01*
X14279782Y-16495717D02*
X14403591Y-16495717D01*
X14632163Y-16562384D02*
X14632163Y-16362384D01*
X14717877Y-16562384D02*
X14717877Y-16457622D01*
X14717877Y-16457622D02*
X14708353Y-16438574D01*
X14708353Y-16438574D02*
X14689306Y-16429050D01*
X14689306Y-16429050D02*
X14660734Y-16429050D01*
X14660734Y-16429050D02*
X14641686Y-16438574D01*
X14641686Y-16438574D02*
X14632163Y-16448098D01*
X14841686Y-16562384D02*
X14822639Y-16552860D01*
X14822639Y-16552860D02*
X14813115Y-16543336D01*
X14813115Y-16543336D02*
X14803591Y-16524288D01*
X14803591Y-16524288D02*
X14803591Y-16467146D01*
X14803591Y-16467146D02*
X14813115Y-16448098D01*
X14813115Y-16448098D02*
X14822639Y-16438574D01*
X14822639Y-16438574D02*
X14841686Y-16429050D01*
X14841686Y-16429050D02*
X14870258Y-16429050D01*
X14870258Y-16429050D02*
X14889306Y-16438574D01*
X14889306Y-16438574D02*
X14898829Y-16448098D01*
X14898829Y-16448098D02*
X14908353Y-16467146D01*
X14908353Y-16467146D02*
X14908353Y-16524288D01*
X14908353Y-16524288D02*
X14898829Y-16543336D01*
X14898829Y-16543336D02*
X14889306Y-16552860D01*
X14889306Y-16552860D02*
X14870258Y-16562384D01*
X14870258Y-16562384D02*
X14841686Y-16562384D01*
X15022639Y-16562384D02*
X15003591Y-16552860D01*
X15003591Y-16552860D02*
X14994067Y-16533812D01*
X14994067Y-16533812D02*
X14994067Y-16362384D01*
X15175020Y-16552860D02*
X15155972Y-16562384D01*
X15155972Y-16562384D02*
X15117877Y-16562384D01*
X15117877Y-16562384D02*
X15098829Y-16552860D01*
X15098829Y-16552860D02*
X15089306Y-16533812D01*
X15089306Y-16533812D02*
X15089306Y-16457622D01*
X15089306Y-16457622D02*
X15098829Y-16438574D01*
X15098829Y-16438574D02*
X15117877Y-16429050D01*
X15117877Y-16429050D02*
X15155972Y-16429050D01*
X15155972Y-16429050D02*
X15175020Y-16438574D01*
X15175020Y-16438574D02*
X15184544Y-16457622D01*
X15184544Y-16457622D02*
X15184544Y-16476669D01*
X15184544Y-16476669D02*
X15089306Y-16495717D01*
X15260734Y-16552860D02*
X15279782Y-16562384D01*
X15279782Y-16562384D02*
X15317877Y-16562384D01*
X15317877Y-16562384D02*
X15336925Y-16552860D01*
X15336925Y-16552860D02*
X15346448Y-16533812D01*
X15346448Y-16533812D02*
X15346448Y-16524288D01*
X15346448Y-16524288D02*
X15336925Y-16505241D01*
X15336925Y-16505241D02*
X15317877Y-16495717D01*
X15317877Y-16495717D02*
X15289306Y-16495717D01*
X15289306Y-16495717D02*
X15270258Y-16486193D01*
X15270258Y-16486193D02*
X15260734Y-16467146D01*
X15260734Y-16467146D02*
X15260734Y-16457622D01*
X15260734Y-16457622D02*
X15270258Y-16438574D01*
X15270258Y-16438574D02*
X15289306Y-16429050D01*
X15289306Y-16429050D02*
X15317877Y-16429050D01*
X15317877Y-16429050D02*
X15336925Y-16438574D01*
X15413115Y-16638574D02*
X15422639Y-16629050D01*
X15422639Y-16629050D02*
X15441687Y-16600479D01*
X15441687Y-16600479D02*
X15451210Y-16581431D01*
X15451210Y-16581431D02*
X15460734Y-16552860D01*
X15460734Y-16552860D02*
X15470258Y-16505241D01*
X15470258Y-16505241D02*
X15470258Y-16467146D01*
X15470258Y-16467146D02*
X15460734Y-16419527D01*
X15460734Y-16419527D02*
X15451210Y-16390955D01*
X15451210Y-16390955D02*
X15441687Y-16371908D01*
X15441687Y-16371908D02*
X15422639Y-16343336D01*
X15422639Y-16343336D02*
X15413115Y-16333812D01*
M02*
