G04 #@! TF.GenerationSoftware,KiCad,Pcbnew,7.0.2-6a45011f42~172~ubuntu20.04.1*
G04 #@! TF.CreationDate,2023-05-04T18:05:18+02:00*
G04 #@! TF.ProjectId,EPS,4550532e-6b69-4636-9164-5f7063625858,v1.0.1*
G04 #@! TF.SameCoordinates,Original*
G04 #@! TF.FileFunction,Paste,Top*
G04 #@! TF.FilePolarity,Positive*
%FSLAX46Y46*%
G04 Gerber Fmt 4.6, Leading zero omitted, Abs format (unit mm)*
G04 Created by KiCad (PCBNEW 7.0.2-6a45011f42~172~ubuntu20.04.1) date 2023-05-04 18:05:18*
%MOMM*%
%LPD*%
G01*
G04 APERTURE LIST*
G04 Aperture macros list*
%AMRoundRect*
0 Rectangle with rounded corners*
0 $1 Rounding radius*
0 $2 $3 $4 $5 $6 $7 $8 $9 X,Y pos of 4 corners*
0 Add a 4 corners polygon primitive as box body*
4,1,4,$2,$3,$4,$5,$6,$7,$8,$9,$2,$3,0*
0 Add four circle primitives for the rounded corners*
1,1,$1+$1,$2,$3*
1,1,$1+$1,$4,$5*
1,1,$1+$1,$6,$7*
1,1,$1+$1,$8,$9*
0 Add four rect primitives between the rounded corners*
20,1,$1+$1,$2,$3,$4,$5,0*
20,1,$1+$1,$4,$5,$6,$7,0*
20,1,$1+$1,$6,$7,$8,$9,0*
20,1,$1+$1,$8,$9,$2,$3,0*%
G04 Aperture macros list end*
%ADD10C,0.010000*%
%ADD11RoundRect,0.237500X-0.237500X0.300000X-0.237500X-0.300000X0.237500X-0.300000X0.237500X0.300000X0*%
%ADD12RoundRect,0.237500X-0.237500X0.250000X-0.237500X-0.250000X0.237500X-0.250000X0.237500X0.250000X0*%
%ADD13R,2.350000X1.550000*%
%ADD14R,2.390000X9.210000*%
%ADD15RoundRect,0.237500X0.300000X0.237500X-0.300000X0.237500X-0.300000X-0.237500X0.300000X-0.237500X0*%
%ADD16RoundRect,0.237500X0.250000X0.237500X-0.250000X0.237500X-0.250000X-0.237500X0.250000X-0.237500X0*%
%ADD17R,1.250000X0.650000*%
%ADD18RoundRect,0.237500X0.237500X-0.250000X0.237500X0.250000X-0.237500X0.250000X-0.237500X-0.250000X0*%
%ADD19RoundRect,0.218750X-0.218750X-0.256250X0.218750X-0.256250X0.218750X0.256250X-0.218750X0.256250X0*%
%ADD20R,0.600000X0.700000*%
%ADD21RoundRect,0.250000X-0.412500X-0.650000X0.412500X-0.650000X0.412500X0.650000X-0.412500X0.650000X0*%
%ADD22RoundRect,0.237500X0.237500X-0.300000X0.237500X0.300000X-0.237500X0.300000X-0.237500X-0.300000X0*%
%ADD23R,0.470000X0.500000*%
%ADD24R,0.470000X0.550000*%
%ADD25R,2.700000X1.850000*%
%ADD26RoundRect,0.250000X-0.450000X0.350000X-0.450000X-0.350000X0.450000X-0.350000X0.450000X0.350000X0*%
%ADD27R,1.200000X0.700000*%
%ADD28R,1.200000X0.760000*%
%ADD29R,1.200000X0.800000*%
%ADD30R,1.350000X1.800000*%
%ADD31R,1.500000X1.800000*%
%ADD32RoundRect,0.250000X-0.350000X-0.450000X0.350000X-0.450000X0.350000X0.450000X-0.350000X0.450000X0*%
%ADD33RoundRect,0.018900X-0.411100X-0.116100X0.411100X-0.116100X0.411100X0.116100X-0.411100X0.116100X0*%
%ADD34RoundRect,0.018900X0.116100X-0.411100X0.116100X0.411100X-0.116100X0.411100X-0.116100X-0.411100X0*%
%ADD35RoundRect,0.018900X0.411100X0.116100X-0.411100X0.116100X-0.411100X-0.116100X0.411100X-0.116100X0*%
%ADD36RoundRect,0.018900X-0.116100X0.411100X-0.116100X-0.411100X0.116100X-0.411100X0.116100X0.411100X0*%
%ADD37R,3.200000X2.600000*%
%ADD38RoundRect,0.237500X-0.250000X-0.237500X0.250000X-0.237500X0.250000X0.237500X-0.250000X0.237500X0*%
%ADD39RoundRect,0.237500X-0.300000X-0.237500X0.300000X-0.237500X0.300000X0.237500X-0.300000X0.237500X0*%
%ADD40R,2.200000X2.150000*%
%ADD41R,0.650000X1.250000*%
%ADD42R,2.150000X2.200000*%
%ADD43R,1.200000X0.680000*%
%ADD44R,3.050000X1.930000*%
%ADD45R,1.550000X2.350000*%
%ADD46R,2.108200X1.879600*%
%ADD47R,0.700000X0.600000*%
%ADD48RoundRect,0.250000X0.412500X0.650000X-0.412500X0.650000X-0.412500X-0.650000X0.412500X-0.650000X0*%
%ADD49R,0.550000X1.000000*%
%ADD50RoundRect,0.250000X-0.625000X0.400000X-0.625000X-0.400000X0.625000X-0.400000X0.625000X0.400000X0*%
%ADD51R,1.473200X0.279400*%
%ADD52R,0.279400X1.473200*%
%ADD53R,0.500000X0.470000*%
%ADD54R,0.550000X0.470000*%
%ADD55R,1.850000X2.700000*%
%ADD56R,2.600000X3.200000*%
G04 APERTURE END LIST*
D10*
X153464100Y-128779600D02*
X152584100Y-128779600D01*
X152584100Y-127399600D01*
X153464100Y-127399600D01*
X153464100Y-128779600D01*
G36*
X153464100Y-128779600D02*
G01*
X152584100Y-128779600D01*
X152584100Y-127399600D01*
X153464100Y-127399600D01*
X153464100Y-128779600D01*
G37*
X154644100Y-127099600D02*
X153764100Y-127099600D01*
X153764100Y-125719600D01*
X154644100Y-125719600D01*
X154644100Y-127099600D01*
G36*
X154644100Y-127099600D02*
G01*
X153764100Y-127099600D01*
X153764100Y-125719600D01*
X154644100Y-125719600D01*
X154644100Y-127099600D01*
G37*
X154644100Y-128779600D02*
X153764100Y-128779600D01*
X153764100Y-127399600D01*
X154644100Y-127399600D01*
X154644100Y-128779600D01*
G36*
X154644100Y-128779600D02*
G01*
X153764100Y-128779600D01*
X153764100Y-127399600D01*
X154644100Y-127399600D01*
X154644100Y-128779600D01*
G37*
X153464100Y-127099600D02*
X152584100Y-127099600D01*
X152584100Y-125719600D01*
X153464100Y-125719600D01*
X153464100Y-127099600D01*
G36*
X153464100Y-127099600D02*
G01*
X152584100Y-127099600D01*
X152584100Y-125719600D01*
X153464100Y-125719600D01*
X153464100Y-127099600D01*
G37*
X123887100Y-134614600D02*
X125087100Y-134614600D01*
X125087100Y-137114600D01*
X123887100Y-137114600D01*
X123887100Y-138214600D01*
X122587100Y-138214600D01*
X122587100Y-137114600D01*
X120687100Y-137114600D01*
X120687100Y-134614600D01*
X122587100Y-134614600D01*
X122587100Y-133514600D01*
X123887100Y-133514600D01*
X123887100Y-134614600D01*
G36*
X123887100Y-134614600D02*
G01*
X125087100Y-134614600D01*
X125087100Y-137114600D01*
X123887100Y-137114600D01*
X123887100Y-138214600D01*
X122587100Y-138214600D01*
X122587100Y-137114600D01*
X120687100Y-137114600D01*
X120687100Y-134614600D01*
X122587100Y-134614600D01*
X122587100Y-133514600D01*
X123887100Y-133514600D01*
X123887100Y-134614600D01*
G37*
X131487100Y-134614600D02*
X133387100Y-134614600D01*
X133387100Y-137114600D01*
X131487100Y-137114600D01*
X131487100Y-138214600D01*
X130187100Y-138214600D01*
X130187100Y-137114600D01*
X128987100Y-137114600D01*
X128987100Y-134614600D01*
X130187100Y-134614600D01*
X130187100Y-133514600D01*
X131487100Y-133514600D01*
X131487100Y-134614600D01*
G36*
X131487100Y-134614600D02*
G01*
X133387100Y-134614600D01*
X133387100Y-137114600D01*
X131487100Y-137114600D01*
X131487100Y-138214600D01*
X130187100Y-138214600D01*
X130187100Y-137114600D01*
X128987100Y-137114600D01*
X128987100Y-134614600D01*
X130187100Y-134614600D01*
X130187100Y-133514600D01*
X131487100Y-133514600D01*
X131487100Y-134614600D01*
G37*
X178452100Y-119294600D02*
X179552100Y-119294600D01*
X179552100Y-120594600D01*
X178452100Y-120594600D01*
X178452100Y-122494600D01*
X175952100Y-122494600D01*
X175952100Y-120594600D01*
X174852100Y-120594600D01*
X174852100Y-119294600D01*
X175952100Y-119294600D01*
X175952100Y-118094600D01*
X178452100Y-118094600D01*
X178452100Y-119294600D01*
G36*
X178452100Y-119294600D02*
G01*
X179552100Y-119294600D01*
X179552100Y-120594600D01*
X178452100Y-120594600D01*
X178452100Y-122494600D01*
X175952100Y-122494600D01*
X175952100Y-120594600D01*
X174852100Y-120594600D01*
X174852100Y-119294600D01*
X175952100Y-119294600D01*
X175952100Y-118094600D01*
X178452100Y-118094600D01*
X178452100Y-119294600D01*
G37*
X178452100Y-111694600D02*
X179552100Y-111694600D01*
X179552100Y-112994600D01*
X178452100Y-112994600D01*
X178452100Y-114194600D01*
X175952100Y-114194600D01*
X175952100Y-112994600D01*
X174852100Y-112994600D01*
X174852100Y-111694600D01*
X175952100Y-111694600D01*
X175952100Y-109794600D01*
X178452100Y-109794600D01*
X178452100Y-111694600D01*
G36*
X178452100Y-111694600D02*
G01*
X179552100Y-111694600D01*
X179552100Y-112994600D01*
X178452100Y-112994600D01*
X178452100Y-114194600D01*
X175952100Y-114194600D01*
X175952100Y-112994600D01*
X174852100Y-112994600D01*
X174852100Y-111694600D01*
X175952100Y-111694600D01*
X175952100Y-109794600D01*
X178452100Y-109794600D01*
X178452100Y-111694600D01*
G37*
D11*
X166788100Y-91467600D03*
X166788100Y-93192600D03*
D12*
X121068100Y-65610100D03*
X121068100Y-67435100D03*
D11*
X149135100Y-132554100D03*
X149135100Y-134279100D03*
D13*
X152827100Y-99669600D03*
X157127100Y-99669600D03*
D12*
X153709600Y-132321100D03*
X153709600Y-134146100D03*
D11*
X150024100Y-128871100D03*
X150024100Y-130596100D03*
D14*
X154268300Y-112715600D03*
X160918300Y-112715600D03*
D15*
X125308800Y-91821000D03*
X123583800Y-91821000D03*
D16*
X166797100Y-128233600D03*
X164972100Y-128233600D03*
D17*
X146742100Y-100126600D03*
X146742100Y-101066600D03*
X146742100Y-102006600D03*
X149242100Y-102006600D03*
X149242100Y-101066600D03*
X149242100Y-100126600D03*
D18*
X122717100Y-126312100D03*
X122717100Y-124487100D03*
D19*
X108432500Y-90170000D03*
X110007500Y-90170000D03*
D20*
X177518100Y-75641200D03*
X178918100Y-75641200D03*
D21*
X152068400Y-122748600D03*
X155193400Y-122748600D03*
D18*
X120825900Y-102623700D03*
X120825900Y-100798700D03*
D12*
X124751100Y-70055100D03*
X124751100Y-71880100D03*
D22*
X179361100Y-73100100D03*
X179361100Y-71375100D03*
D23*
X164289100Y-106238200D03*
X164939100Y-106238200D03*
X165589100Y-106238200D03*
X166239100Y-106238200D03*
D24*
X166239100Y-103362200D03*
X165589100Y-103362200D03*
X164939100Y-103362200D03*
X164289100Y-103362200D03*
D25*
X165264100Y-104562200D03*
D26*
X166280100Y-116668600D03*
X166280100Y-118668600D03*
D27*
X185091600Y-78452600D03*
D28*
X185091600Y-76432600D03*
D29*
X185091600Y-75202600D03*
D27*
X185091600Y-77452600D03*
D28*
X185091600Y-79472600D03*
D29*
X185091600Y-80702600D03*
D30*
X185146600Y-83077600D03*
D31*
X188726600Y-83077600D03*
X188726600Y-72827600D03*
D30*
X185146600Y-72827600D03*
D16*
X159273100Y-135930600D03*
X157448100Y-135930600D03*
D12*
X120825900Y-96988700D03*
X120825900Y-98813700D03*
D32*
X145214100Y-118640200D03*
X147214100Y-118640200D03*
D18*
X151884600Y-133146100D03*
X151884600Y-131321100D03*
D33*
X151679100Y-125499600D03*
X151679100Y-125999600D03*
X151679100Y-126499600D03*
X151679100Y-126999600D03*
X151679100Y-127499600D03*
X151679100Y-127999600D03*
X151679100Y-128499600D03*
X151679100Y-128999600D03*
D34*
X152364100Y-129684600D03*
X152864100Y-129684600D03*
X153364100Y-129684600D03*
X153864100Y-129684600D03*
X154364100Y-129684600D03*
X154864100Y-129684600D03*
D35*
X155549100Y-128999600D03*
X155549100Y-128499600D03*
X155549100Y-127999600D03*
X155549100Y-127499600D03*
X155549100Y-126999600D03*
X155549100Y-126499600D03*
X155549100Y-125999600D03*
X155549100Y-125499600D03*
D36*
X154864100Y-124814600D03*
X154364100Y-124814600D03*
X153864100Y-124814600D03*
X153364100Y-124814600D03*
X152864100Y-124814600D03*
X152364100Y-124814600D03*
D15*
X149235600Y-126233600D03*
X147510600Y-126233600D03*
D16*
X182051600Y-77063600D03*
X180226600Y-77063600D03*
D37*
X180376340Y-99977600D03*
X180250100Y-88877600D03*
D12*
X161073100Y-135933100D03*
X161073100Y-137758100D03*
D38*
X144505000Y-74064800D03*
X146330000Y-74064800D03*
D22*
X114133900Y-80034300D03*
X114133900Y-78309300D03*
D38*
X164986600Y-94843600D03*
X166811600Y-94843600D03*
D39*
X144555000Y-68121200D03*
X146280000Y-68121200D03*
D18*
X119290100Y-67435100D03*
X119290100Y-65610100D03*
D40*
X177482100Y-83462800D03*
X181882100Y-83462800D03*
D16*
X146872600Y-134305600D03*
X145047600Y-134305600D03*
D11*
X169074100Y-97283100D03*
X169074100Y-99008100D03*
D15*
X149235600Y-124653600D03*
X147510600Y-124653600D03*
D41*
X167347100Y-96921000D03*
X166407100Y-96921000D03*
X165467100Y-96921000D03*
X165467100Y-99421000D03*
X166407100Y-99421000D03*
X167347100Y-99421000D03*
D11*
X114133900Y-83897300D03*
X114133900Y-85622300D03*
D22*
X172503100Y-73100100D03*
X172503100Y-71375100D03*
D18*
X120849100Y-119962100D03*
X120849100Y-118137100D03*
D16*
X166797100Y-129963600D03*
X164972100Y-129963600D03*
D42*
X117750300Y-119344600D03*
X117750300Y-114944600D03*
X117750300Y-110708600D03*
X117750300Y-106308600D03*
D11*
X142658100Y-99061100D03*
X142658100Y-100786100D03*
D38*
X120915600Y-122859600D03*
X122740600Y-122859600D03*
D19*
X108444100Y-94462600D03*
X110019100Y-94462600D03*
D38*
X132982600Y-93446600D03*
X134807600Y-93446600D03*
D16*
X113776400Y-90144600D03*
X111951400Y-90144600D03*
D18*
X144436100Y-102614100D03*
X144436100Y-100789100D03*
D15*
X150124600Y-122748600D03*
X148399600Y-122748600D03*
D43*
X177536100Y-72975600D03*
D28*
X177536100Y-71475600D03*
D43*
X177536100Y-69975600D03*
X174236100Y-69975600D03*
X174236100Y-72975600D03*
D44*
X175411100Y-71475600D03*
D16*
X115960800Y-82219800D03*
X114135800Y-82219800D03*
D45*
X171741100Y-99958000D03*
X171741100Y-104258000D03*
D42*
X117750300Y-101986600D03*
X117750300Y-97586600D03*
D46*
X110958900Y-84086700D03*
X110958900Y-79844900D03*
D18*
X120849100Y-111326100D03*
X120849100Y-109501100D03*
D16*
X113776400Y-94462600D03*
X111951400Y-94462600D03*
X182051600Y-78841600D03*
X180226600Y-78841600D03*
D47*
X135165100Y-116930400D03*
X135165100Y-115530400D03*
D48*
X162127600Y-122748600D03*
X159002600Y-122748600D03*
D49*
X146367500Y-69793800D03*
X145417500Y-69793800D03*
X144467500Y-69793800D03*
X144467500Y-72493800D03*
X145417500Y-72493800D03*
X146367500Y-72493800D03*
D39*
X140973600Y-72515400D03*
X142698600Y-72515400D03*
D16*
X135697100Y-91287600D03*
X133872100Y-91287600D03*
D50*
X134403100Y-128533600D03*
X134403100Y-131633600D03*
D19*
X157440800Y-137769600D03*
X159015800Y-137769600D03*
D51*
X121792000Y-78901600D03*
X121792000Y-79401599D03*
X121792000Y-79901600D03*
X121792000Y-80401599D03*
X121792000Y-80901601D03*
X121792000Y-81401600D03*
X121792000Y-81901599D03*
X121792000Y-82401600D03*
X121792000Y-82901600D03*
X121792000Y-83401601D03*
X121792000Y-83901600D03*
X121792000Y-84401599D03*
X121792000Y-84901601D03*
X121792000Y-85401600D03*
X121792000Y-85901601D03*
X121792000Y-86401600D03*
D52*
X123668100Y-88277700D03*
X124168099Y-88277700D03*
X124668100Y-88277700D03*
X125168099Y-88277700D03*
X125668101Y-88277700D03*
X126168100Y-88277700D03*
X126668099Y-88277700D03*
X127168100Y-88277700D03*
X127668100Y-88277700D03*
X128168101Y-88277700D03*
X128668100Y-88277700D03*
X129168099Y-88277700D03*
X129668101Y-88277700D03*
X130168100Y-88277700D03*
X130668101Y-88277700D03*
X131168100Y-88277700D03*
D51*
X133044200Y-86401600D03*
X133044200Y-85901601D03*
X133044200Y-85401600D03*
X133044200Y-84901601D03*
X133044200Y-84401599D03*
X133044200Y-83901600D03*
X133044200Y-83401601D03*
X133044200Y-82901600D03*
X133044200Y-82401600D03*
X133044200Y-81901599D03*
X133044200Y-81401600D03*
X133044200Y-80901601D03*
X133044200Y-80401599D03*
X133044200Y-79901600D03*
X133044200Y-79401599D03*
X133044200Y-78901600D03*
D52*
X131168100Y-77025500D03*
X130668101Y-77025500D03*
X130168100Y-77025500D03*
X129668101Y-77025500D03*
X129168099Y-77025500D03*
X128668100Y-77025500D03*
X128168101Y-77025500D03*
X127668100Y-77025500D03*
X127168100Y-77025500D03*
X126668099Y-77025500D03*
X126168100Y-77025500D03*
X125668101Y-77025500D03*
X125168099Y-77025500D03*
X124668100Y-77025500D03*
X124168099Y-77025500D03*
X123668100Y-77025500D03*
D12*
X120849100Y-114327100D03*
X120849100Y-116152100D03*
D15*
X125308800Y-90220800D03*
X123583800Y-90220800D03*
D42*
X170797100Y-83353600D03*
X170797100Y-87753600D03*
D12*
X165010100Y-91417600D03*
X165010100Y-93242600D03*
D38*
X140983600Y-102616000D03*
X142808600Y-102616000D03*
D53*
X139859100Y-117690600D03*
X139859100Y-118340600D03*
X139859100Y-118990600D03*
X139859100Y-119640600D03*
D54*
X142735100Y-119640600D03*
X142735100Y-118990600D03*
X142735100Y-118340600D03*
X142735100Y-117690600D03*
D55*
X141535100Y-118665600D03*
D12*
X120833100Y-105691100D03*
X120833100Y-107516100D03*
D19*
X108444100Y-92303600D03*
X110019100Y-92303600D03*
D56*
X152653100Y-91033600D03*
X141553100Y-91033600D03*
D42*
X117750300Y-128107600D03*
X117750300Y-123707600D03*
D39*
X147129600Y-98526600D03*
X148854600Y-98526600D03*
D16*
X113776400Y-92303600D03*
X111951400Y-92303600D03*
M02*
