  0
SECTION
  2
HEADER
  9
$ANGBASE
  50
0.0
  9
$ANGDIR
  70
1
  9
$MEASUREMENT
  70
1
  0
ENDSEC
  0
SECTION
  2
TABLES
  0
TABLE
  2
LTYPE
  70
4
  0
LTYPE
  5
40F
  2
CONTINUOUS
  70
0
  3
Solid line
  72
65
  73
0
  40
0.0
  0
LTYPE
  5
410
  2
DASHDOT
 70
0
  3
Dash Dot ____ _ ____ _
 72
65
 73
4
 40
2.0
 49
1.25
 49
-0.25
 49
0.25
 49
-0.25
  0
LTYPE
  5
411
  2
DASHED
 70
0
  3
Dashed __ __ __ __ __
 72
65
 73
2
 40
0.75
 49
0.5
 49
-0.25
  0
LTYPE
  5
43B
  2
DOTTED
 70
0
  3
Dotted .  .  .  .
 72
65
 73
2
 40
0.2
 49
0.0
 49
-0.2
  0
ENDTAB
  0
TABLE
  2
STYLE
  70
4
  0
STYLE
  2
KICAD
  70
0
  40
0
  41
1
  42
1
  50
0
  71
0
  3
isocp.shx
  0
STYLE
  2
KICADB
  70
0
  40
0
  41
1
  42
1
  50
0
  71
0
  3
isocp.shx
  0
STYLE
  2
KICADI
  70
0
  40
0
  41
1
  42
1
  50
15
  71
0
  3
isocp.shx
  0
STYLE
  2
KICADBI
  70
0
  40
0
  41
1
  42
1
  50
15
  71
0
  3
isocp.shx
  0
ENDTAB
  0
TABLE
  2
LAYER
  70
1
  0
LAYER
  2
BLACK
  70
0
  62
7
  6
CONTINUOUS
  0
ENDTAB
  0
ENDSEC
  0
SECTION
  2
ENTITIES
0
LINE
8
BLACK
6
CONTINUOUS
10
147.52
20
-100.61
11
147.598
21
-100.661
0
LINE
8
BLACK
6
CONTINUOUS
10
147.598
20
-100.661
11
147.649
21
-100.738
0
LINE
8
BLACK
6
CONTINUOUS
10
147.649
20
-100.738
11
147.667
21
-100.829
0
LINE
8
BLACK
6
CONTINUOUS
10
147.667
20
-100.829
11
147.667
21
-101.304
0
LINE
8
BLACK
6
CONTINUOUS
10
147.667
20
-101.304
11
147.649
21
-101.395
0
LINE
8
BLACK
6
CONTINUOUS
10
147.649
20
-101.395
11
147.598
21
-101.472
0
LINE
8
BLACK
6
CONTINUOUS
10
147.598
20
-101.472
11
147.52
21
-101.524
0
LINE
8
BLACK
6
CONTINUOUS
10
147.52
20
-101.524
11
147.43
21
-101.542
0
LINE
8
BLACK
6
CONTINUOUS
10
147.43
20
-101.542
11
146.83
21
-101.542
0
LINE
8
BLACK
6
CONTINUOUS
10
146.83
20
-101.542
11
146.739
21
-101.524
0
LINE
8
BLACK
6
CONTINUOUS
10
146.739
20
-101.524
11
146.662
21
-101.472
0
LINE
8
BLACK
6
CONTINUOUS
10
146.662
20
-101.472
11
146.61
21
-101.395
0
LINE
8
BLACK
6
CONTINUOUS
10
146.61
20
-101.395
11
146.592
21
-101.304
0
LINE
8
BLACK
6
CONTINUOUS
10
146.592
20
-101.304
11
146.592
21
-100.829
0
LINE
8
BLACK
6
CONTINUOUS
10
146.592
20
-100.829
11
146.61
21
-100.738
0
LINE
8
BLACK
6
CONTINUOUS
10
146.61
20
-100.738
11
146.662
21
-100.661
0
LINE
8
BLACK
6
CONTINUOUS
10
146.662
20
-100.661
11
146.739
21
-100.61
0
LINE
8
BLACK
6
CONTINUOUS
10
146.739
20
-100.61
11
146.83
21
-100.592
0
LINE
8
BLACK
6
CONTINUOUS
10
146.83
20
-100.592
11
147.43
21
-100.592
0
LINE
8
BLACK
6
CONTINUOUS
10
147.43
20
-100.592
11
147.52
21
-100.61
0
LINE
8
BLACK
6
CONTINUOUS
10
149.245
20
-100.61
11
149.323
21
-100.661
0
LINE
8
BLACK
6
CONTINUOUS
10
149.323
20
-100.661
11
149.374
21
-100.738
0
LINE
8
BLACK
6
CONTINUOUS
10
149.374
20
-100.738
11
149.392
21
-100.829
0
LINE
8
BLACK
6
CONTINUOUS
10
149.392
20
-100.829
11
149.392
21
-101.304
0
LINE
8
BLACK
6
CONTINUOUS
10
149.392
20
-101.304
11
149.374
21
-101.395
0
LINE
8
BLACK
6
CONTINUOUS
10
149.374
20
-101.395
11
149.323
21
-101.472
0
LINE
8
BLACK
6
CONTINUOUS
10
149.323
20
-101.472
11
149.245
21
-101.524
0
LINE
8
BLACK
6
CONTINUOUS
10
149.245
20
-101.524
11
149.155
21
-101.542
0
LINE
8
BLACK
6
CONTINUOUS
10
149.155
20
-101.542
11
148.555
21
-101.542
0
LINE
8
BLACK
6
CONTINUOUS
10
148.555
20
-101.542
11
148.464
21
-101.524
0
LINE
8
BLACK
6
CONTINUOUS
10
148.464
20
-101.524
11
148.387
21
-101.472
0
LINE
8
BLACK
6
CONTINUOUS
10
148.387
20
-101.472
11
148.335
21
-101.395
0
LINE
8
BLACK
6
CONTINUOUS
10
148.335
20
-101.395
11
148.317
21
-101.304
0
LINE
8
BLACK
6
CONTINUOUS
10
148.317
20
-101.304
11
148.317
21
-100.829
0
LINE
8
BLACK
6
CONTINUOUS
10
148.317
20
-100.829
11
148.335
21
-100.738
0
LINE
8
BLACK
6
CONTINUOUS
10
148.335
20
-100.738
11
148.387
21
-100.661
0
LINE
8
BLACK
6
CONTINUOUS
10
148.387
20
-100.661
11
148.464
21
-100.61
0
LINE
8
BLACK
6
CONTINUOUS
10
148.464
20
-100.61
11
148.555
21
-100.592
0
LINE
8
BLACK
6
CONTINUOUS
10
148.555
20
-100.592
11
149.155
21
-100.592
0
LINE
8
BLACK
6
CONTINUOUS
10
149.155
20
-100.592
11
149.245
21
-100.61
0
LINE
8
BLACK
6
CONTINUOUS
10
166.735
20
-98.4887
11
166.813
21
-98.5402
0
LINE
8
BLACK
6
CONTINUOUS
10
166.813
20
-98.5402
11
166.864
21
-98.6172
0
LINE
8
BLACK
6
CONTINUOUS
10
166.864
20
-98.6172
11
166.882
21
-98.7081
0
LINE
8
BLACK
6
CONTINUOUS
10
166.882
20
-98.7081
11
166.882
21
-99.3081
0
LINE
8
BLACK
6
CONTINUOUS
10
166.882
20
-99.3081
11
166.864
21
-99.399
0
LINE
8
BLACK
6
CONTINUOUS
10
166.864
20
-99.399
11
166.813
21
-99.476
0
LINE
8
BLACK
6
CONTINUOUS
10
166.813
20
-99.476
11
166.735
21
-99.5275
0
LINE
8
BLACK
6
CONTINUOUS
10
166.735
20
-99.5275
11
166.645
21
-99.5456
0
LINE
8
BLACK
6
CONTINUOUS
10
166.645
20
-99.5456
11
166.17
21
-99.5456
0
LINE
8
BLACK
6
CONTINUOUS
10
166.17
20
-99.5456
11
166.079
21
-99.5275
0
LINE
8
BLACK
6
CONTINUOUS
10
166.079
20
-99.5275
11
166.002
21
-99.476
0
LINE
8
BLACK
6
CONTINUOUS
10
166.002
20
-99.476
11
165.95
21
-99.399
0
LINE
8
BLACK
6
CONTINUOUS
10
165.95
20
-99.399
11
165.932
21
-99.3081
0
LINE
8
BLACK
6
CONTINUOUS
10
165.932
20
-99.3081
11
165.932
21
-98.7081
0
LINE
8
BLACK
6
CONTINUOUS
10
165.932
20
-98.7081
11
165.95
21
-98.6172
0
LINE
8
BLACK
6
CONTINUOUS
10
165.95
20
-98.6172
11
166.002
21
-98.5402
0
LINE
8
BLACK
6
CONTINUOUS
10
166.002
20
-98.5402
11
166.079
21
-98.4887
0
LINE
8
BLACK
6
CONTINUOUS
10
166.079
20
-98.4887
11
166.17
21
-98.4706
0
LINE
8
BLACK
6
CONTINUOUS
10
166.17
20
-98.4706
11
166.645
21
-98.4706
0
LINE
8
BLACK
6
CONTINUOUS
10
166.645
20
-98.4706
11
166.735
21
-98.4887
0
LINE
8
BLACK
6
CONTINUOUS
10
166.735
20
-96.7637
11
166.813
21
-96.8152
0
LINE
8
BLACK
6
CONTINUOUS
10
166.813
20
-96.8152
11
166.864
21
-96.8922
0
LINE
8
BLACK
6
CONTINUOUS
10
166.864
20
-96.8922
11
166.882
21
-96.9831
0
LINE
8
BLACK
6
CONTINUOUS
10
166.882
20
-96.9831
11
166.882
21
-97.5831
0
LINE
8
BLACK
6
CONTINUOUS
10
166.882
20
-97.5831
11
166.864
21
-97.674
0
LINE
8
BLACK
6
CONTINUOUS
10
166.864
20
-97.674
11
166.813
21
-97.751
0
LINE
8
BLACK
6
CONTINUOUS
10
166.813
20
-97.751
11
166.735
21
-97.8025
0
LINE
8
BLACK
6
CONTINUOUS
10
166.735
20
-97.8025
11
166.645
21
-97.8206
0
LINE
8
BLACK
6
CONTINUOUS
10
166.645
20
-97.8206
11
166.17
21
-97.8206
0
LINE
8
BLACK
6
CONTINUOUS
10
166.17
20
-97.8206
11
166.079
21
-97.8025
0
LINE
8
BLACK
6
CONTINUOUS
10
166.079
20
-97.8025
11
166.002
21
-97.751
0
LINE
8
BLACK
6
CONTINUOUS
10
166.002
20
-97.751
11
165.95
21
-97.674
0
LINE
8
BLACK
6
CONTINUOUS
10
165.95
20
-97.674
11
165.932
21
-97.5831
0
LINE
8
BLACK
6
CONTINUOUS
10
165.932
20
-97.5831
11
165.932
21
-96.9831
0
LINE
8
BLACK
6
CONTINUOUS
10
165.932
20
-96.9831
11
165.95
21
-96.8922
0
LINE
8
BLACK
6
CONTINUOUS
10
165.95
20
-96.8922
11
166.002
21
-96.8152
0
LINE
8
BLACK
6
CONTINUOUS
10
166.002
20
-96.8152
11
166.079
21
-96.7637
0
LINE
8
BLACK
6
CONTINUOUS
10
166.079
20
-96.7637
11
166.17
21
-96.7456
0
LINE
8
BLACK
6
CONTINUOUS
10
166.17
20
-96.7456
11
166.645
21
-96.7456
0
LINE
8
BLACK
6
CONTINUOUS
10
166.645
20
-96.7456
11
166.735
21
-96.7637
0
LINE
8
BLACK
6
CONTINUOUS
10
120.397
20
-88.6856
11
119.397
21
-88.6856
0
LINE
8
BLACK
6
CONTINUOUS
10
119.397
20
-88.6856
11
119.397
21
-87.2856
0
LINE
8
BLACK
6
CONTINUOUS
10
119.397
20
-87.2856
11
120.397
21
-87.2856
0
LINE
8
BLACK
6
CONTINUOUS
10
120.397
20
-87.2856
11
120.397
21
-88.6856
0
LINE
8
BLACK
6
CONTINUOUS
10
122.197
20
-88.6856
11
121.197
21
-88.6856
0
LINE
8
BLACK
6
CONTINUOUS
10
121.197
20
-88.6856
11
121.197
21
-87.2856
0
LINE
8
BLACK
6
CONTINUOUS
10
121.197
20
-87.2856
11
122.197
21
-87.2856
0
LINE
8
BLACK
6
CONTINUOUS
10
122.197
20
-87.2856
11
122.197
21
-88.6856
0
LINE
8
BLACK
6
CONTINUOUS
10
130.452
20
-87.9097
11
130.529
21
-87.9612
0
LINE
8
BLACK
6
CONTINUOUS
10
130.529
20
-87.9612
11
130.58
21
-88.0382
0
LINE
8
BLACK
6
CONTINUOUS
10
130.58
20
-88.0382
11
130.598
21
-88.1291
0
LINE
8
BLACK
6
CONTINUOUS
10
130.598
20
-88.1291
11
130.598
21
-88.6041
0
LINE
8
BLACK
6
CONTINUOUS
10
130.598
20
-88.6041
11
130.58
21
-88.695
0
LINE
8
BLACK
6
CONTINUOUS
10
130.58
20
-88.695
11
130.529
21
-88.772
0
LINE
8
BLACK
6
CONTINUOUS
10
130.529
20
-88.772
11
130.452
21
-88.8235
0
LINE
8
BLACK
6
CONTINUOUS
10
130.452
20
-88.8235
11
130.361
21
-88.8416
0
LINE
8
BLACK
6
CONTINUOUS
10
130.361
20
-88.8416
11
129.761
21
-88.8416
0
LINE
8
BLACK
6
CONTINUOUS
10
129.761
20
-88.8416
11
129.67
21
-88.8235
0
LINE
8
BLACK
6
CONTINUOUS
10
129.67
20
-88.8235
11
129.593
21
-88.772
0
LINE
8
BLACK
6
CONTINUOUS
10
129.593
20
-88.772
11
129.541
21
-88.695
0
LINE
8
BLACK
6
CONTINUOUS
10
129.541
20
-88.695
11
129.523
21
-88.6041
0
LINE
8
BLACK
6
CONTINUOUS
10
129.523
20
-88.6041
11
129.523
21
-88.1291
0
LINE
8
BLACK
6
CONTINUOUS
10
129.523
20
-88.1291
11
129.541
21
-88.0382
0
LINE
8
BLACK
6
CONTINUOUS
10
129.541
20
-88.0382
11
129.593
21
-87.9612
0
LINE
8
BLACK
6
CONTINUOUS
10
129.593
20
-87.9612
11
129.67
21
-87.9097
0
LINE
8
BLACK
6
CONTINUOUS
10
129.67
20
-87.9097
11
129.761
21
-87.8916
0
LINE
8
BLACK
6
CONTINUOUS
10
129.761
20
-87.8916
11
130.361
21
-87.8916
0
LINE
8
BLACK
6
CONTINUOUS
10
130.361
20
-87.8916
11
130.452
21
-87.9097
0
LINE
8
BLACK
6
CONTINUOUS
10
132.177
20
-87.9097
11
132.254
21
-87.9612
0
LINE
8
BLACK
6
CONTINUOUS
10
132.254
20
-87.9612
11
132.305
21
-88.0382
0
LINE
8
BLACK
6
CONTINUOUS
10
132.305
20
-88.0382
11
132.323
21
-88.1291
0
LINE
8
BLACK
6
CONTINUOUS
10
132.323
20
-88.1291
11
132.323
21
-88.6041
0
LINE
8
BLACK
6
CONTINUOUS
10
132.323
20
-88.6041
11
132.305
21
-88.695
0
LINE
8
BLACK
6
CONTINUOUS
10
132.305
20
-88.695
11
132.254
21
-88.772
0
LINE
8
BLACK
6
CONTINUOUS
10
132.254
20
-88.772
11
132.177
21
-88.8235
0
LINE
8
BLACK
6
CONTINUOUS
10
132.177
20
-88.8235
11
132.086
21
-88.8416
0
LINE
8
BLACK
6
CONTINUOUS
10
132.086
20
-88.8416
11
131.486
21
-88.8416
0
LINE
8
BLACK
6
CONTINUOUS
10
131.486
20
-88.8416
11
131.395
21
-88.8235
0
LINE
8
BLACK
6
CONTINUOUS
10
131.395
20
-88.8235
11
131.318
21
-88.772
0
LINE
8
BLACK
6
CONTINUOUS
10
131.318
20
-88.772
11
131.266
21
-88.695
0
LINE
8
BLACK
6
CONTINUOUS
10
131.266
20
-88.695
11
131.248
21
-88.6041
0
LINE
8
BLACK
6
CONTINUOUS
10
131.248
20
-88.6041
11
131.248
21
-88.1291
0
LINE
8
BLACK
6
CONTINUOUS
10
131.248
20
-88.1291
11
131.266
21
-88.0382
0
LINE
8
BLACK
6
CONTINUOUS
10
131.266
20
-88.0382
11
131.318
21
-87.9612
0
LINE
8
BLACK
6
CONTINUOUS
10
131.318
20
-87.9612
11
131.395
21
-87.9097
0
LINE
8
BLACK
6
CONTINUOUS
10
131.395
20
-87.9097
11
131.486
21
-87.8916
0
LINE
8
BLACK
6
CONTINUOUS
10
131.486
20
-87.8916
11
132.086
21
-87.8916
0
LINE
8
BLACK
6
CONTINUOUS
10
132.086
20
-87.8916
11
132.177
21
-87.9097
0
LINE
8
BLACK
6
CONTINUOUS
10
120.025
20
-85.0013
11
120.102
21
-85.0528
0
LINE
8
BLACK
6
CONTINUOUS
10
120.102
20
-85.0528
11
120.153
21
-85.1298
0
LINE
8
BLACK
6
CONTINUOUS
10
120.153
20
-85.1298
11
120.171
21
-85.2207
0
LINE
8
BLACK
6
CONTINUOUS
10
120.171
20
-85.2207
11
120.171
21
-85.8207
0
LINE
8
BLACK
6
CONTINUOUS
10
120.171
20
-85.8207
11
120.153
21
-85.9116
0
LINE
8
BLACK
6
CONTINUOUS
10
120.153
20
-85.9116
11
120.102
21
-85.9886
0
LINE
8
BLACK
6
CONTINUOUS
10
120.102
20
-85.9886
11
120.025
21
-86.0401
0
LINE
8
BLACK
6
CONTINUOUS
10
120.025
20
-86.0401
11
119.934
21
-86.0582
0
LINE
8
BLACK
6
CONTINUOUS
10
119.934
20
-86.0582
11
119.459
21
-86.0582
0
LINE
8
BLACK
6
CONTINUOUS
10
119.459
20
-86.0582
11
119.368
21
-86.0401
0
LINE
8
BLACK
6
CONTINUOUS
10
119.368
20
-86.0401
11
119.291
21
-85.9886
0
LINE
8
BLACK
6
CONTINUOUS
10
119.291
20
-85.9886
11
119.24
21
-85.9116
0
LINE
8
BLACK
6
CONTINUOUS
10
119.24
20
-85.9116
11
119.221
21
-85.8207
0
LINE
8
BLACK
6
CONTINUOUS
10
119.221
20
-85.8207
11
119.221
21
-85.2207
0
LINE
8
BLACK
6
CONTINUOUS
10
119.221
20
-85.2207
11
119.24
21
-85.1298
0
LINE
8
BLACK
6
CONTINUOUS
10
119.24
20
-85.1298
11
119.291
21
-85.0528
0
LINE
8
BLACK
6
CONTINUOUS
10
119.291
20
-85.0528
11
119.368
21
-85.0013
0
LINE
8
BLACK
6
CONTINUOUS
10
119.368
20
-85.0013
11
119.459
21
-84.9832
0
LINE
8
BLACK
6
CONTINUOUS
10
119.459
20
-84.9832
11
119.934
21
-84.9832
0
LINE
8
BLACK
6
CONTINUOUS
10
119.934
20
-84.9832
11
120.025
21
-85.0013
0
LINE
8
BLACK
6
CONTINUOUS
10
122.031
20
-85.0013
11
122.109
21
-85.0528
0
LINE
8
BLACK
6
CONTINUOUS
10
122.109
20
-85.0528
11
122.16
21
-85.1298
0
LINE
8
BLACK
6
CONTINUOUS
10
122.16
20
-85.1298
11
122.178
21
-85.2207
0
LINE
8
BLACK
6
CONTINUOUS
10
122.178
20
-85.2207
11
122.178
21
-85.8207
0
LINE
8
BLACK
6
CONTINUOUS
10
122.178
20
-85.8207
11
122.16
21
-85.9116
0
LINE
8
BLACK
6
CONTINUOUS
10
122.16
20
-85.9116
11
122.109
21
-85.9886
0
LINE
8
BLACK
6
CONTINUOUS
10
122.109
20
-85.9886
11
122.031
21
-86.0401
0
LINE
8
BLACK
6
CONTINUOUS
10
122.031
20
-86.0401
11
121.941
21
-86.0582
0
LINE
8
BLACK
6
CONTINUOUS
10
121.941
20
-86.0582
11
121.466
21
-86.0582
0
LINE
8
BLACK
6
CONTINUOUS
10
121.466
20
-86.0582
11
121.375
21
-86.0401
0
LINE
8
BLACK
6
CONTINUOUS
10
121.375
20
-86.0401
11
121.298
21
-85.9886
0
LINE
8
BLACK
6
CONTINUOUS
10
121.298
20
-85.9886
11
121.246
21
-85.9116
0
LINE
8
BLACK
6
CONTINUOUS
10
121.246
20
-85.9116
11
121.228
21
-85.8207
0
LINE
8
BLACK
6
CONTINUOUS
10
121.228
20
-85.8207
11
121.228
21
-85.2207
0
LINE
8
BLACK
6
CONTINUOUS
10
121.228
20
-85.2207
11
121.246
21
-85.1298
0
LINE
8
BLACK
6
CONTINUOUS
10
121.246
20
-85.1298
11
121.298
21
-85.0528
0
LINE
8
BLACK
6
CONTINUOUS
10
121.298
20
-85.0528
11
121.375
21
-85.0013
0
LINE
8
BLACK
6
CONTINUOUS
10
121.375
20
-85.0013
11
121.466
21
-84.9832
0
LINE
8
BLACK
6
CONTINUOUS
10
121.466
20
-84.9832
11
121.941
21
-84.9832
0
LINE
8
BLACK
6
CONTINUOUS
10
121.941
20
-84.9832
11
122.031
21
-85.0013
0
LINE
8
BLACK
6
CONTINUOUS
10
120.025
20
-83.2763
11
120.102
21
-83.3278
0
LINE
8
BLACK
6
CONTINUOUS
10
120.102
20
-83.3278
11
120.153
21
-83.4048
0
LINE
8
BLACK
6
CONTINUOUS
10
120.153
20
-83.4048
11
120.171
21
-83.4957
0
LINE
8
BLACK
6
CONTINUOUS
10
120.171
20
-83.4957
11
120.171
21
-84.0957
0
LINE
8
BLACK
6
CONTINUOUS
10
120.171
20
-84.0957
11
120.153
21
-84.1866
0
LINE
8
BLACK
6
CONTINUOUS
10
120.153
20
-84.1866
11
120.102
21
-84.2636
0
LINE
8
BLACK
6
CONTINUOUS
10
120.102
20
-84.2636
11
120.025
21
-84.3151
0
LINE
8
BLACK
6
CONTINUOUS
10
120.025
20
-84.3151
11
119.934
21
-84.3332
0
LINE
8
BLACK
6
CONTINUOUS
10
119.934
20
-84.3332
11
119.459
21
-84.3332
0
LINE
8
BLACK
6
CONTINUOUS
10
119.459
20
-84.3332
11
119.368
21
-84.3151
0
LINE
8
BLACK
6
CONTINUOUS
10
119.368
20
-84.3151
11
119.291
21
-84.2636
0
LINE
8
BLACK
6
CONTINUOUS
10
119.291
20
-84.2636
11
119.24
21
-84.1866
0
LINE
8
BLACK
6
CONTINUOUS
10
119.24
20
-84.1866
11
119.221
21
-84.0957
0
LINE
8
BLACK
6
CONTINUOUS
10
119.221
20
-84.0957
11
119.221
21
-83.4957
0
LINE
8
BLACK
6
CONTINUOUS
10
119.221
20
-83.4957
11
119.24
21
-83.4048
0
LINE
8
BLACK
6
CONTINUOUS
10
119.24
20
-83.4048
11
119.291
21
-83.3278
0
LINE
8
BLACK
6
CONTINUOUS
10
119.291
20
-83.3278
11
119.368
21
-83.2763
0
LINE
8
BLACK
6
CONTINUOUS
10
119.368
20
-83.2763
11
119.459
21
-83.2582
0
LINE
8
BLACK
6
CONTINUOUS
10
119.459
20
-83.2582
11
119.934
21
-83.2582
0
LINE
8
BLACK
6
CONTINUOUS
10
119.934
20
-83.2582
11
120.025
21
-83.2763
0
LINE
8
BLACK
6
CONTINUOUS
10
122.031
20
-83.2763
11
122.109
21
-83.3278
0
LINE
8
BLACK
6
CONTINUOUS
10
122.109
20
-83.3278
11
122.16
21
-83.4048
0
LINE
8
BLACK
6
CONTINUOUS
10
122.16
20
-83.4048
11
122.178
21
-83.4957
0
LINE
8
BLACK
6
CONTINUOUS
10
122.178
20
-83.4957
11
122.178
21
-84.0957
0
LINE
8
BLACK
6
CONTINUOUS
10
122.178
20
-84.0957
11
122.16
21
-84.1866
0
LINE
8
BLACK
6
CONTINUOUS
10
122.16
20
-84.1866
11
122.109
21
-84.2636
0
LINE
8
BLACK
6
CONTINUOUS
10
122.109
20
-84.2636
11
122.031
21
-84.3151
0
LINE
8
BLACK
6
CONTINUOUS
10
122.031
20
-84.3151
11
121.941
21
-84.3332
0
LINE
8
BLACK
6
CONTINUOUS
10
121.941
20
-84.3332
11
121.466
21
-84.3332
0
LINE
8
BLACK
6
CONTINUOUS
10
121.466
20
-84.3332
11
121.375
21
-84.3151
0
LINE
8
BLACK
6
CONTINUOUS
10
121.375
20
-84.3151
11
121.298
21
-84.2636
0
LINE
8
BLACK
6
CONTINUOUS
10
121.298
20
-84.2636
11
121.246
21
-84.1866
0
LINE
8
BLACK
6
CONTINUOUS
10
121.246
20
-84.1866
11
121.228
21
-84.0957
0
LINE
8
BLACK
6
CONTINUOUS
10
121.228
20
-84.0957
11
121.228
21
-83.4957
0
LINE
8
BLACK
6
CONTINUOUS
10
121.228
20
-83.4957
11
121.246
21
-83.4048
0
LINE
8
BLACK
6
CONTINUOUS
10
121.246
20
-83.4048
11
121.298
21
-83.3278
0
LINE
8
BLACK
6
CONTINUOUS
10
121.298
20
-83.3278
11
121.375
21
-83.2763
0
LINE
8
BLACK
6
CONTINUOUS
10
121.375
20
-83.2763
11
121.466
21
-83.2582
0
LINE
8
BLACK
6
CONTINUOUS
10
121.466
20
-83.2582
11
121.941
21
-83.2582
0
LINE
8
BLACK
6
CONTINUOUS
10
121.941
20
-83.2582
11
122.031
21
-83.2763
0
LINE
8
BLACK
6
CONTINUOUS
10
120.088
20
-81.4581
11
120.166
21
-81.5096
0
LINE
8
BLACK
6
CONTINUOUS
10
120.166
20
-81.5096
11
120.217
21
-81.5866
0
LINE
8
BLACK
6
CONTINUOUS
10
120.217
20
-81.5866
11
120.235
21
-81.6775
0
LINE
8
BLACK
6
CONTINUOUS
10
120.235
20
-81.6775
11
120.235
21
-82.1525
0
LINE
8
BLACK
6
CONTINUOUS
10
120.235
20
-82.1525
11
120.217
21
-82.2434
0
LINE
8
BLACK
6
CONTINUOUS
10
120.217
20
-82.2434
11
120.166
21
-82.3204
0
LINE
8
BLACK
6
CONTINUOUS
10
120.166
20
-82.3204
11
120.088
21
-82.3719
0
LINE
8
BLACK
6
CONTINUOUS
10
120.088
20
-82.3719
11
119.998
21
-82.39
0
LINE
8
BLACK
6
CONTINUOUS
10
119.998
20
-82.39
11
119.398
21
-82.39
0
LINE
8
BLACK
6
CONTINUOUS
10
119.398
20
-82.39
11
119.307
21
-82.3719
0
LINE
8
BLACK
6
CONTINUOUS
10
119.307
20
-82.3719
11
119.23
21
-82.3204
0
LINE
8
BLACK
6
CONTINUOUS
10
119.23
20
-82.3204
11
119.178
21
-82.2434
0
LINE
8
BLACK
6
CONTINUOUS
10
119.178
20
-82.2434
11
119.16
21
-82.1525
0
LINE
8
BLACK
6
CONTINUOUS
10
119.16
20
-82.1525
11
119.16
21
-81.6775
0
LINE
8
BLACK
6
CONTINUOUS
10
119.16
20
-81.6775
11
119.178
21
-81.5866
0
LINE
8
BLACK
6
CONTINUOUS
10
119.178
20
-81.5866
11
119.23
21
-81.5096
0
LINE
8
BLACK
6
CONTINUOUS
10
119.23
20
-81.5096
11
119.307
21
-81.4581
0
LINE
8
BLACK
6
CONTINUOUS
10
119.307
20
-81.4581
11
119.398
21
-81.44
0
LINE
8
BLACK
6
CONTINUOUS
10
119.398
20
-81.44
11
119.998
21
-81.44
0
LINE
8
BLACK
6
CONTINUOUS
10
119.998
20
-81.44
11
120.088
21
-81.4581
0
LINE
8
BLACK
6
CONTINUOUS
10
121.813
20
-81.4581
11
121.891
21
-81.5096
0
LINE
8
BLACK
6
CONTINUOUS
10
121.891
20
-81.5096
11
121.942
21
-81.5866
0
LINE
8
BLACK
6
CONTINUOUS
10
121.942
20
-81.5866
11
121.96
21
-81.6775
0
LINE
8
BLACK
6
CONTINUOUS
10
121.96
20
-81.6775
11
121.96
21
-82.1525
0
LINE
8
BLACK
6
CONTINUOUS
10
121.96
20
-82.1525
11
121.942
21
-82.2434
0
LINE
8
BLACK
6
CONTINUOUS
10
121.942
20
-82.2434
11
121.891
21
-82.3204
0
LINE
8
BLACK
6
CONTINUOUS
10
121.891
20
-82.3204
11
121.813
21
-82.3719
0
LINE
8
BLACK
6
CONTINUOUS
10
121.813
20
-82.3719
11
121.723
21
-82.39
0
LINE
8
BLACK
6
CONTINUOUS
10
121.723
20
-82.39
11
121.123
21
-82.39
0
LINE
8
BLACK
6
CONTINUOUS
10
121.123
20
-82.39
11
121.032
21
-82.3719
0
LINE
8
BLACK
6
CONTINUOUS
10
121.032
20
-82.3719
11
120.955
21
-82.3204
0
LINE
8
BLACK
6
CONTINUOUS
10
120.955
20
-82.3204
11
120.903
21
-82.2434
0
LINE
8
BLACK
6
CONTINUOUS
10
120.903
20
-82.2434
11
120.885
21
-82.1525
0
LINE
8
BLACK
6
CONTINUOUS
10
120.885
20
-82.1525
11
120.885
21
-81.6775
0
LINE
8
BLACK
6
CONTINUOUS
10
120.885
20
-81.6775
11
120.903
21
-81.5866
0
LINE
8
BLACK
6
CONTINUOUS
10
120.903
20
-81.5866
11
120.955
21
-81.5096
0
LINE
8
BLACK
6
CONTINUOUS
10
120.955
20
-81.5096
11
121.032
21
-81.4581
0
LINE
8
BLACK
6
CONTINUOUS
10
121.032
20
-81.4581
11
121.123
21
-81.44
0
LINE
8
BLACK
6
CONTINUOUS
10
121.123
20
-81.44
11
121.723
21
-81.44
0
LINE
8
BLACK
6
CONTINUOUS
10
121.723
20
-81.44
11
121.813
21
-81.4581
0
LINE
8
BLACK
6
CONTINUOUS
10
133.461
20
-79.4895
11
133.539
21
-79.541
0
LINE
8
BLACK
6
CONTINUOUS
10
133.539
20
-79.541
11
133.59
21
-79.618
0
LINE
8
BLACK
6
CONTINUOUS
10
133.59
20
-79.618
11
133.608
21
-79.7089
0
LINE
8
BLACK
6
CONTINUOUS
10
133.608
20
-79.7089
11
133.608
21
-80.3089
0
LINE
8
BLACK
6
CONTINUOUS
10
133.608
20
-80.3089
11
133.59
21
-80.3998
0
LINE
8
BLACK
6
CONTINUOUS
10
133.59
20
-80.3998
11
133.539
21
-80.4768
0
LINE
8
BLACK
6
CONTINUOUS
10
133.539
20
-80.4768
11
133.461
21
-80.5283
0
LINE
8
BLACK
6
CONTINUOUS
10
133.461
20
-80.5283
11
133.371
21
-80.5464
0
LINE
8
BLACK
6
CONTINUOUS
10
133.371
20
-80.5464
11
132.896
21
-80.5464
0
LINE
8
BLACK
6
CONTINUOUS
10
132.896
20
-80.5464
11
132.805
21
-80.5283
0
LINE
8
BLACK
6
CONTINUOUS
10
132.805
20
-80.5283
11
132.728
21
-80.4768
0
LINE
8
BLACK
6
CONTINUOUS
10
132.728
20
-80.4768
11
132.676
21
-80.3998
0
LINE
8
BLACK
6
CONTINUOUS
10
132.676
20
-80.3998
11
132.658
21
-80.3089
0
LINE
8
BLACK
6
CONTINUOUS
10
132.658
20
-80.3089
11
132.658
21
-79.7089
0
LINE
8
BLACK
6
CONTINUOUS
10
132.658
20
-79.7089
11
132.676
21
-79.618
0
LINE
8
BLACK
6
CONTINUOUS
10
132.676
20
-79.618
11
132.728
21
-79.541
0
LINE
8
BLACK
6
CONTINUOUS
10
132.728
20
-79.541
11
132.805
21
-79.4895
0
LINE
8
BLACK
6
CONTINUOUS
10
132.805
20
-79.4895
11
132.896
21
-79.4714
0
LINE
8
BLACK
6
CONTINUOUS
10
132.896
20
-79.4714
11
133.371
21
-79.4714
0
LINE
8
BLACK
6
CONTINUOUS
10
133.371
20
-79.4714
11
133.461
21
-79.4895
0
LINE
8
BLACK
6
CONTINUOUS
10
133.461
20
-77.7645
11
133.539
21
-77.816
0
LINE
8
BLACK
6
CONTINUOUS
10
133.539
20
-77.816
11
133.59
21
-77.893
0
LINE
8
BLACK
6
CONTINUOUS
10
133.59
20
-77.893
11
133.608
21
-77.9839
0
LINE
8
BLACK
6
CONTINUOUS
10
133.608
20
-77.9839
11
133.608
21
-78.5839
0
LINE
8
BLACK
6
CONTINUOUS
10
133.608
20
-78.5839
11
133.59
21
-78.6748
0
LINE
8
BLACK
6
CONTINUOUS
10
133.59
20
-78.6748
11
133.539
21
-78.7518
0
LINE
8
BLACK
6
CONTINUOUS
10
133.539
20
-78.7518
11
133.461
21
-78.8033
0
LINE
8
BLACK
6
CONTINUOUS
10
133.461
20
-78.8033
11
133.371
21
-78.8214
0
LINE
8
BLACK
6
CONTINUOUS
10
133.371
20
-78.8214
11
132.896
21
-78.8214
0
LINE
8
BLACK
6
CONTINUOUS
10
132.896
20
-78.8214
11
132.805
21
-78.8033
0
LINE
8
BLACK
6
CONTINUOUS
10
132.805
20
-78.8033
11
132.728
21
-78.7518
0
LINE
8
BLACK
6
CONTINUOUS
10
132.728
20
-78.7518
11
132.676
21
-78.6748
0
LINE
8
BLACK
6
CONTINUOUS
10
132.676
20
-78.6748
11
132.658
21
-78.5839
0
LINE
8
BLACK
6
CONTINUOUS
10
132.658
20
-78.5839
11
132.658
21
-77.9839
0
LINE
8
BLACK
6
CONTINUOUS
10
132.658
20
-77.9839
11
132.676
21
-77.893
0
LINE
8
BLACK
6
CONTINUOUS
10
132.676
20
-77.893
11
132.728
21
-77.816
0
LINE
8
BLACK
6
CONTINUOUS
10
132.728
20
-77.816
11
132.805
21
-77.7645
0
LINE
8
BLACK
6
CONTINUOUS
10
132.805
20
-77.7645
11
132.896
21
-77.7464
0
LINE
8
BLACK
6
CONTINUOUS
10
132.896
20
-77.7464
11
133.371
21
-77.7464
0
LINE
8
BLACK
6
CONTINUOUS
10
133.371
20
-77.7464
11
133.461
21
-77.7645
0
LINE
8
BLACK
6
CONTINUOUS
10
123.444
20
-76.4899
11
123.521
21
-76.5414
0
LINE
8
BLACK
6
CONTINUOUS
10
123.521
20
-76.5414
11
123.573
21
-76.6184
0
LINE
8
BLACK
6
CONTINUOUS
10
123.573
20
-76.6184
11
123.591
21
-76.7093
0
LINE
8
BLACK
6
CONTINUOUS
10
123.591
20
-76.7093
11
123.591
21
-77.1843
0
LINE
8
BLACK
6
CONTINUOUS
10
123.591
20
-77.1843
11
123.573
21
-77.2752
0
LINE
8
BLACK
6
CONTINUOUS
10
123.573
20
-77.2752
11
123.521
21
-77.3522
0
LINE
8
BLACK
6
CONTINUOUS
10
123.521
20
-77.3522
11
123.444
21
-77.4037
0
LINE
8
BLACK
6
CONTINUOUS
10
123.444
20
-77.4037
11
123.353
21
-77.4218
0
LINE
8
BLACK
6
CONTINUOUS
10
123.353
20
-77.4218
11
122.753
21
-77.4218
0
LINE
8
BLACK
6
CONTINUOUS
10
122.753
20
-77.4218
11
122.663
21
-77.4037
0
LINE
8
BLACK
6
CONTINUOUS
10
122.663
20
-77.4037
11
122.585
21
-77.3522
0
LINE
8
BLACK
6
CONTINUOUS
10
122.585
20
-77.3522
11
122.534
21
-77.2752
0
LINE
8
BLACK
6
CONTINUOUS
10
122.534
20
-77.2752
11
122.516
21
-77.1843
0
LINE
8
BLACK
6
CONTINUOUS
10
122.516
20
-77.1843
11
122.516
21
-76.7093
0
LINE
8
BLACK
6
CONTINUOUS
10
122.516
20
-76.7093
11
122.534
21
-76.6184
0
LINE
8
BLACK
6
CONTINUOUS
10
122.534
20
-76.6184
11
122.585
21
-76.5414
0
LINE
8
BLACK
6
CONTINUOUS
10
122.585
20
-76.5414
11
122.663
21
-76.4899
0
LINE
8
BLACK
6
CONTINUOUS
10
122.663
20
-76.4899
11
122.753
21
-76.4718
0
LINE
8
BLACK
6
CONTINUOUS
10
122.753
20
-76.4718
11
123.353
21
-76.4718
0
LINE
8
BLACK
6
CONTINUOUS
10
123.353
20
-76.4718
11
123.444
21
-76.4899
0
LINE
8
BLACK
6
CONTINUOUS
10
125.169
20
-76.4899
11
125.246
21
-76.5414
0
LINE
8
BLACK
6
CONTINUOUS
10
125.246
20
-76.5414
11
125.298
21
-76.6184
0
LINE
8
BLACK
6
CONTINUOUS
10
125.298
20
-76.6184
11
125.316
21
-76.7093
0
LINE
8
BLACK
6
CONTINUOUS
10
125.316
20
-76.7093
11
125.316
21
-77.1843
0
LINE
8
BLACK
6
CONTINUOUS
10
125.316
20
-77.1843
11
125.298
21
-77.2752
0
LINE
8
BLACK
6
CONTINUOUS
10
125.298
20
-77.2752
11
125.246
21
-77.3522
0
LINE
8
BLACK
6
CONTINUOUS
10
125.246
20
-77.3522
11
125.169
21
-77.4037
0
LINE
8
BLACK
6
CONTINUOUS
10
125.169
20
-77.4037
11
125.078
21
-77.4218
0
LINE
8
BLACK
6
CONTINUOUS
10
125.078
20
-77.4218
11
124.478
21
-77.4218
0
LINE
8
BLACK
6
CONTINUOUS
10
124.478
20
-77.4218
11
124.388
21
-77.4037
0
LINE
8
BLACK
6
CONTINUOUS
10
124.388
20
-77.4037
11
124.31
21
-77.3522
0
LINE
8
BLACK
6
CONTINUOUS
10
124.31
20
-77.3522
11
124.259
21
-77.2752
0
LINE
8
BLACK
6
CONTINUOUS
10
124.259
20
-77.2752
11
124.241
21
-77.1843
0
LINE
8
BLACK
6
CONTINUOUS
10
124.241
20
-77.1843
11
124.241
21
-76.7093
0
LINE
8
BLACK
6
CONTINUOUS
10
124.241
20
-76.7093
11
124.259
21
-76.6184
0
LINE
8
BLACK
6
CONTINUOUS
10
124.259
20
-76.6184
11
124.31
21
-76.5414
0
LINE
8
BLACK
6
CONTINUOUS
10
124.31
20
-76.5414
11
124.388
21
-76.4899
0
LINE
8
BLACK
6
CONTINUOUS
10
124.388
20
-76.4899
11
124.478
21
-76.4718
0
LINE
8
BLACK
6
CONTINUOUS
10
124.478
20
-76.4718
11
125.078
21
-76.4718
0
LINE
8
BLACK
6
CONTINUOUS
10
125.078
20
-76.4718
11
125.169
21
-76.4899
  0
ENDSEC
  0
EOF
