G04 #@! TF.GenerationSoftware,KiCad,Pcbnew,7.0.2-6a45011f42~172~ubuntu20.04.1*
G04 #@! TF.CreationDate,2023-05-04T18:05:18+02:00*
G04 #@! TF.ProjectId,EPS,4550532e-6b69-4636-9164-5f7063625858,v1.0.1*
G04 #@! TF.SameCoordinates,Original*
G04 #@! TF.FileFunction,Soldermask,Bot*
G04 #@! TF.FilePolarity,Negative*
%FSLAX46Y46*%
G04 Gerber Fmt 4.6, Leading zero omitted, Abs format (unit mm)*
G04 Created by KiCad (PCBNEW 7.0.2-6a45011f42~172~ubuntu20.04.1) date 2023-05-04 18:05:18*
%MOMM*%
%LPD*%
G01*
G04 APERTURE LIST*
G04 Aperture macros list*
%AMRoundRect*
0 Rectangle with rounded corners*
0 $1 Rounding radius*
0 $2 $3 $4 $5 $6 $7 $8 $9 X,Y pos of 4 corners*
0 Add a 4 corners polygon primitive as box body*
4,1,4,$2,$3,$4,$5,$6,$7,$8,$9,$2,$3,0*
0 Add four circle primitives for the rounded corners*
1,1,$1+$1,$2,$3*
1,1,$1+$1,$4,$5*
1,1,$1+$1,$6,$7*
1,1,$1+$1,$8,$9*
0 Add four rect primitives between the rounded corners*
20,1,$1+$1,$2,$3,$4,$5,0*
20,1,$1+$1,$4,$5,$6,$7,0*
20,1,$1+$1,$6,$7,$8,$9,0*
20,1,$1+$1,$8,$9,$2,$3,0*%
G04 Aperture macros list end*
%ADD10RoundRect,0.250000X-0.625000X0.350000X-0.625000X-0.350000X0.625000X-0.350000X0.625000X0.350000X0*%
%ADD11O,1.750000X1.200000*%
%ADD12R,1.350000X1.350000*%
%ADD13O,1.350000X1.350000*%
%ADD14R,1.700000X1.700000*%
%ADD15O,1.700000X1.700000*%
%ADD16C,0.800000*%
%ADD17C,6.400000*%
%ADD18RoundRect,0.250000X0.625000X-0.350000X0.625000X0.350000X-0.625000X0.350000X-0.625000X-0.350000X0*%
%ADD19R,0.850000X0.850000*%
%ADD20O,0.850000X0.850000*%
%ADD21RoundRect,0.237500X0.300000X0.237500X-0.300000X0.237500X-0.300000X-0.237500X0.300000X-0.237500X0*%
%ADD22RoundRect,0.237500X0.237500X-0.300000X0.237500X0.300000X-0.237500X0.300000X-0.237500X-0.300000X0*%
%ADD23RoundRect,0.237500X-0.300000X-0.237500X0.300000X-0.237500X0.300000X0.237500X-0.300000X0.237500X0*%
%ADD24RoundRect,0.237500X-0.237500X0.300000X-0.237500X-0.300000X0.237500X-0.300000X0.237500X0.300000X0*%
%ADD25R,1.000000X1.400000*%
G04 APERTURE END LIST*
D10*
X113483100Y-107508600D03*
D11*
X113483100Y-109508600D03*
D12*
X160679100Y-87906400D03*
D13*
X158679100Y-87906400D03*
X160679100Y-85906400D03*
X158679100Y-85906400D03*
X160679100Y-83906400D03*
X158679100Y-83906400D03*
X160679100Y-81906400D03*
X158679100Y-81906400D03*
X160679100Y-79906400D03*
X158679100Y-79906400D03*
D14*
X124937100Y-64683600D03*
D15*
X124937100Y-62143600D03*
X127477100Y-64683600D03*
X127477100Y-62143600D03*
X130017100Y-64683600D03*
X130017100Y-62143600D03*
X132557100Y-64683600D03*
X132557100Y-62143600D03*
X135097100Y-64683600D03*
X135097100Y-62143600D03*
X137637100Y-64683600D03*
X137637100Y-62143600D03*
X140177100Y-64683600D03*
X140177100Y-62143600D03*
X142717100Y-64683600D03*
X142717100Y-62143600D03*
X145257100Y-64683600D03*
X145257100Y-62143600D03*
X147797100Y-64683600D03*
X147797100Y-62143600D03*
X150337100Y-64683600D03*
X150337100Y-62143600D03*
X152877100Y-64683600D03*
X152877100Y-62143600D03*
X155417100Y-64683600D03*
X155417100Y-62143600D03*
X157957100Y-64683600D03*
X157957100Y-62143600D03*
X160497100Y-64683600D03*
X160497100Y-62143600D03*
X163037100Y-64683600D03*
X163037100Y-62143600D03*
X165577100Y-64683600D03*
X165577100Y-62143600D03*
X168117100Y-64683600D03*
X168117100Y-62143600D03*
X170657100Y-64683600D03*
X170657100Y-62143600D03*
X173197100Y-64683600D03*
X173197100Y-62143600D03*
D16*
X110865044Y-138105656D03*
X114962100Y-136408600D03*
X112562100Y-138808600D03*
X114259156Y-134711544D03*
X110162100Y-136408600D03*
D17*
X112562100Y-136408600D03*
D16*
X114259156Y-138105656D03*
X110865044Y-134711544D03*
X112562100Y-134008600D03*
D14*
X173026100Y-131659600D03*
D15*
X170486100Y-131659600D03*
X173026100Y-129119600D03*
X170486100Y-129119600D03*
D14*
X131233100Y-95727600D03*
D15*
X131233100Y-98267600D03*
X128693100Y-95727600D03*
X128693100Y-98267600D03*
D10*
X113520100Y-98786600D03*
D11*
X113520100Y-100786600D03*
D18*
X184912100Y-119176600D03*
D11*
X184912100Y-117176600D03*
D16*
X187259156Y-65105656D03*
X187259156Y-61711544D03*
X183865044Y-65105656D03*
X187962100Y-63408600D03*
X185562100Y-61008600D03*
D17*
X185562100Y-63408600D03*
D16*
X185562100Y-65808600D03*
X183162100Y-63408600D03*
X183865044Y-61711544D03*
X110865044Y-65105656D03*
X110162100Y-63408600D03*
X110865044Y-61711544D03*
X114962100Y-63408600D03*
X114259156Y-61711544D03*
X112562100Y-61008600D03*
D17*
X112562100Y-63408600D03*
D16*
X114259156Y-65105656D03*
X112562100Y-65808600D03*
D14*
X145848100Y-136953600D03*
D15*
X148388100Y-136953600D03*
X150928100Y-136953600D03*
D17*
X185562100Y-136408600D03*
D16*
X187259156Y-134711544D03*
X185562100Y-134008600D03*
X183162100Y-136408600D03*
X183865044Y-138105656D03*
X185562100Y-138808600D03*
X183865044Y-134711544D03*
X187962100Y-136408600D03*
X187259156Y-138105656D03*
D10*
X113483100Y-116128600D03*
D11*
X113483100Y-118128600D03*
D10*
X113483100Y-124891600D03*
D11*
X113483100Y-126891600D03*
D19*
X153961100Y-136953600D03*
D20*
X154961100Y-136953600D03*
D21*
X131785800Y-88366600D03*
X130060800Y-88366600D03*
X148854600Y-101066600D03*
X147129600Y-101066600D03*
D22*
X166407100Y-99008100D03*
X166407100Y-97283100D03*
X119696500Y-85520700D03*
X119696500Y-83795700D03*
D23*
X123053400Y-76946800D03*
X124778400Y-76946800D03*
D24*
X133133100Y-78283900D03*
X133133100Y-80008900D03*
D25*
X119897100Y-87985600D03*
X121697100Y-87985600D03*
D22*
X121703100Y-85520700D03*
X121703100Y-83795700D03*
D21*
X121422600Y-81915000D03*
X119697600Y-81915000D03*
M02*
