M48
; DRILL file {KiCad 7.0.2-6a45011f42~172~ubuntu20.04.1} date jue 04 may 2023 18:05:36
; FORMAT={-:-/ absolute / metric / decimal}
; #@! TF.CreationDate,2023-05-04T18:05:36+02:00
; #@! TF.GenerationSoftware,Kicad,Pcbnew,7.0.2-6a45011f42~172~ubuntu20.04.1
; #@! TF.FileFunction,Plated,1,4,PTH
FMAT,2
METRIC
; #@! TA.AperFunction,Plated,PTH,ViaDrill
T1C0.300
; #@! TA.AperFunction,Plated,PTH,ViaDrill
T2C0.400
; #@! TA.AperFunction,Plated,PTH,ComponentDrill
T3C0.500
; #@! TA.AperFunction,Plated,PTH,ComponentDrill
T4C0.750
; #@! TA.AperFunction,Plated,PTH,ComponentDrill
T5C0.800
; #@! TA.AperFunction,Plated,PTH,ComponentDrill
T6C1.000
; #@! TA.AperFunction,Plated,PTH,ComponentDrill
T7C3.200
%
G90
G05
T1
X152.818Y-126.305
X152.818Y-128.337
X154.342Y-126.305
X154.342Y-128.337
X174.284Y-72.045
X176.545Y-70.902
T2
X107.338Y-90.528
X107.352Y-91.542
X107.85Y-73.0
X108.368Y-89.002
X108.622Y-73.635
X109.129Y-93.028
X109.338Y-88.275
X109.385Y-72.745
X110.061Y-93.388
X110.266Y-59.216
X110.384Y-72.527
X111.055Y-59.83
X111.794Y-59.116
X114.134Y-77.114
X114.134Y-86.868
X116.026Y-74.996
X116.896Y-88.113
X117.04Y-74.778
X117.51Y-95.047
X117.665Y-88.752
X117.699Y-90.234
X117.766Y-73.635
X117.766Y-72.635
X118.655Y-90.526
X119.034Y-95.047
X119.534Y-135.865
X119.925Y-91.415
X120.256Y-69.821
X120.558Y-95.047
X120.656Y-90.733
X121.008Y-69.163
X121.068Y-133.325
X121.068Y-138.405
X122.278Y-69.163
X122.414Y-90.221
X122.414Y-91.796
X123.096Y-69.736
X123.227Y-80.958
X123.227Y-84.141
X123.227Y-85.141
X123.227Y-132.182
X123.227Y-139.548
X123.229Y-81.957
X123.421Y-78.435
X123.794Y-71.88
X124.421Y-78.435
X124.576Y-92.949
X124.779Y-82.941
X126.663Y-66.813
X127.477Y-67.393
X127.926Y-70.587
X127.926Y-107.417
X127.926Y-111.227
X127.926Y-115.037
X128.666Y-79.461
X128.88Y-71.159
X129.069Y-82.16
X129.069Y-83.16
X129.196Y-73.886
X129.923Y-74.893
X130.017Y-67.52
X130.196Y-73.895
X130.212Y-80.62
X130.229Y-71.159
X130.229Y-81.763
X130.432Y-86.868
X130.765Y-66.856
X131.212Y-80.62
X131.228Y-71.159
X131.228Y-81.763
X131.355Y-107.417
X131.355Y-111.227
X131.355Y-115.037
X131.431Y-86.868
X131.66Y-78.629
X131.66Y-79.629
X133.26Y-71.984
X133.895Y-115.037
X133.953Y-72.71
X134.784Y-96.257
X134.784Y-97.257
X134.784Y-98.273
X134.784Y-99.289
X134.784Y-100.288
X135.165Y-114.554
X135.933Y-98.786
X136.435Y-115.037
X136.689Y-84.049
X137.396Y-84.775
X137.427Y-81.647
X138.082Y-82.402
X138.467Y-79.858
X138.594Y-132.909
X138.724Y-91.095
X138.975Y-115.037
X139.174Y-80.584
X139.737Y-87.986
X139.737Y-94.082
X140.972Y-73.709
X141.134Y-132.909
X141.769Y-87.986
X141.769Y-94.082
X143.674Y-132.909
X145.417Y-82.396
X145.528Y-101.067
X146.171Y-81.739
X146.873Y-135.206
X146.976Y-122.749
X146.976Y-123.748
X146.976Y-127.194
X147.475Y-69.798
X148.881Y-67.793
X149.588Y-67.086
X149.611Y-59.756
X150.024Y-131.639
X150.337Y-58.994
X150.373Y-124.607
X150.38Y-125.607
X150.532Y-101.067
X150.786Y-132.655
X150.913Y-67.285
X151.62Y-66.578
X152.151Y-59.766
X152.383Y-72.71
X152.822Y-83.307
X152.877Y-59.03
X152.945Y-66.65
X153.002Y-69.96
X153.266Y-72.211
X153.52Y-84.022
X153.58Y-122.911
X153.71Y-135.065
X153.798Y-65.923
X153.892Y-70.53
X154.799Y-132.871
X154.805Y-131.871
X155.221Y-121.199
X155.531Y-71.453
X155.866Y-124.273
X155.938Y-70.54
X155.993Y-97.892
X156.497Y-76.489
X156.504Y-122.591
X156.606Y-128.816
X156.882Y-131.893
X156.91Y-132.92
X157.085Y-97.892
X157.407Y-123.782
X157.441Y-77.216
X157.647Y-122.591
X157.882Y-131.902
X157.91Y-132.918
X158.114Y-124.488
X158.152Y-97.892
X158.917Y-121.194
X159.295Y-129.48
X159.295Y-131.893
X159.295Y-134.433
X159.838Y-127.28
X160.553Y-126.582
X161.716Y-69.498
X162.47Y-68.842
X162.47Y-77.191
X162.47Y-129.48
X162.47Y-131.893
X162.47Y-134.433
X163.486Y-67.412
X163.486Y-77.826
X164.213Y-68.147
X165.264Y-66.65
X165.264Y-78.969
X165.991Y-67.356
X166.239Y-107.296
X166.407Y-95.86
X166.407Y-100.432
X167.197Y-72.629
X167.931Y-93.193
X168.111Y-73.327
X169.864Y-72.527
X169.957Y-73.722
X170.797Y-76.754
X171.744Y-77.252
X172.503Y-70.206
X173.316Y-103.175
X173.316Y-104.267
X173.316Y-105.334
X173.392Y-112.37
X173.392Y-117.069
X173.392Y-125.289
X174.916Y-110.338
X175.932Y-117.069
X175.932Y-125.289
X177.202Y-109.068
X177.507Y-76.759
X178.472Y-117.069
X178.472Y-125.289
X179.355Y-70.206
X179.488Y-110.338
X180.227Y-77.954
X181.008Y-60.673
X181.012Y-112.37
X181.012Y-117.069
X181.012Y-125.289
X181.015Y-59.599
X181.901Y-74.143
X182.666Y-73.442
X183.832Y-80.696
X184.839Y-127.321
X185.838Y-127.329
X186.346Y-75.184
T3
X110.162Y-63.409
X110.162Y-136.409
X110.865Y-61.712
X110.865Y-65.106
X110.865Y-134.712
X110.865Y-138.106
X112.562Y-61.009
X112.562Y-65.809
X112.562Y-134.009
X112.562Y-138.809
X114.259Y-61.712
X114.259Y-65.106
X114.259Y-134.712
X114.259Y-138.106
X114.962Y-63.409
X114.962Y-136.409
X153.961Y-136.954
X154.961Y-136.954
X183.162Y-63.409
X183.162Y-136.409
X183.865Y-61.712
X183.865Y-65.106
X183.865Y-134.712
X183.865Y-138.106
X185.562Y-61.009
X185.562Y-65.809
X185.562Y-134.009
X185.562Y-138.809
X187.259Y-61.712
X187.259Y-65.106
X187.259Y-134.712
X187.259Y-138.106
X187.962Y-63.409
X187.962Y-136.409
T4
X113.483Y-107.509
X113.483Y-109.509
X113.483Y-116.129
X113.483Y-118.129
X113.483Y-124.892
X113.483Y-126.892
X113.52Y-98.787
X113.52Y-100.787
X184.912Y-117.177
X184.912Y-119.177
T5
X158.679Y-79.906
X158.679Y-81.906
X158.679Y-83.906
X158.679Y-85.906
X158.679Y-87.906
X160.679Y-79.906
X160.679Y-81.906
X160.679Y-83.906
X160.679Y-85.906
X160.679Y-87.906
T6
X124.937Y-62.144
X124.937Y-64.684
X127.477Y-62.144
X127.477Y-64.684
X128.693Y-95.728
X128.693Y-98.268
X130.017Y-62.144
X130.017Y-64.684
X131.233Y-95.728
X131.233Y-98.268
X132.557Y-62.144
X132.557Y-64.684
X135.097Y-62.144
X135.097Y-64.684
X137.637Y-62.144
X137.637Y-64.684
X140.177Y-62.144
X140.177Y-64.684
X142.717Y-62.144
X142.717Y-64.684
X145.257Y-62.144
X145.257Y-64.684
X145.848Y-136.954
X147.797Y-62.144
X147.797Y-64.684
X148.388Y-136.954
X150.337Y-62.144
X150.337Y-64.684
X150.928Y-136.954
X152.877Y-62.144
X152.877Y-64.684
X155.417Y-62.144
X155.417Y-64.684
X157.957Y-62.144
X157.957Y-64.684
X160.497Y-62.144
X160.497Y-64.684
X163.037Y-62.144
X163.037Y-64.684
X165.577Y-62.144
X165.577Y-64.684
X168.117Y-62.144
X168.117Y-64.684
X170.486Y-129.12
X170.486Y-131.66
X170.657Y-62.144
X170.657Y-64.684
X173.026Y-129.12
X173.026Y-131.66
X173.197Y-62.144
X173.197Y-64.684
T7
X112.562Y-63.409
X112.562Y-136.409
X185.562Y-63.409
X185.562Y-136.409
T0
M30
